<svg width="60" height="61" viewBox="0 0 60 61" fill="none" xmlns="http://www.w3.org/2000/svg">
<path d="M18.7598 43.6763H56.2598V32.4263H18.7598V43.6763ZM48.7598 37.1138C48.7598 36.5956 49.1791 36.1763 49.6973 36.1763C50.2155 36.1763 50.6348 36.5956 50.6348 37.1138V38.9888C50.6348 39.507 50.2155 39.9263 49.6973 39.9263C49.1791 39.9263 48.7598 39.507 48.7598 38.9888V37.1138ZM45.0098 37.1138C45.0098 36.5956 45.4291 36.1763 45.9473 36.1763C46.4655 36.1763 46.8848 36.5956 46.8848 37.1138V38.9888C46.8848 39.507 46.4655 39.9263 45.9473 39.9263C45.4291 39.9263 45.0098 39.507 45.0098 38.9888V37.1138ZM41.2598 37.1138C41.2598 36.5956 41.6791 36.1763 42.1973 36.1763C42.7155 36.1763 43.1348 36.5956 43.1348 37.1138V38.9888C43.1348 39.507 42.7155 39.9263 42.1973 39.9263C41.6791 39.9263 41.2598 39.507 41.2598 38.9888V37.1138ZM37.5098 37.1138C37.5098 36.5956 37.9291 36.1763 38.4473 36.1763C38.9655 36.1763 39.3848 36.5956 39.3848 37.1138V38.9888C39.3848 39.507 38.9655 39.9263 38.4473 39.9263C37.9291 39.9263 37.5098 39.507 37.5098 38.9888V37.1138Z" fill="black"/>
<path d="M50.6348 19.3013H24.3848C21.283 19.3013 18.7598 21.8245 18.7598 24.9263V30.5513H56.2598V24.9263C56.2598 21.8245 53.7366 19.3013 50.6348 19.3013ZM39.3848 25.8638C39.3848 26.382 38.9655 26.8013 38.4473 26.8013C37.9291 26.8013 37.5098 26.382 37.5098 25.8638V23.9888C37.5098 23.4706 37.9291 23.0513 38.4473 23.0513C38.9655 23.0513 39.3848 23.4706 39.3848 23.9888V25.8638ZM43.1348 25.8638C43.1348 26.382 42.7155 26.8013 42.1973 26.8013C41.6791 26.8013 41.2598 26.382 41.2598 25.8638V23.9888C41.2598 23.4706 41.6791 23.0513 42.1973 23.0513C42.7155 23.0513 43.1348 23.4706 43.1348 23.9888V25.8638ZM46.8848 25.8638C46.8848 26.382 46.4655 26.8013 45.9473 26.8013C45.4291 26.8013 45.0098 26.382 45.0098 25.8638V23.9888C45.0098 23.4706 45.4291 23.0513 45.9473 23.0513C46.4655 23.0513 46.8848 23.4706 46.8848 23.9888V25.8638ZM50.6348 25.8638C50.6348 26.382 50.2155 26.8013 49.6973 26.8013C49.1791 26.8013 48.7598 26.382 48.7598 25.8638V23.9888C48.7598 23.4706 49.1791 23.0513 49.6973 23.0513C50.2155 23.0513 50.6348 23.4706 50.6348 23.9888V25.8638Z" fill="black"/>
<path d="M18.7598 51.1763C18.7598 54.2781 21.283 56.8013 24.3848 56.8013H50.6348C53.7366 56.8013 56.2598 54.2781 56.2598 51.1763V45.5513H18.7598V51.1763ZM48.7598 50.2388C48.7598 49.7206 49.1791 49.3013 49.6973 49.3013C50.2155 49.3013 50.6348 49.7206 50.6348 50.2388V52.1138C50.6348 52.632 50.2155 53.0513 49.6973 53.0513C49.1791 53.0513 48.7598 52.632 48.7598 52.1138V50.2388ZM45.0098 50.2388C45.0098 49.7206 45.4291 49.3013 45.9473 49.3013C46.4655 49.3013 46.8848 49.7206 46.8848 50.2388V52.1138C46.8848 52.632 46.4655 53.0513 45.9473 53.0513C45.4291 53.0513 45.0098 52.632 45.0098 52.1138V50.2388ZM41.2598 50.2388C41.2598 49.7206 41.6791 49.3013 42.1973 49.3013C42.7155 49.3013 43.1348 49.7206 43.1348 50.2388V52.1138C43.1348 52.632 42.7155 53.0513 42.1973 53.0513C41.6791 53.0513 41.2598 52.632 41.2598 52.1138V50.2388ZM37.5098 50.2388C37.5098 49.7206 37.9291 49.3013 38.4473 49.3013C38.9655 49.3013 39.3848 49.7206 39.3848 50.2388V52.1138C39.3848 52.632 38.9655 53.0513 38.4473 53.0513C37.9291 53.0513 37.5098 52.632 37.5098 52.1138V50.2388Z" fill="black"/>
<path d="M24.3848 15.5513C26.4812 15.5513 28.3968 16.2635 29.9583 17.4263H39.8406L41.6205 15.6456C42.3529 14.9131 42.3529 13.7266 41.6205 12.9942L36.3168 7.69055C35.5844 6.95813 34.3979 6.95813 33.6655 7.69055L31.6467 9.70837C31.1139 9.45477 30.5682 9.22864 30.0098 9.03088V6.17627C30.0098 5.14081 29.1702 4.30127 28.1348 4.30127H20.6348C19.5993 4.30127 18.7598 5.14081 18.7598 6.17627V9.03088C18.2013 9.22864 17.6556 9.45477 17.1228 9.70837L15.1041 7.69055C14.3716 6.95813 13.1851 6.95813 12.4527 7.69055L7.14905 12.9942C6.41663 13.7266 6.41663 14.9131 7.14905 15.6456L9.16687 17.6643C8.91327 18.1971 8.68713 18.7428 8.48938 19.3013H5.63477C4.5993 19.3013 3.75977 20.1408 3.75977 21.1763V28.6763C3.75977 29.7117 4.5993 30.5513 5.63477 30.5513H8.48938C8.68713 31.1097 8.91327 31.6554 9.16687 32.1882L7.14905 34.207C6.41663 34.9394 6.41663 36.1259 7.14905 36.8583L12.4527 42.162C13.1851 42.8944 14.3716 42.8944 15.1041 42.162L16.8848 40.3821V32.4263V30.5513V30.4998C15.722 28.9383 15.0098 27.0227 15.0098 24.9263C15.0098 19.7486 19.2071 15.5513 24.3848 15.5513Z" fill="black"/>
</svg>
