<svg width="60" height="61" viewBox="0 0 60 61" fill="none" xmlns="http://www.w3.org/2000/svg">
<path d="M48.7698 45.5513H46.8848H44.9997C42.162 45.5513 39.7178 47.156 38.4473 49.4883C37.1767 47.156 34.7325 45.5513 31.8948 45.5513H30.0098H28.1247C25.287 45.5513 22.8428 47.156 21.5723 49.4883C20.3017 47.156 17.8575 45.5513 15.0198 45.5513H13.1348H11.2497C7.11975 45.5513 3.75977 48.9113 3.75977 53.0412V54.9263C3.75977 55.9617 4.5993 56.8013 5.63477 56.8013H22.5098H37.5098H54.3848C55.4202 56.8013 56.2598 55.9617 56.2598 54.9263V53.0412C56.2598 48.9113 52.8998 45.5513 48.7698 45.5513Z" fill="black"/>
<path d="M18.7598 39.9263C18.7598 37.461 17.1555 35.3842 14.9441 34.6263C14.964 34.5168 15.0098 34.4165 15.0098 34.3013V32.4263H28.1348V34.3013C28.1348 34.4166 28.1805 34.5168 28.2005 34.6263C25.989 35.3842 24.3848 37.461 24.3848 39.9263C24.3848 43.0281 26.908 45.5513 30.0098 45.5513C33.1116 45.5513 35.6348 43.0281 35.6348 39.9263C35.6348 37.461 34.0305 35.3842 31.8191 34.6263C31.839 34.5168 31.8848 34.4165 31.8848 34.3013V32.4263H45.0098V34.3013C45.0098 34.4166 45.0555 34.5168 45.0755 34.6263C42.864 35.3842 41.2598 37.461 41.2598 39.9263C41.2598 43.0281 43.783 45.5513 46.8848 45.5513C49.9866 45.5513 52.5098 43.0281 52.5098 39.9263C52.5098 37.461 50.9055 35.3842 48.6941 34.6263C48.714 34.5168 48.7598 34.4165 48.7598 34.3013V30.5513C48.7598 29.5158 47.9202 28.6763 46.8848 28.6763H31.8848V26.8022H37.5098C38.5452 26.8022 39.3848 25.9626 39.3848 24.9272V9.92719C39.3848 9.43005 39.187 8.95306 38.8354 8.6015L35.0854 4.85059C34.7339 4.49902 34.2569 4.30127 33.7598 4.30127H22.5098C21.4743 4.30127 20.6348 5.14081 20.6348 6.17627V24.9272C20.6348 25.9626 21.4743 26.8022 22.5098 26.8022H28.1348V28.6763H13.1348C12.0993 28.6763 11.2598 29.5158 11.2598 30.5513V34.3013C11.2598 34.4166 11.3055 34.5168 11.3255 34.6263C9.114 35.3842 7.50977 37.461 7.50977 39.9263C7.50977 43.0281 10.033 45.5513 13.1348 45.5513C16.2366 45.5513 18.7598 43.0281 18.7598 39.9263ZM25.3223 9.92719H34.6973C35.2155 9.92719 35.6348 10.3465 35.6348 10.8647C35.6348 11.3829 35.2155 11.8022 34.6973 11.8022H25.3223C24.8041 11.8022 24.3848 11.3829 24.3848 10.8647C24.3848 10.3465 24.8041 9.92719 25.3223 9.92719ZM25.3223 13.6772H34.6973C35.2155 13.6772 35.6348 14.0965 35.6348 14.6147C35.6348 15.1329 35.2155 15.5522 34.6973 15.5522H25.3223C24.8041 15.5522 24.3848 15.1329 24.3848 14.6147C24.3848 14.0965 24.8041 13.6772 25.3223 13.6772ZM25.3223 17.4272H34.6973C35.2155 17.4272 35.6348 17.8465 35.6348 18.3647C35.6348 18.8829 35.2155 19.3022 34.6973 19.3022H25.3223C24.8041 19.3022 24.3848 18.8829 24.3848 18.3647C24.3848 17.8465 24.8041 17.4272 25.3223 17.4272ZM25.3223 23.0522C24.8041 23.0522 24.3848 22.6329 24.3848 22.1147C24.3848 21.5965 24.8041 21.1772 25.3223 21.1772H34.6973C35.2155 21.1772 35.6348 21.5965 35.6348 22.1147C35.6348 22.6329 35.2155 23.0522 34.6973 23.0522H25.3223Z" fill="black"/>
</svg>
