<svg width="60" height="61" viewBox="0 0 60 61" fill="none" xmlns="http://www.w3.org/2000/svg">
<g clip-path="url(#clip0_100_6021)">
<path d="M52.1624 36.1232V24.9794C54.8665 24.212 56.8536 21.7224 56.8536 18.7758C56.8536 15.2197 53.9605 12.3269 50.4046 12.3269C48.66 12.3269 47.0762 13.0242 45.9141 14.1535L36.2614 8.58061C36.3893 8.07471 36.458 7.54549 36.458 7.00045C36.458 3.44439 33.565 0.55127 30.0089 0.55127C26.4529 0.55127 23.5598 3.44439 23.5598 7.00033C23.5598 7.54537 23.6285 8.07459 23.7564 8.58049L14.1038 14.1533C12.9416 13.0241 11.3577 12.3267 9.61313 12.3267C6.05707 12.3267 3.16406 15.2197 3.16406 18.7757C3.16406 21.7224 5.15121 24.2119 7.85531 24.9792V36.1231C5.15121 36.8904 3.16406 39.3801 3.16406 42.3266C3.16406 45.8827 6.05707 48.7756 9.61313 48.7756C11.3577 48.7756 12.9416 48.0782 14.1036 46.949L23.7563 52.5218C23.6284 53.0277 23.5597 53.5569 23.5597 54.102C23.5598 57.6583 26.4529 60.5513 30.0089 60.5513C33.565 60.5513 36.458 57.6581 36.458 54.1022C36.458 53.5572 36.3893 53.028 36.2614 52.5221L45.9141 46.9492C47.0762 48.0784 48.66 48.7758 50.4046 48.7758C53.9606 48.7758 56.8536 45.8828 56.8536 42.3269C56.8536 39.3802 54.8665 36.8905 52.1624 36.1232ZM31.7667 47.8987V43.3305C31.1889 43.4087 30.602 43.4494 30.0089 43.4494C29.4158 43.4494 28.8289 43.4087 28.2511 43.3305V47.8987C27.2094 48.1943 26.2745 48.7451 25.5183 49.4799L15.8657 43.907C15.9935 43.4011 16.0622 42.8719 16.0622 42.3269C16.0622 41.7818 15.9935 41.2525 15.8657 40.7466L19.8203 38.4634C19.0905 37.5277 18.5002 36.5049 18.0586 35.4211L14.1038 37.7044C13.3475 36.9696 12.4127 36.4188 11.3711 36.1232V24.9794C12.4127 24.6837 13.3477 24.133 14.1038 23.3981L18.0586 25.6814C18.5002 24.5976 19.0905 23.5749 19.8203 22.6391L15.8658 20.356C15.9937 19.8501 16.0623 19.3208 16.0623 18.7757C16.0623 18.2306 15.9936 17.7014 15.8658 17.1955L25.5184 11.6227C26.2746 12.3574 27.2094 12.9082 28.2512 13.2039V17.7721C28.8291 17.6938 29.4159 17.6531 30.009 17.6531C30.6021 17.6531 31.189 17.6938 31.7668 17.7721V13.2039C32.8085 12.9082 33.7434 12.3574 34.4996 11.6227L44.1523 17.1955C44.0244 17.7014 43.9557 18.2306 43.9557 18.7757C43.9557 19.3207 44.0244 19.8501 44.1523 20.356L40.1977 22.6391C40.9274 23.5749 41.5178 24.5977 41.9593 25.6814L45.9142 23.3981C46.6703 24.1329 47.6052 24.6837 48.6469 24.9794V36.1232C47.6052 36.4188 46.6704 36.9695 45.9142 37.7044L41.9593 35.4211C41.5178 36.505 40.9274 37.5277 40.1977 38.4634L44.1521 40.7466C44.0242 41.2525 43.9556 41.7817 43.9556 42.3269C43.9556 42.8719 44.0242 43.4011 44.1521 43.907L34.4995 49.4799C33.7433 48.745 32.8084 48.1942 31.7667 47.8987Z" fill="black"/>
<path d="M30.0095 39.9337C35.1913 39.9337 39.392 35.733 39.392 30.5512C39.392 25.3694 35.1913 21.1687 30.0095 21.1687C24.8276 21.1687 20.627 25.3694 20.627 30.5512C20.627 35.733 24.8276 39.9337 30.0095 39.9337Z" fill="black"/>
</g>
<defs>
<clipPath id="clip0_100_6021">
<rect width="60" height="60" fill="white" transform="translate(0.00976562 0.55127)"/>
</clipPath>
</defs>
</svg>
