<svg width="60" height="61" viewBox="0 0 60 61" fill="none" xmlns="http://www.w3.org/2000/svg">
<path fill-rule="evenodd" clip-rule="evenodd" d="M47.4343 10.5851C48.0292 10.7372 48.5905 10.9726 49.1055 11.278L51.1973 9.7635L52.8711 11.4373L51.3566 13.5291C51.662 14.044 51.8973 14.6054 52.0495 15.2002L54.5988 15.6082V17.9753L52.0496 18.3833C51.8975 18.9781 51.6621 19.5395 51.3566 20.0544L52.8711 22.1462L51.1973 23.82L49.1055 22.3055C48.5905 22.6109 48.0292 22.8462 47.4345 22.9984L47.0264 25.5477H44.6592L44.2512 22.9985C43.6563 22.8464 43.095 22.611 42.58 22.3055L40.4882 23.82L38.8144 22.1462L40.3289 20.0544C40.0235 19.5395 39.7882 18.9781 39.6361 18.3833L37.0867 17.9753V15.6082L39.6361 15.2001C39.7882 14.6053 40.0235 14.044 40.3289 13.529L38.8144 11.4372L40.4882 9.76338L42.5798 11.2778C43.0949 10.9724 43.6562 10.737 44.2511 10.5849L44.6591 8.03568H47.0263L47.4343 10.5851ZM21.6507 6.95369H33.6513C34.1691 6.95369 34.5888 7.37346 34.5888 7.89119C34.5888 8.40893 34.1691 8.82869 33.6513 8.82869H21.6507C21.133 8.82869 20.7132 8.40893 20.7132 7.89119C20.7132 7.37346 21.1329 6.95369 21.6507 6.95369ZM40.2928 26.2766L36.3581 22.3419L38.0347 20.0262L35.2117 19.5743V14.0098L38.0347 13.5578L36.358 11.2421L40.2927 7.30736L42.6084 8.98396L42.9255 7.00256H39.5557C39.038 7.00256 38.6182 6.58279 38.6182 6.06506V1.48877H15.8868V38.0973H44.1321V27.4231H43.0604L42.6086 24.6L40.2928 26.2766ZM33.2729 21.7337C33.7907 21.7337 34.2104 22.1535 34.2104 22.6712C34.2104 23.189 33.7907 23.6087 33.2729 23.6087H21.6507C21.133 23.6087 20.7132 23.189 20.7132 22.6712C20.7132 22.1535 21.133 21.7337 21.6507 21.7337H33.2729ZM33.2729 16.8069C33.7907 16.8069 34.2104 17.2267 34.2104 17.7444C34.2104 18.2622 33.7907 18.6819 33.2729 18.6819H21.6507C21.133 18.6819 20.7132 18.2622 20.7132 17.7444C20.7132 17.2267 21.133 16.8069 21.6507 16.8069H33.2729ZM21.6507 11.8804H33.6513C34.1691 11.8804 34.5888 12.3001 34.5888 12.8179C34.5888 13.3356 34.1691 13.7554 33.6513 13.7554C30.1493 13.7554 25.1528 13.7554 21.6507 13.7554C21.133 13.7554 20.7132 13.3356 20.7132 12.8179C20.7132 12.3001 21.1329 11.8804 21.6507 11.8804ZM21.6507 26.6603H38.3681C38.8859 26.6603 39.3056 27.0801 39.3056 27.5978C39.3056 28.1155 38.8859 28.5353 38.3681 28.5353H21.6507C21.133 28.5353 20.7132 28.1155 20.7132 27.5978C20.7132 27.0801 21.1329 26.6603 21.6507 26.6603ZM20.7132 32.5245C20.7132 32.0067 21.133 31.587 21.6507 31.587H38.3681C38.8859 31.587 39.3056 32.0067 39.3056 32.5245C39.3056 33.0422 38.8859 33.462 38.3681 33.462H21.6507C21.1329 33.462 20.7132 33.0422 20.7132 32.5245ZM22.2813 54.4617H16.5266C14.7533 54.4617 13.3025 55.6208 13.3025 57.0378V59.6138H46.7164V57.0378C46.7164 55.621 45.2657 54.4617 43.4924 54.4617H37.7377V48.4551H50.8184C52.8977 48.4551 54.5991 46.7537 54.5991 44.6744V23.0705L51.4376 26.232V42.0865H8.58141V18.5703C8.58141 18.2819 8.81731 18.046 9.1057 18.046H14.0116V14.8845H9.20063C7.12125 14.8845 5.41992 16.5858 5.41992 18.6652V44.6744C5.41992 46.7537 7.12125 48.4551 9.20063 48.4551H22.2813V54.4617ZM40.4932 2.42627L43.1945 5.12756H40.4932V2.42627ZM45.8427 13.2944C43.9111 13.2944 42.3451 14.8603 42.3451 16.7919C42.3451 18.7237 43.911 20.2895 45.8427 20.2895C47.7743 20.2895 49.3403 18.7235 49.3403 16.7919C49.3403 14.8603 47.7743 13.2944 45.8427 13.2944Z" fill="black"/>
</svg>
