<svg width="66" height="61" viewBox="0 0 66 61" fill="none" xmlns="http://www.w3.org/2000/svg">
<g clip-path="url(#clip0_100_6009)">
<g clip-path="url(#clip1_100_6009)">
<path d="M33.9766 49.4723V43.1571C35.3945 43.204 36.7504 43.3493 38.009 43.586C37.743 44.4602 37.4348 45.2665 37.082 45.9872C36.2184 47.7719 35.1391 49.0211 33.9766 49.4723ZM39.0156 37.1887H33.9766V41.2211C35.5539 41.2715 37.0691 41.4403 38.4871 41.7133C38.7801 40.3141 38.9629 38.7895 39.0156 37.1887ZM26.1238 44.0219C24.9648 44.3407 23.9148 44.7426 23.0113 45.2043C23.1707 45.3801 23.3371 45.5559 23.5059 45.7258C24.8781 47.0981 26.5457 48.1739 28.409 48.8547C27.9672 48.2606 27.5617 47.5786 27.1961 46.8286C26.7883 45.9848 26.4262 45.0415 26.1238 44.0219ZM38.4871 30.7235C37.0691 30.9954 35.5539 31.1688 33.9766 31.218V35.2504H39.0156C38.9629 33.6508 38.7801 32.1262 38.4871 30.7235ZM40.368 42.1516C41.8059 42.5465 43.102 43.0586 44.2082 43.6563C45.4574 41.779 46.2473 39.5676 46.4172 37.1887H40.9527C40.8953 38.9383 40.6938 40.6094 40.368 42.1516ZM37.082 26.4485C36.2184 24.6684 35.1391 23.4192 33.9766 22.9633V29.2821C35.3945 29.2352 36.7504 29.0864 38.009 28.8532C37.743 27.9801 37.4348 27.1727 37.082 26.4485ZM27.5324 41.7122C28.948 41.4403 30.4656 41.2704 32.043 41.22V37.1875H27.0039C27.0566 38.7895 27.2395 40.3141 27.5324 41.7122ZM38.8199 46.8286C38.4578 47.5797 38.0523 48.2606 37.6105 48.8547C39.4703 48.1739 41.1414 47.0969 42.5137 45.7258C42.6836 45.5559 42.8488 45.3801 43.0082 45.2043C42.1012 44.7426 41.0547 44.3407 39.8957 44.0219C39.5934 45.0415 39.2312 45.9848 38.8199 46.8286ZM40.9527 35.2516H46.4172C46.2473 32.8704 45.4574 30.6614 44.2082 28.784C43.102 29.3817 41.807 29.8903 40.368 30.2887C40.6938 31.8297 40.8953 33.5008 40.9527 35.2516ZM39.8957 28.4184C41.0547 28.0961 42.1012 27.6977 43.0082 27.236C42.8488 27.0567 42.6824 26.8844 42.5137 26.7145C41.1414 25.3387 39.4703 24.2629 37.6105 23.5856C38.0523 24.1797 38.4578 24.8583 38.8199 25.6118C39.2312 26.4555 39.5934 27.3989 39.8957 28.4184ZM28.9375 45.9883C29.8012 47.7719 30.877 49.0211 32.043 49.4735V43.1582C30.6215 43.2051 29.2691 43.3504 28.007 43.5872C28.273 44.4602 28.5848 45.2665 28.9375 45.9883ZM3.00977 17.6055H63.0098V49.6516C63.0098 53.0336 60.243 55.8004 56.8574 55.8004H9.15859C5.77773 55.8004 3.00977 53.0336 3.00977 49.6516L3.00977 17.6055ZM17.6324 36.2184C17.6324 40.4665 19.3527 44.3102 22.1371 47.0946C24.918 49.8754 28.7641 51.5957 33.0098 51.5957C37.2555 51.5957 41.098 49.8754 43.8824 47.0946C46.6656 44.3114 48.3871 40.4676 48.3871 36.2184C48.3871 31.9727 46.6668 28.1301 43.8824 25.3458C41.0992 22.5625 37.2555 20.8411 33.0098 20.8411C28.7641 20.8411 24.918 22.5614 22.1371 25.3458C19.3539 28.1301 17.6324 31.9727 17.6324 36.2184ZM25.0668 37.1887H19.6023C19.7723 39.5676 20.5586 41.779 21.8113 43.6563C22.9141 43.0586 24.2125 42.5465 25.6516 42.1516C25.3258 40.6094 25.1242 38.9383 25.0668 37.1887ZM27.0039 35.2516H32.043V31.2192C30.4656 31.1688 28.9469 30.9965 27.5324 30.7247C27.2395 32.1262 27.0566 33.6508 27.0039 35.2516ZM63.0098 11.4508V15.6696H3.00977V11.4508C3.00977 8.0688 5.77656 5.302 9.15859 5.302H56.8574C60.2418 5.302 63.0098 8.0688 63.0098 11.4508ZM13.9387 10.9692C13.9387 10.4348 13.5063 10.0024 12.9719 10.0024H12.2406C11.7062 10.0024 11.2738 10.4348 11.2738 10.9692C11.2738 11.5036 11.7062 11.936 12.2406 11.936H12.9719C13.5074 11.936 13.9387 11.5036 13.9387 10.9692ZM18.9156 10.9692C18.9156 10.4348 18.4809 10.0024 17.9453 10.0024H17.2141C16.6797 10.0024 16.2473 10.4348 16.2473 10.9692C16.2473 11.5036 16.6797 11.936 17.2141 11.936H17.9453C18.4797 11.936 18.9156 11.5036 18.9156 10.9692ZM54.7445 10.9692C54.7445 10.4348 54.3121 10.0024 53.7777 10.0024H22.1043C21.5723 10.0024 21.1375 10.4348 21.1375 10.9692C21.1375 11.5036 21.5723 11.936 22.1043 11.936H53.7777C54.3133 11.936 54.7445 11.5036 54.7445 10.9692ZM32.043 29.2821V22.9633C30.877 23.418 29.8012 24.6672 28.9375 26.4485C28.5859 27.1727 28.273 27.9801 28.007 28.8532C29.2691 29.0864 30.6215 29.2352 32.043 29.2821ZM25.6516 30.2887C24.2137 29.8903 22.9141 29.3817 21.8113 28.784C20.5586 30.6614 19.7723 32.8704 19.6023 35.2516H25.0668C25.1242 33.5008 25.3258 31.8297 25.6516 30.2887ZM27.1961 25.6118C27.5617 24.8583 27.9672 24.1797 28.409 23.5856C26.5457 24.2629 24.8781 25.3399 23.5059 26.7145C23.3359 26.8844 23.1707 27.0567 23.0113 27.236C23.9148 27.6977 24.9648 28.0961 26.1238 28.4184C26.4262 27.3989 26.7883 26.4555 27.1961 25.6118Z" fill="black"/>
</g>
</g>
<defs>
<clipPath id="clip0_100_6009">
<rect width="66" height="60" fill="white" transform="translate(0.00976562 0.55127)"/>
</clipPath>
<clipPath id="clip1_100_6009">
<rect width="60" height="60" fill="white" transform="translate(3.00977 0.55127)"/>
</clipPath>
</defs>
</svg>
