<svg width="60" height="61" viewBox="0 0 60 61" fill="none" xmlns="http://www.w3.org/2000/svg">
<path d="M2.50977 35.3384H57.5098V60.3384H40.0098V50.3384C40.0098 44.8234 35.5248 40.3384 30.0098 40.3384C24.4948 40.3384 20.0098 44.8234 20.0098 50.3384V60.3384H2.50977V35.3384ZM60.0098 26.4784V30.3384H0.00976562V26.4784L7.63227 17.8384H17.5098C17.5098 11.8034 21.8123 6.75088 27.5098 5.59088V0.338379H32.5098V5.59088C38.2073 6.75338 42.5098 11.8034 42.5098 17.8384H52.3873L60.0098 26.4784ZM35.0098 17.8384C35.0098 15.0759 32.7723 12.8384 30.0098 12.8384C27.2473 12.8384 25.0098 15.0759 25.0098 17.8384C25.0098 20.6009 27.2473 22.8384 30.0098 22.8384C32.7723 22.8384 35.0098 20.6009 35.0098 17.8384Z" fill="black"/>
</svg>
