<svg width="60" height="61" viewBox="0 0 60 61" fill="none" xmlns="http://www.w3.org/2000/svg">
<g clip-path="url(#clip0_100_5731)">
<path d="M45.0098 0.55127H15.0098C10.8748 0.55127 7.50977 3.91627 7.50977 8.05127V60.5513H25.0098V45.5513H17.5098V40.5513H42.5098V45.5513H35.0098V60.5513H52.5098V8.05127C52.5098 3.91627 49.1448 0.55127 45.0098 0.55127ZM22.5098 35.5513H17.5098V30.5513H22.5098V35.5513ZM22.5098 25.5513H17.5098V20.5513H22.5098V25.5513ZM22.5098 15.5513H17.5098V10.5513H22.5098V15.5513ZM32.5098 35.5513H27.5098V30.5513H32.5098V35.5513ZM32.5098 25.5513H27.5098V20.5513H32.5098V25.5513ZM32.5098 15.5513H27.5098V10.5513H32.5098V15.5513ZM42.5098 35.5513H37.5098V30.5513H42.5098V35.5513ZM42.5098 25.5513H37.5098V20.5513H42.5098V25.5513ZM42.5098 15.5513H37.5098V10.5513H42.5098V15.5513Z" fill="black"/>
</g>
<defs>
<clipPath id="clip0_100_5731">
<rect width="60" height="60" fill="white" transform="translate(0.00976562 0.55127)"/>
</clipPath>
</defs>
</svg>
