<svg width="60" height="61" viewBox="0 0 60 61" fill="none" xmlns="http://www.w3.org/2000/svg">
<path fill-rule="evenodd" clip-rule="evenodd" d="M56.8848 8.05127C56.8848 6.89127 56.4248 5.77877 55.6023 4.95877C54.7823 4.13627 53.6698 3.67627 52.5098 3.67627C43.9748 3.67627 16.0448 3.67627 7.50977 3.67627C6.34977 3.67627 5.23727 4.13627 4.41727 4.95877C3.59477 5.77877 3.13477 6.89127 3.13477 8.05127V15.5513C3.13477 16.7113 3.59477 17.8238 4.41727 18.6438C5.23727 19.4663 6.34977 19.9263 7.50977 19.9263H52.5098C53.6698 19.9263 54.7823 19.4663 55.6023 18.6438C56.4248 17.8238 56.8848 16.7113 56.8848 15.5513V8.05127ZM13.7598 9.30127C15.1398 9.30127 16.2598 10.4213 16.2598 11.8013C16.2598 13.1813 15.1398 14.3013 13.7598 14.3013C12.3798 14.3013 11.2598 13.1813 11.2598 11.8013C11.2598 10.4213 12.3798 9.30127 13.7598 9.30127ZM22.5098 9.30127C23.8898 9.30127 25.0098 10.4213 25.0098 11.8013C25.0098 13.1813 23.8898 14.3013 22.5098 14.3013C21.1298 14.3013 20.0098 13.1813 20.0098 11.8013C20.0098 10.4213 21.1298 9.30127 22.5098 9.30127ZM48.7598 9.92627H41.2598C40.2248 9.92627 39.3848 10.7663 39.3848 11.8013C39.3848 12.8363 40.2248 13.6763 41.2598 13.6763H48.7598C49.7948 13.6763 50.6348 12.8363 50.6348 11.8013C50.6348 10.7663 49.7948 9.92627 48.7598 9.92627Z" fill="black"/>
<path fill-rule="evenodd" clip-rule="evenodd" d="M56.8848 26.8013C56.8848 25.6413 56.4248 24.5288 55.6023 23.7088C54.7823 22.8863 53.6698 22.4263 52.5098 22.4263C43.9748 22.4263 16.0448 22.4263 7.50977 22.4263C6.34977 22.4263 5.23727 22.8863 4.41727 23.7088C3.59477 24.5288 3.13477 25.6413 3.13477 26.8013V34.3013C3.13477 35.4613 3.59477 36.5738 4.41727 37.3938C5.23727 38.2163 6.34977 38.6763 7.50977 38.6763H52.5098C53.6698 38.6763 54.7823 38.2163 55.6023 37.3938C56.4248 36.5738 56.8848 35.4613 56.8848 34.3013V26.8013ZM13.7598 28.0513C15.1398 28.0513 16.2598 29.1713 16.2598 30.5513C16.2598 31.9313 15.1398 33.0513 13.7598 33.0513C12.3798 33.0513 11.2598 31.9313 11.2598 30.5513C11.2598 29.1713 12.3798 28.0513 13.7598 28.0513ZM22.5098 28.0513C23.8898 28.0513 25.0098 29.1713 25.0098 30.5513C25.0098 31.9313 23.8898 33.0513 22.5098 33.0513C21.1298 33.0513 20.0098 31.9313 20.0098 30.5513C20.0098 29.1713 21.1298 28.0513 22.5098 28.0513ZM48.7598 28.6763H41.2598C40.2248 28.6763 39.3848 29.5163 39.3848 30.5513C39.3848 31.5863 40.2248 32.4263 41.2598 32.4263H48.7598C49.7948 32.4263 50.6348 31.5863 50.6348 30.5513C50.6348 29.5163 49.7948 28.6763 48.7598 28.6763Z" fill="black"/>
<path fill-rule="evenodd" clip-rule="evenodd" d="M56.8848 45.5513C56.8848 44.3913 56.4248 43.2788 55.6023 42.4588C54.7823 41.6363 53.6698 41.1763 52.5098 41.1763C43.9748 41.1763 16.0448 41.1763 7.50977 41.1763C6.34977 41.1763 5.23727 41.6363 4.41727 42.4588C3.59477 43.2788 3.13477 44.3913 3.13477 45.5513V53.0513C3.13477 54.2113 3.59477 55.3238 4.41727 56.1438C5.23727 56.9663 6.34977 57.4263 7.50977 57.4263H52.5098C53.6698 57.4263 54.7823 56.9663 55.6023 56.1438C56.4248 55.3238 56.8848 54.2113 56.8848 53.0513V45.5513ZM13.7598 46.8013C15.1398 46.8013 16.2598 47.9213 16.2598 49.3013C16.2598 50.6813 15.1398 51.8013 13.7598 51.8013C12.3798 51.8013 11.2598 50.6813 11.2598 49.3013C11.2598 47.9213 12.3798 46.8013 13.7598 46.8013ZM22.5098 46.8013C23.8898 46.8013 25.0098 47.9213 25.0098 49.3013C25.0098 50.6813 23.8898 51.8013 22.5098 51.8013C21.1298 51.8013 20.0098 50.6813 20.0098 49.3013C20.0098 47.9213 21.1298 46.8013 22.5098 46.8013ZM48.7598 47.4263H41.2598C40.2248 47.4263 39.3848 48.2663 39.3848 49.3013C39.3848 50.3363 40.2248 51.1763 41.2598 51.1763H48.7598C49.7948 51.1763 50.6348 50.3363 50.6348 49.3013C50.6348 48.2663 49.7948 47.4263 48.7598 47.4263Z" fill="black"/>
</svg>
