<svg width="60" height="61" viewBox="0 0 60 61" fill="none" xmlns="http://www.w3.org/2000/svg">
<g clip-path="url(#clip0_100_5743)">
<path fill-rule="evenodd" clip-rule="evenodd" d="M56.003 59.3543H49.6761V37.3507C49.6761 37.0344 49.43 36.7883 49.1488 36.7883C48.8325 36.7883 48.5865 37.0344 48.5865 37.3507V59.3543H42.2596H41.2402V58.3349V26.7356H57.0223V58.3349C57.0223 58.8973 56.5654 59.3543 56.003 59.3543ZM41.2402 25.6108V21.639C41.2402 21.0766 41.6972 20.6196 42.2596 20.6196H56.003C56.5654 20.6196 57.0223 21.0766 57.0223 21.639V25.6108H41.2402Z" fill="black"/>
<path fill-rule="evenodd" clip-rule="evenodd" d="M40.1855 59.3542H30.5546V45.7163C30.5546 45.3999 30.3085 45.1539 29.9922 45.1539H13.2962C13.015 45.1539 12.769 45.3999 12.769 45.7163V59.3542H1.0291C0.466708 59.3542 0.00976562 58.8973 0.00976562 58.3349V32.6056C0.00976562 32.2541 0.185513 31.9377 0.466708 31.762L21.0994 18.2646C21.4157 18.0537 21.8727 18.0537 22.2242 18.2646L40.1855 30.0397V59.3542ZM29.465 59.3542H22.189V46.2787H29.465V59.3542ZM21.0994 59.3542H13.8586V46.2787H21.0994V59.3542ZM25.2822 29.407C25.5634 29.407 25.8094 29.1609 25.8094 28.8446C25.8094 28.5634 25.5634 28.3173 25.2822 28.3173H18.0414C17.7251 28.3173 17.479 28.5634 17.479 28.8446C17.479 29.1609 17.7251 29.407 18.0414 29.407H25.2822ZM36.1433 42.0256C36.4597 42.0256 36.7057 41.7796 36.7057 41.4632V35.0309C36.7057 34.7145 36.4597 34.4685 36.1433 34.4685H29.8516C29.5704 34.4685 29.3244 34.7145 29.3244 35.0309V41.4632C29.3244 41.7796 29.5704 42.0256 29.8516 42.0256H36.1433ZM30.414 40.9008V35.5933H35.5809V40.9008H30.414ZM24.7901 42.0256C25.1064 42.0256 25.3525 41.7796 25.3525 41.4632V35.0309C25.3525 34.7145 25.1064 34.4685 24.7901 34.4685H18.4983C18.2171 34.4685 17.9711 34.7145 17.9711 35.0309V41.4632C17.9711 41.7796 18.2171 42.0256 18.4983 42.0256H24.7901ZM19.0607 40.9008V35.5933H24.2628V40.9008H19.0607ZM13.4368 42.0256C13.7532 42.0256 13.9992 41.7796 13.9992 41.4632V35.0309C13.9992 34.7145 13.7532 34.4685 13.4368 34.4685H7.18024C6.8639 34.4685 6.61785 34.7145 6.61785 35.0309V41.4632C6.61785 41.7796 6.8639 42.0256 7.18024 42.0256H13.4368ZM7.70748 40.9008V35.5933H12.9096V40.9008H7.70748Z" fill="black"/>
<path fill-rule="evenodd" clip-rule="evenodd" d="M58.955 22.6586H39.3064C38.7441 22.6586 38.2871 22.2017 38.2871 21.6393V10.8484C38.2871 10.286 38.7441 9.8291 39.3064 9.8291H58.955C59.5173 9.8291 59.9743 10.286 59.9743 10.8484V21.6393C59.9743 22.2017 59.5173 22.6586 58.955 22.6586ZM40.3258 20.62H57.9708V11.8678H40.3258V20.62Z" fill="black"/>
<path fill-rule="evenodd" clip-rule="evenodd" d="M58.955 11.8676H39.3064C38.7441 11.8676 38.2871 11.4106 38.2871 10.8482V7.01695C38.2871 6.63031 38.498 6.27882 38.8846 6.10307L48.6913 1.4282C48.9725 1.2876 49.2889 1.2876 49.5701 1.4282L59.4119 6.10307C59.7634 6.27882 59.9743 6.63031 59.9743 7.01695V10.8482C59.9743 11.4106 59.5173 11.8676 58.955 11.8676Z" fill="black"/>
<path fill-rule="evenodd" clip-rule="evenodd" d="M49.1483 22.6586H39.3064C38.7441 22.6586 38.2871 22.2017 38.2871 21.6393V10.8484C38.2871 10.286 38.7441 9.8291 39.3064 9.8291H49.1483C49.7107 9.8291 50.1676 10.286 50.1676 10.8484V21.6393C50.1676 22.2017 49.7107 22.6586 49.1483 22.6586ZM40.3258 20.62H48.1289V11.8678H40.3258V20.62Z" fill="black"/>
<path fill-rule="evenodd" clip-rule="evenodd" d="M21.6619 20.1277C21.0995 20.1277 20.6426 19.6708 20.6426 19.1084V12.5706C20.6426 12.0082 21.0995 11.5513 21.6619 11.5513C22.2243 11.5513 22.6812 12.0082 22.6812 12.5706V19.1084C22.6812 19.6708 22.2243 20.1277 21.6619 20.1277Z" fill="black"/>
<path fill-rule="evenodd" clip-rule="evenodd" d="M30.1329 13.5897H21.6619C21.0995 13.5897 20.6426 13.1327 20.6426 12.5703V6.13798C20.6426 5.57559 21.0995 5.11865 21.6619 5.11865H30.1329C30.6953 5.11865 31.1522 5.57559 31.1522 6.13798V12.5703C31.1522 13.1327 30.6953 13.5897 30.1329 13.5897Z" fill="black"/>
</g>
<defs>
<clipPath id="clip0_100_5743">
<rect width="60" height="60" fill="white" transform="translate(0.00976562 0.338379)"/>
</clipPath>
</defs>
</svg>
