<svg width="60" height="61" viewBox="0 0 60 61" fill="none" xmlns="http://www.w3.org/2000/svg">
<path d="M41.5841 18.6342C41.5841 15.0605 44.5172 12.1634 48.1354 12.1634C51.7536 12.1634 54.6866 15.0605 54.6866 18.6342C54.6866 22.208 51.7536 25.1051 48.1354 25.1051C44.5172 25.1051 41.5841 22.208 41.5841 18.6342ZM30.0098 19.0794C33.6279 19.0794 36.561 16.1823 36.561 12.6086C36.561 9.0348 33.6279 6.1377 30.0098 6.1377C26.3916 6.1377 23.4585 9.0348 23.4585 12.6086C23.4585 16.1823 26.3916 19.0794 30.0098 19.0794ZM23.3256 28.4227C23.4259 28.4975 23.5222 28.5804 23.6133 28.6714L24.735 29.7932C24.9102 29.9684 25.1219 30.0104 25.3509 29.9156C25.5803 29.8206 25.6997 29.642 25.6997 29.3936V27.8072C25.6997 26.3579 26.8793 25.1783 28.3286 25.1783H31.6913C33.1405 25.1783 34.3202 26.3578 34.3202 27.8072V29.3936C34.3202 29.642 34.4395 29.8206 34.6689 29.9156C34.8979 30.0104 35.1095 29.9684 35.2847 29.7932L36.4064 28.6714C36.4975 28.5804 36.5937 28.4977 36.694 28.4228C37.5457 26.7531 38.8109 25.3262 40.353 24.2795C39.4957 21.881 37.6729 19.9314 35.3587 18.905C33.9134 20.1104 32.0474 20.8371 30.0099 20.8371C27.9723 20.8371 26.1065 20.1104 24.6611 18.905C22.3469 19.9314 20.5239 21.881 19.6667 24.2796C21.2086 25.3262 22.4739 26.753 23.3256 28.4227ZM53.4828 24.9306C52.0329 26.1381 50.1639 26.8629 48.1353 26.8629C46.1066 26.8629 44.2375 26.1381 42.7877 24.9306C41.2695 25.6035 39.9627 26.6738 39.0011 28.0072C39.4125 28.1264 39.8003 28.3478 40.124 28.6714L42.5018 31.0493C43.5266 32.0741 43.5266 33.7423 42.5018 34.7671L41.3801 35.8888C41.2049 36.064 41.1628 36.2757 41.2577 36.5046C41.3527 36.7341 41.5313 36.8534 41.7797 36.8534H43.3661C44.5102 36.8534 45.486 37.5886 45.8464 38.6112H58.4737C58.7707 38.6112 59.0137 38.3681 59.0137 38.0712V33.3982C59.0137 29.6307 56.7322 26.3709 53.4828 24.9306ZM11.8843 25.1051C15.5024 25.1051 18.4354 22.208 18.4354 18.6342C18.4354 15.0605 15.5023 12.1634 11.8843 12.1634C8.26609 12.1634 5.33301 15.0605 5.33301 18.6342C5.33301 22.208 8.26609 25.1051 11.8843 25.1051ZM18.2398 36.8534C18.4882 36.8534 18.6667 36.7341 18.7619 36.5046C18.8567 36.2757 18.8146 36.064 18.6394 35.8888L17.5177 34.7671C16.4929 33.7423 16.4929 32.0741 17.5177 31.0493L19.8955 28.6714C20.2191 28.3479 20.607 28.1265 21.0184 28.0073C20.0568 26.6739 18.75 25.6036 17.2319 24.9306C15.782 26.1381 13.913 26.8629 11.8844 26.8629C9.85563 26.8629 7.9866 26.1381 6.53676 24.9306C3.28738 26.3709 1.00586 29.6307 1.00586 33.3981V38.0711C1.00586 38.368 1.24891 38.6111 1.54586 38.6111H14.1732C14.5335 37.5885 15.5093 36.8532 16.6534 36.8532L18.2398 36.8534ZM44.2371 39.4822V42.8449C44.2371 43.324 43.8452 43.716 43.3661 43.716H41.7796C40.8201 43.716 40.0008 44.2635 39.6337 45.1499C39.2664 46.0363 39.4587 47.0027 40.1372 47.6813L41.2589 48.803C41.5977 49.1418 41.5977 49.6961 41.2589 50.0348L38.8811 52.4127C38.5423 52.7515 37.988 52.7515 37.6492 52.4127L36.5274 51.291C35.8489 50.6125 34.8825 50.4203 33.996 50.7874C33.1096 51.1546 32.5621 51.9739 32.5621 52.9335V54.5198C32.5621 54.9989 32.1702 55.3909 31.6911 55.3909H28.3284C27.8492 55.3909 27.4573 54.9989 27.4573 54.5198V52.9335C27.4573 51.9739 26.9099 51.1547 26.0234 50.7874C25.1369 50.4203 24.1704 50.6125 23.492 51.291L22.3703 52.4127C22.0315 52.7515 21.4772 52.7515 21.1384 52.4127L18.7606 50.0348C18.4218 49.6961 18.4218 49.1418 18.7606 48.803L19.8823 47.6813C20.5608 47.0027 20.753 46.0363 20.3859 45.1499C20.0186 44.2634 19.1993 43.716 18.2398 43.716H16.6534C16.1744 43.716 15.7824 43.324 15.7824 42.8449V39.4822C15.7824 39.0032 16.1744 38.6112 16.6534 38.6112H18.2398C19.1993 38.6112 20.0186 38.0637 20.3857 37.1773C20.753 36.2907 20.5607 35.3243 19.8822 34.6459L18.7605 33.5242C18.4217 33.1854 18.4217 32.6311 18.7605 32.2923L21.1383 29.9145C21.4771 29.5757 22.0314 29.5757 22.3702 29.9145L23.4919 31.0362C24.1704 31.7147 25.1368 31.9069 26.0233 31.5397C26.9098 31.1726 27.4572 30.3532 27.4572 29.3937V27.8073C27.4572 27.3282 27.8492 26.9363 28.3282 26.9363H31.6909C32.17 26.9363 32.562 27.3282 32.562 27.8073V29.3937C32.562 30.3532 33.1095 31.1725 33.9959 31.5397C34.8824 31.9069 35.8489 31.7147 36.5273 31.0362L37.6491 29.9145C37.9879 29.5757 38.5422 29.5757 38.881 29.9145L41.2588 32.2923C41.5976 32.6311 41.5976 33.1854 41.2588 33.5242L40.1371 34.6459C39.4586 35.3244 39.2664 36.2909 39.6336 37.1773C40.0007 38.0638 40.8201 38.6112 41.7796 38.6112H43.366C43.8452 38.6111 44.2371 39.003 44.2371 39.4822ZM37.0355 41.1636C37.0355 37.2833 33.89 34.1379 30.0098 34.1379C26.1296 34.1379 22.984 37.2834 22.984 41.1636C22.984 45.0438 26.1296 48.1894 30.0098 48.1894C33.8901 48.1894 37.0355 45.0438 37.0355 41.1636Z" fill="black"/>
</svg>
