<svg width="60" height="61" viewBox="0 0 60 61" fill="none" xmlns="http://www.w3.org/2000/svg">
<g clip-path="url(#clip0_100_5725)">
<path d="M0.737388 21.9312C0.198694 20.932 -0.0508752 19.8024 0.0166893 18.6693C0.0842537 17.5361 0.466278 16.4443 1.11989 15.5162C2.18803 13.949 3.6185 12.6626 5.28989 11.7662L24.0424 2.00616C25.8855 1.04774 27.9324 0.547363 30.0099 0.547363C32.0873 0.547363 34.1342 1.04774 35.9774 2.00616L54.7274 11.7737C56.3988 12.6701 57.8292 13.9565 58.8974 15.5237C59.551 16.4518 59.933 17.5436 60.0006 18.6768C60.0681 19.8099 59.8186 20.9395 59.2799 21.9387C58.6999 23.0357 57.8301 23.9527 56.7651 24.5896C55.7001 25.2266 54.4808 25.5592 53.2399 25.5512H6.77989C5.53779 25.5589 4.3174 25.2254 3.25186 24.5871C2.18632 23.9487 1.31653 23.03 0.737388 21.9312ZM57.5099 55.5512C57.5099 54.2251 56.9831 52.9533 56.0454 52.0156C55.1077 51.078 53.836 50.5512 52.5099 50.5512V30.5512H47.5099V50.5512H40.0099V30.5512H35.0099V50.5512H25.0099V30.5512H20.0099V50.5512H12.5099V30.5512H7.50989V50.5512C6.18381 50.5512 4.91204 51.078 3.97435 52.0156C3.03667 52.9533 2.50989 54.2251 2.50989 55.5512C1.84685 55.5512 1.21096 55.8146 0.742121 56.2834C0.27328 56.7522 0.00988822 57.3881 0.00988822 58.0512C0.00988822 58.7142 0.27328 59.3501 0.742121 59.8189C1.21096 60.2878 1.84685 60.5512 2.50989 60.5512H57.5099C58.1729 60.5512 58.8088 60.2878 59.2777 59.8189C59.7465 59.3501 60.0099 58.7142 60.0099 58.0512C60.0099 57.3881 59.7465 56.7522 59.2777 56.2834C58.8088 55.8146 58.1729 55.5512 57.5099 55.5512Z" fill="black"/>
</g>
<defs>
<clipPath id="clip0_100_5725">
<rect width="60" height="60" fill="white" transform="translate(0.00976562 0.55127)"/>
</clipPath>
</defs>
</svg>
