<svg width="60" height="61" viewBox="0 0 60 61" fill="none" xmlns="http://www.w3.org/2000/svg">
<g clip-path="url(#clip0_100_5765)">
<path d="M18.7598 33.0513C16.5347 33.0513 14.3597 32.3915 12.5096 31.1553C10.6595 29.9191 9.21761 28.1621 8.36612 26.1065C7.51464 24.0508 7.29185 21.7888 7.72593 19.6065C8.16002 17.4242 9.23147 15.4197 10.8048 13.8463C12.3782 12.273 14.3827 11.2015 16.565 10.7674C18.7473 10.3334 21.0093 10.5561 23.065 11.4076C25.1206 12.2591 26.8776 13.7011 28.1138 15.5511C29.35 17.4012 30.0098 19.5762 30.0098 21.8013C30.0065 24.7839 28.8201 27.6435 26.7111 29.7526C24.602 31.8616 21.7424 33.048 18.7598 33.0513ZM35.0098 60.5513H2.50977C1.84672 60.5513 1.21084 60.2879 0.741999 59.819C0.273158 59.3502 0.00976563 58.7143 0.00976562 58.0513V56.8013C0.00976562 51.8285 1.98521 47.0593 5.50151 43.543C9.01782 40.0267 13.787 38.0513 18.7598 38.0513C23.7326 38.0513 28.5017 40.0267 32.018 43.543C35.5343 47.0593 37.5098 51.8285 37.5098 56.8013V58.0513C37.5098 58.7143 37.2464 59.3502 36.7775 59.819C36.3087 60.2879 35.6728 60.5513 35.0098 60.5513ZM43.7598 23.0513C41.5347 23.0513 39.3597 22.3915 37.5096 21.1553C35.6595 19.9191 34.2176 18.1621 33.3661 16.1065C32.5146 14.0508 32.2918 11.7888 32.7259 9.60651C33.16 7.42422 34.2315 5.41966 35.8048 3.84632C37.3782 2.27298 39.3827 1.20152 41.565 0.76744C43.7473 0.333356 46.0093 0.556144 48.065 1.40763C50.1206 2.25912 51.8776 3.70106 53.1138 5.55111C54.35 7.40116 55.0098 9.57623 55.0098 11.8013C55.0065 14.7839 53.8201 17.6435 51.7111 19.7526C49.602 21.8616 46.7424 23.048 43.7598 23.0513ZM40.2073 28.1038C37.8788 28.4162 35.64 29.206 33.631 30.4239C31.622 31.6418 29.8862 33.2614 28.5323 35.1813C34.1345 37.7254 38.5363 42.3368 40.8173 48.0513H57.5098C58.1728 48.0513 58.8087 47.7879 59.2775 47.319C59.7464 46.8502 60.0098 46.2143 60.0098 45.5513V45.4563C60.0072 42.9643 59.473 40.5015 58.4429 38.2324C57.4128 35.9633 55.9105 33.94 54.0363 32.2977C52.1621 30.6553 49.9591 29.4317 47.5743 28.7085C45.1896 27.9853 42.678 27.7791 40.2073 28.1038Z" fill="black"/>
</g>
<defs>
<clipPath id="clip0_100_5765">
<rect width="60" height="60" fill="white" transform="translate(0.00976562 0.55127)"/>
</clipPath>
</defs>
</svg>
