<svg width="60" height="61" viewBox="0 0 60 61" fill="none" xmlns="http://www.w3.org/2000/svg">
<g clip-path="url(#clip0_100_5734)">
<path d="M60.0098 23.0513V28.0513H45.0098L32.5098 15.5513H52.5098C54.4989 15.5513 56.4065 16.3414 57.8131 17.748C59.2196 19.1545 60.0098 21.0621 60.0098 23.0513ZM0.00976563 23.0513V28.0513H15.0098L27.5098 15.5513H7.50977C5.52064 15.5513 3.61299 16.3414 2.20646 17.748C0.799942 19.1545 0.00976563 21.0621 0.00976563 23.0513ZM42.5098 6.80127L32.5098 0.55127H27.5098V15.5513H32.5098V13.0513L42.5098 6.80127ZM42.9398 33.0513H60.0098V60.5513H37.5098V50.5513C37.5098 48.5621 36.7196 46.6545 35.3131 45.248C33.9065 43.8414 31.9989 43.0513 30.0098 43.0513C28.0206 43.0513 26.113 43.8414 24.7065 45.248C23.2999 46.6545 22.5098 48.5621 22.5098 50.5513V60.5513H0.00976563V33.0513H17.0798L30.0098 20.5513L42.9398 33.0513ZM15.0098 50.5513H7.50977V55.5513H15.0098V50.5513ZM15.0098 40.5513H7.50977V45.5513H15.0098V40.5513ZM35.0098 33.0513C35.0098 32.0624 34.7165 31.0957 34.1671 30.2734C33.6177 29.4512 32.8368 28.8103 31.9232 28.4319C31.0096 28.0534 30.0042 27.9544 29.0343 28.1473C28.0644 28.3403 27.1735 28.8165 26.4742 29.5157C25.775 30.215 25.2988 31.1059 25.1058 32.0758C24.9129 33.0457 25.0119 34.0511 25.3904 34.9647C25.7688 35.8783 26.4097 36.6592 27.2319 37.2086C28.0542 37.758 29.0209 38.0513 30.0098 38.0513C31.3358 38.0513 32.6076 37.5245 33.5453 36.5868C34.483 35.6491 35.0098 34.3774 35.0098 33.0513ZM45.0098 45.5513H52.5098V40.5513H45.0098V45.5513ZM45.0098 55.5513H52.5098V50.5513H45.0098V55.5513ZM30.0098 48.0513C29.3467 48.0513 28.7108 48.3147 28.242 48.7835C27.7732 49.2523 27.5098 49.8882 27.5098 50.5513V60.5513H32.5098V50.5513C32.5098 49.8882 32.2464 49.2523 31.7775 48.7835C31.3087 48.3147 30.6728 48.0513 30.0098 48.0513Z" fill="black"/>
</g>
<defs>
<clipPath id="clip0_100_5734">
<rect width="60" height="60" fill="white" transform="translate(0.00976562 0.55127)"/>
</clipPath>
</defs>
</svg>
