<svg width="60" height="61" viewBox="0 0 60 61" fill="none" xmlns="http://www.w3.org/2000/svg">
<g clip-path="url(#clip0_100_5740)">
<path d="M57.5098 35.5513V31.7363C57.5098 29.1563 56.1023 26.7888 53.8373 25.5513L33.3823 14.3938C33.0973 14.2388 32.8048 14.1063 32.5073 13.9913V10.6188L40.0073 5.75877L27.5098 0.55127V13.9913C27.2123 14.1038 26.9198 14.2388 26.6348 14.3938L6.18227 25.5513C3.91727 26.7838 2.50977 29.1538 2.50977 31.7363V35.5513H7.50977V55.5513H2.50977V60.5513H57.5098V55.5513H52.5098V35.5513H57.5098ZM27.5098 35.5513V55.5513H22.5098V35.5513H27.5098ZM32.5098 35.5513H37.5098V55.5513H32.5098V35.5513ZM12.5098 35.5513H17.5098V55.5513H12.5098V35.5513ZM47.5098 55.5513H42.5098V35.5513H47.5098V55.5513Z" fill="black"/>
</g>
<defs>
<clipPath id="clip0_100_5740">
<rect width="60" height="60" fill="white" transform="translate(0.00976562 0.55127)"/>
</clipPath>
</defs>
</svg>
