<svg width="61" height="61" viewBox="0 0 61 61" fill="none" xmlns="http://www.w3.org/2000/svg">
<g clip-path="url(#clip0_100_5728)">
<path d="M53.1934 0.129395H38.1934C34.0584 0.129395 30.6934 3.49439 30.6934 7.62939V60.1294H60.6934V7.62939C60.6934 3.49439 57.3284 0.129395 53.1934 0.129395ZM43.1934 47.6294H38.1934V42.6294H43.1934V47.6294ZM43.1934 37.6294H38.1934V32.6294H43.1934V37.6294ZM43.1934 27.6294H38.1934V22.6294H43.1934V27.6294ZM43.1934 17.6294H38.1934V12.6294H43.1934V17.6294ZM53.1934 47.6294H48.1934V42.6294H53.1934V47.6294ZM53.1934 37.6294H48.1934V32.6294H53.1934V37.6294ZM53.1934 27.6294H48.1934V22.6294H53.1934V27.6294ZM53.1934 17.6294H48.1934V12.6294H53.1934V17.6294ZM23.7884 15.1894L18.3734 9.77439C15.6059 7.00689 10.7784 7.00689 8.00836 9.77439L2.59836 15.1894C1.38836 16.3969 0.693359 18.0744 0.693359 19.7869V60.1294H25.6934V19.7869C25.6934 18.0744 24.9984 16.3969 23.7884 15.1894ZM15.6934 47.6294H10.6934V42.6294H15.6934V47.6294ZM15.6934 37.6294H10.6934V32.6294H15.6934V37.6294ZM15.6934 27.6294H10.6934V22.6294H15.6934V27.6294Z" fill="black"/>
</g>
<defs>
<clipPath id="clip0_100_5728">
<rect width="60" height="60" fill="white" transform="translate(0.693359 0.129395)"/>
</clipPath>
</defs>
</svg>
