<svg width="60" height="61" viewBox="0 0 60 61" fill="none" xmlns="http://www.w3.org/2000/svg">
<g clip-path="url(#clip0_100_5962)">
<path d="M58.2519 0.55127H39.4238C38.4529 0.55127 37.666 1.3383 37.666 2.30908V9.84037C37.666 10.8112 38.4529 11.5982 39.4238 11.5982H58.2519C59.2225 11.5982 60.0097 10.8112 60.0097 9.84037V2.30908C60.0097 1.3383 59.2225 0.55127 58.2519 0.55127Z" fill="black"/>
<path d="M33.7754 19.3794H26.2441C25.2734 19.3794 24.4863 20.1664 24.4863 21.1372V39.9654C24.4863 40.9362 25.2734 41.7232 26.2441 41.7232H33.7754C34.7461 41.7232 35.5332 40.9362 35.5332 39.9654V21.1372C35.5332 20.1664 34.7461 19.3794 33.7754 19.3794Z" fill="black"/>
<path d="M20.5957 49.5044H1.76758C0.79668 49.5044 0.00976562 50.2914 0.00976562 51.2622V58.7935C0.00976562 59.7643 0.79668 60.5513 1.76758 60.5513H20.5957C21.5665 60.5513 22.3536 59.7643 22.3536 58.7935V51.2622C22.3536 50.2914 21.5665 49.5044 20.5957 49.5044Z" fill="black"/>
<path d="M20.9707 45.9888V41.1486V21.2622H13.0645C6.90422 21.2622 1.89258 26.274 1.89258 32.4342V45.9888H20.4708H20.9707Z" fill="black"/>
<path d="M39.0488 15.1138V19.9506V21.1372V39.8403H46.9551C53.1152 39.8403 58.1271 34.8286 58.1271 28.6685V15.1138H39.5489H39.0488Z" fill="black"/>
</g>
<defs>
<clipPath id="clip0_100_5962">
<rect width="60" height="60" fill="white" transform="translate(0.00976562 0.55127)"/>
</clipPath>
</defs>
</svg>
