<svg width="60" height="61" viewBox="0 0 60 61" fill="none" xmlns="http://www.w3.org/2000/svg">
<g clip-path="url(#clip0_100_5906)">
<path d="M60.0098 48.5045V51.7277C60.0098 52.3962 59.6321 53.0072 59.0342 53.3061C49.1257 58.2604 39.1291 58.2604 29.2205 53.3061C28.0595 52.7256 26.8999 52.2207 25.7415 51.7913L25.5824 49.7297C24.6383 42.6488 21.7474 37.3488 16.904 33.9583C12.1529 30.6326 6.74539 29.2011 0.753106 29.6743L0.00976563 29.7513V9.37488C0.00976563 8.70641 0.387418 8.09537 0.9853 7.79648C7.11098 4.73369 13.2703 3.56434 19.4216 4.28854V6.72793C19.4444 13.1475 20.7234 17.9438 23.3626 21.096C24.9647 23.0097 26.8005 24.2517 30.0943 25.9459C30.3142 26.059 30.5402 26.1742 30.8416 26.3274C31.2166 26.5177 31.4221 26.6219 31.5926 26.7087C32.2022 27.0189 32.6543 27.2527 33.0997 27.4896C34.2381 28.0954 35.194 28.6521 36.1009 29.2511C36.9394 29.8049 37.72 30.3857 38.4617 31.0148C39.9217 32.2533 40.8762 33.6575 41.698 35.5738C41.9796 36.2303 42.0779 36.4921 42.6524 38.0722C44.0375 41.8811 45.123 43.6861 47.6441 45.2786C51.3159 47.5982 54.7947 48.6939 58.0731 48.5046H60.0098V48.5045ZM60.0098 44.9773L57.9102 44.9785C55.4303 45.1332 52.639 44.2593 49.5289 42.2947C47.8544 41.2369 47.1065 39.9932 45.9692 36.866C45.367 35.2097 45.2607 34.9268 44.9417 34.1828C43.9196 31.7992 42.6626 29.9501 40.7447 28.3233C39.8918 27.5998 38.9984 26.935 38.0459 26.3059C37.0359 25.6388 35.9872 25.028 34.7574 24.3737C34.2898 24.1248 33.8204 23.8822 33.1933 23.563C33.0208 23.4753 32.813 23.3698 32.4399 23.1805C32.1433 23.0299 31.9223 22.9171 31.7087 22.8072C28.8037 21.3131 27.29 20.289 26.0688 18.8303C24.0452 16.4132 22.9712 12.3859 22.951 6.72155V4.91205C25.571 5.52957 28.1881 6.49105 30.7991 7.79648C39.7141 12.2539 48.541 12.2539 57.4559 7.79648C58.6293 7.20986 60.0099 8.06307 60.0099 9.37488V44.9773H60.0098ZM48.5392 25.2572C50.0012 25.2572 51.1863 24.0721 51.1863 22.6101C51.1863 21.1482 50.0012 19.9631 48.5392 19.9631C47.0773 19.9631 45.8922 21.1482 45.8922 22.6101C45.8922 24.0721 47.0773 25.2572 48.5392 25.2572ZM22.1196 50.6949C15.602 49.1644 9.10651 50.0349 2.5636 53.3062C1.39037 53.8928 0.00976562 53.0396 0.00976562 51.7278V33.2991L1.07373 33.1891C6.2153 32.7837 10.8077 33.9994 14.8802 36.8501C18.8499 39.6289 21.251 44.0191 22.0777 50.1482L22.1196 50.6949Z" fill="black"/>
</g>
<defs>
<clipPath id="clip0_100_5906">
<rect width="60" height="60" fill="white" transform="translate(0.00976562 0.55127)"/>
</clipPath>
</defs>
</svg>
