<svg width="60" height="61" viewBox="0 0 60 61" fill="none" xmlns="http://www.w3.org/2000/svg">
<path d="M9.38477 15.5513C11.8259 15.5513 13.8878 13.9791 14.6643 11.8013H20.6348V15.5513H24.3848V9.92627C24.3848 8.88989 23.5452 8.05127 22.5098 8.05127H14.6643C13.8878 5.87346 11.8259 4.30127 9.38477 4.30127C6.28296 4.30127 3.75977 6.82446 3.75977 9.92627C3.75977 13.0281 6.28296 15.5513 9.38477 15.5513Z" fill="black"/>
<path d="M50.6348 45.5513C48.1936 45.5513 46.1317 47.1235 45.3553 49.3013H39.3848V45.5513H35.6348V51.1763C35.6348 52.2126 36.4743 53.0513 37.5098 53.0513H45.3554C46.1319 55.2291 48.1936 56.8013 50.6348 56.8013C53.7366 56.8013 56.2598 54.2781 56.2598 51.1763C56.2598 48.0745 53.7366 45.5513 50.6348 45.5513Z" fill="black"/>
<path d="M39.3848 11.8013H45.3554C46.1319 13.9791 48.1936 15.5513 50.6348 15.5513C53.7366 15.5513 56.2598 13.0281 56.2598 9.92627C56.2598 6.82446 53.7366 4.30127 50.6348 4.30127C48.1936 4.30127 46.1317 5.87346 45.3553 8.05127H37.5098C36.4743 8.05127 35.6348 8.88989 35.6348 9.92627V15.5513H39.3848V11.8013Z" fill="black"/>
<path d="M20.6348 49.3013H14.6643C13.8878 47.1235 11.8259 45.5513 9.38477 45.5513C6.28296 45.5513 3.75977 48.0745 3.75977 51.1763C3.75977 54.2781 6.28296 56.8013 9.38477 56.8013C11.8259 56.8013 13.8878 55.2291 14.6643 53.0513H22.5098C23.5452 53.0513 24.3848 52.2126 24.3848 51.1763V45.5513H20.6348V49.3013Z" fill="black"/>
<path d="M43.1348 32.4263H16.8848C14.8137 32.4263 13.1348 34.1051 13.1348 36.1763V39.9263C13.1348 41.9973 14.8137 43.6763 16.8848 43.6763H43.1348C45.2058 43.6763 46.8848 41.9973 46.8848 39.9263V36.1763C46.8848 34.1051 45.2058 32.4263 43.1348 32.4263ZM27.1973 38.9888H17.8223C17.3041 38.9888 16.8848 38.5695 16.8848 38.0513C16.8848 37.5331 17.3041 37.1138 17.8223 37.1138H27.1973C27.7155 37.1138 28.1348 37.5331 28.1348 38.0513C28.1348 38.5695 27.7155 38.9888 27.1973 38.9888ZM35.6348 39.9263C34.5992 39.9263 33.7598 39.0868 33.7598 38.0513C33.7598 37.0157 34.5992 36.1763 35.6348 36.1763C36.6703 36.1763 37.5098 37.0157 37.5098 38.0513C37.5098 39.0868 36.6703 39.9263 35.6348 39.9263ZM41.2598 39.9263C40.2242 39.9263 39.3848 39.0868 39.3848 38.0513C39.3848 37.0157 40.2242 36.1763 41.2598 36.1763C42.2953 36.1763 43.1348 37.0157 43.1348 38.0513C43.1348 39.0868 42.2953 39.9263 41.2598 39.9263Z" fill="black"/>
<path d="M46.8848 21.1763C46.8848 19.1051 45.2058 17.4263 43.1348 17.4263H16.8848C14.8137 17.4263 13.1348 19.1051 13.1348 21.1763V24.9263C13.1348 26.9973 14.8137 28.6763 16.8848 28.6763H43.1348C45.2058 28.6763 46.8848 26.9973 46.8848 24.9263V21.1763ZM27.1973 23.9888H17.8223C17.3041 23.9888 16.8848 23.5695 16.8848 23.0513C16.8848 22.5331 17.3041 22.1138 17.8223 22.1138H27.1973C27.7155 22.1138 28.1348 22.5331 28.1348 23.0513C28.1348 23.5695 27.7155 23.9888 27.1973 23.9888ZM35.6348 24.9263C34.5992 24.9263 33.7598 24.0868 33.7598 23.0513C33.7598 22.0157 34.5992 21.1763 35.6348 21.1763C36.6703 21.1763 37.5098 22.0157 37.5098 23.0513C37.5098 24.0868 36.6703 24.9263 35.6348 24.9263ZM41.2598 24.9263C40.2242 24.9263 39.3848 24.0868 39.3848 23.0513C39.3848 22.0157 40.2242 21.1763 41.2598 21.1763C42.2953 21.1763 43.1348 22.0157 43.1348 23.0513C43.1348 24.0868 42.2953 24.9263 41.2598 24.9263Z" fill="black"/>
</svg>
