<svg width="61" height="61" viewBox="0 0 61 61" fill="none" xmlns="http://www.w3.org/2000/svg">
<path d="M17.5684 3.80127H6.31836C5.2829 3.80127 4.44336 4.63989 4.44336 5.67627V16.9263C4.44336 17.9626 5.2829 18.8013 6.31836 18.8013H17.5684C18.6038 18.8013 19.4434 17.9626 19.4434 16.9263V5.67627C19.4434 4.63989 18.6038 3.80127 17.5684 3.80127Z" fill="black"/>
<path d="M55.0684 3.80127H43.8184C42.7829 3.80127 41.9434 4.63989 41.9434 5.67627V16.9263C41.9434 17.9626 42.7829 18.8013 43.8184 18.8013H55.0684C56.1038 18.8013 56.9434 17.9626 56.9434 16.9263V5.67627C56.9434 4.63989 56.1038 3.80127 55.0684 3.80127Z" fill="black"/>
<path d="M36.3184 3.80127H25.0684C24.0329 3.80127 23.1934 4.63989 23.1934 5.67627V16.9263C23.1934 17.9626 24.0329 18.8013 25.0684 18.8013H36.3184C37.3538 18.8013 38.1934 17.9626 38.1934 16.9263V5.67627C38.1934 4.63989 37.3538 3.80127 36.3184 3.80127Z" fill="black"/>
<path d="M47.5684 20.6763V22.5513H32.5684V20.6763H28.8184V22.5513H13.8184V20.6763H10.0684V24.4263C10.0684 25.4626 10.9079 26.3013 11.9434 26.3013H28.8184V30.0513H32.5684V26.3013H49.4434C50.4788 26.3013 51.3184 25.4626 51.3184 24.4263V20.6763H47.5684Z" fill="black"/>
<path d="M43.8184 45.0513H17.5684C15.4973 45.0513 13.8184 46.7301 13.8184 48.8013V52.5513C13.8184 54.6223 15.4973 56.3013 17.5684 56.3013H43.8184C45.8894 56.3013 47.5684 54.6223 47.5684 52.5513V48.8013C47.5684 46.7301 45.8894 45.0513 43.8184 45.0513ZM27.8809 51.6138H18.5059C17.9877 51.6138 17.5684 51.1945 17.5684 50.6763C17.5684 50.1581 17.9877 49.7388 18.5059 49.7388H27.8809C28.399 49.7388 28.8184 50.1581 28.8184 50.6763C28.8184 51.1945 28.399 51.6138 27.8809 51.6138ZM36.3184 52.5513C35.2828 52.5513 34.4434 51.7118 34.4434 50.6763C34.4434 49.6407 35.2828 48.8013 36.3184 48.8013C37.3539 48.8013 38.1934 49.6407 38.1934 50.6763C38.1934 51.7118 37.3539 52.5513 36.3184 52.5513ZM41.9434 52.5513C40.9078 52.5513 40.0684 51.7118 40.0684 50.6763C40.0684 49.6407 40.9078 48.8013 41.9434 48.8013C42.9789 48.8013 43.8184 49.6407 43.8184 50.6763C43.8184 51.7118 42.9789 52.5513 41.9434 52.5513Z" fill="black"/>
<path d="M43.8184 31.9263H17.5684C15.4973 31.9263 13.8184 33.6051 13.8184 35.6763V39.4263C13.8184 41.4973 15.4973 43.1763 17.5684 43.1763H43.8184C45.8894 43.1763 47.5684 41.4973 47.5684 39.4263V35.6763C47.5684 33.6051 45.8894 31.9263 43.8184 31.9263ZM27.8809 38.4888H18.5059C17.9877 38.4888 17.5684 38.0695 17.5684 37.5513C17.5684 37.0331 17.9877 36.6138 18.5059 36.6138H27.8809C28.399 36.6138 28.8184 37.0331 28.8184 37.5513C28.8184 38.0695 28.399 38.4888 27.8809 38.4888ZM36.3184 39.4263C35.2828 39.4263 34.4434 38.5868 34.4434 37.5513C34.4434 36.5157 35.2828 35.6763 36.3184 35.6763C37.3539 35.6763 38.1934 36.5157 38.1934 37.5513C38.1934 38.5868 37.3539 39.4263 36.3184 39.4263ZM41.9434 39.4263C40.9078 39.4263 40.0684 38.5868 40.0684 37.5513C40.0684 36.5157 40.9078 35.6763 41.9434 35.6763C42.9789 35.6763 43.8184 36.5157 43.8184 37.5513C43.8184 38.5868 42.9789 39.4263 41.9434 39.4263Z" fill="black"/>
</svg>
