<svg width="60" height="61" viewBox="0 0 60 61" fill="none" xmlns="http://www.w3.org/2000/svg">
<path fill-rule="evenodd" clip-rule="evenodd" d="M28.879 14.2969C28.1476 15.0241 26.9663 15.0241 26.2349 14.2969C25.5077 13.5656 25.5077 12.3843 26.2349 11.6529L31.2996 6.61011L27.6338 2.94799C27.2826 2.5986 26.8073 2.40244 26.3118 2.40234C25.8164 2.40244 25.3411 2.59871 24.9898 2.9481C24.9898 2.9481 19.955 7.98382 17.6143 10.3236L21.4192 14.1322C22.1537 14.8648 22.1537 16.0546 21.4192 16.7872C20.6879 17.5144 19.5066 17.5144 18.7752 16.7872L15.3768 13.3888C13.8371 16.3043 12.1321 21.0096 12.1321 21.0096C11.8702 21.7001 12.0379 22.48 12.5606 23.0018L17.5301 27.9713C18.051 28.4952 18.8311 28.6644 19.5223 28.4034C19.5223 28.4034 21.5352 27.6625 23.741 26.7225L20.0789 23.0604C19.342 22.3274 19.342 21.1348 20.0789 20.4017C20.4272 20.0514 20.8996 19.8527 21.3936 19.8487C21.8914 19.8498 22.3683 20.0487 22.7193 20.4017L27.3482 25.027C27.5557 24.9143 27.754 24.8033 27.9378 24.6937C28.7302 24.2216 29.4706 23.655 30.1241 23.0018C32.4283 20.6987 37.5875 15.5421 37.5875 15.5421C38.3218 14.8094 38.3218 13.6197 37.5875 12.8871L33.929 9.23595L28.879 14.2969ZM48.7569 24.236C48.0255 24.9632 46.8442 24.9632 46.1129 24.236C45.3857 23.5046 45.3857 22.3233 46.1129 21.5919L51.1812 16.5491C49.962 15.3277 48.7423 14.1066 47.5228 12.887C47.1709 12.5332 46.6925 12.3341 46.1934 12.334C45.6956 12.3351 45.2187 12.5341 44.8677 12.8871L36.2508 21.515L38.8179 24.0712C39.5524 24.8038 39.5524 25.9936 38.8179 26.7262C38.0866 27.4533 36.9052 27.4533 36.1739 26.7262L33.8008 24.3531C33.7168 24.4825 33.6384 24.6158 33.5591 24.7486C33.3899 25.0324 33.1973 25.3607 32.9988 25.7118L38.5543 31.2672C39.2912 32.0002 39.2912 33.1929 38.5543 33.9259C37.8229 34.653 36.6416 34.653 35.9102 33.9259L31.1348 29.1505C29.7089 31.8456 28.3663 34.4899 28.3663 34.4899C27.9992 35.2138 28.1396 36.0918 28.7142 36.6651L33.6837 41.6346C34.2573 42.2062 35.133 42.3451 35.8553 41.9789C35.8553 41.9789 42.725 38.504 45.6002 36.7896C45.7301 36.7122 45.858 36.6295 45.9847 36.5479L41.1434 31.6957C40.4064 30.9626 40.4064 29.77 41.1434 29.037C41.4946 28.6876 41.9699 28.4914 42.4654 28.4913C42.9609 28.4914 43.4361 28.6876 43.7874 29.037L48.8484 34.098C51.8601 31.0863 57.4617 25.4811 57.4617 25.4811C58.1888 24.7497 58.1888 23.5684 57.4617 22.837C56.2435 21.6185 55.0249 20.3989 53.8069 19.1786L48.7569 24.236ZM8.57989 24.3275L2.56671 30.3407C2.21641 30.689 2.0177 31.1614 2.01373 31.6554V41.5907C2.00114 43.2753 4.04374 44.1207 5.2254 42.92L16.2081 31.9483L8.57989 24.3275ZM24.7408 37.9908L7.3421 55.3785C6.15024 56.5515 6.97361 58.5798 8.64581 58.5902L18.4712 58.7001C18.9792 58.7076 19.4681 58.5073 19.8262 58.1471L32.3616 45.6117L24.7408 37.9908Z" fill="black"/>
</svg>
