<svg width="60" height="61" viewBox="0 0 60 61" fill="none" xmlns="http://www.w3.org/2000/svg">
<g clip-path="url(#clip0_100_5942)">
<path d="M15.7598 13.6763V11.8013C15.7598 11.304 15.9573 10.8271 16.3089 10.4754C16.6606 10.1238 17.1375 9.92627 17.6348 9.92627C18.132 9.92627 18.609 10.1238 18.9606 10.4754C19.3122 10.8271 19.5098 11.304 19.5098 11.8013V13.6763H25.1348C25.768 13.6705 26.399 13.7526 27.0098 13.92V8.05127C27.0068 7.05762 26.6108 6.10552 25.9081 5.4029C25.2055 4.70028 24.2534 4.30424 23.2598 4.30127H12.0098C11.0161 4.30424 10.064 4.70028 9.36139 5.4029C8.65877 6.10552 8.26273 7.05762 8.25977 8.05127V13.92C8.87051 13.7526 9.50151 13.6705 10.1348 13.6763H15.7598Z" fill="black"/>
<path d="M42.0098 4.30127C41.5125 4.30127 41.0356 4.49881 40.6839 4.85044C40.3323 5.20207 40.1348 5.67899 40.1348 6.17627V47.4263C40.1348 48.9181 39.5421 50.3489 38.4872 51.4037C37.4324 52.4586 36.0016 53.0513 34.5098 53.0513H21.3848C20.8875 53.0513 20.4106 52.8537 20.0589 52.5021C19.7073 52.1505 19.5098 51.6735 19.5098 51.1763C20.5034 51.1733 21.4555 50.7773 22.1581 50.0746C22.8608 49.372 23.2568 48.4199 23.2598 47.4263V43.6763H12.0098V47.4263C12.0127 48.4199 12.4088 49.372 13.1114 50.0746C13.814 50.7773 14.7661 51.1733 15.7598 51.1763C15.7598 52.6681 16.3524 54.0989 17.4073 55.1537C18.4622 56.2086 19.8929 56.8013 21.3848 56.8013H34.5098C36.9953 56.7983 39.3781 55.8096 41.1356 54.0521C42.8931 52.2946 43.8818 49.9118 43.8848 47.4263V6.17627C43.8848 5.67899 43.6872 5.20207 43.3356 4.85044C42.984 4.49881 42.507 4.30127 42.0098 4.30127Z" fill="black"/>
<path d="M28.4348 30.12C28.7346 29.4211 28.8878 28.668 28.8848 27.9075V21.1763C28.8818 20.1826 28.4858 19.2305 27.7832 18.5279C27.0806 17.8253 26.1285 17.4292 25.1348 17.4263H19.5098V21.1763C19.5098 21.6736 19.3123 22.1505 18.9606 22.5021C18.609 22.8537 18.1321 23.0513 17.6348 23.0513C17.1375 23.0513 16.6606 22.8537 16.309 22.5021C15.9574 22.1505 15.7598 21.6736 15.7598 21.1763V17.4263H10.1348C9.14116 17.4292 8.18906 17.8253 7.48644 18.5279C6.78382 19.2305 6.38778 20.1826 6.38481 21.1763V27.9075C6.38184 28.668 6.535 29.4211 6.83481 30.12L11.0348 39.9263H24.2348L28.4348 30.12Z" fill="black"/>
</g>
<defs>
<clipPath id="clip0_100_5942">
<rect width="60" height="60" fill="white" transform="translate(0.00976562 0.55127)"/>
</clipPath>
</defs>
</svg>
