<svg width="60" height="61" viewBox="0 0 60 61" fill="none" xmlns="http://www.w3.org/2000/svg">
<path d="M8.00977 14.5513C8.00977 9.02847 12.487 4.55127 18.0098 4.55127H46.0098C51.5326 4.55127 56.0098 9.02837 56.0098 14.5513V42.5513C56.0098 48.0742 51.5327 52.5513 46.0098 52.5513H39.0098C37.9052 52.5513 37.0098 53.4467 37.0098 54.5513C37.0098 55.6559 37.9052 56.5513 39.0098 56.5513H46.0098C53.7418 56.5513 60.0098 50.2833 60.0098 42.5513V14.5513C60.0098 6.81928 53.7418 0.55127 46.0098 0.55127H18.0098C10.2778 0.55127 4.00977 6.81928 4.00977 14.5513V29.5513C4.00977 30.6559 4.9052 31.5513 6.00977 31.5513C7.11434 31.5513 8.00977 30.6559 8.00977 29.5513V14.5513Z" fill="black"/>
<path d="M31.0098 14.5513C29.9052 14.5513 29.0098 15.4467 29.0098 16.5513C29.0098 17.6559 29.9052 18.5513 31.0098 18.5513H47.0098C48.1144 18.5513 49.0098 17.6559 49.0098 16.5513C49.0098 15.4467 48.1144 14.5513 47.0098 14.5513H31.0098Z" fill="black"/>
<path d="M29.0098 26.5513C29.0098 25.4467 29.9052 24.5513 31.0098 24.5513H47.0098C48.1144 24.5513 49.0098 25.4467 49.0098 26.5513C49.0098 27.6559 48.1144 28.5513 47.0098 28.5513H31.0098C29.9052 28.5513 29.0098 27.6559 29.0098 26.5513Z" fill="black"/>
<path fill-rule="evenodd" clip-rule="evenodd" d="M5.2774 37.0493C5.99974 34.9348 8.0064 33.5513 10.2194 33.5513H23.8002C26.0132 33.5513 28.0198 34.9348 28.7422 37.0493L29.9643 40.6267C30.8848 40.248 31.9645 40.6064 32.4656 41.4958C33.0077 42.4581 32.6671 43.6778 31.7047 44.22L31.6021 44.2777C33.061 45.4018 34.0098 47.1496 34.0098 49.1422V55.4149C34.0098 58.2977 31.6287 60.5513 28.7955 60.5513C26.4691 60.5513 24.4475 59.0318 23.7987 56.8922H10.2209C9.57207 59.0318 7.55048 60.5513 5.22406 60.5513C2.39084 60.5513 0.00976562 58.2977 0.00976562 55.4149V49.1422C0.00976562 47.1702 0.938966 45.4381 2.37224 44.3129L2.20722 44.22C1.24486 43.6778 0.904206 42.4581 1.44636 41.4958C1.96449 40.5761 3.10143 40.2242 4.04119 40.668L5.2774 37.0493ZM7.48505 42.9604L9.06267 38.3424C9.21527 37.8955 9.66527 37.5513 10.2194 37.5513H23.8002C24.3543 37.5513 24.8043 37.8955 24.9569 38.3424L26.5345 42.9604H7.48505ZM7.90259 48.1877C6.79802 48.1877 5.90259 49.0831 5.90259 50.1877C5.90259 51.2922 6.79802 52.1877 7.90259 52.1877H10.0455C11.15 52.1877 12.0455 51.2922 12.0455 50.1877C12.0455 49.0831 11.15 48.1877 10.0455 48.1877H7.90259ZM23.4383 48.1877C22.3338 48.1877 21.4383 49.0831 21.4383 50.1877C21.4383 51.2922 22.3338 52.1877 23.4383 52.1877H25.5812C26.6858 52.1877 27.5812 51.2922 27.5812 50.1877C27.5812 49.0831 26.6858 48.1877 25.5812 48.1877H23.4383Z" fill="black"/>
<path d="M14.5628 15.0278C13.8003 15.827 13.83 17.093 14.6292 17.8555L16.8752 19.9983C17.2594 20.3649 17.7736 20.5636 18.3045 20.5507C18.8354 20.5378 19.3393 20.3143 19.7052 19.9294L24.4592 14.9294C25.2203 14.1289 25.1884 12.863 24.3879 12.1019C23.5874 11.3408 22.3215 11.3727 21.5604 12.1732L18.1869 15.7213L17.3904 14.9614C16.5912 14.1989 15.3252 14.2287 14.5628 15.0278Z" fill="black"/>
<path d="M14.6292 28.8555C13.83 28.093 13.8003 26.827 14.5628 26.0278C15.3252 25.2287 16.5912 25.1989 17.3904 25.9614L18.1869 26.7213L21.5604 23.1732C22.3215 22.3727 23.5874 22.3408 24.3879 23.1019C25.1884 23.863 25.2203 25.1289 24.4592 25.9294L19.7052 30.9294C19.3393 31.3143 18.8354 31.5378 18.3045 31.5507C17.7736 31.5636 17.2594 31.3649 16.8752 30.9983L14.6292 28.8555Z" fill="black"/>
</svg>
