<svg width="60" height="61" viewBox="0 0 60 61" fill="none" xmlns="http://www.w3.org/2000/svg">
<g clip-path="url(#clip0_100_5719)">
<path d="M37.4248 18.2738C37.7973 19.4013 36.8798 20.5513 35.6523 20.5513H24.3648C23.1373 20.5513 22.2198 19.4013 22.5923 18.2738C23.5923 15.2438 26.5348 13.0513 30.0073 13.0513C33.4798 13.0513 36.4248 15.2463 37.4248 18.2738ZM30.0098 10.5513C32.7723 10.5513 35.0098 8.31377 35.0098 5.55127C35.0098 2.78877 32.7723 0.55127 30.0098 0.55127C27.2473 0.55127 25.0098 2.78877 25.0098 5.55127C25.0098 8.31377 27.2473 10.5513 30.0098 10.5513ZM7.50977 23.0513C4.03477 23.0513 1.09477 25.2463 0.0947656 28.2738C-0.277734 29.4013 0.639766 30.5513 1.86727 30.5513H13.1548C14.3823 30.5513 15.2998 29.4013 14.9273 28.2738C13.9273 25.2438 10.9823 23.0513 7.50977 23.0513ZM7.50977 20.5513C10.2723 20.5513 12.5098 18.3138 12.5098 15.5513C12.5098 12.7888 10.2723 10.5513 7.50977 10.5513C4.74727 10.5513 2.50977 12.7888 2.50977 15.5513C2.50977 18.3138 4.74727 20.5513 7.50977 20.5513ZM52.5098 28.0513C49.0348 28.0513 46.0948 30.2463 45.0948 33.2738C44.7223 34.4013 45.6398 35.5513 46.8673 35.5513H58.1548C59.3823 35.5513 60.2998 34.4013 59.9273 33.2738C58.9273 30.2438 55.9823 28.0513 52.5098 28.0513ZM52.5098 25.5513C55.2723 25.5513 57.5098 23.3138 57.5098 20.5513C57.5098 17.7888 55.2723 15.5513 52.5098 15.5513C49.7473 15.5513 47.5098 17.7888 47.5098 20.5513C47.5098 23.3138 49.7473 25.5513 52.5098 25.5513ZM38.7598 31.8013V54.3013C38.7598 57.7538 35.9623 60.5513 32.5098 60.5513H27.5098C24.0573 60.5513 21.2598 57.7538 21.2598 54.3013V31.8013C21.2598 28.3488 24.0573 25.5513 27.5098 25.5513H32.5098C35.9623 25.5513 38.7598 28.3488 38.7598 31.8013ZM60.0098 46.8013V54.3013C60.0098 57.7538 57.2123 60.5513 53.7598 60.5513H50.0098C46.5573 60.5513 43.7598 57.7538 43.7598 54.3013V46.8013C43.7598 43.3488 46.5573 40.5513 50.0098 40.5513H53.7598C57.2123 40.5513 60.0098 43.3488 60.0098 46.8013ZM16.2598 41.8013V54.3013C16.2598 57.7538 13.4623 60.5513 10.0098 60.5513H6.25977C2.80727 60.5513 0.00976562 57.7538 0.00976562 54.3013V41.8013C0.00976562 38.3488 2.80727 35.5513 6.25977 35.5513H10.0098C13.4623 35.5513 16.2598 38.3488 16.2598 41.8013Z" fill="black"/>
</g>
<defs>
<clipPath id="clip0_100_5719">
<rect width="60" height="60" fill="white" transform="translate(0.00976562 0.55127)"/>
</clipPath>
</defs>
</svg>
