<svg width="60" height="61" viewBox="0 0 60 61" fill="none" xmlns="http://www.w3.org/2000/svg">
<path d="M3.76251 42.8384C3.76251 40.0759 6 37.8384 8.76251 37.8384C11.525 37.8384 13.7625 40.0759 13.7625 42.8384C13.7625 45.6009 11.525 47.8384 8.76251 47.8384C6 47.8384 3.76251 45.6009 3.76251 42.8384ZM25.0125 42.8384C25.0125 45.6009 27.25 47.8384 30.0125 47.8384C32.775 47.8384 35.0125 45.6009 35.0125 42.8384C35.0125 40.0759 32.775 37.8384 30.0125 37.8384C27.25 37.8384 25.0125 40.0759 25.0125 42.8384ZM30.0125 10.3384C32.775 10.3384 35.0125 8.10088 35.0125 5.33838C35.0125 2.57588 32.775 0.338379 30.0125 0.338379C27.25 0.338379 25.0125 2.57588 25.0125 5.33838C25.0125 8.10088 27.25 10.3384 30.0125 10.3384ZM46.2625 42.8384C46.2625 45.6009 48.5 47.8384 51.2625 47.8384C54.025 47.8384 56.2625 45.6009 56.2625 42.8384C56.2625 40.0759 54.025 37.8384 51.2625 37.8384C48.5 37.8384 46.2625 40.0759 46.2625 42.8384ZM8.76251 35.3384C10.1425 35.3384 11.2625 34.2209 11.2625 32.8384C11.2625 31.4559 12.385 30.3384 13.7625 30.3384H27.5125V32.8384C27.5125 34.2209 28.6325 35.3384 30.0125 35.3384C31.3925 35.3384 32.5125 34.2209 32.5125 32.8384V30.3384H46.2625C47.64 30.3384 48.7625 31.4584 48.7625 32.8384C48.7625 34.2184 49.8825 35.3384 51.2625 35.3384C52.6425 35.3384 53.7625 34.2209 53.7625 32.8384C53.7625 28.7034 50.3975 25.3384 46.2625 25.3384H13.7625C9.62751 25.3384 6.26251 28.7034 6.26251 32.8384C6.26251 34.2209 7.3825 35.3384 8.76251 35.3384ZM30.0125 50.3384C25.87 50.3384 22.2625 53.2834 21.4375 57.3409C21.2875 58.0759 21.4775 58.8409 21.9525 59.4209C22.4275 60.0009 23.1375 60.3384 23.8875 60.3384H36.135C36.885 60.3384 37.595 60.0009 38.07 59.4209C38.545 58.8409 38.7325 58.0759 38.585 57.3409C37.76 53.2834 34.155 50.3384 30.01 50.3384H30.0125ZM23.8875 22.8384H36.135C36.885 22.8384 37.595 22.5009 38.07 21.9209C38.545 21.3409 38.7325 20.5759 38.585 19.8409C37.76 15.7834 34.155 12.8384 30.01 12.8384C25.865 12.8384 22.26 15.7834 21.435 19.8409C21.285 20.5759 21.475 21.3409 21.95 21.9209C22.425 22.5009 23.135 22.8384 23.885 22.8384H23.8875ZM8.635 50.3384C4.49 50.3384 0.882505 53.2834 0.0600047 57.3409C-0.0899953 58.0784 0.100005 58.8409 0.575005 59.4209C1.05 60.0009 1.76 60.3384 2.51 60.3384H14.7575C15.5075 60.3384 16.2175 60.0009 16.6925 59.4209C17.1675 58.8409 17.355 58.0759 17.2075 57.3409C16.3825 53.2834 12.78 50.3384 8.635 50.3384ZM51.26 50.3384C47.06 50.3384 43.4 53.2809 42.5625 57.3309C42.41 58.0684 42.5975 58.8359 43.0725 59.4159C43.5475 59.9984 44.26 60.3384 45.01 60.3384H57.51C58.2625 60.3384 58.9725 59.9984 59.4475 59.4159C59.9225 58.8359 60.11 58.0684 59.9575 57.3309C59.12 53.2809 55.46 50.3384 51.26 50.3384Z" fill="black"/>
</svg>
