<svg width="60" height="61" viewBox="0 0 60 61" fill="none" xmlns="http://www.w3.org/2000/svg">
<g clip-path="url(#clip0_100_5722)">
<path d="M5.01172 6.58838C5.01172 3.13588 7.80922 0.338379 11.2617 0.338379C14.7142 0.338379 17.5117 3.13588 17.5117 6.58838C17.5117 10.0409 14.7142 12.8384 11.2617 12.8384C7.80922 12.8384 5.01172 10.0409 5.01172 6.58838ZM37.5117 17.8384C37.5117 19.2184 36.3942 20.3384 35.0117 20.3384H20.0117V57.8384C20.0117 59.2209 18.8942 60.3384 17.5117 60.3384C16.1292 60.3384 15.0117 59.2209 15.0117 57.8384V42.8384H10.0117V57.8384C10.0117 59.2209 8.89422 60.3384 7.51172 60.3384C6.12922 60.3384 5.01172 59.2209 5.01172 57.8384V41.4484C2.03672 39.7134 0.0117188 36.5234 0.0117188 32.8384V25.3384C0.0117188 19.8234 4.49672 15.3384 10.0117 15.3384H35.0117C36.3942 15.3384 37.5117 16.4584 37.5117 17.8384ZM51.2617 0.338379H20.6117C21.8092 2.12588 22.5117 4.27588 22.5117 6.58838C22.5117 7.91088 22.2417 9.16088 21.8217 10.3384H34.7142C38.3417 10.3384 41.6742 12.7834 42.3642 16.3434C43.2942 21.1309 39.6342 25.3384 35.0092 25.3384H25.0092V37.8384H40.0092V35.3384C40.0092 33.9584 41.1292 32.8384 42.5092 32.8384H47.5092C48.8892 32.8384 50.0092 33.9584 50.0092 35.3384V37.8384H51.2592C56.0917 37.8384 60.0092 33.9209 60.0092 29.0884V9.08838C60.0092 4.25588 56.0942 0.338379 51.2617 0.338379Z" fill="black"/>
</g>
<defs>
<clipPath id="clip0_100_5722">
<rect width="60" height="60" fill="white" transform="translate(0.00976562 0.338379)"/>
</clipPath>
</defs>
</svg>
