<svg width="60" height="61" viewBox="0 0 60 61" fill="none" xmlns="http://www.w3.org/2000/svg">
<g clip-path="url(#clip0_100_5993)">
<path d="M33.2149 19.8406C33.2149 18.0599 31.7661 16.6111 29.9854 16.6111C28.2047 16.6111 26.7559 18.0594 26.7559 19.8406V26.7194H33.2144V19.8406H33.2149Z" fill="black"/>
<path d="M53.168 4.05682C52.7657 3.914 43.1586 0.55127 29.986 0.55127C16.8134 0.55127 7.20627 3.914 6.80344 4.05682C6.10306 4.3063 5.63477 4.9696 5.63477 5.71347V49.5718C5.63477 50.2081 5.979 50.795 6.53473 51.1058C6.70547 51.2014 10.7668 53.4674 15.6516 55.7722C22.3715 58.9431 27.1945 60.5513 29.986 60.5513C32.7774 60.5513 37.6004 58.9431 44.3204 55.7722C49.2047 53.4674 53.2664 51.2014 53.4367 51.1058C53.9925 50.795 54.3372 50.2081 54.3372 49.5718V5.71347C54.3372 4.9696 53.8689 4.3063 53.168 4.05682ZM17.5069 28.4767C17.5069 27.5062 18.2938 26.7189 19.2647 26.7189H20.8971V19.8405C20.8971 14.8207 24.9666 10.7516 29.986 10.7516C35.0058 10.7516 39.0749 14.8207 39.0749 19.8405V26.7193H40.7072C41.6782 26.7193 42.4651 27.5062 42.4651 28.4771V42.8248C42.4651 43.7957 41.6782 44.5826 40.7072 44.5826H19.2647C18.2938 44.5826 17.5069 43.7957 17.5069 42.8248V28.4767Z" fill="black"/>
<path d="M29.9863 31.7253C29.0154 31.7253 28.2285 32.5127 28.2285 33.4832V37.9029C28.2285 38.8738 29.0154 39.6607 29.9863 39.6607C30.9568 39.6607 31.7441 38.8738 31.7441 37.9029V33.4832C31.7441 32.5122 30.9568 31.7253 29.9863 31.7253Z" fill="black"/>
</g>
<defs>
<clipPath id="clip0_100_5993">
<rect width="60" height="60" fill="white" transform="translate(0.00976562 0.55127)"/>
</clipPath>
</defs>
</svg>
