<svg width="60" height="61" viewBox="0 0 60 61" fill="none" xmlns="http://www.w3.org/2000/svg">
<g clip-path="url(#clip0_100_5970)">
<path d="M30.0093 0.55127C28.9292 0.55127 28.0527 1.42701 28.0527 2.50783V6.42084C28.0527 7.50166 28.9292 8.3774 30.0093 8.3774C31.0894 8.3774 31.9659 7.50166 31.9659 6.42084V2.50783C31.9659 1.42701 31.0894 0.55127 30.0093 0.55127Z" fill="black"/>
<path d="M6.53168 27.9426H2.61867C1.53855 27.9426 0.662109 28.8191 0.662109 29.8992C0.662109 30.9793 1.53855 31.8558 2.61867 31.8558H6.53168C7.6118 31.8558 8.48824 30.9793 8.48824 29.8992C8.48824 28.8191 7.6118 27.9426 6.53168 27.9426Z" fill="black"/>
<path d="M57.4008 27.9426H53.4878C52.4077 27.9426 51.5312 28.8191 51.5312 29.8992C51.5312 30.9793 52.4077 31.8558 53.4878 31.8558H57.4008C58.4809 31.8558 59.3574 30.9793 59.3574 29.8992C59.3574 28.8191 58.4809 27.9426 57.4008 27.9426Z" fill="black"/>
<path d="M50.762 9.14727C49.9978 8.38297 48.7596 8.38367 47.9953 9.14656L45.2274 11.9132C44.4633 12.6774 44.4633 13.9162 45.2274 14.6805C45.6096 15.0627 46.1102 15.2538 46.6107 15.2538C47.1113 15.2538 47.612 15.0627 47.994 14.6812L50.762 11.9145C51.5263 11.1504 51.5263 9.91156 50.762 9.14727Z" fill="black"/>
<path d="M14.7911 11.9132L12.0233 9.14656C11.2591 8.38355 10.0209 8.38309 9.25673 9.14727C8.49255 9.91145 8.49255 11.1502 9.25673 11.9145L12.0247 14.6812C12.4068 15.0628 12.9075 15.2538 13.408 15.2538C13.9085 15.2538 14.4092 15.0627 14.7913 14.6805C15.5553 13.9163 15.5553 12.6777 14.7911 11.9132Z" fill="black"/>
<path d="M49.5753 51.4209H10.4448C9.36437 51.4209 8.48828 52.2969 8.48828 53.3775V58.5949C8.48828 59.6754 9.36426 60.5514 10.4448 60.5514H49.5753C50.6557 60.5514 51.5318 59.6755 51.5318 58.5949V53.3775C51.5317 52.2969 50.6557 51.4209 49.5753 51.4209Z" fill="black"/>
<path d="M30.0091 12.2905C20.2992 12.2905 12.4004 20.1893 12.4004 29.8992V47.5079H47.6178V29.8992C47.6178 20.1892 39.719 12.2905 30.0091 12.2905ZM37.8352 31.8557C36.7551 31.8557 35.8787 30.9792 35.8787 29.8991C35.8787 26.6625 33.2457 24.0296 30.0091 24.0296C28.929 24.0296 28.0525 23.1531 28.0525 22.073C28.0525 20.9929 28.929 20.1164 30.0091 20.1164C35.4035 20.1164 39.7917 24.5046 39.7917 29.899C39.7917 30.9794 38.9153 31.8557 37.8352 31.8557Z" fill="black"/>
</g>
<defs>
<clipPath id="clip0_100_5970">
<rect width="60" height="60" fill="white" transform="translate(0.00976562 0.55127)"/>
</clipPath>
</defs>
</svg>
