<svg width="60" height="61" viewBox="0 0 60 61" fill="none" xmlns="http://www.w3.org/2000/svg">
<g clip-path="url(#clip0_100_5998)">
<path d="M10.0098 17.4263C10.0098 10.8788 15.3373 5.55127 21.8848 5.55127H44.7173C43.8948 2.67377 41.2723 0.55127 38.1348 0.55127H9.38477C5.59227 0.55127 2.50977 3.63377 2.50977 7.42627V46.1763C2.50977 49.9688 5.59227 53.0513 9.38477 53.0513H10.0098V17.4263Z" fill="black"/>
<path d="M50.6348 10.5513H21.8848C18.0923 10.5513 15.0098 13.6338 15.0098 17.4263V53.6763C15.0098 57.4688 18.0923 60.5513 21.8848 60.5513H50.6348C54.4273 60.5513 57.5098 57.4688 57.5098 53.6763V17.4263C57.5098 13.6338 54.4273 10.5513 50.6348 10.5513ZM45.6348 53.0513H26.8848C25.8498 53.0513 25.0098 52.2113 25.0098 51.1763C25.0098 50.1413 25.8498 49.3013 26.8848 49.3013H45.6348C46.6698 49.3013 47.5098 50.1413 47.5098 51.1763C47.5098 52.2113 46.6698 53.0513 45.6348 53.0513ZM45.6348 43.0513H26.8848C25.8498 43.0513 25.0098 42.2113 25.0098 41.1763C25.0098 40.1413 25.8498 39.3013 26.8848 39.3013H45.6348C46.6698 39.3013 47.5098 40.1413 47.5098 41.1763C47.5098 42.2113 46.6698 43.0513 45.6348 43.0513ZM45.6348 34.3013H26.8848C25.8498 34.3013 25.0098 33.4613 25.0098 32.4263C25.0098 31.3913 25.8498 30.5513 26.8848 30.5513H45.6348C46.6698 30.5513 47.5098 31.3913 47.5098 32.4263C47.5098 33.4613 46.6698 34.3013 45.6348 34.3013ZM45.6348 24.3013H26.8848C25.8498 24.3013 25.0098 23.4613 25.0098 22.4263C25.0098 21.3913 25.8498 20.5513 26.8848 20.5513H45.6348C46.6698 20.5513 47.5098 21.3913 47.5098 22.4263C47.5098 23.4613 46.6698 24.3013 45.6348 24.3013Z" fill="black"/>
</g>
<defs>
<clipPath id="clip0_100_5998">
<rect width="60" height="60" fill="white" transform="translate(0.00976562 0.55127)"/>
</clipPath>
</defs>
</svg>
