<svg width="60" height="61" viewBox="0 0 60 61" fill="none" xmlns="http://www.w3.org/2000/svg">
<path d="M54.8297 40.2577L50.3033 35.7313C49.6867 35.1181 48.8531 34.7727 47.9834 34.77H39.3848C38.5148 34.7711 37.6809 35.1171 37.0657 35.7322C36.4506 36.3474 36.1046 37.1814 36.1035 38.0513V53.0513C36.1046 53.9212 36.4506 54.7552 37.0657 55.3703C37.6809 55.9854 38.5148 56.3315 39.3848 56.3325H52.5098C53.3797 56.3315 54.2137 55.9854 54.8288 55.3703C55.4439 54.7552 55.79 53.9212 55.791 53.0513V42.5776C55.7923 42.1466 55.708 41.7195 55.543 41.3213C55.378 40.923 55.1355 40.5615 54.8297 40.2577ZM43.1348 42.27H45.0098C45.3827 42.27 45.7404 42.4182 46.0041 42.6819C46.2679 42.9456 46.416 43.3033 46.416 43.6763C46.416 44.0492 46.2679 44.4069 46.0041 44.6706C45.7404 44.9344 45.3827 45.0825 45.0098 45.0825H43.1348C42.7618 45.0825 42.4041 44.9344 42.1404 44.6706C41.8767 44.4069 41.7285 44.0492 41.7285 43.6763C41.7285 43.3033 41.8767 42.9456 42.1404 42.6819C42.4041 42.4182 42.7618 42.27 43.1348 42.27ZM48.7598 50.7075H43.1348C42.7618 50.7075 42.4041 50.5594 42.1404 50.2956C41.8767 50.0319 41.7285 49.6742 41.7285 49.3013C41.7285 48.9283 41.8767 48.5706 42.1404 48.3069C42.4041 48.0432 42.7618 47.895 43.1348 47.895H48.7598C49.1327 47.895 49.4904 48.0432 49.7541 48.3069C50.0179 48.5706 50.166 48.9283 50.166 49.3013C50.166 49.6742 50.0179 50.0319 49.7541 50.2956C49.4904 50.5594 49.1327 50.7075 48.7598 50.7075ZM48.7598 45.0825C48.4816 45.0825 48.2098 45 47.9785 44.8455C47.7472 44.691 47.567 44.4714 47.4606 44.2144C47.3541 43.9575 47.3263 43.6747 47.3805 43.4019C47.4348 43.1291 47.5687 42.8786 47.7654 42.6819C47.9621 42.4852 48.2126 42.3513 48.4854 42.297C48.7582 42.2428 49.041 42.2706 49.2979 42.3771C49.5549 42.4835 49.7745 42.6637 49.929 42.895C50.0835 43.1263 50.166 43.3981 50.166 43.6763C50.166 44.0492 50.0178 44.4069 49.7541 44.6706C49.4904 44.9343 49.1327 45.0825 48.7598 45.0825Z" fill="black"/>
<path d="M22.9547 40.2577L18.4283 35.7313C18.1244 35.4257 17.7629 35.1833 17.3647 35.0183C16.9664 34.8533 16.5395 34.7689 16.1084 34.77H7.50977C6.63985 34.7711 5.80586 35.1171 5.19074 35.7323C4.57561 36.3474 4.22957 37.1814 4.22852 38.0513V53.0513C4.22957 53.9212 4.57561 54.7552 5.19074 55.3703C5.80586 55.9854 6.63985 56.3315 7.50977 56.3325H20.6348C21.5047 56.3315 22.3387 55.9854 22.9538 55.3703C23.5689 54.7552 23.915 53.9212 23.916 53.0513V42.5776C23.9171 42.1466 23.8327 41.7196 23.6677 41.3214C23.5027 40.9232 23.2604 40.5616 22.9547 40.2577ZM11.2598 42.27H13.1348C13.5077 42.27 13.8654 42.4182 14.1291 42.6819C14.3929 42.9456 14.541 43.3033 14.541 43.6763C14.541 44.0492 14.3929 44.4069 14.1291 44.6707C13.8654 44.9344 13.5077 45.0825 13.1348 45.0825H11.2598C10.8868 45.0825 10.5291 44.9344 10.2654 44.6707C10.0017 44.4069 9.85352 44.0492 9.85352 43.6763C9.85352 43.3033 10.0017 42.9456 10.2654 42.6819C10.5291 42.4182 10.8868 42.27 11.2598 42.27ZM16.8848 50.7075H11.2598C10.8868 50.7075 10.5291 50.5594 10.2654 50.2957C10.0017 50.0319 9.85352 49.6742 9.85352 49.3013C9.85352 48.9283 10.0017 48.5706 10.2654 48.3069C10.5291 48.0432 10.8868 47.895 11.2598 47.895H16.8848C17.2577 47.895 17.6154 48.0432 17.8791 48.3069C18.1429 48.5706 18.291 48.9283 18.291 49.3013C18.291 49.6742 18.1429 50.0319 17.8791 50.2957C17.6154 50.5594 17.2577 50.7075 16.8848 50.7075ZM16.8848 45.0825C16.6066 45.0825 16.3348 45.0001 16.1035 44.8455C15.8722 44.691 15.692 44.4714 15.5856 44.2144C15.4791 43.9575 15.4513 43.6747 15.5055 43.4019C15.5598 43.1291 15.6937 42.8786 15.8904 42.6819C16.0871 42.4852 16.3376 42.3513 16.6104 42.2971C16.8832 42.2428 17.166 42.2706 17.4229 42.3771C17.6799 42.4835 17.8995 42.6638 18.054 42.895C18.2085 43.1263 18.291 43.3982 18.291 43.6763C18.291 44.0492 18.1428 44.4069 17.8791 44.6706C17.6154 44.9343 17.2577 45.0825 16.8848 45.0825Z" fill="black"/>
<path d="M37.5098 48.8325H22.5098C22.1368 48.8325 21.7791 48.6844 21.5154 48.4206C21.2517 48.1569 21.1035 47.7992 21.1035 47.4263C21.1035 47.0533 21.2517 46.6956 21.5154 46.4319C21.7791 46.1682 22.1368 46.02 22.5098 46.02H37.5098C37.8827 46.02 38.2404 46.1682 38.5041 46.4319C38.7679 46.6956 38.916 47.0533 38.916 47.4263C38.916 47.7992 38.7679 48.1569 38.5041 48.4206C38.2404 48.6844 37.8827 48.8325 37.5098 48.8325Z" fill="black"/>
<path d="M30.0098 48.8325C29.6368 48.8324 29.2792 48.6842 29.0155 48.4205C28.7518 48.1568 28.6036 47.7992 28.6035 47.4263V34.3013C28.6035 33.9283 28.7517 33.5706 29.0154 33.3069C29.2791 33.0432 29.6368 32.895 30.0098 32.895C30.3827 32.895 30.7404 33.0432 31.0041 33.3069C31.2679 33.5706 31.416 33.9283 31.416 34.3013V47.4263C31.4159 47.7992 31.2677 48.1568 31.004 48.4205C30.7403 48.6842 30.3827 48.8324 30.0098 48.8325Z" fill="black"/>
<path d="M30.0098 25.395C32.8575 25.395 35.166 23.0865 35.166 20.2388C35.166 17.3911 32.8575 15.0825 30.0098 15.0825C27.162 15.0825 24.8535 17.3911 24.8535 20.2388C24.8535 23.0865 27.162 25.395 30.0098 25.395Z" fill="black"/>
<path d="M44.3533 17.0514H43.5184C43.1793 17.0449 42.8506 16.9332 42.5778 16.7317C42.305 16.5302 42.1017 16.2489 41.9959 15.9266C41.8594 15.5465 41.7058 15.175 41.5349 14.8122C41.382 14.5094 41.327 14.1666 41.3774 13.8311C41.4279 13.4957 41.5813 13.1842 41.8164 12.9397L42.406 12.3501C42.5541 12.2021 42.6715 12.0264 42.7516 11.8331C42.8317 11.6397 42.8729 11.4324 42.8729 11.2231C42.8729 11.0138 42.8317 10.8065 42.7516 10.6132C42.6715 10.4198 42.5541 10.2441 42.406 10.0961L40.152 7.84208C39.8531 7.54332 39.4478 7.37552 39.0252 7.37556C38.6025 7.3756 38.1973 7.54349 37.8984 7.8423L37.3088 8.43189C37.0643 8.66714 36.7528 8.82062 36.4173 8.87109C36.0818 8.92157 35.7389 8.86655 35.4361 8.71365C35.0736 8.54291 34.7022 8.38916 34.3219 8.2524C33.9997 8.14667 33.7184 7.94338 33.5169 7.67069C33.3154 7.39799 33.2037 7.06939 33.1973 6.73039V5.89502C33.1973 5.47236 33.0294 5.06702 32.7305 4.76813C32.4317 4.46925 32.0264 4.30132 31.6037 4.30127H28.4158C27.9932 4.30134 27.5879 4.46929 27.2891 4.76817C26.9902 5.06705 26.8224 5.47238 26.8224 5.89502V6.73043C26.8159 7.06945 26.7042 7.39807 26.5027 7.67078C26.3012 7.94349 26.0198 8.14678 25.6976 8.25249C25.3176 8.38889 24.9462 8.54264 24.5834 8.71374C24.2806 8.86665 23.9377 8.92165 23.6022 8.87114C23.2667 8.82062 22.9551 8.66708 22.7107 8.43176L22.1211 7.84239C21.8223 7.54358 21.417 7.3757 20.9944 7.37565C20.5718 7.37561 20.1665 7.54342 19.8676 7.84217L17.6135 10.0961C17.4655 10.2441 17.3481 10.4198 17.268 10.6132C17.1878 10.8065 17.1466 11.0138 17.1466 11.2231C17.1466 11.4324 17.1878 11.6397 17.268 11.8331C17.3481 12.0264 17.4655 12.2021 17.6135 12.3501L18.2031 12.9397C18.4383 13.1842 18.5917 13.4957 18.6421 13.8311C18.6925 14.1666 18.6375 14.5094 18.4846 14.8122C18.3139 15.1747 18.1603 15.5462 18.0237 15.9266C17.9179 16.2489 17.7145 16.5302 17.4417 16.7317C17.169 16.9332 16.8403 17.0449 16.5012 17.0514H15.6662C15.4569 17.0513 15.2496 17.0925 15.0563 17.1726C14.8629 17.2527 14.6872 17.3701 14.5392 17.5181C14.3912 17.666 14.2737 17.8417 14.1936 18.0351C14.1135 18.2285 14.0723 18.4357 14.0723 18.645V21.8325C14.0723 22.0418 14.1135 22.2491 14.1936 22.4425C14.2737 22.6358 14.3911 22.8115 14.5391 22.9595C14.6871 23.1075 14.8629 23.2249 15.0562 23.305C15.2496 23.3851 15.4569 23.4263 15.6662 23.4263H16.5012C16.8402 23.4327 17.1689 23.5444 17.4417 23.7459C17.7145 23.9474 17.9179 24.2288 18.0237 24.551C18.1601 24.9312 18.3137 25.3026 18.4846 25.6654C18.6375 25.9682 18.6925 26.3111 18.6421 26.6465C18.5917 26.9819 18.4383 27.2934 18.2031 27.5379L17.6135 28.1275C17.4655 28.2755 17.3481 28.4512 17.2679 28.6446C17.1878 28.8379 17.1466 29.0452 17.1466 29.2545C17.1466 29.4638 17.1878 29.6711 17.2679 29.8645C17.3481 30.0578 17.4655 30.2335 17.6135 30.3815L19.8675 32.6356C20.0154 32.7836 20.191 32.901 20.3843 32.9812C20.5775 33.0613 20.7847 33.1026 20.9939 33.1026C21.2032 33.1027 21.4104 33.0616 21.6037 32.9815C21.797 32.9015 21.9727 32.7842 22.1206 32.6363L22.7116 32.045C22.956 31.8099 23.2674 31.6565 23.6027 31.6061C23.9381 31.5558 24.2808 31.6109 24.5834 31.764C24.9459 31.9347 25.3173 32.0885 25.6976 32.2252C26.0198 32.3309 26.3011 32.5342 26.5027 32.8069C26.7042 33.0797 26.8159 33.4083 26.8223 33.7473V34.5825C26.8223 35.0052 26.9902 35.4105 27.289 35.7094C27.5879 36.0082 27.9932 36.1762 28.4158 36.1763H31.6037C32.0263 36.1762 32.4317 36.0083 32.7305 35.7094C33.0294 35.4105 33.1973 35.0052 33.1973 34.5825V33.7471C33.2037 33.4081 33.3154 33.0795 33.517 32.8068C33.7185 32.5341 33.9998 32.3308 34.322 32.225C34.702 32.0884 35.0734 31.9346 35.4362 31.7638C35.739 31.6109 36.0819 31.5559 36.4174 31.6063C36.7529 31.6568 37.0644 31.8103 37.3089 32.0455L37.8985 32.6351C38.1974 32.934 38.6026 33.1018 39.0252 33.1019C39.4478 33.1019 39.8532 32.9341 40.1521 32.6354L42.4061 30.3813C42.5541 30.2334 42.6716 30.0577 42.7517 29.8643C42.8318 29.6709 42.873 29.4636 42.873 29.2543C42.873 29.045 42.8318 28.8378 42.7517 28.6444C42.6716 28.451 42.5541 28.2753 42.4061 28.1273L41.8165 27.5377C41.5814 27.2932 41.4279 26.9818 41.3775 26.6463C41.3271 26.3109 41.3821 25.9681 41.535 25.6652C41.7057 25.3027 41.8594 24.9313 41.9959 24.5508C42.1017 24.2286 42.3051 23.9472 42.5779 23.7457C42.8507 23.5442 43.1794 23.4325 43.5184 23.4261H44.3534C44.5627 23.4261 44.77 23.3849 44.9634 23.3048C45.1567 23.2247 45.3325 23.1073 45.4805 22.9594C45.6285 22.8114 45.7459 22.6357 45.826 22.4423C45.9061 22.2489 45.9473 22.0416 45.9473 21.8323V18.645C45.9473 18.4357 45.9061 18.2285 45.826 18.0351C45.7459 17.8417 45.6284 17.666 45.4804 17.518C45.3324 17.37 45.1567 17.2527 44.9633 17.1726C44.7699 17.0925 44.5626 17.0513 44.3533 17.0514ZM30.0098 28.2075C28.4337 28.2075 26.893 27.7402 25.5826 26.8645C24.2721 25.9889 23.2507 24.7444 22.6476 23.2883C22.0445 21.8322 21.8867 20.2299 22.1941 18.6841C22.5016 17.1384 23.2606 15.7185 24.375 14.604C25.4895 13.4896 26.9094 12.7306 28.4551 12.4231C30.0009 12.1157 31.6032 12.2735 33.0593 12.8766C34.5154 13.4797 35.7599 14.5011 36.6355 15.8116C37.5112 17.122 37.9785 18.6627 37.9785 20.2388C37.976 22.3514 37.1356 24.3769 35.6417 25.8707C34.1479 27.3646 32.1224 28.205 30.0098 28.2075Z" fill="black"/>
</svg>
