<svg width="60" height="61" viewBox="0 0 60 61" fill="none" xmlns="http://www.w3.org/2000/svg">
<path fill-rule="evenodd" clip-rule="evenodd" d="M52.5098 19.9263C54.9248 19.9263 56.8848 17.9713 56.8848 15.5513V8.05127C56.8848 5.63127 54.9248 3.67627 52.5098 3.67627H45.0098C42.5948 3.67627 40.6348 5.63127 40.6348 8.05127V15.5513C40.6348 17.9713 42.5948 19.9263 45.0098 19.9263H52.5098Z" fill="black"/>
<path fill-rule="evenodd" clip-rule="evenodd" d="M52.5098 38.6763C54.9248 38.6763 56.8848 36.7213 56.8848 34.3013V26.8013C56.8848 24.3813 54.9248 22.4263 52.5098 22.4263H45.0098C42.5948 22.4263 40.6348 24.3813 40.6348 26.8013V34.3013C40.6348 36.7213 42.5948 38.6763 45.0098 38.6763H52.5098Z" fill="black"/>
<path fill-rule="evenodd" clip-rule="evenodd" d="M52.5098 57.4263C54.9248 57.4263 56.8848 55.4713 56.8848 53.0513V45.5513C56.8848 43.1313 54.9248 41.1763 52.5098 41.1763H45.0098C42.5948 41.1763 40.6348 43.1313 40.6348 45.5513V53.0513C40.6348 55.4713 42.5948 57.4263 45.0098 57.4263H52.5098Z" fill="black"/>
<path fill-rule="evenodd" clip-rule="evenodd" d="M29.3848 32.4263H42.5098C43.5448 32.4263 44.3848 31.5863 44.3848 30.5513C44.3848 29.5163 43.5448 28.6763 42.5098 28.6763H29.3848C28.3498 28.6763 27.5098 29.5163 27.5098 30.5513C27.5098 31.5863 28.3498 32.4263 29.3848 32.4263Z" fill="black"/>
<path fill-rule="evenodd" clip-rule="evenodd" d="M38.1348 48.6763V14.9263H42.5098C43.5448 14.9263 44.3848 14.0863 44.3848 13.0513C44.3848 12.0163 43.5448 11.1763 42.5098 11.1763H37.5098C35.7848 11.1763 34.3848 12.5763 34.3848 14.3013V49.3013C34.3848 51.0263 35.7848 52.4263 37.5098 52.4263H42.5098C43.5448 52.4263 44.3848 51.5863 44.3848 50.5513C44.3848 49.5163 43.5448 48.6763 42.5098 48.6763H38.1348Z" fill="black"/>
<path fill-rule="evenodd" clip-rule="evenodd" d="M31.2598 41.0513V20.6463C31.2598 19.6588 30.8448 18.7188 30.1148 18.0563C28.5023 16.5913 23.6923 12.2163 22.1723 10.8363C21.5298 10.2513 20.6898 9.92627 19.8198 9.92627C17.8973 9.92627 12.0073 9.92627 8.25977 9.92627C6.89977 9.92627 5.59727 10.4663 4.63477 11.4263C3.67477 12.3888 3.13477 13.6913 3.13477 15.0513V41.0513C3.13477 42.4113 3.67477 43.7138 4.63477 44.6763C5.59727 45.6363 6.89977 46.1763 8.25977 46.1763H26.1348C27.4948 46.1763 28.7973 45.6363 29.7598 44.6763C30.7198 43.7138 31.2598 42.4113 31.2598 41.0513ZM18.1373 13.6813C18.4723 13.7213 18.7873 13.8638 19.0398 14.0938C20.5598 15.4738 25.3698 19.8463 26.9798 21.3113C27.2973 21.5988 27.4848 21.9963 27.5098 22.4213H18.9498C18.7348 22.4213 18.5273 22.3363 18.3748 22.1838C18.2223 22.0313 18.1373 21.8238 18.1373 21.6088V13.6813Z" fill="black"/>
</svg>
