<svg width="60" height="61" viewBox="0 0 60 61" fill="none" xmlns="http://www.w3.org/2000/svg">
<g clip-path="url(#clip0_100_5885)">
<path fill-rule="evenodd" clip-rule="evenodd" d="M34.9423 5.57709C38.3058 6.23768 41.4311 7.56154 44.1779 9.40549L49.1031 7.21807L53.343 11.4578L51.1562 16.3814C53.001 19.1284 54.3245 22.2549 54.9852 25.6191L60.0098 27.5531V33.5493L54.9839 35.4839C54.3234 38.8474 52.9995 41.9726 51.1555 44.7194L53.3429 49.6446L49.1031 53.8845L44.1795 51.6976C41.4325 53.5424 38.3059 54.8658 34.942 55.5266L33.0079 60.5513H27.0119L25.0772 55.5255C21.7137 54.8649 18.5886 53.541 15.8418 51.6971L10.9165 53.8845L6.67656 49.6446L8.8634 44.721C7.01852 41.974 5.69523 38.8473 5.03441 35.4833L0.00976562 33.5493V27.5531L5.03523 25.6187C5.69582 22.255 7.01945 19.1292 8.86375 16.3827L6.67656 11.458L10.9164 7.21818L15.8414 9.40561C18.5883 7.56166 21.7136 6.23779 25.0771 5.57721L27.0118 0.55127H33.0078L34.9423 5.57709ZM20.7194 30.1636L21.7911 29.385V39.1146C21.7911 40.5055 22.9291 41.6435 24.3198 41.6435H27.5586V33.1601C27.5586 32.5058 28.0939 31.9705 28.7481 31.9705H31.2715C31.9258 31.9705 32.4611 32.5058 32.4611 33.1601V41.6435H35.6997C37.0906 41.6435 38.2286 40.5055 38.2286 39.1146V29.385L39.3003 30.1636C40.0912 30.7368 41.197 30.5602 41.7701 29.7693C42.3432 28.9784 42.1667 27.8726 41.3758 27.2994L31.0783 19.8178C30.4741 19.3596 29.6181 19.3275 28.9722 19.7956L18.6441 27.2994C17.8532 27.8725 17.6767 28.9783 18.2498 29.7693C18.8227 30.5602 19.9285 30.7368 20.7194 30.1636ZM30.0098 13.1707C20.4107 13.1707 12.6292 20.9523 12.6292 30.5513C12.6292 40.1502 20.4108 47.9317 30.0098 47.9317C39.6087 47.9317 47.3902 40.1502 47.3902 30.5513C47.3903 20.9523 39.6087 13.1707 30.0098 13.1707Z" fill="black"/>
</g>
<defs>
<clipPath id="clip0_100_5885">
<rect width="60" height="60" fill="white" transform="translate(0.00976562 0.55127)"/>
</clipPath>
</defs>
</svg>
