<svg width="60" height="61" viewBox="0 0 60 61" fill="none" xmlns="http://www.w3.org/2000/svg">
<g clip-path="url(#clip0_100_5878)">
<path d="M60.0098 32.957V28.1456C60.0098 27.1815 59.2282 26.4 58.2641 26.4H53.8492C53.2268 22.8151 51.8131 19.4985 49.7948 16.637L52.924 13.5078C53.6057 12.8261 53.6057 11.7208 52.924 11.0391L49.5218 7.63701C48.8402 6.95533 47.735 6.95533 47.0532 7.63701L43.9239 10.7663C41.0624 8.74783 37.7458 7.33432 34.1609 6.71182V2.29689C34.161 1.33279 33.3795 0.55127 32.4154 0.55127H27.604C26.6399 0.55127 25.8584 1.33279 25.8584 2.29689V6.71182C22.2735 7.33432 18.9569 8.74795 16.0954 10.7663L12.9661 7.63701C12.2845 6.95533 11.1793 6.95533 10.4975 7.63701L7.09551 11.0391C6.41383 11.7208 6.41383 12.826 7.09551 13.5078L10.2248 16.637C8.20645 19.4985 6.7927 22.8151 6.17031 26.4H1.75539C0.791289 26.4 0.00976562 27.1815 0.00976562 28.1455V32.9569C0.00976562 33.921 0.791289 34.7025 1.75539 34.7025H6.17031C6.7927 38.2874 8.20645 41.604 10.2248 44.4655L7.09551 47.5948C6.41383 48.2765 6.41383 49.3818 7.09551 50.0635L10.4976 53.4655C11.1793 54.1472 12.2846 54.1472 12.9662 53.4655L16.0955 50.3363C18.957 52.3547 22.2736 53.7683 25.8585 54.3908V58.8058C25.8585 59.7699 26.64 60.5514 27.6041 60.5514H32.4155C33.3796 60.5514 34.1611 59.7699 34.1611 58.8058V54.3908C37.746 53.7683 41.0627 52.3547 43.9241 50.3363L47.0534 53.4655C47.7351 54.1472 48.8404 54.1472 49.5221 53.4655L52.9241 50.0635C53.6058 49.3818 53.6058 48.2765 52.9241 47.5948L49.7949 44.4655C51.8132 41.604 53.2268 38.2874 53.8493 34.7025H58.2643C59.2282 34.7025 60.0098 33.921 60.0098 32.957ZM30.39 47.4627C20.7625 47.6751 12.886 39.7985 13.0983 30.171C13.2971 21.1627 20.6212 13.8386 29.6295 13.6398C39.257 13.4275 47.1336 21.3039 46.9212 30.9315C46.7225 39.9399 39.3984 47.264 30.39 47.4627Z" fill="black"/>
<path d="M35.177 21.922V20.1997C35.177 19.3783 34.2881 18.8645 33.5763 19.2744L31.5415 20.4463C28.8339 22.0056 27.5987 25.3122 28.7394 28.2211C28.7713 28.3024 28.8049 28.3834 28.8403 28.4639C29.6099 30.2169 28.6403 32.2893 26.7761 32.725C26.7243 32.737 26.6718 32.7479 26.6188 32.7575C24.9232 33.0643 23.2999 31.9384 22.9931 30.2428C22.8949 29.6998 22.1432 29.622 21.9409 30.1354C21.2918 31.7825 21.1373 33.6506 21.6308 35.5258C22.7421 39.7483 26.7649 42.4539 31.0961 41.9006C36.0605 41.2664 39.4207 36.6183 38.5411 31.7559C38.3154 30.5083 37.8328 29.3722 37.1579 28.3916C35.8454 26.4849 35.1203 24.236 35.177 21.922Z" fill="black"/>
</g>
<defs>
<clipPath id="clip0_100_5878">
<rect width="60" height="60" fill="white" transform="translate(0.00976562 0.55127)"/>
</clipPath>
</defs>
</svg>
