<svg width="60" height="61" viewBox="0 0 60 61" fill="none" xmlns="http://www.w3.org/2000/svg">
<path fill-rule="evenodd" clip-rule="evenodd" d="M37.1895 25.6013C37.1895 26.6025 38.0041 27.4171 39.0053 27.4171C40.0065 27.4171 40.8212 26.6025 40.8212 25.6013C40.8212 24.6 40.0077 23.7854 39.0053 23.7854C38.0041 23.7842 37.1895 24.6 37.1895 25.6013Z" fill="black"/>
<path d="M39.4205 35.5965C40.3963 35.3658 41.0003 34.3878 40.7697 33.412C40.539 32.4362 39.561 31.8322 38.5852 32.0628C37.6094 32.2935 37.0053 33.2715 37.236 34.2473C37.4667 35.2231 38.4447 35.8271 39.4205 35.5965Z" fill="black"/>
<path fill-rule="evenodd" clip-rule="evenodd" d="M39.0053 40.2781C38.0041 40.2781 37.1895 41.0927 37.1895 42.0939C37.1895 43.0951 38.0041 43.9098 39.0053 43.9098C40.0065 43.9098 40.8212 43.0951 40.8212 42.0939C40.8224 41.0927 40.0077 40.2781 39.0053 40.2781Z" fill="black"/>
<path fill-rule="evenodd" clip-rule="evenodd" d="M3.69922 17.0171V44.2635C3.69922 46.0318 5.13702 47.4684 6.9041 47.4684H33.7639C33.6797 47.2513 33.6334 47.0147 33.6334 46.7684V20.9281C33.6334 19.8537 34.509 18.9781 35.5834 18.9781H41.1846V17.0171C41.1846 15.2488 39.7468 13.8123 37.9797 13.8123H27.6675V30.6403C27.6675 30.9842 27.3895 31.2647 27.0431 31.2647H17.8382C17.4931 31.2647 17.2139 30.9854 17.2139 30.6403V13.8123H6.9041C5.1358 13.8123 3.69922 15.2501 3.69922 17.0171Z" fill="black"/>
<path fill-rule="evenodd" clip-rule="evenodd" d="M18.4629 13.8123H26.419V30.0171H18.4629V13.8123Z" fill="black"/>
<path fill-rule="evenodd" clip-rule="evenodd" d="M41.8072 20.2268H35.584V20.228C35.1974 20.228 34.8828 20.5427 34.8828 20.9292V46.7683C34.8828 47.1353 35.1657 47.4378 35.5255 47.4671H35.5853C35.6035 47.4671 35.6231 47.4683 35.6413 47.4695H55.6828C56.0694 47.4695 56.384 47.1549 56.384 46.7683V20.928C56.384 20.5414 56.0694 20.2268 55.6828 20.2268H41.8133H41.8109H41.8072ZM43.3828 23.7305H54.6999C55.045 23.7305 55.3243 24.0097 55.3243 24.3549C55.3243 24.7 55.045 24.9792 54.6999 24.9792H43.3828C43.0377 24.9792 42.7584 24.7 42.7584 24.3549C42.7584 24.0097 43.0389 23.7305 43.3828 23.7305ZM42.0706 25.6024C42.0706 27.2927 40.6962 28.6671 39.006 28.6671C37.3157 28.6671 35.9414 27.2927 35.9414 25.6024C35.9414 23.9122 37.3157 22.5378 39.006 22.5378C40.6962 22.5378 42.0706 23.9122 42.0706 25.6024ZM43.3828 26.4439H54.6999C55.045 26.4439 55.3243 26.7231 55.3243 27.0683C55.3243 27.4134 55.045 27.6927 54.6999 27.6927H43.3828C43.0377 27.6927 42.7584 27.4134 42.7584 27.0683C42.7584 26.7231 43.0389 26.4439 43.3828 26.4439ZM43.3828 29.1549H54.6999C55.045 29.1549 55.3243 29.4341 55.3243 29.7792C55.3243 30.1244 55.045 30.4036 54.6999 30.4036H43.3828C43.0377 30.4036 42.7584 30.1244 42.7584 29.7792C42.7584 29.4341 43.0389 29.1549 43.3828 29.1549ZM43.3828 31.8683H54.6999C55.045 31.8683 55.3243 32.1475 55.3243 32.4927C55.3243 32.8378 55.045 33.1171 54.6999 33.1171H43.3828C43.0377 33.1171 42.7584 32.8378 42.7584 32.4927C42.7584 32.1475 43.0389 31.8683 43.3828 31.8683ZM43.3828 34.5792H54.6999C55.045 34.5792 55.3243 34.8585 55.3243 35.2036C55.3243 35.5488 55.045 35.828 54.6999 35.828H43.3828C43.0377 35.828 42.7584 35.5488 42.7584 35.2036C42.7584 34.8597 43.0389 34.5792 43.3828 34.5792ZM43.3828 37.2927H54.6999C55.045 37.2927 55.3243 37.5719 55.3243 37.9171C55.3243 38.2622 55.045 38.5414 54.6999 38.5414H43.3828C43.0377 38.5414 42.7584 38.2622 42.7584 37.9171C42.7584 37.5719 43.0389 37.2927 43.3828 37.2927ZM43.3828 40.0049H54.6999C55.045 40.0049 55.3243 40.2841 55.3243 40.6292C55.3243 40.9744 55.045 41.2536 54.6999 41.2536H43.3828C43.0377 41.2536 42.7584 40.9744 42.7584 40.6292C42.7584 40.2853 43.0389 40.0049 43.3828 40.0049ZM43.3828 42.7171H54.6999C55.045 42.7171 55.3243 42.9963 55.3243 43.3414C55.3243 43.6866 55.045 43.9658 54.6999 43.9658H43.3828C43.0377 43.9658 42.7584 43.6866 42.7584 43.3414C42.7584 42.9963 43.0389 42.7171 43.3828 42.7171ZM39.006 39.0305C40.6962 39.0305 42.0706 40.4049 42.0706 42.0951C42.0706 43.7853 40.6962 45.1597 39.006 45.1597C37.3157 45.1597 35.9414 43.7853 35.9414 42.0951C35.9414 40.4049 37.3157 39.0305 39.006 39.0305ZM39.006 30.7829C40.6962 30.7829 42.0706 32.1573 42.0706 33.8475C42.0706 35.5378 40.6962 36.9122 39.006 36.9122C37.3157 36.9122 35.9414 35.5378 35.9414 33.8475C35.9414 32.1573 37.3157 30.7829 39.006 30.7829Z" fill="black"/>
</svg>
