<svg width="60" height="61" viewBox="0 0 60 61" fill="none" xmlns="http://www.w3.org/2000/svg">
<path fill-rule="evenodd" clip-rule="evenodd" d="M18.9935 3.55127H54.2675C54.7449 3.55127 55.2027 3.74091 55.5403 4.07848C55.8778 4.41604 56.0675 4.87388 56.0675 5.35127V31.2233C56.0675 31.7007 55.8778 32.1585 55.5403 32.4961C55.2027 32.8336 54.7449 33.0233 54.2675 33.0233H34.0475C33.8765 33.0215 33.7083 32.9799 33.5562 32.9017C33.4042 32.8235 33.2725 32.7108 33.1717 32.5727C33.0709 32.4346 33.0037 32.2748 32.9756 32.1062C32.9474 31.9375 32.959 31.7646 33.0095 31.6013C33.4535 30.2033 33.8375 28.7993 34.2875 27.4013C34.2875 27.3353 34.3475 27.2753 34.4735 27.2093C35.4293 26.9747 36.2783 26.425 36.8835 25.6489C37.4887 24.8728 37.8149 23.9155 37.8095 22.9313C37.7875 21.762 37.3074 20.648 36.4727 19.8289C35.6379 19.0098 34.515 18.5511 33.3455 18.5513H24.4175C24.2409 18.5507 24.0672 18.5072 23.9113 18.4244C23.7554 18.3416 23.622 18.222 23.5227 18.076C23.4234 17.9301 23.3612 17.7621 23.3415 17.5867C23.3218 17.4112 23.3451 17.2337 23.4095 17.0693C23.7996 16.1175 23.9693 15.0898 23.9058 14.0631C23.8423 13.0364 23.5473 12.0375 23.0428 11.141C22.5383 10.2446 21.8374 9.474 20.9928 8.88695C20.1481 8.2999 19.1815 7.91164 18.1655 7.75127C17.9071 7.73309 17.6651 7.61784 17.4881 7.42864C17.3112 7.23945 17.2123 6.99032 17.2115 6.73127V5.35127C17.2115 4.87388 17.4011 4.41604 17.7387 4.07848C18.0762 3.74091 18.5341 3.55127 19.0115 3.55127H18.9935ZM4.38947 32.2433H30.4115C30.6406 32.2385 30.8623 32.1617 31.0454 32.0239C31.2285 31.886 31.3635 31.6941 31.4315 31.4753L31.7495 30.3293C31.7962 30.1685 31.8056 29.9991 31.7768 29.8341C31.748 29.6691 31.6819 29.5129 31.5834 29.3774C31.485 29.2419 31.3569 29.1307 31.2089 29.0523C31.0608 28.974 30.8969 28.9305 30.7295 28.9253H4.07147C3.90407 28.9305 3.74009 28.974 3.59208 29.0523C3.44406 29.1307 3.31593 29.2419 3.21749 29.3774C3.11905 29.5129 3.05292 29.6691 3.02414 29.8341C2.99537 29.9991 3.00471 30.1685 3.05147 30.3293L3.36947 31.4753C3.4382 31.6936 3.57348 31.8851 3.75636 32.0228C3.93925 32.1605 4.16061 32.2376 4.38947 32.2433ZM47.8895 37.7873C46.9686 37.7873 46.0684 38.0603 45.3027 38.5719C44.5371 39.0836 43.9403 39.8107 43.5879 40.6615C43.2355 41.5123 43.1433 42.4484 43.3229 43.3516C43.5026 44.2548 43.946 45.0844 44.5972 45.7356C45.2483 46.3867 46.078 46.8302 46.9811 47.0098C47.8843 47.1895 48.8205 47.0973 49.6712 46.7449C50.522 46.3925 51.2492 45.7957 51.7608 45.03C52.2724 44.2643 52.5455 43.3641 52.5455 42.4433C52.547 41.8314 52.4277 41.2252 52.1943 40.6596C51.9608 40.094 51.618 39.5801 51.1853 39.1474C50.7526 38.7148 50.2387 38.3719 49.6731 38.1385C49.1075 37.905 48.5013 37.7857 47.8895 37.7873ZM57.0095 54.9353V56.4653C57.0019 56.7509 56.885 57.0228 56.683 57.2248C56.4809 57.4268 56.2091 57.5437 55.9235 57.5513H39.8495C39.5715 57.5388 39.3093 57.4183 39.1188 57.2155C38.9283 57.0127 38.8245 56.7435 38.8295 56.4653V54.9353C38.8094 53.5576 39.2209 52.2082 40.0064 51.0763C40.7919 49.9443 41.9119 49.0866 43.2095 48.6233C43.4631 48.5521 43.7339 48.5756 43.9715 48.6893C45.1594 49.3931 46.5147 49.7645 47.8955 49.7645C49.2762 49.7645 50.6316 49.3931 51.8195 48.6893C51.926 48.6316 52.0431 48.596 52.1637 48.5847C52.2844 48.5733 52.406 48.5865 52.5215 48.6233C53.8328 49.0785 54.9696 49.931 55.774 51.0622C56.5783 52.1935 57.0102 53.5472 57.0095 54.9353ZM27.5435 37.7873C26.9184 37.7648 26.2952 37.8686 25.711 38.0923C25.1269 38.316 24.5939 38.6551 24.1437 39.0894C23.6935 39.5237 23.3355 40.0442 23.0909 40.62C22.8464 41.1957 22.7204 41.8148 22.7204 42.4403C22.7204 43.0658 22.8464 43.6849 23.0909 44.2606C23.3355 44.8363 23.6935 45.3568 24.1437 45.7911C24.5939 46.2254 25.1269 46.5645 25.711 46.7883C26.2952 47.012 26.9184 47.1157 27.5435 47.0933C28.1686 47.1157 28.7918 47.012 29.3759 46.7883C29.96 46.5645 30.4931 46.2254 30.9432 45.7911C31.3934 45.3568 31.7515 44.8363 31.996 44.2606C32.2405 43.6849 32.3666 43.0658 32.3666 42.4403C32.3666 41.8148 32.2405 41.1957 31.996 40.62C31.7515 40.0442 31.3934 39.5237 30.9432 39.0894C30.4931 38.6551 29.96 38.316 29.3759 38.0923C28.7918 37.8686 28.1686 37.7648 27.5435 37.7873ZM36.6095 54.9353V56.4653C36.6111 56.6088 36.5839 56.7513 36.5295 56.8842C36.4752 57.0171 36.3947 57.1377 36.2929 57.2389C36.1911 57.3402 36.07 57.42 35.9368 57.4736C35.8036 57.5273 35.661 57.5537 35.5175 57.5513H19.5035C19.3609 57.5521 19.2196 57.5245 19.0878 57.4701C18.956 57.4158 18.8364 57.3357 18.7359 57.2346C18.6353 57.1335 18.5559 57.0134 18.5023 56.8814C18.4487 56.7493 18.4219 56.6078 18.4235 56.4653V54.9353C18.4202 53.5499 18.8482 52.1979 19.6481 51.0668C20.448 49.9358 21.5802 49.0817 22.8875 48.6233C23.1213 48.5548 23.3725 48.5784 23.5895 48.6893C24.7762 49.3932 26.1306 49.7646 27.5105 49.7646C28.8903 49.7646 30.2447 49.3932 31.4315 48.6893C31.6712 48.5757 31.9439 48.5523 32.1995 48.6233C33.4942 49.0945 34.6123 49.9533 35.4014 51.0827C36.1905 52.2122 36.6124 53.5574 36.6095 54.9353ZM17.1455 9.79727C15.9106 9.79727 14.7263 10.2878 13.8532 11.161C12.98 12.0342 12.4895 13.2184 12.4895 14.4533C12.4895 15.6881 12.98 16.8724 13.8532 17.7456C14.7263 18.6187 15.9106 19.1093 17.1455 19.1093C18.3803 19.1093 19.5646 18.6187 20.4378 17.7456C21.3109 16.8724 21.8015 15.6881 21.8015 14.4533C21.8015 13.2184 21.3109 12.0342 20.4378 11.161C19.5646 10.2878 18.3803 9.79727 17.1455 9.79727ZM10.0655 47.7353H19.6955C20.1455 47.7353 20.6555 47.2853 21.0995 47.0933C21.3493 46.9548 21.5357 46.725 21.6196 46.452C21.7035 46.179 21.6784 45.8841 21.5495 45.6293C20.9906 44.5935 20.7108 43.4301 20.7375 42.2535C20.7642 41.0768 21.0964 39.9273 21.7016 38.9179C22.3068 37.9085 23.1641 37.0738 24.1893 36.4958C25.2146 35.9178 26.3725 35.6165 27.5495 35.6213C27.9335 35.6213 28.0595 35.4293 28.1495 35.0213C28.1684 34.8693 28.1545 34.7151 28.1086 34.569C28.0627 34.4229 27.9859 34.2884 27.8835 34.1746C27.7811 34.0608 27.6554 33.9704 27.5149 33.9094C27.3745 33.8484 27.2226 33.8184 27.0695 33.8213H8.53547C8.38217 33.8185 8.23005 33.8486 8.08934 33.9095C7.94863 33.9704 7.8226 34.0607 7.71972 34.1744C7.61683 34.2881 7.53948 34.4225 7.49287 34.5686C7.44625 34.7146 7.43146 34.869 7.44947 35.0213L9.04547 46.7513C9.06492 47.0098 9.18038 47.2516 9.36913 47.4293C9.55789 47.6069 9.80629 47.7075 10.0655 47.7113V47.7353ZM21.5495 20.6393H33.3455C36.3455 20.6393 36.3455 25.2293 33.3455 25.2293H25.5455C25.0867 25.2435 24.6417 25.389 24.2631 25.6485C23.8845 25.908 23.5882 26.2705 23.4095 26.6933C23.3272 26.8925 23.1846 27.061 23.0016 27.1751C22.8187 27.2892 22.6046 27.3431 22.3895 27.3293H9.11147C8.94771 27.3321 8.78557 27.2964 8.63816 27.2251C8.49075 27.1537 8.36221 27.0486 8.26291 26.9184C8.16362 26.7881 8.09636 26.6363 8.06658 26.4753C8.03679 26.3142 8.04532 26.1484 8.09147 25.9913C8.85347 23.3153 9.74747 21.7193 12.4895 20.6993C12.6023 20.6492 12.7262 20.6289 12.8491 20.6405C12.972 20.652 13.0899 20.695 13.1915 20.7653C14.3841 21.4553 15.7376 21.8186 17.1155 21.8186C18.4933 21.8186 19.8468 21.4553 21.0395 20.7653C21.1894 20.6646 21.3699 20.62 21.5495 20.6393ZM33.8555 14.3873C33.6359 14.3873 33.4253 14.3 33.27 14.1448C33.1147 13.9895 33.0275 13.7789 33.0275 13.5593C33.0275 13.3397 33.1147 13.1291 33.27 12.9738C33.4253 12.8185 33.6359 12.7313 33.8555 12.7313H50.1215C50.3411 12.7313 50.5517 12.8185 50.7069 12.9738C50.8622 13.1291 50.9495 13.3397 50.9495 13.5593C50.9495 13.7789 50.8622 13.9895 50.7069 14.1448C50.5517 14.3 50.3411 14.3873 50.1215 14.3873H33.8555ZM40.8095 18.5513C40.5899 18.5513 40.3793 18.464 40.224 18.3088C40.0687 18.1535 39.9815 17.9429 39.9815 17.7233C39.9815 17.5037 40.0687 17.2931 40.224 17.1378C40.3793 16.9825 40.5899 16.8953 40.8095 16.8953H50.1215C50.3411 16.8953 50.5517 16.9825 50.7069 17.1378C50.8622 17.2931 50.9495 17.5037 50.9495 17.7233C50.9495 17.9429 50.8622 18.1535 50.7069 18.3088C50.5517 18.464 50.3411 18.5513 50.1215 18.5513H40.8095ZM28.3055 10.2473C28.0973 10.2296 27.9033 10.1343 27.7619 9.98046C27.6206 9.82657 27.5421 9.62523 27.5421 9.41627C27.5421 9.20731 27.6206 9.00597 27.7619 8.85208C27.9033 8.6982 28.0973 8.60298 28.3055 8.58527H50.1215C50.3297 8.60298 50.5236 8.6982 50.665 8.85208C50.8064 9.00597 50.8848 9.20731 50.8848 9.41627C50.8848 9.62523 50.8064 9.82657 50.665 9.98046C50.5236 10.1343 50.3297 10.2296 50.1215 10.2473H28.3055Z" fill="black"/>
</svg>
