<svg width="25" height="24" viewBox="0 0 25 24" fill="none" xmlns="http://www.w3.org/2000/svg">
<path d="M11.75 13.5938H9.21875C9.16902 13.5938 9.12133 13.6135 9.08617 13.6487C9.051 13.6838 9.03125 13.7315 9.03125 13.7812V14.9062C9.03125 14.956 9.051 15.0037 9.08617 15.0388C9.12133 15.074 9.16902 15.0938 9.21875 15.0938H11.75V17.625C11.75 17.6747 11.7698 17.7224 11.8049 17.7576C11.8401 17.7927 11.8878 17.8125 11.9375 17.8125H13.0625C13.1122 17.8125 13.1599 17.7927 13.1951 17.7576C13.2302 17.7224 13.25 17.6747 13.25 17.625V15.0938H15.7812C15.831 15.0938 15.8787 15.074 15.9138 15.0388C15.949 15.0037 15.9688 14.956 15.9688 14.9062V13.7812C15.9688 13.7315 15.949 13.6838 15.9138 13.6487C15.8787 13.6135 15.831 13.5938 15.7812 13.5938H13.25V11.0625C13.25 11.0128 13.2302 10.9651 13.1951 10.9299C13.1599 10.8948 13.1122 10.875 13.0625 10.875H11.9375C11.8878 10.875 11.8401 10.8948 11.8049 10.9299C11.7698 10.9651 11.75 11.0128 11.75 11.0625V13.5938ZM20.5297 6.76641C20.6703 6.90703 20.75 7.09687 20.75 7.29609V21.75C20.75 22.1648 20.4148 22.5 20 22.5H5C4.58516 22.5 4.25 22.1648 4.25 21.75V2.25C4.25 1.83516 4.58516 1.5 5 1.5H14.9539C15.1531 1.5 15.3453 1.57969 15.4859 1.72031L20.5297 6.76641ZM19.0203 7.64062L14.6094 3.22969V7.64062H19.0203Z" fill="white"/>
</svg>
