<svg width="16" height="16" viewBox="0 0 16 16" fill="none" xmlns="http://www.w3.org/2000/svg">
<path d="M11.6919 7.40991L10.2 8.83929C10.1996 8.83974 10.1994 8.84038 10.199 8.84082L10.1696 8.86841L8.57617 10.3951H8.92969C9.06787 10.3951 9.17969 10.5071 9.17969 10.6451V13.7009H10.4016V11.0533C10.4016 10.9153 10.5134 10.8033 10.6516 10.8033H12.7332C12.8713 10.8033 12.9832 10.9153 12.9832 11.0533V13.7009H14.2039V10.6451C14.2039 10.5071 14.3157 10.3951 14.4539 10.3951H14.8093L11.6919 7.40991Z" fill="#666B70"/>
<path d="M8.67944 10.8951H8.25439C8.10156 10.8951 7.96631 10.8038 7.90991 10.6625C7.85327 10.5204 7.88867 10.3602 8.00024 10.2544L9.64893 8.67371C8.86328 8.07568 7.89893 7.74927 6.90405 7.74927H5.53735C3.0354 7.74927 1 9.78381 1 12.2847V13.7009H8.67944V10.8951Z" fill="#666B70"/>
<path d="M10.9014 11.3032H12.4829V13.7007H10.9014V11.3032Z" fill="#666B70"/>
<path d="M6.2207 7.24841C7.58545 7.24841 8.69556 6.13831 8.69556 4.77368C8.69556 3.40918 7.58545 2.29907 6.2207 2.29907C4.8562 2.29907 3.74609 3.40918 3.74609 4.77368C3.74609 6.13831 4.8562 7.24841 6.2207 7.24841Z" fill="#666B70"/>
</svg>
