<svg width="16" height="16" viewBox="0 0 16 16" fill="none" xmlns="http://www.w3.org/2000/svg">
<g clip-path="url(#clip0_2017_57860)">
<g clip-path="url(#clip1_2017_57860)">
<path d="M1.6 1.06665C1.17565 1.06665 0.768687 1.23522 0.468629 1.53528C0.168571 1.83534 0 2.2423 0 2.66665L0 4.79998C0 5.22433 0.168571 5.6313 0.468629 5.93135C0.768687 6.23141 1.17565 6.39998 1.6 6.39998H3.73333C4.15768 6.39998 4.56465 6.23141 4.8647 5.93135C5.16476 5.6313 5.33333 5.22433 5.33333 4.79998V2.66665C5.33333 2.2423 5.16476 1.83534 4.8647 1.53528C4.56465 1.23522 4.15768 1.06665 3.73333 1.06665H1.6ZM7.46667 4.26665H16V3.19998H7.46667V4.26665ZM1.6 9.59998C1.17565 9.59998 0.768687 9.76855 0.468629 10.0686C0.168571 10.3687 0 10.7756 0 11.2L0 13.3333C0 13.7577 0.168571 14.1646 0.468629 14.4647C0.768687 14.7647 1.17565 14.9333 1.6 14.9333H3.73333C4.15768 14.9333 4.56465 14.7647 4.8647 14.4647C5.16476 14.1646 5.33333 13.7577 5.33333 13.3333V11.2C5.33333 10.7756 5.16476 10.3687 4.8647 10.0686C4.56465 9.76855 4.15768 9.59998 3.73333 9.59998H1.6ZM7.46667 12.8H16V11.7333H7.46667V12.8Z" fill="#262D34"/>
</g>
</g>
<defs>
<clipPath id="clip0_2017_57860">
<rect width="16" height="16" fill="white"/>
</clipPath>
<clipPath id="clip1_2017_57860">
<rect width="16" height="16" fill="white"/>
</clipPath>
</defs>
</svg>
