<svg width="60" height="61" viewBox="0 0 60 61" fill="none" xmlns="http://www.w3.org/2000/svg">
<g clip-path="url(#clip0_100_5830)">
<path d="M49.4636 18.2408V5.82478C49.4636 3.52498 47.9832 1.56561 45.9258 0.846191V19.9986H47.7057C48.6766 19.9986 49.4636 19.2116 49.4636 18.2408Z" fill="black"/>
<path d="M59.869 40.9256C59.8475 39.988 59.0939 39.2324 58.1563 39.2086L54.68 39.1204C53.497 39.0902 52.7421 37.8465 53.2589 36.7839L54.7795 33.6565C55.1896 32.813 54.8652 31.7961 54.0425 31.3459L48.6629 28.4017C47.8402 27.9513 46.8089 28.2263 46.3195 29.0264L44.5051 31.9928C43.8907 32.997 42.4371 33.0401 41.7709 32.0554L39.8228 29.1749C39.2973 28.3979 38.2543 28.1707 37.4532 28.6577L32.2137 31.8444C31.4123 32.3318 31.1348 33.3624 31.583 34.1862L33.2448 37.241C33.8103 38.2808 33.1105 39.5559 31.9318 39.64L28.4631 39.8869C27.5277 39.9534 26.8092 40.7428 26.8305 41.6804L26.9706 47.8113C26.992 48.749 27.7457 49.5046 28.6833 49.5284L32.1595 49.6166C33.3428 49.6467 34.0975 50.8904 33.5807 51.9532L32.0601 55.0806C31.6501 55.924 31.9745 56.9409 32.7971 57.3912L38.1766 60.3354C38.9958 60.7836 40.0285 60.5142 40.52 59.7107L42.3344 56.7443C42.9511 55.7364 44.405 55.7009 45.0687 56.6817L47.0168 59.5622C47.5423 60.3393 48.5852 60.5665 49.3863 60.0793L54.6259 56.8927C55.4272 56.4053 55.7047 55.3747 55.2566 54.5509L53.5949 51.4962C53.0293 50.4564 53.7289 49.1811 54.9078 49.0971L58.3765 48.8502C59.3119 48.7836 60.0303 47.9944 60.009 47.0566L59.869 40.9256ZM46.16 48.874C43.6656 50.3912 40.4257 49.5941 38.9143 47.1088C37.4033 44.6245 38.1951 41.374 40.6795 39.863C43.1694 38.3488 46.4106 39.1372 47.9253 41.6282C49.4399 44.1179 48.6506 47.3593 46.16 48.874Z" fill="black"/>
<path d="M10.6738 11.2153H31.7676V21.7622H10.6738V11.2153Z" fill="black"/>
<path d="M28.8987 53.5435L28.967 53.4027H8.91026C7.93948 53.4027 7.15245 52.6157 7.15245 51.6449C7.15245 50.6741 7.93948 49.8871 8.91026 49.8871H23.8957C23.2908 48.5041 23.5009 47.4893 23.4214 46.3715H17.705C16.7343 46.3715 15.9472 45.5845 15.9472 44.6137C15.9472 43.6429 16.7343 42.8559 17.705 42.8559H23.3409C23.3768 42.1715 23.0839 40.9021 23.8407 39.3403H19.457C18.4862 39.3403 17.6992 38.5532 17.6992 37.5824C17.6992 36.6117 18.4862 35.8246 19.457 35.8246H28.4734C27.8775 34.706 27.7236 33.4664 27.9559 32.309H8.916C7.94522 32.309 7.15819 31.522 7.15819 30.5512C7.15819 29.5804 7.94522 28.7934 8.916 28.7934H30.4646L35.6265 25.654C37.8555 24.2983 40.7375 24.7769 42.4094 26.7767V0.55127H5.28319C2.37543 0.55127 0.00976562 2.91693 0.00976562 5.8247V58.7933C0.00976562 59.7641 0.796795 60.5512 1.76757 60.5512H31.2485L31.1094 60.4751C28.6378 59.1223 27.6667 56.0775 28.8987 53.5435ZM7.15819 9.4575C7.15819 8.48672 7.94522 7.69969 8.916 7.69969H33.5253C34.4961 7.69969 35.2831 8.48672 35.2831 9.4575V23.52C35.2831 24.4908 34.4961 25.2778 33.5253 25.2778H8.916C7.94522 25.2778 7.15819 24.4908 7.15819 23.52V9.4575ZM8.91026 35.8246H14.1894C15.1602 35.8246 15.9472 36.6117 15.9472 37.5824C15.9472 38.5532 15.1602 39.3403 14.1894 39.3403H8.91014C7.93936 39.3403 7.15233 38.5532 7.15233 37.5824C7.15233 36.6117 7.93936 35.8246 8.91026 35.8246ZM8.91026 42.8559H12.4376C13.4084 42.8559 14.1954 43.6429 14.1954 44.6137C14.1954 45.5845 13.4084 46.3715 12.4376 46.3715H8.91026C7.93948 46.3715 7.15245 45.5845 7.15245 44.6137C7.15245 43.6429 7.93936 42.8559 8.91026 42.8559Z" fill="black"/>
</g>
<defs>
<clipPath id="clip0_100_5830">
<rect width="60" height="60" fill="white" transform="translate(0.00976562 0.55127)"/>
</clipPath>
</defs>
</svg>
