<svg width="61" height="61" viewBox="0 0 61 61" fill="none" xmlns="http://www.w3.org/2000/svg">
<g clip-path="url(#clip0_100_5753)">
<path d="M44.0254 36.8228H49.9629V42.7603H44.0254V36.8228Z" fill="black"/>
<path d="M11.0566 36.8228H16.9942V42.7603H11.0566V36.8228Z" fill="black"/>
<path d="M60.5098 39.1274C60.5098 31.1142 57.3892 23.5805 51.723 17.9142C46.0567 12.248 38.523 9.12744 30.5098 9.12744C22.4965 9.12744 14.9629 12.248 9.29648 17.9142C3.63035 23.5805 0.509766 31.1142 0.509766 39.1274V51.5493H24.0254V33.3071H36.9942V51.5493H60.5098V39.1274ZM7.54102 33.3071H20.5098V46.2759H7.54102V33.3071ZM40.5097 33.3071H53.4785V46.2759H40.5097V33.3071ZM24.0254 29.7915V26.2758H36.9942V29.7915H24.0254Z" fill="black"/>
<path d="M27.541 36.8228H33.4786V51.5494H27.541V36.8228Z" fill="black"/>
</g>
<defs>
<clipPath id="clip0_100_5753">
<rect width="60" height="60" fill="white" transform="translate(0.509766 0.338379)"/>
</clipPath>
</defs>
</svg>
