<svg width="60" height="61" viewBox="0 0 60 61" fill="none" xmlns="http://www.w3.org/2000/svg">
<path d="M25.4646 18.4606L23.5555 15.9151C23.6464 15.6424 23.6464 15.4606 23.7373 15.2788L26.4646 13.9151C26.8282 13.7333 27.01 13.3697 26.9191 12.9151L26.4646 10.1879C26.3737 9.82421 26.1009 9.46058 25.7373 9.46058L22.6464 9.00603C22.5555 8.82421 22.3737 8.55149 22.1918 8.36967L23.1009 5.55149C23.1918 5.18785 23.1009 4.73331 22.7373 4.55149L20.4646 2.91512C20.1009 2.6424 19.7373 2.73331 19.3737 2.91512L17.01 4.7333C16.6464 4.6424 16.3737 4.55149 16.01 4.46058L14.7373 2.00603C14.5555 1.6424 14.1918 1.46058 13.7373 1.55149L11.01 2.00603C10.6464 2.09694 10.2828 2.36967 10.2828 2.82421L9.91912 5.55149C9.55548 5.7333 9.19185 5.91512 8.91912 6.18785L6.46457 5.36967C6.10094 5.18785 5.64639 5.36967 5.46457 5.6424L3.82821 7.91512C3.64639 8.27876 3.64639 8.6424 3.82821 9.00603L5.46457 11.1878C5.37366 11.5515 5.28275 12.006 5.19185 12.4606L2.91912 13.6424C2.55548 13.8242 2.37366 14.1879 2.46457 14.6424L2.91912 17.3697C3.01003 17.7333 3.28275 18.0969 3.64639 18.0969L6.37366 18.4606C6.55548 18.8242 6.82821 19.0969 7.01003 19.4606L6.19185 22.006C6.10094 22.3697 6.19185 22.8242 6.55548 23.006L8.82821 24.6424C9.19185 24.9151 9.55548 24.9151 9.91912 24.6424L12.2828 22.8242C12.5555 22.9151 12.9191 22.9151 13.1918 23.006L14.4646 25.5515C14.6464 25.9151 15.01 26.0969 15.4646 26.006L18.1918 25.5515C18.5555 25.4606 18.9191 25.1879 18.9191 24.7333L19.3737 21.6424C19.5555 21.5515 19.8282 21.3697 20.01 21.1879L22.8282 22.0969C23.1918 22.1879 23.6464 22.0969 23.8282 21.7333L25.4646 19.4606C25.6464 19.1878 25.6464 18.7333 25.4646 18.4606ZM17.8282 13.6424C17.8282 15.1878 16.6464 16.6424 15.1009 16.9151C13.2828 17.1878 11.5555 16.006 11.2828 14.1879C11.1009 13.2788 11.3737 12.4606 11.8282 11.7333C12.4646 10.8242 13.4646 10.3697 14.5555 10.3697C16.1009 10.3697 17.5555 11.4606 17.8282 13.1878V13.6424Z" fill="black"/>
<path d="M49.8282 21.7334L49.3737 19.0061C49.2828 18.6425 49.01 18.2788 48.6464 18.2788L45.5555 17.8243C45.4646 17.5516 45.2828 17.3698 45.1009 17.1879L46.01 14.3698C46.1009 14.0061 46.01 13.5516 45.6464 13.3698L43.3737 11.7334C43.01 11.4607 42.6464 11.4607 42.2828 11.7334L39.9191 13.5516C39.6464 13.4607 39.2828 13.3698 38.9191 13.3698L37.6464 10.9152C37.4646 10.5516 37.1009 10.3698 36.6464 10.4607L33.9191 10.9152C33.5555 11.0061 33.1918 11.2788 33.1918 11.7334L32.8282 14.4607C32.4646 14.6425 32.1009 14.8243 31.8282 15.097L29.4646 14.1879C29.1009 14.097 28.6464 14.1879 28.4646 14.5516L26.8282 16.8243C26.5555 17.1879 26.5555 17.5516 26.8282 17.9152L28.4646 20.097C28.3737 20.5516 28.2828 20.9152 28.1918 21.3698L25.9191 22.5516C25.5555 22.7334 25.3737 23.097 25.4646 23.5516L25.9191 26.2788C26.01 26.6425 26.2828 27.0061 26.7373 27.0061L29.4646 27.3698C29.6464 27.7334 29.9191 28.0061 30.1009 28.3698L29.2828 30.9152C29.1918 31.2789 29.2828 31.7334 29.6464 31.9152L31.9191 33.5516C32.2828 33.8243 32.6464 33.8243 33.01 33.5516L35.3737 31.7334C35.6464 31.8243 36.01 31.8243 36.2828 31.9152L37.5555 34.4607C37.7373 34.8243 38.1918 35.0061 38.5555 34.9152L41.2828 34.4607C41.6464 34.3698 42.01 34.097 42.01 33.7334L42.4646 30.6425C42.6464 30.4607 42.9191 30.3698 43.1009 30.1879L45.9191 31.097C46.2828 31.1879 46.7373 31.097 46.9191 30.7334L48.5555 28.4607C48.8282 28.097 48.8282 27.7334 48.5555 27.3698L46.6464 24.8243C46.7373 24.6425 46.7373 24.3698 46.8282 24.1879L49.5555 22.8243C49.7373 22.5516 49.9191 22.1879 49.8282 21.7334ZM38.1009 25.8243C36.2828 26.097 34.5555 24.9152 34.2828 23.097C33.9191 21.097 35.4646 19.1879 37.5555 19.1879C39.1918 19.1879 40.5555 20.3698 40.8282 22.0061C41.1009 23.8243 39.8282 25.5516 38.1009 25.8243Z" fill="black"/>
<path d="M58.9197 35.5517C58.9197 38.188 56.7379 40.3699 54.1016 40.3699C53.2834 40.3699 52.5561 40.188 51.8288 39.8244L42.647 49.7335C43.1925 50.5517 43.4652 51.4608 43.4652 52.4608C43.4652 55.0971 41.2834 57.2789 38.647 57.2789C36.0107 57.2789 33.8288 55.0971 33.8288 52.4608C33.8288 51.9153 33.9197 51.3699 34.1016 50.8244L22.1016 42.6426C21.1925 44.0062 19.7379 44.9153 18.0107 44.9153C16.8288 44.9153 15.7379 44.4608 14.9197 43.7335L8.64702 50.8244C9.91974 51.7335 10.7379 53.0971 10.7379 54.7335C10.7379 57.3699 8.55611 59.5517 5.91974 59.5517C3.28338 59.5517 1.10156 57.3699 1.10156 54.7335C1.10156 52.0971 3.28338 49.9153 5.91974 49.9153C6.28338 49.9153 6.64702 49.9153 7.01065 50.0062L13.8288 42.2789C13.4652 41.5517 13.1925 40.8244 13.1925 40.0062C13.1925 37.3699 15.3743 35.188 18.0107 35.188C20.647 35.188 22.8288 37.3699 22.8288 40.0062C22.8288 40.2789 22.8288 40.5517 22.7379 40.8244L35.0107 49.188C35.9197 48.188 37.1925 47.5517 38.647 47.5517C39.647 47.5517 40.5561 47.8244 41.3743 48.3699L50.4652 38.6426C49.7379 37.8244 49.2834 36.7335 49.2834 35.4608C49.2834 32.8244 51.4652 30.6426 54.1016 30.6426C56.7379 30.7335 58.9197 32.9153 58.9197 35.5517Z" fill="black"/>
</svg>
