<svg width="60" height="61" viewBox="0 0 60 61" fill="none" xmlns="http://www.w3.org/2000/svg">
<path d="M54.7198 54.0113L38.5498 37.8413C39.4598 34.4513 38.5098 30.8813 36.0098 28.3913C33.5498 25.9413 30.0698 24.9713 26.6898 25.8113C26.3398 25.8913 26.0698 26.1613 25.9698 26.5113C25.8698 26.8613 25.9698 27.2313 26.2198 27.4813L31.0698 32.3413L30.1998 36.4713L26.0598 37.3513L21.2098 32.5013C20.9598 32.2413 20.5898 32.1413 20.2398 32.2413C19.8898 32.3313 19.6198 32.6113 19.5398 32.9613C18.6898 36.3413 19.6498 39.8313 22.1098 42.2913C24.6098 44.7913 28.1898 45.7413 31.5698 44.8313L42.1598 55.4213C42.3498 55.6113 42.5998 55.7113 42.8698 55.7113H54.0098C54.4198 55.7113 54.7798 55.4713 54.9398 55.1013C55.0898 54.7213 55.0098 54.2813 54.7198 54.0113Z" fill="black"/>
<path d="M6.08977 8.01123C5.53977 8.01123 5.08977 8.46123 5.08977 9.01123L5.00977 21.7112C5.00977 22.2612 5.45977 22.7112 6.00977 22.7212L12.9098 22.7612C12.8998 22.6012 12.8598 22.4512 12.8698 22.2912L12.9498 8.52123C12.9498 8.36123 12.9798 8.21123 12.9998 8.05123L6.09977 8.01123H6.08977Z" fill="black"/>
<path d="M21.3992 25.5011C22.9592 25.5011 24.2492 24.3411 24.4992 22.8511L35.3292 22.8811C35.5392 24.4111 36.8392 25.6011 38.4292 25.6111L41.8092 25.6311H41.8292C43.5592 25.6311 44.9692 24.2311 44.9792 22.4911L45.0592 8.7211C45.0692 6.9811 43.6692 5.5611 41.9292 5.5511L38.5492 5.5311C37.6992 5.5211 36.9092 5.8511 36.3092 6.4411C35.8292 6.9211 35.5292 7.5211 35.4292 8.1811L24.5992 8.1411C24.3892 6.6111 23.0892 5.4311 21.4992 5.4211L18.1192 5.4011C17.2492 5.3911 16.4892 5.7211 15.8892 6.3111C15.2892 6.9011 14.9592 7.6911 14.9492 8.5311L14.8692 22.3011C14.8592 24.0411 16.2592 25.4711 17.9992 25.4811L21.3792 25.5011H21.3992Z" fill="black"/>
<path d="M53.9197 8.30123L47.0197 8.26123C47.0297 8.42123 47.0597 8.57123 47.0597 8.72123L46.9797 22.4912C46.9797 22.6512 46.9397 22.8012 46.9297 22.9612L53.8397 23.0012C54.3897 23.0012 54.8397 22.5612 54.8397 22.0112L54.9197 9.31123C54.9197 9.04123 54.8097 8.79123 54.6297 8.60123C54.4397 8.41123 54.1897 8.30123 53.9197 8.30123Z" fill="black"/>
<path d="M10.8707 32.9913H10.8907C11.7907 32.9913 12.6007 32.6313 13.1907 32.0413C13.7807 31.4513 14.1507 30.6513 14.1507 29.7513C14.1607 28.3113 12.3207 25.4013 11.7607 24.5413C11.5707 24.2613 11.2607 24.0913 10.9307 24.0913H10.9207C10.5907 24.0913 10.2807 24.2513 10.0907 24.5313C9.52068 25.3813 7.64068 28.2713 7.64068 29.7113C7.63068 31.5113 9.08068 32.9813 10.8707 32.9913Z" fill="black"/>
</svg>
