<svg width="60" height="61" viewBox="0 0 60 61" fill="none" xmlns="http://www.w3.org/2000/svg">
<path d="M38.8895 9.19141H33.1295C33.3695 9.91141 33.4895 10.5114 33.4895 11.3514V13.3914V13.7514H37.0895V53.7114H7.32953V13.7514H10.9295C10.9295 13.6314 10.9295 13.5114 10.9295 13.3914V11.3514C10.9295 10.6314 11.0495 9.91141 11.2895 9.19141H5.52953C3.96953 9.19141 2.76953 10.3914 2.76953 11.9514V55.5114C2.76953 57.0714 3.96953 58.2714 5.52953 58.2714H38.8895C40.4495 58.2714 41.6495 57.0714 41.6495 55.5114V11.9514C41.6495 10.3914 40.3295 9.19141 38.8895 9.19141Z" fill="black"/>
<path d="M14.7698 14.8313H29.6498C30.4898 14.8313 31.0898 14.1113 31.0898 13.3913V11.3513C31.0898 9.31133 29.4098 7.51133 27.2498 7.51133H26.1698V7.27133C26.1698 4.87133 24.2498 2.83133 21.8498 2.95133C20.7698 2.95133 19.8098 3.43133 19.2098 4.15133C18.4898 4.87133 18.0098 5.95133 18.0098 7.03133V7.51133H16.9298C14.8898 7.51133 13.0898 9.19133 13.0898 11.3513V13.3913C13.3298 14.1113 13.9298 14.8313 14.7698 14.8313Z" fill="black"/>
<path d="M11.8887 20.8315H17.2887V26.2315H11.8887V20.8315Z" fill="black"/>
<path d="M32.5291 20.3516H22.5691C21.8491 20.3516 21.3691 20.8316 21.3691 21.5516C21.3691 22.2716 21.8491 22.7516 22.5691 22.7516H32.5291C33.2491 22.7516 33.7291 22.2716 33.7291 21.5516C33.7291 20.8316 33.2491 20.3516 32.5291 20.3516Z" fill="black"/>
<path d="M32.5291 25.0312H22.5691C21.8491 25.0312 21.3691 25.5112 21.3691 26.2312C21.3691 26.9512 21.8491 27.4312 22.5691 27.4312H32.5291C33.2491 27.4312 33.7291 26.9512 33.7291 26.2312C33.7291 25.5112 33.2491 25.0312 32.5291 25.0312Z" fill="black"/>
<path d="M11.8887 32.2314H17.2887V37.6314H11.8887V32.2314Z" fill="black"/>
<path d="M32.5291 31.7515H22.5691C21.8491 31.7515 21.3691 32.2315 21.3691 32.9515C21.3691 33.6715 21.8491 34.1515 22.5691 34.1515H32.5291C33.2491 34.1515 33.7291 33.6715 33.7291 32.9515C33.7291 32.2315 33.2491 31.7515 32.5291 31.7515Z" fill="black"/>
<path d="M32.5291 36.3115H22.5691C21.8491 36.3115 21.3691 36.7915 21.3691 37.5115C21.3691 38.2315 21.8491 38.7115 22.5691 38.7115H32.5291C33.2491 38.7115 33.7291 38.2315 33.7291 37.5115C33.7291 36.7915 33.2491 36.3115 32.5291 36.3115Z" fill="black"/>
<path d="M11.8887 43.6313H17.2887V49.0313H11.8887V43.6313Z" fill="black"/>
<path d="M32.5291 43.1514H22.5691C21.8491 43.1514 21.3691 43.6314 21.3691 44.3514C21.3691 45.0714 21.8491 45.5514 22.5691 45.5514H32.5291C33.2491 45.5514 33.7291 45.0714 33.7291 44.3514C33.7291 43.6314 33.2491 43.1514 32.5291 43.1514Z" fill="black"/>
<path d="M32.5291 47.7114H22.5691C21.8491 47.7114 21.3691 48.1914 21.3691 48.9114C21.3691 49.6314 21.8491 50.1114 22.5691 50.1114H32.5291C33.2491 50.1114 33.7291 49.6314 33.7291 48.9114C33.7291 48.1914 33.2491 47.7114 32.5291 47.7114Z" fill="black"/>
<path d="M56.2886 37.5112H47.6486C47.1686 37.5112 46.8086 37.8712 46.8086 38.3512V52.8712C46.8086 55.7512 49.0886 58.0312 51.9686 58.0312C54.8486 58.0312 57.1286 55.7512 57.1286 52.8712V38.4712C57.2486 37.9912 56.7686 37.5112 56.2886 37.5112Z" fill="black"/>
<path d="M49.4491 35.1115H54.4891V14.3515L56.6491 11.4715L54.4891 3.7915H49.4491L47.2891 11.4715L49.4491 14.3515V35.1115Z" fill="black"/>
</svg>
