<svg width="60" height="61" viewBox="0 0 60 61" fill="none" xmlns="http://www.w3.org/2000/svg">
<path fill-rule="evenodd" clip-rule="evenodd" d="M37.5149 28.5398V18.9042H41.3152L42.4657 21.8983C44.0586 22.2769 45.5778 22.9062 46.9741 23.7666L49.9043 22.4638L53.3556 25.915L52.0577 28.8453C52.9181 30.2416 53.5474 31.7608 53.9259 33.3586L56.9151 34.509V39.3912L53.9259 40.5415C53.5474 42.1345 52.9131 43.6536 52.0577 45.05L53.3556 47.9802L49.9043 51.4315L46.9741 50.1336C45.5826 50.994 44.0586 51.6233 42.4657 52.0019L41.3152 54.991H37.5149V45.3603C37.9566 45.431 38.4099 45.4679 38.8717 45.4679C43.5768 45.4679 47.3919 41.6527 47.3919 36.9476C47.3919 32.2426 43.5768 28.4323 38.8717 28.4323C38.4099 28.4323 37.9566 28.469 37.5149 28.5398ZM35.6325 5.78151V55.7467C35.6325 57.5419 34.175 58.9994 32.3798 58.9994H6.35817C4.56288 58.9994 3.10547 57.5419 3.10547 55.7467V5.78151C3.10547 3.98634 4.56288 2.52881 6.35817 2.52881H32.3798C34.175 2.52881 35.6325 3.98634 35.6325 5.78151ZM12.9299 13.1657H31.1522C31.6716 13.1657 32.0933 12.744 32.0933 12.2246C32.0933 11.7052 31.6716 11.2834 31.1522 11.2834H12.9299C12.545 10.226 11.5303 9.46987 10.3405 9.46987C8.82017 9.46987 7.58582 10.7042 7.58582 12.2246C7.58582 13.7449 8.82017 14.9793 10.3405 14.9793C11.5303 14.9793 12.545 14.2233 12.9299 13.1657ZM25.8081 39.0927H7.58582C7.06629 39.0927 6.64464 39.5145 6.64464 40.0339C6.64464 40.5533 7.06629 40.975 7.58582 40.975H25.8081C26.1929 42.0325 27.2076 42.7886 28.3975 42.7886C29.9178 42.7886 31.1522 41.5542 31.1522 40.0339C31.1522 38.5135 29.9178 37.2792 28.3975 37.2792C27.2076 37.2792 26.1929 38.0352 25.8081 39.0927ZM12.9299 31.7053H31.1522C31.6716 31.7053 32.0933 31.2835 32.0933 30.7641C32.0933 30.2447 31.6716 29.8229 31.1522 29.8229H12.9299C12.545 28.7654 11.5303 28.0094 10.3405 28.0094C8.82017 28.0094 7.58582 29.2437 7.58582 30.7641C7.58582 32.2845 8.82017 33.5188 10.3405 33.5188C11.5303 33.5188 12.545 32.7628 12.9299 31.7053ZM25.8081 20.5532H7.58582C7.06629 20.5532 6.64464 20.9749 6.64464 21.4943C6.64464 22.0138 7.06629 22.4355 7.58582 22.4355H25.8081C26.1929 23.493 27.2076 24.249 28.3975 24.249C29.9178 24.249 31.1522 23.0147 31.1522 21.4943C31.1522 19.974 29.9178 18.7396 28.3975 18.7396C27.2076 18.7396 26.1929 19.4958 25.8081 20.5532ZM12.9299 50.2448H31.1522C31.6716 50.2448 32.0933 49.823 32.0933 49.3036C32.0933 48.7842 31.6716 48.3625 31.1522 48.3625H12.9299C12.545 47.3049 11.5303 46.5489 10.3405 46.5489C8.82017 46.5489 7.58582 47.7833 7.58582 49.3036C7.58582 50.824 8.82017 52.0583 10.3405 52.0583C11.5303 52.0583 12.545 51.3022 12.9299 50.2448Z" fill="black"/>
</svg>
