<svg width="60" height="61" viewBox="0 0 60 61" fill="none" xmlns="http://www.w3.org/2000/svg">
<g clip-path="url(#clip0_100_5845)">
<path d="M21.0959 41.495V25.3555C19.1612 27.4914 17.9805 30.3239 17.9805 33.4258C17.9805 36.5278 19.1601 39.3603 21.0959 41.495Z" fill="black"/>
<path d="M38.9258 25.3579V41.4925C40.8604 39.3578 42.04 36.5266 42.04 33.4258C42.04 30.325 40.8604 27.4938 38.9258 25.3579Z" fill="black"/>
<path d="M56.0329 27.9781L52.1172 27.328C51.55 25.2641 50.701 23.305 49.58 21.4764L51.9611 18.1475C52.482 17.4205 52.3991 16.4226 51.7672 15.7896L47.2197 11.2421C46.8452 10.8676 46.3439 10.6858 45.8462 10.7078C45.8486 10.7701 45.8486 10.831 45.8486 10.8932C45.8486 13.9379 44.9813 16.896 43.3419 19.4466C42.6782 20.4786 41.9025 21.4252 41.0315 22.2693C43.9127 25.1164 45.6998 29.0662 45.6998 33.4258C45.6998 42.0768 38.6614 49.1152 30.0104 49.1152C21.3594 49.1152 14.321 42.0768 14.321 33.4258C14.321 29.0649 16.1093 25.1151 18.9904 22.2693C18.1195 21.4252 17.3437 20.4799 16.6801 19.4478C15.0395 16.8959 14.1721 13.9379 14.1721 10.8932C14.1721 10.831 14.1721 10.7701 14.1746 10.7078C13.6769 10.6859 13.1756 10.8677 12.8011 11.2421L8.25359 15.7896C7.62172 16.4226 7.53875 17.4205 8.05965 18.1475L10.4408 21.4764C9.31977 23.3049 8.47074 25.2639 7.90356 27.328L3.98785 27.9781C3.10473 28.1245 2.45703 28.8881 2.45703 29.7835V36.2144C2.45703 37.1085 3.10473 37.8721 3.98785 38.0198L7.67785 38.6321C8.18902 40.8412 9.02211 42.9442 10.1627 44.9094L8.05977 47.8491C7.53887 48.5773 7.62184 49.5752 8.25371 50.2082L12.8012 54.7545C13.4342 55.3876 14.4321 55.4705 15.1591 54.9496L17.9696 52.9394C19.9787 54.1836 22.1438 55.0985 24.4334 55.6694L24.9897 59.0214C25.1361 59.9046 25.8997 60.5511 26.7951 60.5511H33.226C34.1213 60.5511 34.885 59.9046 35.0314 59.0214L35.5877 55.6694C37.8773 55.0985 40.0425 54.1836 42.0515 52.9394L44.862 54.9496C45.5891 55.4705 46.5869 55.3876 47.22 54.7545L51.7674 50.2082C52.3993 49.5752 52.4823 48.5773 51.9614 47.8491L49.8584 44.9094C50.999 42.9442 51.8321 40.8412 52.3433 38.6321L56.0333 38.0198C56.9164 37.8723 57.5641 37.1085 57.5641 36.2144V29.7835C57.5638 28.8881 56.9161 28.1245 56.0329 27.9781Z" fill="black"/>
<path d="M36.9464 0.881491C35.732 0.0387955 34.0707 0.906217 34.0708 2.3843L34.0716 8.53665L30.012 11.5862L25.9524 8.53665L25.9516 2.38477C25.9514 0.906803 24.2905 0.0399674 23.0762 0.882428C19.9075 3.08063 17.832 6.74426 17.832 10.8934C17.832 14.5115 19.4093 17.7611 21.9148 19.9909C22.7639 20.7472 23.7189 21.3864 24.7558 21.8829V44.2458C24.7558 44.2458 26.925 45.4559 30.0109 45.4559C33.0968 45.4559 35.2659 44.2458 35.2659 44.2458H35.2671V21.8828C36.3039 21.3863 37.259 20.7471 38.108 19.9908C40.6123 17.7609 42.1896 14.5113 42.1896 10.8933C42.1896 6.74462 40.1145 3.07981 36.9464 0.881491Z" fill="black"/>
</g>
<defs>
<clipPath id="clip0_100_5845">
<rect width="60" height="60" fill="white" transform="translate(0.00976562 0.55127)"/>
</clipPath>
</defs>
</svg>
