<svg width="60" height="61" viewBox="0 0 60 61" fill="none" xmlns="http://www.w3.org/2000/svg">
<path d="M26.2598 32.4263V6.17627C26.2598 5.14081 25.4203 4.30127 24.3848 4.30127H5.63477C4.5993 4.30127 3.75977 5.14081 3.75977 6.17627V32.4263C3.75977 33.4617 4.5993 34.3013 5.63477 34.3013H24.3848C25.4203 34.3013 26.2598 33.4617 26.2598 32.4263ZM22.5098 11.8013C22.5098 12.8367 21.6703 13.6763 20.6348 13.6763H9.38477C8.3493 13.6763 7.50977 12.8367 7.50977 11.8013V9.92627C7.50977 8.89069 8.3493 8.05127 9.38477 8.05127H20.6348C21.6703 8.05127 22.5098 8.89069 22.5098 9.92627V11.8013Z" fill="black"/>
<path d="M24.3848 36.1763H18.7598V43.6763H56.2598V32.4263H28.1348C28.1348 34.4973 26.4559 36.1763 24.3848 36.1763ZM48.7598 37.1138C48.7598 36.5956 49.1791 36.1763 49.6973 36.1763C50.2155 36.1763 50.6348 36.5956 50.6348 37.1138V38.9888C50.6348 39.507 50.2155 39.9263 49.6973 39.9263C49.1791 39.9263 48.7598 39.507 48.7598 38.9888V37.1138ZM45.0098 37.1138C45.0098 36.5956 45.4291 36.1763 45.9473 36.1763C46.4655 36.1763 46.8848 36.5956 46.8848 37.1138V38.9888C46.8848 39.507 46.4655 39.9263 45.9473 39.9263C45.4291 39.9263 45.0098 39.507 45.0098 38.9888V37.1138ZM41.2598 37.1138C41.2598 36.5956 41.6791 36.1763 42.1973 36.1763C42.7155 36.1763 43.1348 36.5956 43.1348 37.1138V38.9888C43.1348 39.507 42.7155 39.9263 42.1973 39.9263C41.6791 39.9263 41.2598 39.507 41.2598 38.9888V37.1138ZM37.5098 37.1138C37.5098 36.5956 37.9291 36.1763 38.4473 36.1763C38.9655 36.1763 39.3848 36.5956 39.3848 37.1138V38.9888C39.3848 39.507 38.9655 39.9263 38.4473 39.9263C37.9291 39.9263 37.5098 39.507 37.5098 38.9888V37.1138Z" fill="black"/>
<path d="M28.1348 30.5513H56.2598V19.3013H28.1348V30.5513ZM48.7598 23.9888C48.7598 23.4706 49.1791 23.0513 49.6973 23.0513C50.2155 23.0513 50.6348 23.4706 50.6348 23.9888V25.8638C50.6348 26.382 50.2155 26.8013 49.6973 26.8013C49.1791 26.8013 48.7598 26.382 48.7598 25.8638V23.9888ZM45.0098 23.9888C45.0098 23.4706 45.4291 23.0513 45.9473 23.0513C46.4655 23.0513 46.8848 23.4706 46.8848 23.9888V25.8638C46.8848 26.382 46.4655 26.8013 45.9473 26.8013C45.4291 26.8013 45.0098 26.382 45.0098 25.8638V23.9888ZM41.2598 23.9888C41.2598 23.4706 41.6791 23.0513 42.1973 23.0513C42.7155 23.0513 43.1348 23.4706 43.1348 23.9888V25.8638C43.1348 26.382 42.7155 26.8013 42.1973 26.8013C41.6791 26.8013 41.2598 26.382 41.2598 25.8638V23.9888ZM37.5098 23.9888C37.5098 23.4706 37.9291 23.0513 38.4473 23.0513C38.9655 23.0513 39.3848 23.4706 39.3848 23.9888V25.8638C39.3848 26.382 38.9655 26.8013 38.4473 26.8013C37.9291 26.8013 37.5098 26.382 37.5098 25.8638V23.9888Z" fill="black"/>
<path d="M18.7598 51.1763C18.7598 54.2781 21.283 56.8013 24.3848 56.8013H50.6348C53.7366 56.8013 56.2598 54.2781 56.2598 51.1763V45.5513H18.7598V51.1763ZM48.7598 50.2388C48.7598 49.7206 49.1791 49.3013 49.6973 49.3013C50.2155 49.3013 50.6348 49.7206 50.6348 50.2388V52.1138C50.6348 52.632 50.2155 53.0513 49.6973 53.0513C49.1791 53.0513 48.7598 52.632 48.7598 52.1138V50.2388ZM45.0098 50.2388C45.0098 49.7206 45.4291 49.3013 45.9473 49.3013C46.4655 49.3013 46.8848 49.7206 46.8848 50.2388V52.1138C46.8848 52.632 46.4655 53.0513 45.9473 53.0513C45.4291 53.0513 45.0098 52.632 45.0098 52.1138V50.2388ZM41.2598 50.2388C41.2598 49.7206 41.6791 49.3013 42.1973 49.3013C42.7155 49.3013 43.1348 49.7206 43.1348 50.2388V52.1138C43.1348 52.632 42.7155 53.0513 42.1973 53.0513C41.6791 53.0513 41.2598 52.632 41.2598 52.1138V50.2388ZM37.5098 50.2388C37.5098 49.7206 37.9291 49.3013 38.4473 49.3013C38.9655 49.3013 39.3848 49.7206 39.3848 50.2388V52.1138C39.3848 52.632 38.9655 53.0513 38.4473 53.0513C37.9291 53.0513 37.5098 52.632 37.5098 52.1138V50.2388Z" fill="black"/>
<path d="M50.6348 6.17627H28.1348V17.4263H56.2598V11.8013C56.2598 8.69946 53.7366 6.17627 50.6348 6.17627ZM39.3848 12.7388C39.3848 13.257 38.9655 13.6763 38.4473 13.6763C37.9291 13.6763 37.5098 13.257 37.5098 12.7388V10.8638C37.5098 10.3456 37.9291 9.92627 38.4473 9.92627C38.9655 9.92627 39.3848 10.3456 39.3848 10.8638V12.7388ZM43.1348 12.7388C43.1348 13.257 42.7155 13.6763 42.1973 13.6763C41.6791 13.6763 41.2598 13.257 41.2598 12.7388V10.8638C41.2598 10.3456 41.6791 9.92627 42.1973 9.92627C42.7155 9.92627 43.1348 10.3456 43.1348 10.8638V12.7388ZM46.8848 12.7388C46.8848 13.257 46.4655 13.6763 45.9473 13.6763C45.4291 13.6763 45.0098 13.257 45.0098 12.7388V10.8638C45.0098 10.3456 45.4291 9.92627 45.9473 9.92627C46.4655 9.92627 46.8848 10.3456 46.8848 10.8638V12.7388ZM50.6348 12.7388C50.6348 13.257 50.2155 13.6763 49.6973 13.6763C49.1791 13.6763 48.7598 13.257 48.7598 12.7388V10.8638C48.7598 10.3456 49.1791 9.92627 49.6973 9.92627C50.2155 9.92627 50.6348 10.3456 50.6348 10.8638V12.7388Z" fill="black"/>
</svg>
