<svg width="20" height="21" viewBox="0 0 20 21" fill="none" xmlns="http://www.w3.org/2000/svg">
<rect y="0.5" width="20" height="20" rx="10" fill="white"/>
<path fill-rule="evenodd" clip-rule="evenodd" d="M4.85716 4.5H6.57145V5.35714H5.28573V15.6429H6.57145V16.5H4.85716L4.42859 16.0714V4.92857L4.85716 4.5ZM10 9.64286H8.28573L7.85716 9.21429V7.5L8.28573 7.07143H10L10.4286 7.5V9.21429L10 9.64286ZM8.7143 8.78571H9.57145V7.92857H8.7143V8.78571ZM15.1429 9.64286H12.5714L12.1429 9.21429V6.64286L12.5714 6.21429H15.1429L15.5714 6.64286V9.21429L15.1429 9.64286ZM13 8.78571H14.7143V7.07143H13V8.78571ZM10 13.9286H8.28573L7.85716 13.5V11.7857L8.28573 11.3571H10L10.4286 11.7857V13.5L10 13.9286ZM8.7143 13.0714H9.57145V12.2143H8.7143V13.0714ZM15.1429 14.7857H12.5714L12.1429 14.3571V11.7857L12.5714 11.3571H15.1429L15.5714 11.7857V14.3571L15.1429 14.7857ZM13 13.9286H14.7143V12.2143H13V13.9286ZM12.1429 12.2143H10.4286V13.0714H12.1429V12.2143ZM12.1429 7.92857H10.4286V8.78571H12.1429V7.92857Z" fill="#0074D6"/>
</svg>
