<svg width="61" height="61" viewBox="0 0 61 61" fill="none" xmlns="http://www.w3.org/2000/svg">
<g clip-path="url(#clip0_254_7300)">
<path d="M58.8788 0.172852H40.0508C39.0799 0.172852 38.293 0.959883 38.293 1.93066V9.46195C38.293 10.4327 39.0799 11.2198 40.0508 11.2198H58.8788C59.8495 11.2198 60.6366 10.4327 60.6366 9.46195V1.93066C60.6366 0.959883 59.8495 0.172852 58.8788 0.172852Z" fill="black"/>
<path d="M34.4024 19.001H26.8711C25.9003 19.001 25.1133 19.788 25.1133 20.7588V39.587C25.1133 40.5577 25.9003 41.3448 26.8711 41.3448H34.4024C35.373 41.3448 36.1602 40.5577 36.1602 39.587V20.7588C36.1602 19.788 35.373 19.001 34.4024 19.001Z" fill="black"/>
<path d="M21.2227 49.126H2.39453C1.42363 49.126 0.636719 49.913 0.636719 50.8838V58.4151C0.636719 59.3859 1.42363 60.1729 2.39453 60.1729H21.2227C22.1935 60.1729 22.9805 59.3859 22.9805 58.4151V50.8838C22.9805 49.913 22.1935 49.126 21.2227 49.126Z" fill="black"/>
<path d="M21.5977 45.6104V40.7702V20.8838H13.6915C7.53117 20.8838 2.51953 25.8955 2.51953 32.0557V45.6104H21.0977H21.5977Z" fill="black"/>
<path d="M39.6758 14.7354V19.5721V20.7588V39.4619H47.5821C53.7422 39.4619 58.754 34.4502 58.754 28.2901V14.7354H40.1758H39.6758Z" fill="black"/>
</g>
<defs>
<clipPath id="clip0_254_7300">
<rect width="60" height="60" fill="white" transform="translate(0.636719 0.172852)"/>
</clipPath>
</defs>
</svg>
