<svg width="61" height="61" viewBox="0 0 61 61" fill="none" xmlns="http://www.w3.org/2000/svg">
<g clip-path="url(#clip0_254_7302)">
<path d="M33.8419 19.4622C33.8419 17.6815 32.393 16.2327 30.6123 16.2327C28.8316 16.2327 27.3828 17.681 27.3828 19.4622V26.341H33.8414V19.4622H33.8419Z" fill="black"/>
<path d="M53.795 3.67841C53.3926 3.53558 43.7855 0.172852 30.6129 0.172852C17.4403 0.172852 7.83322 3.53558 7.43039 3.67841C6.73001 3.92789 6.26172 4.59119 6.26172 5.33505V49.1934C6.26172 49.8297 6.60596 50.4165 7.16168 50.7274C7.33243 50.823 11.3937 53.089 16.2785 55.3938C22.9985 58.5647 27.8215 60.1729 30.6129 60.1729C33.4044 60.1729 38.2274 58.5647 44.9473 55.3938C49.8317 53.089 53.8934 50.823 54.0637 50.7274C54.6194 50.4165 54.9641 49.8297 54.9641 49.1934V5.33505C54.9641 4.59119 54.4958 3.92789 53.795 3.67841ZM18.1338 28.0983C18.1338 27.1278 18.9207 26.3405 19.8916 26.3405H21.524V19.4621C21.524 14.4423 25.5935 10.3732 30.6129 10.3732C35.6328 10.3732 39.7018 14.4423 39.7018 19.4621V26.3409H41.3342C42.3051 26.3409 43.092 27.1278 43.092 28.0987V42.4464C43.092 43.4173 42.3051 44.2042 41.3342 44.2042H19.8916C18.9207 44.2042 18.1338 43.4173 18.1338 42.4464V28.0983Z" fill="black"/>
<path d="M30.6133 31.3469C29.6424 31.3469 28.8555 32.1343 28.8555 33.1047V37.5244C28.8555 38.4954 29.6424 39.2823 30.6133 39.2823C31.5837 39.2823 32.3711 38.4954 32.3711 37.5244V33.1047C32.3711 32.1338 31.5837 31.3469 30.6133 31.3469Z" fill="black"/>
</g>
<defs>
<clipPath id="clip0_254_7302">
<rect width="60" height="60" fill="white" transform="translate(0.636719 0.172852)"/>
</clipPath>
</defs>
</svg>
