<svg width="61" height="61" viewBox="0 0 61 61" fill="none" xmlns="http://www.w3.org/2000/svg">
<g clip-path="url(#clip0_100_5759)">
<path d="M0.136719 46.2822C0.136719 47.253 0.92375 48.04 1.89453 48.04H12.3145C12.3825 47.8721 12.455 47.7051 12.5341 47.5395C13.105 46.3446 13.9221 45.3259 14.9131 44.5244H0.136719V46.2822Z" fill="black"/>
<path d="M16.5801 26.2432H20.0957V29.7588H16.5801V26.2432Z" fill="black"/>
<path d="M34.1151 31.9854H36.5376V31.3773C36.5376 21.9145 29.2783 14.1166 20.0364 13.2568V9.19238H25.4271C26.3979 9.19238 27.1849 8.40535 27.1849 7.43457V2.74707C27.1849 1.77629 26.3979 0.989258 25.4271 0.989258H18.2786C17.3079 0.989258 16.5208 1.77629 16.5208 2.74707V7.43457V13.2671C7.33461 14.1815 0.136719 21.9543 0.136719 31.3773V41.0089H22.2583C23.7194 35.7332 28.5752 31.9854 34.1151 31.9854ZM14.8216 33.2744C13.8508 33.2744 13.0638 32.4874 13.0638 31.5166V24.4854C13.0638 23.5146 13.8508 22.7275 14.8216 22.7275H21.8529C22.8236 22.7275 23.6107 23.5146 23.6107 24.4854V31.5166C23.6107 32.4874 22.8236 33.2744 21.8529 33.2744H14.8216Z" fill="black"/>
<path d="M58.3798 39.0166H45.9856C44.3805 36.8838 41.8299 35.501 38.961 35.501H34.116C29.8716 35.501 26.3205 38.5254 25.5039 42.5322H58.3798C59.3506 42.5322 60.1376 41.7452 60.1376 40.7744C60.1376 39.8036 59.3506 39.0166 58.3798 39.0166Z" fill="black"/>
<path d="M52.4338 46.0479H20.6618C18.4918 46.0479 16.5932 47.2003 15.7066 49.0555C14.8816 50.7816 15.0893 52.7459 16.2486 54.1818L20.9793 58.5177C21.461 59.1145 22.9273 60.9307 25.3925 60.9307H47.7005C50.1649 60.9307 51.6312 59.1153 52.1128 58.5188L56.8463 54.1829C57.997 52.7586 58.1951 50.7916 57.3629 49.0497C56.4649 47.17 54.6223 46.0479 52.4338 46.0479ZM29.5069 55.2471C28.5387 55.2471 27.7491 54.4573 27.7491 53.4893C27.7491 52.5211 28.5387 51.7314 29.5069 51.7314C30.4751 51.7314 31.2647 52.5211 31.2647 53.4893C31.2648 54.4573 30.4751 55.2471 29.5069 55.2471ZM36.5381 55.2471C35.5699 55.2471 34.7803 54.4573 34.7803 53.4893C34.7803 52.5211 35.5699 51.7314 36.5381 51.7314C37.5063 51.7314 38.2959 52.5211 38.2959 53.4893C38.2959 54.4573 37.5063 55.2471 36.5381 55.2471ZM43.5694 55.2471C42.6012 55.2471 41.8116 54.4573 41.8116 53.4893C41.8116 52.5211 42.6012 51.7314 43.5694 51.7314C44.5376 51.7314 45.3272 52.5211 45.3272 53.4893C45.3272 54.4573 44.5376 55.2471 43.5694 55.2471Z" fill="black"/>
</g>
<defs>
<clipPath id="clip0_100_5759">
<rect width="60" height="60" fill="white" transform="translate(0.136719 0.959961)"/>
</clipPath>
</defs>
</svg>
