<svg width="61" height="61" viewBox="0 0 61 61" fill="none" xmlns="http://www.w3.org/2000/svg">
<g clip-path="url(#clip0_100_5830)">
<path d="M50.0905 17.8624V5.44637C50.0905 3.14656 48.6102 1.18719 46.5527 0.467773V19.6202H48.3327C49.3036 19.6202 50.0905 18.8332 50.0905 17.8624Z" fill="black"/>
<path d="M60.4959 40.5472C60.4745 39.6096 59.7209 38.854 58.7832 38.8302L55.307 38.7419C54.124 38.7118 53.3691 37.4681 53.8859 36.4055L55.4065 33.2781C55.8165 32.4346 55.4921 31.4177 54.6695 30.9675L49.2899 28.0233C48.4671 27.5729 47.4359 27.8478 46.9465 28.648L45.1321 31.6144C44.5177 32.6185 43.0641 32.6617 42.3978 31.6769L40.4497 28.7965C39.9243 28.0195 38.8813 27.7923 38.0802 28.2793L32.8406 31.466C32.0393 31.9534 31.7618 32.9839 32.2099 33.8078L33.8718 36.8626C34.4373 37.9024 33.7375 39.1775 32.5588 39.2615L29.09 39.5085C28.1546 39.575 27.4362 40.3644 27.4575 41.302L27.5975 47.4329C27.619 48.3705 28.3726 49.1262 29.3102 49.1499L32.7865 49.2382C33.9697 49.2683 34.7244 50.512 34.2076 51.5748L32.6871 54.7022C32.2771 55.5456 32.6014 56.5625 33.4241 57.0128L38.8036 59.957C39.6227 60.4052 40.6555 60.1358 41.147 59.3323L42.9614 56.3659C43.578 55.358 45.032 55.3224 45.6956 56.3033L47.6437 59.1838C48.1692 59.9608 49.2122 60.1881 50.0133 59.7009L55.2528 56.5142C56.0542 56.0269 56.3317 54.9963 55.8835 54.1725L54.2218 51.1178C53.6563 50.078 54.3559 48.8027 55.5348 48.7187L59.0034 48.4718C59.9388 48.4052 60.6573 47.616 60.636 46.6782L60.4959 40.5472ZM46.787 48.4956C44.2925 50.0128 41.0527 49.2157 39.5413 46.7304C38.0303 44.2461 38.8221 40.9956 41.3065 39.4846C43.7964 37.9704 47.0375 38.7588 48.5523 41.2498C50.0668 43.7395 49.2776 46.9809 46.787 48.4956Z" fill="black"/>
<path d="M11.3008 10.8369H32.3945V21.3838H11.3008V10.8369Z" fill="black"/>
<path d="M29.5256 53.1651L29.5939 53.0243H9.53721C8.56643 53.0243 7.7794 52.2373 7.7794 51.2665C7.7794 50.2957 8.56643 49.5087 9.53721 49.5087H24.5226C23.9177 48.1256 24.1278 47.1109 24.0484 45.9931H18.332C17.3612 45.9931 16.5742 45.206 16.5742 44.2353C16.5742 43.2645 17.3612 42.4775 18.332 42.4775H23.9679C24.0037 41.7931 23.7109 40.5237 24.4677 38.9618H20.0839C19.1132 38.9618 18.3261 38.1748 18.3261 37.204C18.3261 36.2332 19.1132 35.4462 20.0839 35.4462H29.1003C28.5044 34.3275 28.3506 33.0879 28.5828 31.9306H9.54295C8.57217 31.9306 7.78514 31.1436 7.78514 30.1728C7.78514 29.202 8.57217 28.415 9.54295 28.415H31.0916L36.2534 25.2755C38.4825 23.9199 41.3645 24.3985 43.0364 26.3983V0.172852H5.91015C3.00238 0.172852 0.636719 2.53851 0.636719 5.44628V58.4149C0.636719 59.3857 1.42375 60.1727 2.39453 60.1727H31.8754L31.7363 60.0967C29.2647 58.7439 28.2936 55.6991 29.5256 53.1651ZM7.78514 9.07908C7.78514 8.1083 8.57217 7.32127 9.54295 7.32127H34.1523C35.1231 7.32127 35.9101 8.1083 35.9101 9.07908V23.1416C35.9101 24.1123 35.1231 24.8994 34.1523 24.8994H9.54295C8.57217 24.8994 7.78514 24.1123 7.78514 23.1416V9.07908ZM9.53721 35.4462H14.8164C15.7872 35.4462 16.5742 36.2332 16.5742 37.204C16.5742 38.1748 15.7872 38.9618 14.8164 38.9618H9.53709C8.56631 38.9618 7.77928 38.1748 7.77928 37.204C7.77928 36.2332 8.56631 35.4462 9.53721 35.4462ZM9.53721 42.4775H13.0645C14.0353 42.4775 14.8224 43.2645 14.8224 44.2353C14.8224 45.206 14.0353 45.9931 13.0645 45.9931H9.53721C8.56643 45.9931 7.7794 45.206 7.7794 44.2353C7.7794 43.2645 8.56631 42.4775 9.53721 42.4775Z" fill="black"/>
</g>
<defs>
<clipPath id="clip0_100_5830">
<rect width="60" height="60" fill="white" transform="translate(0.636719 0.172852)"/>
</clipPath>
</defs>
</svg>
