<svg width="61" height="61" viewBox="0 0 61 61" fill="none" xmlns="http://www.w3.org/2000/svg">
<path d="M42.2111 18.2558C42.2111 14.6821 45.1442 11.7849 48.7623 11.7849C52.3805 11.7849 55.3136 14.6821 55.3136 18.2558C55.3136 21.8296 52.3805 24.7267 48.7623 24.7267C45.1442 24.7267 42.2111 21.8296 42.2111 18.2558ZM30.6367 18.701C34.2549 18.701 37.188 15.8039 37.188 12.2301C37.188 8.65639 34.2549 5.75928 30.6367 5.75928C27.0186 5.75928 24.0855 8.65639 24.0855 12.2301C24.0855 15.8039 27.0186 18.701 30.6367 18.701ZM23.9526 28.0442C24.0529 28.1191 24.1491 28.202 24.2403 28.293L25.362 29.4147C25.5372 29.5899 25.7488 29.632 25.9778 29.5372C26.2073 29.4422 26.3267 29.2636 26.3267 29.0151V27.4288C26.3267 25.9795 27.5063 24.7999 28.9555 24.7999H32.3182C33.7675 24.7999 34.9471 25.9794 34.9471 27.4288V29.0151C34.9471 29.2636 35.0664 29.4422 35.2959 29.5372C35.5248 29.632 35.7365 29.5899 35.9117 29.4147L37.0334 28.293C37.1245 28.202 37.2207 28.1192 37.321 28.0444C38.1727 26.3747 39.4379 24.9478 40.9799 23.9011C40.1227 21.5026 38.2998 19.5529 35.9856 18.5266C34.5404 19.732 32.6744 20.4587 30.6368 20.4587C28.5993 20.4587 26.7334 19.732 25.288 18.5266C22.9738 19.5529 21.1509 21.5026 20.2936 23.9012C21.8356 24.9478 23.1009 26.3746 23.9526 28.0442ZM54.1097 24.5522C52.6599 25.7597 50.7909 26.4845 48.7622 26.4845C46.7336 26.4845 44.8645 25.7597 43.4146 24.5522C41.8964 25.2251 40.5897 26.2953 39.628 27.6288C40.0395 27.748 40.4273 27.9694 40.7509 28.293L43.1288 30.6709C44.1536 31.6957 44.1536 33.3638 43.1288 34.3887L42.0071 35.5104C41.8319 35.6856 41.7898 35.8973 41.8846 36.1262C41.9796 36.3556 42.1582 36.4749 42.4067 36.4749H43.993C45.1371 36.4749 46.113 37.2102 46.4733 38.2328H59.1006C59.3977 38.2328 59.6406 37.9897 59.6406 37.6928V33.0198C59.6406 29.2523 57.3591 25.9925 54.1097 24.5522ZM12.5112 24.7267C16.1294 24.7267 19.0623 21.8296 19.0623 18.2558C19.0623 14.6821 16.1293 11.7849 12.5112 11.7849C8.89305 11.7849 5.95996 14.6821 5.95996 18.2558C5.95996 21.8296 8.89305 24.7267 12.5112 24.7267ZM18.8668 36.4749C19.1152 36.4749 19.2937 36.3556 19.3888 36.1262C19.4836 35.8973 19.4416 35.6856 19.2664 35.5104L18.1446 34.3887C17.1198 33.3638 17.1198 31.6957 18.1446 30.6709L20.5225 28.293C20.8461 27.9695 21.2339 27.7481 21.6454 27.6289C20.6838 26.2955 19.377 25.2252 17.8588 24.5522C16.409 25.7597 14.54 26.4845 12.5113 26.4845C10.4826 26.4845 8.61355 25.7597 7.16371 24.5522C3.91434 25.9925 1.63281 29.2523 1.63281 33.0197V37.6926C1.63281 37.9896 1.87586 38.2326 2.17281 38.2326H14.8001C15.1605 37.2101 16.1363 36.4748 17.2804 36.4748L18.8668 36.4749ZM44.8641 39.1038V42.4665C44.8641 42.9456 44.4721 43.3376 43.993 43.3376H42.4066C41.447 43.3376 40.6278 43.8851 40.2606 44.7715C39.8934 45.6579 40.0857 46.6243 40.7642 47.3028L41.8859 48.4245C42.2247 48.7633 42.2247 49.3176 41.8859 49.6564L39.508 52.0343C39.1693 52.3731 38.615 52.3731 38.2762 52.0343L37.1543 50.9126C36.4758 50.234 35.5095 50.0419 34.623 50.409C33.7366 50.7762 33.1891 51.5955 33.1891 52.5551V54.1414C33.1891 54.6205 32.7972 55.0125 32.318 55.0125H28.9553C28.4761 55.0125 28.0843 54.6205 28.0843 54.1414V52.5551C28.0843 51.5955 27.5369 50.7763 26.6504 50.409C25.7638 50.0419 24.7974 50.234 24.119 50.9126L22.9973 52.0343C22.6585 52.3731 22.1042 52.3731 21.7654 52.0343L19.3875 49.6564C19.0487 49.3176 19.0487 48.7633 19.3875 48.4245L20.5093 47.3028C21.1878 46.6243 21.38 45.6579 21.0128 44.7715C20.6455 43.8849 19.8263 43.3376 18.8668 43.3376H17.2804C16.8013 43.3376 16.4093 42.9456 16.4093 42.4665V39.1038C16.4093 38.6247 16.8013 38.2328 17.2804 38.2328H18.8668C19.8263 38.2328 20.6455 37.6853 21.0127 36.7988C21.38 35.9123 21.1877 34.9459 20.5091 34.2675L19.3874 33.1458C19.0486 32.807 19.0486 32.2527 19.3874 31.9139L21.7653 29.536C22.1041 29.1972 22.6584 29.1972 22.9971 29.536L24.1189 30.6578C24.7974 31.3363 25.7637 31.5285 26.6502 31.1613C27.5368 30.7942 28.0841 29.9748 28.0841 29.0153V27.4289C28.0841 26.9498 28.4761 26.5578 28.9552 26.5578H32.3179C32.797 26.5578 33.1889 26.9498 33.1889 27.4289V29.0153C33.1889 29.9748 33.7364 30.794 34.6229 31.1613C35.5094 31.5285 36.4758 31.3363 37.1542 30.6578L38.2761 29.536C38.6148 29.1972 39.1691 29.1972 39.5079 29.536L41.8858 31.9139C42.2246 32.2527 42.2246 32.807 41.8858 33.1458L40.7641 34.2675C40.0855 34.946 39.8934 35.9124 40.2605 36.7988C40.6277 37.6854 41.447 38.2328 42.4066 38.2328H43.9929C44.4721 38.2326 44.8641 38.6246 44.8641 39.1038ZM37.6625 40.7852C37.6625 36.9049 34.5169 33.7595 30.6367 33.7595C26.7565 33.7595 23.611 36.905 23.611 40.7852C23.611 44.6654 26.7565 47.811 30.6367 47.811C34.517 47.811 37.6625 44.6654 37.6625 40.7852Z" fill="black"/>
</svg>
