<svg width="61" height="61" viewBox="0 0 61 61" fill="none" xmlns="http://www.w3.org/2000/svg">
<g clip-path="url(#clip0_100_5912)">
<path d="M30.1365 47.2678C28.7065 47.2678 27.279 46.8853 26.004 46.1203L1.34899 31.3278C0.163985 30.6178 -0.218515 29.0828 0.491485 27.8978C1.19899 26.7103 2.73399 26.3303 3.92149 27.0403L28.574 41.8328C29.5365 42.4078 30.734 42.4078 31.6965 41.8328L56.349 27.0403C57.534 26.3303 59.069 26.7128 59.779 27.8978C60.489 29.0828 60.1065 30.6178 58.9215 31.3278L34.269 46.1203C32.994 46.8853 31.564 47.2678 30.1365 47.2678ZM34.269 56.8578L58.9215 42.0653C60.1065 41.3553 60.489 39.8203 59.779 38.6353C59.069 37.4503 57.534 37.0678 56.349 37.7778L31.694 52.5703C30.734 53.1453 29.5365 53.1453 28.574 52.5703L3.92399 37.7778C2.73649 37.0653 1.20149 37.4503 0.493985 38.6353C-0.216015 39.8203 0.166485 41.3553 1.35149 42.0653L26.004 56.8578C27.279 57.6253 28.709 58.0053 30.139 58.0053C31.569 58.0053 32.999 57.6253 34.2715 56.8578H34.269ZM30.1365 14.7578L43.4065 6.79528L34.269 1.31278C31.719 -0.217217 28.5515 -0.217217 26.0015 1.31278L16.864 6.79528L30.134 14.7578H30.1365ZM58.924 16.1053L48.2665 9.71028L34.9965 17.6728L49.2265 26.2103L58.924 20.3928C59.6765 19.9403 60.1365 19.1278 60.1365 18.2503C60.1365 17.3728 59.6765 16.5553 58.924 16.1053ZM25.2765 17.6728L12.0065 9.71028L1.34899 16.1053C0.596485 16.5578 0.136485 17.3703 0.136485 18.2478C0.136485 19.1253 0.596485 19.9403 1.34899 20.3903L11.0465 26.2078L25.2765 17.6728ZM30.1365 20.5878L15.9065 29.1253L26.004 35.1828C27.279 35.9478 28.7065 36.3303 30.1365 36.3303C31.5665 36.3303 32.994 35.9478 34.269 35.1828L44.3665 29.1253L30.1365 20.5878Z" fill="black"/>
</g>
<defs>
<clipPath id="clip0_100_5912">
<rect width="60" height="60" fill="white" transform="translate(0.136719 0.172852)"/>
</clipPath>
</defs>
</svg>
