<svg width="61" height="61" viewBox="0 0 61 61" fill="none" xmlns="http://www.w3.org/2000/svg">
<g clip-path="url(#clip0_100_5777)">
<path d="M30.6367 13.2764C34.1964 13.2764 37.082 10.3907 37.082 6.83105C37.082 3.27141 34.1964 0.385742 30.6367 0.385742C27.0771 0.385742 24.1914 3.27141 24.1914 6.83105C24.1914 10.3907 27.0771 13.2764 30.6367 13.2764Z" fill="black"/>
<path d="M19.0461 49.0142C17.2267 50.9618 14.6388 52.1828 11.7695 52.1828C8.90031 52.1828 6.31234 50.9618 4.49301 49.0142C2.1673 50.597 0.636719 53.2651 0.636719 56.2844V58.6281C0.636719 59.5989 1.42375 60.3859 2.39453 60.3859H21.1445C22.1153 60.3859 22.9023 59.5989 22.9023 58.6281V56.2844C22.9023 53.2651 21.3718 50.597 19.0461 49.0142Z" fill="black"/>
<path d="M56.7804 49.0142C54.9611 50.9618 52.3731 52.1828 49.5039 52.1828C46.6347 52.1828 44.0467 50.9618 42.2274 49.0142C39.9017 50.597 38.3711 53.2651 38.3711 56.2844V58.6281C38.3711 59.5989 39.1581 60.3859 40.1289 60.3859H58.8789C59.8497 60.3859 60.6367 59.5989 60.6367 58.6281V56.2844C60.6367 53.2651 59.1061 50.597 56.7804 49.0142Z" fill="black"/>
<path d="M43.1432 43.259C43.6408 46.3214 46.303 48.6672 49.5039 48.6672C53.0578 48.6672 55.9492 45.7758 55.9492 42.2219C55.9492 38.6679 53.0578 35.7765 49.5039 35.7765C46.8407 35.7765 44.5496 37.4003 43.5685 39.7098L35.905 37.3299C35.8205 35.1272 34.3792 33.2672 32.3945 32.5633V24.9953H40.0117C40.9825 24.9953 41.7695 24.2083 41.7695 23.2375V20.8937C41.7695 17.8745 40.2389 15.2064 37.9132 13.6235C36.0939 15.5712 33.5059 16.7922 30.6367 16.7922C27.7675 16.7922 25.1795 15.5712 23.3602 13.6235C21.0345 15.2064 19.5039 17.8745 19.5039 20.8937V23.2375C19.5039 24.2083 20.2909 24.9953 21.2617 24.9953H28.8789V32.5633C26.8942 33.2672 25.453 35.1271 25.3684 37.3299L17.705 39.7098C16.7239 37.4003 14.4327 35.7765 11.7695 35.7765C8.21559 35.7765 5.32422 38.6679 5.32422 42.2219C5.32422 45.7758 8.21559 48.6672 11.7695 48.6672C14.9704 48.6672 17.6327 46.3214 18.1302 43.259L26.4119 40.6871C27.3743 41.9735 28.91 42.8078 30.6367 42.8078C32.3635 42.8078 33.8991 41.9735 34.8616 40.6869L43.1432 43.259Z" fill="black"/>
</g>
<defs>
<clipPath id="clip0_100_5777">
<rect width="60" height="60" fill="white" transform="translate(0.636719 0.385742)"/>
</clipPath>
</defs>
</svg>
