<svg width="61" height="61" viewBox="0 0 61 61" fill="none" xmlns="http://www.w3.org/2000/svg">
<path d="M8.63672 14.1729C8.63672 8.65005 13.1139 4.17285 18.6367 4.17285H46.6367C52.1595 4.17285 56.6367 8.64995 56.6367 14.1729V42.1729C56.6367 47.6958 52.1596 52.1729 46.6367 52.1729H39.6367C38.5321 52.1729 37.6367 53.0683 37.6367 54.1729C37.6367 55.2775 38.5321 56.1729 39.6367 56.1729H46.6367C54.3687 56.1729 60.6367 49.9049 60.6367 42.1729V14.1729C60.6367 6.44086 54.3687 0.172852 46.6367 0.172852H18.6367C10.9047 0.172852 4.63672 6.44086 4.63672 14.1729V29.1729C4.63672 30.2775 5.53215 31.1729 6.63672 31.1729C7.74129 31.1729 8.63672 30.2775 8.63672 29.1729V14.1729Z" fill="black"/>
<path d="M31.6367 14.1729C30.5321 14.1729 29.6367 15.0683 29.6367 16.1729C29.6367 17.2775 30.5321 18.1729 31.6367 18.1729H47.6367C48.7413 18.1729 49.6367 17.2775 49.6367 16.1729C49.6367 15.0683 48.7413 14.1729 47.6367 14.1729H31.6367Z" fill="black"/>
<path d="M29.6367 26.1729C29.6367 25.0683 30.5321 24.1729 31.6367 24.1729H47.6367C48.7413 24.1729 49.6367 25.0683 49.6367 26.1729C49.6367 27.2775 48.7413 28.1729 47.6367 28.1729H31.6367C30.5321 28.1729 29.6367 27.2775 29.6367 26.1729Z" fill="black"/>
<path fill-rule="evenodd" clip-rule="evenodd" d="M5.90435 36.6709C6.62669 34.5564 8.63335 33.1729 10.8463 33.1729H24.4271C26.6401 33.1729 28.6467 34.5564 29.3691 36.6709L30.5912 40.2483C31.5117 39.8696 32.5914 40.228 33.0925 41.1174C33.6346 42.0797 33.294 43.2994 32.3316 43.8416L32.229 43.8993C33.6879 45.0233 34.6367 46.7712 34.6367 48.7638V55.0365C34.6367 57.9193 32.2556 60.1729 29.4224 60.1729C27.096 60.1729 25.0744 58.6534 24.4256 56.5138H10.8478C10.199 58.6534 8.17743 60.1729 5.85101 60.1729C3.01779 60.1729 0.636719 57.9193 0.636719 55.0365V48.7638C0.636719 46.7918 1.56592 45.0597 2.99919 43.9345L2.83417 43.8416C1.87181 43.2994 1.53116 42.0797 2.07331 41.1174C2.59144 40.1977 3.72838 39.8458 4.66814 40.2896L5.90435 36.6709ZM8.112 42.582L9.68962 37.964C9.84222 37.5171 10.2922 37.1729 10.8463 37.1729H24.4271C24.9812 37.1729 25.4312 37.5171 25.5838 37.964L27.1614 42.582H8.112ZM8.52954 47.8092C7.42497 47.8092 6.52954 48.7046 6.52954 49.8092C6.52954 50.9137 7.42497 51.8092 8.52954 51.8092H10.6724C11.7769 51.8092 12.6724 50.9137 12.6724 49.8092C12.6724 48.7046 11.7769 47.8092 10.6724 47.8092H8.52954ZM24.0652 47.8092C22.9607 47.8092 22.0652 48.7046 22.0652 49.8092C22.0652 50.9137 22.9607 51.8092 24.0652 51.8092H26.2081C27.3127 51.8092 28.2081 50.9137 28.2081 49.8092C28.2081 48.7046 27.3127 47.8092 26.2081 47.8092H24.0652Z" fill="black"/>
<path d="M15.1897 14.6493C14.4272 15.4485 14.4569 16.7145 15.2561 17.477L17.5021 19.6198C17.8863 19.9864 18.4005 20.1851 18.9314 20.1722C19.4623 20.1593 19.9662 19.9358 20.3321 19.5509L25.0861 14.5509C25.8472 13.7504 25.8153 12.4845 25.0148 11.7234C24.2143 10.9623 22.9484 10.9942 22.1873 11.7947L18.8138 15.3428L18.0173 14.5829C17.2181 13.8204 15.9521 13.8502 15.1897 14.6493Z" fill="black"/>
<path d="M15.2561 28.477C14.4569 27.7145 14.4272 26.4485 15.1897 25.6493C15.9521 24.8502 17.2181 24.8204 18.0173 25.5829L18.8138 26.3428L22.1873 22.7947C22.9484 21.9942 24.2143 21.9623 25.0148 22.7234C25.8153 23.4845 25.8472 24.7504 25.0861 25.5509L20.3321 30.5509C19.9662 30.9358 19.4623 31.1593 18.9314 31.1722C18.4005 31.1851 17.8863 30.9864 17.5021 30.6198L15.2561 28.477Z" fill="black"/>
</svg>
