<svg width="61" height="61" viewBox="0 0 61 61" fill="none" xmlns="http://www.w3.org/2000/svg">
<g clip-path="url(#clip0_100_5743)">
<path fill-rule="evenodd" clip-rule="evenodd" d="M56.6299 59.9758H50.303V37.9723C50.303 37.656 50.057 37.4099 49.7758 37.4099C49.4595 37.4099 49.2134 37.656 49.2134 37.9723V59.9758H42.8865H41.8672V58.9565V27.3572H57.6493V58.9565C57.6493 59.5189 57.1923 59.9758 56.6299 59.9758ZM41.8672 26.2324V22.2605C41.8672 21.6982 42.3241 21.2412 42.8865 21.2412H56.6299C57.1923 21.2412 57.6493 21.6982 57.6493 22.2605V26.2324H41.8672Z" fill="black"/>
<path fill-rule="evenodd" clip-rule="evenodd" d="M40.8125 59.9758H31.1815V46.3379C31.1815 46.0215 30.9355 45.7755 30.6191 45.7755H13.9232C13.642 45.7755 13.3959 46.0215 13.3959 46.3379V59.9758H1.65605C1.09366 59.9758 0.636719 59.5189 0.636719 58.9565V33.2271C0.636719 32.8757 0.812466 32.5593 1.09366 32.3836L21.7264 18.8862C22.0427 18.6753 22.4996 18.6753 22.8511 18.8862L40.8125 30.6612V59.9758ZM30.0919 59.9758H22.816V46.9003H30.0919V59.9758ZM21.7264 59.9758H14.4856V46.9003H21.7264V59.9758ZM25.9091 30.0286C26.1903 30.0286 26.4364 29.7825 26.4364 29.4662C26.4364 29.185 26.1903 28.9389 25.9091 28.9389H18.6684C18.352 28.9389 18.106 29.185 18.106 29.4662C18.106 29.7825 18.352 30.0286 18.6684 30.0286H25.9091ZM36.7703 42.6472C37.0866 42.6472 37.3327 42.4011 37.3327 42.0848V35.6525C37.3327 35.3361 37.0866 35.0901 36.7703 35.0901H30.4785C30.1974 35.0901 29.9513 35.3361 29.9513 35.6525V42.0848C29.9513 42.4011 30.1974 42.6472 30.4785 42.6472H36.7703ZM31.0409 41.5224V36.2148H36.2079V41.5224H31.0409ZM25.417 42.6472C25.7334 42.6472 25.9794 42.4011 25.9794 42.0848V35.6525C25.9794 35.3361 25.7334 35.0901 25.417 35.0901H19.1253C18.8441 35.0901 18.5981 35.3361 18.5981 35.6525V42.0848C18.5981 42.4011 18.8441 42.6472 19.1253 42.6472H25.417ZM19.6877 41.5224V36.2148H24.8898V41.5224H19.6877ZM14.0638 42.6472C14.3801 42.6472 14.6262 42.4011 14.6262 42.0848V35.6525C14.6262 35.3361 14.3801 35.0901 14.0638 35.0901H7.80719C7.49085 35.0901 7.2448 35.3361 7.2448 35.6525V42.0848C7.2448 42.4011 7.49085 42.6472 7.80719 42.6472H14.0638ZM8.33443 41.5224V36.2148H13.5365V41.5224H8.33443Z" fill="black"/>
<path fill-rule="evenodd" clip-rule="evenodd" d="M59.5819 23.2802H39.9334C39.371 23.2802 38.9141 22.8233 38.9141 22.2609V11.47C38.9141 10.9076 39.371 10.4507 39.9334 10.4507H59.5819C60.1443 10.4507 60.6012 10.9076 60.6012 11.47V22.2609C60.6012 22.8233 60.1443 23.2802 59.5819 23.2802ZM40.9527 21.2415H58.5977V12.4893H40.9527V21.2415Z" fill="black"/>
<path fill-rule="evenodd" clip-rule="evenodd" d="M59.5819 12.4892H39.9334C39.371 12.4892 38.9141 12.0322 38.9141 11.4698V7.63854C38.9141 7.25189 39.125 6.9004 39.5116 6.72465L49.3183 2.04978C49.5995 1.90919 49.9158 1.90919 50.197 2.04978L60.0388 6.72465C60.3903 6.9004 60.6012 7.25189 60.6012 7.63854V11.4698C60.6012 12.0322 60.1443 12.4892 59.5819 12.4892Z" fill="black"/>
<path fill-rule="evenodd" clip-rule="evenodd" d="M49.7752 23.2802H39.9334C39.371 23.2802 38.9141 22.8233 38.9141 22.2609V11.47C38.9141 10.9076 39.371 10.4507 39.9334 10.4507H49.7752C50.3376 10.4507 50.7946 10.9076 50.7946 11.47V22.2609C50.7946 22.8233 50.3376 23.2802 49.7752 23.2802ZM40.9527 21.2415H48.7559V12.4893H40.9527V21.2415Z" fill="black"/>
<path fill-rule="evenodd" clip-rule="evenodd" d="M22.2889 20.7493C21.7265 20.7493 21.2695 20.2924 21.2695 19.73V13.1922C21.2695 12.6298 21.7265 12.1729 22.2889 12.1729C22.8513 12.1729 23.3082 12.6298 23.3082 13.1922V19.73C23.3082 20.2924 22.8513 20.7493 22.2889 20.7493Z" fill="black"/>
<path fill-rule="evenodd" clip-rule="evenodd" d="M30.7599 14.2112H22.2889C21.7265 14.2112 21.2695 13.7543 21.2695 13.1919V6.75957C21.2695 6.19718 21.7265 5.74023 22.2889 5.74023H30.7599C31.3223 5.74023 31.7792 6.19718 31.7792 6.75957V13.1919C31.7792 13.7543 31.3223 14.2112 30.7599 14.2112Z" fill="black"/>
</g>
<defs>
<clipPath id="clip0_100_5743">
<rect width="60" height="60" fill="white" transform="translate(0.636719 0.959961)"/>
</clipPath>
</defs>
</svg>
