<svg width="61" height="61" viewBox="0 0 61 61" fill="none" xmlns="http://www.w3.org/2000/svg">
<path d="M4.38946 43.46C4.38946 40.6975 6.62696 38.46 9.38946 38.46C12.152 38.46 14.3895 40.6975 14.3895 43.46C14.3895 46.2225 12.152 48.46 9.38946 48.46C6.62696 48.46 4.38946 46.2225 4.38946 43.46ZM25.6395 43.46C25.6395 46.2225 27.877 48.46 30.6395 48.46C33.402 48.46 35.6395 46.2225 35.6395 43.46C35.6395 40.6975 33.402 38.46 30.6395 38.46C27.877 38.46 25.6395 40.6975 25.6395 43.46ZM30.6395 10.96C33.402 10.96 35.6395 8.72246 35.6395 5.95996C35.6395 3.19746 33.402 0.959961 30.6395 0.959961C27.877 0.959961 25.6395 3.19746 25.6395 5.95996C25.6395 8.72246 27.877 10.96 30.6395 10.96ZM46.8895 43.46C46.8895 46.2225 49.127 48.46 51.8895 48.46C54.652 48.46 56.8895 46.2225 56.8895 43.46C56.8895 40.6975 54.652 38.46 51.8895 38.46C49.127 38.46 46.8895 40.6975 46.8895 43.46ZM9.38946 35.96C10.7695 35.96 11.8895 34.8425 11.8895 33.46C11.8895 32.0775 13.012 30.96 14.3895 30.96H28.1395V33.46C28.1395 34.8425 29.2595 35.96 30.6395 35.96C32.0195 35.96 33.1395 34.8425 33.1395 33.46V30.96H46.8895C48.267 30.96 49.3895 32.08 49.3895 33.46C49.3895 34.84 50.5095 35.96 51.8895 35.96C53.2695 35.96 54.3895 34.8425 54.3895 33.46C54.3895 29.325 51.0245 25.96 46.8895 25.96H14.3895C10.2545 25.96 6.88946 29.325 6.88946 33.46C6.88946 34.8425 8.00946 35.96 9.38946 35.96ZM30.6395 50.96C26.497 50.96 22.8895 53.905 22.0645 57.9625C21.9145 58.6975 22.1045 59.4625 22.5795 60.0425C23.0545 60.6225 23.7645 60.96 24.5145 60.96H36.762C37.512 60.96 38.222 60.6225 38.697 60.0425C39.172 59.4625 39.3595 58.6975 39.212 57.9625C38.387 53.905 34.782 50.96 30.637 50.96H30.6395ZM24.5145 23.46H36.762C37.512 23.46 38.222 23.1225 38.697 22.5425C39.172 21.9625 39.3595 21.1975 39.212 20.4625C38.387 16.405 34.782 13.46 30.637 13.46C26.492 13.46 22.887 16.405 22.062 20.4625C21.912 21.1975 22.102 21.9625 22.577 22.5425C23.052 23.1225 23.762 23.46 24.512 23.46H24.5145ZM9.26196 50.96C5.11696 50.96 1.50946 53.905 0.686958 57.9625C0.536958 58.7 0.726958 59.4625 1.20196 60.0425C1.67696 60.6225 2.38696 60.96 3.13696 60.96H15.3845C16.1345 60.96 16.8445 60.6225 17.3195 60.0425C17.7945 59.4625 17.982 58.6975 17.8345 57.9625C17.0095 53.905 13.407 50.96 9.26196 50.96ZM51.887 50.96C47.687 50.96 44.027 53.9025 43.1895 57.9525C43.037 58.69 43.2245 59.4575 43.6995 60.0375C44.1745 60.62 44.887 60.96 45.637 60.96H58.137C58.8895 60.96 59.5995 60.62 60.0745 60.0375C60.5495 59.4575 60.737 58.69 60.5845 57.9525C59.747 53.9025 56.087 50.96 51.887 50.96Z" fill="black"/>
</svg>
