<svg width="61" height="61" viewBox="0 0 61 61" fill="none" xmlns="http://www.w3.org/2000/svg">
<path d="M48.3497 36.2085C47.8223 35.9448 47.1998 35.9448 46.6724 36.2085C46.6724 36.2085 39.0562 40.0408 38.9961 40.08L47.5111 44.3375L56.026 40.08C55.966 40.0408 48.3497 36.2085 48.3497 36.2085Z" fill="black"/>
<path d="M38.1367 51.0108C38.1367 51.7213 38.5377 52.3704 39.1731 52.688L46.5742 56.6358V45.9653L38.1367 41.7466V51.0108Z" fill="black"/>
<path d="M48.4492 45.9653V56.6358L55.8503 52.688C56.4857 52.3704 56.8867 51.7213 56.8867 51.0108V41.7466L48.4492 45.9653Z" fill="black"/>
<path d="M25.8497 36.2085C25.3223 35.9448 24.6998 35.9448 24.1724 36.2085C24.1724 36.2085 16.5562 40.0408 16.4961 40.08L25.0111 44.3375L33.526 40.08C33.466 40.0408 25.8497 36.2085 25.8497 36.2085Z" fill="black"/>
<path d="M15.6367 51.0108C15.6367 51.7213 16.0377 52.3704 16.6731 52.688L24.0742 56.6358V45.9653L15.6367 41.7466V51.0108Z" fill="black"/>
<path d="M25.9492 56.6358L33.3503 52.688C33.9857 52.3704 34.3867 51.7213 34.3867 51.0108V41.7466L25.9492 45.9653V56.6358Z" fill="black"/>
<path d="M37.0997 17.4585C36.5723 17.1948 35.9498 17.1948 35.4224 17.4585C35.4224 17.4585 27.8062 21.2908 27.7461 21.33L36.2611 25.5875L44.776 21.33C44.716 21.2908 37.0997 17.4585 37.0997 17.4585Z" fill="black"/>
<path d="M26.8867 32.2608C26.8867 32.9713 27.2877 33.6204 27.9231 33.938L35.3242 37.8858V27.2153L26.8867 22.9966V32.2608Z" fill="black"/>
<path d="M13.7617 51.0107V39.6247C13.7617 39.6247 15.6202 38.4131 23.3299 34.534C23.8527 34.2722 24.3672 34.1357 25.0117 34.1357V20.8747C25.0117 20.8747 26.8702 19.6631 34.5808 15.784C35.1027 15.5222 35.6831 15.3857 36.2617 15.3857C36.8403 15.3857 37.4208 15.5222 37.939 15.7812C38.7106 16.1694 39.386 16.5092 40.0117 16.8242V6.01074C40.0117 4.97528 39.1722 4.13574 38.1367 4.13574H31.4187L29.6708 11.1249C29.5665 11.5424 29.192 11.8353 28.7617 11.8353H15.6367C15.2064 11.8353 14.832 11.5424 14.7276 11.1249L12.9797 4.13574H6.26172C5.22626 4.13574 4.38672 4.97528 4.38672 6.01074V54.7607C4.38672 55.7962 5.22626 56.6357 6.26172 56.6357H20.0898L15.7905 54.3423C14.5564 53.7253 13.7617 52.4408 13.7617 51.0107ZM11.8867 17.2607C13.9549 17.2607 15.6367 18.9426 15.6367 21.0107C15.6367 23.0789 13.9549 24.7607 11.8867 24.7607C9.81854 24.7607 8.13672 23.0789 8.13672 21.0107C8.13672 18.9426 9.81854 17.2607 11.8867 17.2607ZM8.13672 32.2607C8.13672 30.1926 9.81854 28.5107 11.8867 28.5107C13.9549 28.5107 15.6367 30.1926 15.6367 32.2607C15.6367 34.3289 13.9549 36.0107 11.8867 36.0107C9.81854 36.0107 8.13672 34.3289 8.13672 32.2607Z" fill="black"/>
<path d="M45.6367 32.2608V22.9966L37.1992 27.2153V37.8858L44.6003 33.938C45.2357 33.6204 45.6367 32.9713 45.6367 32.2608Z" fill="black"/>
<path d="M28.0288 9.96033L29.4852 4.13574H14.9121L16.3686 9.96033H28.0288Z" fill="black"/>
</svg>
