<svg width="61" height="61" viewBox="0 0 61 61" fill="none" xmlns="http://www.w3.org/2000/svg">
<g clip-path="url(#clip0_254_7301)">
<path d="M30.6362 0.172852C29.5561 0.172852 28.6797 1.04859 28.6797 2.12941V6.04242C28.6797 7.12324 29.5561 7.99898 30.6362 7.99898C31.7164 7.99898 32.5928 7.12324 32.5928 6.04242V2.12941C32.5928 1.04859 31.7164 0.172852 30.6362 0.172852Z" fill="black"/>
<path d="M7.15863 27.5642H3.24562C2.16551 27.5642 1.28906 28.4407 1.28906 29.5208C1.28906 30.6009 2.16551 31.4773 3.24562 31.4773H7.15863C8.23875 31.4773 9.11519 30.6009 9.11519 29.5208C9.11519 28.4407 8.23875 27.5642 7.15863 27.5642Z" fill="black"/>
<path d="M58.0278 27.5642H54.1148C53.0346 27.5642 52.1582 28.4407 52.1582 29.5208C52.1582 30.6009 53.0346 31.4773 54.1148 31.4773H58.0278C59.1079 31.4773 59.9843 30.6009 59.9843 29.5208C59.9843 28.4407 59.1079 27.5642 58.0278 27.5642Z" fill="black"/>
<path d="M51.3889 8.76885C50.6247 8.00455 49.3865 8.00525 48.6222 8.76814L45.8544 11.5348C45.0902 12.299 45.0902 13.5378 45.8544 14.3021C46.2365 14.6842 46.7372 14.8754 47.2377 14.8754C47.7383 14.8754 48.2389 14.6842 48.6209 14.3028L51.3889 11.5361C52.1532 10.7719 52.1532 9.53314 51.3889 8.76885Z" fill="black"/>
<path d="M15.4181 11.5348L12.6502 8.76814C11.8861 8.00514 10.6479 8.00467 9.88368 8.76885C9.1195 9.53303 9.1195 10.7718 9.88368 11.5361L12.6516 14.3028C13.0338 14.6844 13.5344 14.8754 14.0349 14.8754C14.5354 14.8754 15.0362 14.6842 15.4182 14.3021C16.1823 13.5379 16.1823 12.2992 15.4181 11.5348Z" fill="black"/>
<path d="M50.2022 51.0425H11.0718C9.99133 51.0425 9.11523 51.9185 9.11523 52.999V58.2165C9.11523 59.2969 9.99121 60.173 11.0718 60.173H50.2022C51.2827 60.173 52.1588 59.297 52.1588 58.2165V52.999C52.1587 51.9185 51.2827 51.0425 50.2022 51.0425Z" fill="black"/>
<path d="M30.6361 11.9121C20.9261 11.9121 13.0273 19.8109 13.0273 29.5208V47.1295H48.2448V29.5208C48.2448 19.8108 40.346 11.9121 30.6361 11.9121ZM38.4622 31.4773C37.3821 31.4773 36.5056 30.6008 36.5056 29.5207C36.5056 26.2841 33.8727 23.6511 30.6361 23.6511C29.5559 23.6511 28.6795 22.7747 28.6795 21.6946C28.6795 20.6145 29.5559 19.738 30.6361 19.738C36.0304 19.738 40.4186 24.1262 40.4186 29.5206C40.4186 30.6009 39.5423 31.4773 38.4622 31.4773Z" fill="black"/>
</g>
<defs>
<clipPath id="clip0_254_7301">
<rect width="60" height="60" fill="white" transform="translate(0.636719 0.172852)"/>
</clipPath>
</defs>
</svg>
