<svg width="61" height="61" viewBox="0 0 61 61" fill="none" xmlns="http://www.w3.org/2000/svg">
<g clip-path="url(#clip0_100_5719)">
<path d="M38.0517 17.8954C38.4242 19.0229 37.5067 20.1729 36.2792 20.1729H24.9917C23.7642 20.1729 22.8467 19.0229 23.2192 17.8954C24.2192 14.8654 27.1617 12.6729 30.6342 12.6729C34.1067 12.6729 37.0517 14.8679 38.0517 17.8954ZM30.6367 10.1729C33.3992 10.1729 35.6367 7.93535 35.6367 5.17285C35.6367 2.41035 33.3992 0.172852 30.6367 0.172852C27.8742 0.172852 25.6367 2.41035 25.6367 5.17285C25.6367 7.93535 27.8742 10.1729 30.6367 10.1729ZM8.13672 22.6729C4.66172 22.6729 1.72172 24.8679 0.721719 27.8954C0.349219 29.0229 1.26672 30.1729 2.49422 30.1729H13.7817C15.0092 30.1729 15.9267 29.0229 15.5542 27.8954C14.5542 24.8654 11.6092 22.6729 8.13672 22.6729ZM8.13672 20.1729C10.8992 20.1729 13.1367 17.9354 13.1367 15.1729C13.1367 12.4104 10.8992 10.1729 8.13672 10.1729C5.37422 10.1729 3.13672 12.4104 3.13672 15.1729C3.13672 17.9354 5.37422 20.1729 8.13672 20.1729ZM53.1367 27.6729C49.6617 27.6729 46.7217 29.8679 45.7217 32.8954C45.3492 34.0229 46.2667 35.1729 47.4942 35.1729H58.7817C60.0092 35.1729 60.9267 34.0229 60.5542 32.8954C59.5542 29.8654 56.6092 27.6729 53.1367 27.6729ZM53.1367 25.1729C55.8992 25.1729 58.1367 22.9354 58.1367 20.1729C58.1367 17.4104 55.8992 15.1729 53.1367 15.1729C50.3742 15.1729 48.1367 17.4104 48.1367 20.1729C48.1367 22.9354 50.3742 25.1729 53.1367 25.1729ZM39.3867 31.4229V53.9229C39.3867 57.3754 36.5892 60.1729 33.1367 60.1729H28.1367C24.6842 60.1729 21.8867 57.3754 21.8867 53.9229V31.4229C21.8867 27.9704 24.6842 25.1729 28.1367 25.1729H33.1367C36.5892 25.1729 39.3867 27.9704 39.3867 31.4229ZM60.6367 46.4229V53.9229C60.6367 57.3754 57.8392 60.1729 54.3867 60.1729H50.6367C47.1842 60.1729 44.3867 57.3754 44.3867 53.9229V46.4229C44.3867 42.9704 47.1842 40.1729 50.6367 40.1729H54.3867C57.8392 40.1729 60.6367 42.9704 60.6367 46.4229ZM16.8867 41.4229V53.9229C16.8867 57.3754 14.0892 60.1729 10.6367 60.1729H6.88672C3.43422 60.1729 0.636719 57.3754 0.636719 53.9229V41.4229C0.636719 37.9704 3.43422 35.1729 6.88672 35.1729H10.6367C14.0892 35.1729 16.8867 37.9704 16.8867 41.4229Z" fill="black"/>
</g>
<defs>
<clipPath id="clip0_100_5719">
<rect width="60" height="60" fill="white" transform="translate(0.636719 0.172852)"/>
</clipPath>
</defs>
</svg>
