<svg width="61" height="61" viewBox="0 0 61 61" fill="none" xmlns="http://www.w3.org/2000/svg">
<path d="M55.4567 39.8793L50.9303 35.3529C50.3136 34.7397 49.48 34.3943 48.6104 34.3916H40.0117C39.1418 34.3927 38.3078 34.7387 37.6927 35.3538C37.0776 35.9689 36.7315 36.8029 36.7305 37.6729V52.6729C36.7315 53.5428 37.0776 54.3768 37.6927 54.9919C38.3078 55.607 39.1418 55.953 40.0117 55.9541H53.1367C54.0066 55.953 54.8406 55.607 55.4557 54.9919C56.0709 54.3768 56.4169 53.5428 56.418 52.6729V42.1992C56.4193 41.7681 56.335 41.3411 56.17 40.9428C56.005 40.5446 55.7625 40.1831 55.4567 39.8793ZM43.7617 41.8916H45.6367C46.0097 41.8916 46.3674 42.0398 46.6311 42.3035C46.8948 42.5672 47.043 42.9249 47.043 43.2979C47.043 43.6708 46.8948 44.0285 46.6311 44.2922C46.3674 44.5559 46.0097 44.7041 45.6367 44.7041H43.7617C43.3888 44.7041 43.0311 44.5559 42.7673 44.2922C42.5036 44.0285 42.3555 43.6708 42.3555 43.2979C42.3555 42.9249 42.5036 42.5672 42.7673 42.3035C43.0311 42.0398 43.3888 41.8916 43.7617 41.8916ZM49.3867 50.3291H43.7617C43.3888 50.3291 43.0311 50.1809 42.7673 49.9172C42.5036 49.6535 42.3555 49.2958 42.3555 48.9229C42.3555 48.5499 42.5036 48.1922 42.7673 47.9285C43.0311 47.6648 43.3888 47.5166 43.7617 47.5166H49.3867C49.7597 47.5166 50.1174 47.6648 50.3811 47.9285C50.6448 48.1922 50.793 48.5499 50.793 48.9229C50.793 49.2958 50.6448 49.6535 50.3811 49.9172C50.1174 50.1809 49.7597 50.3291 49.3867 50.3291ZM49.3867 44.7041C49.1086 44.7041 48.8367 44.6216 48.6054 44.4671C48.3742 44.3126 48.1939 44.093 48.0875 43.836C47.9811 43.579 47.9532 43.2963 48.0075 43.0235C48.0618 42.7507 48.1957 42.5001 48.3923 42.3035C48.589 42.1068 48.8396 41.9729 49.1124 41.9186C49.3852 41.8644 49.6679 41.8922 49.9249 41.9986C50.1818 42.1051 50.4015 42.2853 50.556 42.5166C50.7105 42.7478 50.793 43.0197 50.793 43.2979C50.7929 43.6708 50.6447 44.0284 50.381 44.2922C50.1173 44.5559 49.7597 44.704 49.3867 44.7041Z" fill="black"/>
<path d="M23.5817 39.8793L19.0553 35.3529C18.7514 35.0473 18.3898 34.8049 17.9916 34.6399C17.5934 34.4749 17.1664 34.3905 16.7354 34.3916H8.13672C7.2668 34.3927 6.43282 34.7387 5.81769 35.3538C5.20257 35.969 4.85653 36.8029 4.85547 37.6729V52.6729C4.85653 53.5428 5.20257 54.3768 5.81769 54.9919C6.43282 55.607 7.2668 55.9531 8.13672 55.9541H21.2617C22.1316 55.9531 22.9656 55.607 23.5807 54.9919C24.1959 54.3768 24.5419 53.5428 24.543 52.6729V42.1992C24.5441 41.7682 24.4597 41.3412 24.2947 40.943C24.1297 40.5448 23.8873 40.1832 23.5817 39.8793ZM11.8867 41.8916H13.7617C14.1347 41.8916 14.4924 42.0398 14.7561 42.3035C15.0198 42.5672 15.168 42.9249 15.168 43.2979C15.168 43.6708 15.0198 44.0285 14.7561 44.2922C14.4924 44.556 14.1347 44.7041 13.7617 44.7041H11.8867C11.5138 44.7041 11.1561 44.556 10.8924 44.2922C10.6286 44.0285 10.4805 43.6708 10.4805 43.2979C10.4805 42.9249 10.6286 42.5672 10.8924 42.3035C11.1561 42.0398 11.5138 41.8916 11.8867 41.8916ZM17.5117 50.3291H11.8867C11.5138 50.3291 11.1561 50.181 10.8924 49.9172C10.6286 49.6535 10.4805 49.2958 10.4805 48.9229C10.4805 48.5499 10.6286 48.1922 10.8924 47.9285C11.1561 47.6648 11.5138 47.5166 11.8867 47.5166H17.5117C17.8847 47.5166 18.2424 47.6648 18.5061 47.9285C18.7698 48.1922 18.918 48.5499 18.918 48.9229C18.918 49.2958 18.7698 49.6535 18.5061 49.9172C18.2424 50.181 17.8847 50.3291 17.5117 50.3291ZM17.5117 44.7041C17.2336 44.7041 16.9617 44.6216 16.7304 44.4671C16.4992 44.3126 16.319 44.093 16.2125 43.836C16.1061 43.5791 16.0782 43.2963 16.1325 43.0235C16.1868 42.7507 16.3207 42.5002 16.5174 42.3035C16.714 42.1068 16.9646 41.9729 17.2374 41.9186C17.5102 41.8644 17.7929 41.8922 18.0499 41.9987C18.3068 42.1051 18.5265 42.2853 18.681 42.5166C18.8355 42.7478 18.918 43.0197 18.918 43.2979C18.9179 43.6708 18.7697 44.0285 18.506 44.2922C18.2423 44.5559 17.8847 44.7041 17.5117 44.7041Z" fill="black"/>
<path d="M38.1367 48.4541H23.1367C22.7638 48.4541 22.4061 48.3059 22.1424 48.0422C21.8786 47.7785 21.7305 47.4208 21.7305 47.0479C21.7305 46.6749 21.8786 46.3172 22.1424 46.0535C22.4061 45.7898 22.7638 45.6416 23.1367 45.6416H38.1367C38.5097 45.6416 38.8674 45.7898 39.1311 46.0535C39.3948 46.3172 39.543 46.6749 39.543 47.0479C39.543 47.4208 39.3948 47.7785 39.1311 48.0422C38.8674 48.3059 38.5097 48.4541 38.1367 48.4541Z" fill="black"/>
<path d="M30.6367 48.4541C30.2638 48.454 29.9062 48.3058 29.6425 48.0421C29.3788 47.7784 29.2306 47.4208 29.2305 47.0479V33.9229C29.2305 33.5499 29.3786 33.1922 29.6424 32.9285C29.9061 32.6648 30.2638 32.5166 30.6367 32.5166C31.0097 32.5166 31.3674 32.6648 31.6311 32.9285C31.8948 33.1922 32.043 33.5499 32.043 33.9229V47.0479C32.0429 47.4208 31.8947 47.7784 31.631 48.0421C31.3673 48.3058 31.0096 48.454 30.6367 48.4541Z" fill="black"/>
<path d="M30.6367 25.0166C33.4844 25.0166 35.793 22.7081 35.793 19.8604C35.793 17.0126 33.4844 14.7041 30.6367 14.7041C27.789 14.7041 25.4805 17.0126 25.4805 19.8604C25.4805 22.7081 27.789 25.0166 30.6367 25.0166Z" fill="black"/>
<path d="M44.9803 16.6729H44.1453C43.8062 16.6665 43.4775 16.5548 43.2048 16.3533C42.932 16.1518 42.7286 15.8705 42.6228 15.5482C42.4864 15.1681 42.3327 14.7966 42.1619 14.4338C42.009 14.131 41.954 13.7881 42.0044 13.4527C42.0548 13.1173 42.2082 12.8058 42.4434 12.5613L43.033 11.9717C43.181 11.8237 43.2984 11.648 43.3785 11.4546C43.4587 11.2613 43.4999 11.054 43.4999 10.8447C43.4999 10.6354 43.4587 10.4281 43.3785 10.2347C43.2984 10.0414 43.181 9.86567 43.033 9.71769L40.7789 7.46366C40.48 7.16491 40.0747 6.9971 39.6521 6.99714C39.2295 6.99718 38.8242 7.16507 38.5254 7.46388L37.9358 8.05348C37.6913 8.28872 37.3798 8.4422 37.0443 8.49268C36.7088 8.54315 36.3659 8.48813 36.063 8.33523C35.7005 8.1645 35.3291 8.01075 34.9488 7.87398C34.6267 7.76825 34.3454 7.56496 34.1439 7.29227C33.9424 7.01957 33.8307 6.69097 33.8242 6.35197V5.5166C33.8242 5.09395 33.6563 4.6886 33.3575 4.38972C33.0586 4.09084 32.6533 3.9229 32.2307 3.92285H29.0428C28.6201 3.92293 28.2148 4.09087 27.916 4.38975C27.6172 4.68863 27.4493 5.09396 27.4493 5.5166V6.35201C27.4429 6.69103 27.3311 7.01965 27.1296 7.29236C26.9281 7.56507 26.6468 7.76836 26.3246 7.87408C25.9446 8.01048 25.5732 8.16423 25.2104 8.33533C24.9075 8.48824 24.5646 8.54324 24.2291 8.49272C23.8936 8.4422 23.5821 8.28866 23.3377 8.05335L22.7481 7.46398C22.4492 7.16516 22.0439 6.99728 21.6213 6.99724C21.1987 6.99719 20.7934 7.165 20.4945 7.46375L18.2405 9.71769C18.0924 9.86567 17.975 10.0414 17.8949 10.2347C17.8148 10.4281 17.7736 10.6354 17.7736 10.8447C17.7736 11.054 17.8148 11.2613 17.8949 11.4546C17.975 11.648 18.0924 11.8237 18.2405 11.9717L18.8301 12.5613C19.0652 12.8058 19.2186 13.1173 19.2691 13.4527C19.3195 13.7882 19.2645 14.131 19.1116 14.4338C18.9409 14.7963 18.7872 15.1678 18.6506 15.5482C18.5448 15.8705 18.3415 16.1518 18.0687 16.3533C17.7959 16.5548 17.4672 16.6665 17.1281 16.6729H16.2932C16.0839 16.6729 15.8766 16.7141 15.6832 16.7942C15.4898 16.8743 15.3141 16.9917 15.1661 17.1396C15.0181 17.2876 14.9007 17.4633 14.8206 17.6567C14.7405 17.85 14.6992 18.0573 14.6992 18.2666V21.4541C14.6992 21.6634 14.7404 21.8707 14.8206 22.064C14.9007 22.2574 15.0181 22.4331 15.1661 22.5811C15.3141 22.7291 15.4898 22.8465 15.6832 22.9266C15.8766 23.0067 16.0838 23.0479 16.2932 23.0479H17.1281C17.4672 23.0543 17.7959 23.166 18.0687 23.3675C18.3415 23.569 18.5448 23.8503 18.6506 24.1726C18.787 24.5527 18.9407 24.9242 19.1116 25.287C19.2645 25.5898 19.3195 25.9326 19.2691 26.2681C19.2186 26.6035 19.0652 26.915 18.8301 27.1595L18.2405 27.7491C18.0924 27.8971 17.975 28.0728 17.8949 28.2662C17.8148 28.4595 17.7735 28.6668 17.7735 28.8761C17.7735 29.0854 17.8148 29.2927 17.8949 29.486C17.975 29.6794 18.0924 29.8551 18.2405 30.0031L20.4945 32.2571C20.6424 32.4052 20.818 32.5226 21.0112 32.6027C21.2045 32.6829 21.4117 32.7242 21.6209 32.7242C21.8301 32.7243 22.0373 32.6831 22.2306 32.6031C22.424 32.5231 22.5996 32.4058 22.7476 32.2578L23.3386 31.6666C23.5829 31.4314 23.8943 31.2781 24.2297 31.2277C24.565 31.1773 24.9078 31.2325 25.2104 31.3856C25.5729 31.5563 25.9443 31.7101 26.3246 31.8468C26.6468 31.9525 26.9281 32.1558 27.1296 32.4285C27.3311 32.7012 27.4428 33.0299 27.4493 33.3689V34.2041C27.4493 34.6267 27.6172 35.0321 27.916 35.331C28.2148 35.6298 28.6201 35.7978 29.0428 35.7979H32.2306C32.6533 35.7978 33.0586 35.6299 33.3575 35.331C33.6563 35.0321 33.8242 34.6268 33.8242 34.2041V33.3687C33.8307 33.0297 33.9424 32.701 34.1439 32.4283C34.3454 32.1556 34.6268 31.9523 34.9489 31.8466C35.3289 31.71 35.7003 31.5562 36.0631 31.3854C36.366 31.2325 36.7089 31.1775 37.0444 31.2279C37.3799 31.2784 37.6914 31.4319 37.9359 31.6671L38.5255 32.2567C38.8243 32.5555 39.2296 32.7234 39.6522 32.7235C40.0748 32.7235 40.4801 32.5557 40.779 32.257L43.0331 30.0029C43.1811 29.8549 43.2985 29.6792 43.3786 29.4859C43.4587 29.2925 43.5 29.0852 43.5 28.8759C43.5 28.6666 43.4587 28.4593 43.3786 28.266C43.2985 28.0726 43.1811 27.8969 43.0331 27.7489L42.4435 27.1593C42.2083 26.9148 42.0549 26.6033 42.0045 26.2679C41.954 25.9325 42.0091 25.5896 42.1619 25.2868C42.3327 24.9243 42.4863 24.5528 42.6229 24.1724C42.7287 23.8502 42.9321 23.5688 43.2048 23.3673C43.4776 23.1658 43.8063 23.0541 44.1454 23.0477H44.9804C45.1897 23.0477 45.3969 23.0065 45.5903 22.9264C45.7837 22.8463 45.9594 22.7289 46.1074 22.5809C46.2554 22.4329 46.3729 22.2572 46.453 22.0639C46.5331 21.8705 46.5743 21.6632 46.5743 21.4539V18.2666C46.5743 18.0573 46.533 17.85 46.4529 17.6567C46.3728 17.4633 46.2554 17.2876 46.1074 17.1396C45.9593 16.9916 45.7836 16.8742 45.5902 16.7942C45.3969 16.7141 45.1896 16.6729 44.9803 16.6729ZM30.6367 27.8291C29.0606 27.8291 27.52 27.3617 26.2095 26.4861C24.8991 25.6105 23.8777 24.366 23.2746 22.9099C22.6714 21.4538 22.5136 19.8515 22.8211 18.3057C23.1286 16.7599 23.8875 15.34 25.002 14.2256C26.1164 13.1111 27.5363 12.3522 29.0821 12.0447C30.6279 11.7372 32.2301 11.8951 33.6862 12.4982C35.1423 13.1013 36.3869 14.1227 37.2625 15.4332C38.1381 16.7436 38.6055 18.2843 38.6055 19.8604C38.603 21.973 37.7626 23.9984 36.2687 25.4923C34.7748 26.9862 32.7494 27.8266 30.6367 27.8291Z" fill="black"/>
</svg>
