<svg width="61" height="61" viewBox="0 0 61 61" fill="none" xmlns="http://www.w3.org/2000/svg">
<g clip-path="url(#clip0_100_5765)">
<path d="M19.3867 32.6729C17.1617 32.6729 14.9866 32.0131 13.1366 30.7769C11.2865 29.5407 9.84456 27.7837 8.99307 25.728C8.14159 23.6724 7.9188 21.4104 8.35288 19.2281C8.78697 17.0458 9.85843 15.0412 11.4318 13.4679C13.0051 11.8946 15.0097 10.8231 17.192 10.389C19.3742 9.95494 21.6362 10.1777 23.6919 11.0292C25.7476 11.8807 27.5046 13.3226 28.7408 15.1727C29.9769 17.0227 30.6367 19.1978 30.6367 21.4229C30.6334 24.4055 29.4471 27.2651 27.338 29.3742C25.2289 31.4832 22.3694 32.6695 19.3867 32.6729ZM35.6367 60.1729H3.13672C2.47368 60.1729 1.83779 59.9095 1.36895 59.4406C0.900111 58.9718 0.636719 58.3359 0.636719 57.6729V56.4229C0.636719 51.45 2.61216 46.6809 6.12847 43.1646C9.64477 39.6483 14.4139 37.6729 19.3867 37.6729C24.3595 37.6729 29.1287 39.6483 32.645 43.1646C36.1613 46.6809 38.1367 51.45 38.1367 56.4229V57.6729C38.1367 58.3359 37.8733 58.9718 37.4045 59.4406C36.9356 59.9095 36.2998 60.1729 35.6367 60.1729ZM44.3867 22.6729C42.1617 22.6729 39.9866 22.0131 38.1366 20.7769C36.2865 19.5407 34.8446 17.7837 33.9931 15.728C33.1416 13.6724 32.9188 11.4104 33.3529 9.22809C33.787 7.0458 34.8584 5.04125 36.4318 3.46791C38.0051 1.89456 40.0097 0.823106 42.192 0.389022C44.3742 -0.0450615 46.6362 0.177726 48.6919 1.02921C50.7476 1.8807 52.5046 3.32264 53.7408 5.17269C54.9769 7.02274 55.6367 9.19782 55.6367 11.4229C55.6334 14.4055 54.4471 17.2651 52.338 19.3742C50.229 21.4832 47.3694 22.6695 44.3867 22.6729ZM40.8342 27.7254C38.5058 28.0378 36.267 28.8276 34.258 30.0455C32.249 31.2633 30.5132 32.883 29.1592 34.8029C34.7615 37.347 39.1633 41.9584 41.4442 47.6729H58.1367C58.7998 47.6729 59.4356 47.4095 59.9045 46.9406C60.3733 46.4718 60.6367 45.8359 60.6367 45.1729V45.0779C60.6341 42.5859 60.1 40.1231 59.0699 37.854C58.0398 35.5849 56.5375 33.5616 54.6633 31.9192C52.789 30.2769 50.586 29.0533 48.2013 28.3301C45.8166 27.6069 43.305 27.4007 40.8342 27.7254Z" fill="black"/>
</g>
<defs>
<clipPath id="clip0_100_5765">
<rect width="60" height="60" fill="white" transform="translate(0.636719 0.172852)"/>
</clipPath>
</defs>
</svg>
