<svg width="61" height="61" viewBox="0 0 61 61" fill="none" xmlns="http://www.w3.org/2000/svg">
<g clip-path="url(#clip0_100_5910)">
<path d="M42.5091 5.29785C39.2066 1.99285 34.8116 0.172852 30.1366 0.172852C25.4616 0.172852 21.0691 1.99285 17.7616 5.29785C10.9391 12.1204 10.9391 23.2229 17.7816 30.0654L24.0191 36.1654C25.7066 37.8154 27.9216 38.6404 30.1366 38.6404C32.3516 38.6404 34.5666 37.8154 36.2541 36.1654L42.5091 30.0454C45.8141 26.7404 47.6366 22.3454 47.6366 17.6704C47.6366 12.9954 45.8141 8.60535 42.5091 5.29785ZM30.1366 25.1479C25.9941 25.1479 22.6366 21.7903 22.6366 17.6479C22.6366 13.5054 25.9941 10.1479 30.1366 10.1479C34.2791 10.1479 37.6366 13.5054 37.6366 17.6479C37.6366 21.7903 34.2791 25.1479 30.1366 25.1479ZM18.7191 37.9754L18.4141 40.1729H1.70656L2.85406 33.4829C3.46906 29.8954 5.92906 27.0404 9.16406 25.8179C10.2866 28.7079 12.0141 31.3654 14.2866 33.6404L18.7191 37.9754ZM0.849056 45.1729H17.7166L15.6316 60.1729H10.1366C7.19156 60.1729 4.40906 58.8829 2.50656 56.6353C0.601556 54.3878 -0.210944 51.4328 0.274056 48.5278L0.849056 45.1729ZM38.0041 45.1729L40.0916 60.1729H20.6791L22.7641 45.1729H38.0041ZM58.5666 40.1729H42.3541L41.9891 37.5504L46.0441 33.5829C48.2916 31.3354 50.0041 28.6979 51.1191 25.8229C54.3491 27.0479 56.8041 29.8979 57.4191 33.4829L58.5666 40.1729ZM57.7666 56.6379C55.8616 58.8829 53.0816 60.1729 50.1366 60.1729H45.1366L43.0491 45.1729H59.4241L59.9966 48.5178C60.4816 51.4353 59.6716 54.3904 57.7666 56.6379Z" fill="black"/>
</g>
<defs>
<clipPath id="clip0_100_5910">
<rect width="60" height="60" fill="white" transform="translate(0.136719 0.172852)"/>
</clipPath>
</defs>
</svg>
