<svg width="61" height="61" viewBox="0 0 61 61" fill="none" xmlns="http://www.w3.org/2000/svg">
<path fill-rule="evenodd" clip-rule="evenodd" d="M37.8164 25.2228C37.8164 26.2241 38.631 27.0387 39.6323 27.0387C40.6335 27.0387 41.4481 26.2241 41.4481 25.2228C41.4481 24.2216 40.6347 23.407 39.6323 23.407C38.631 23.4058 37.8164 24.2216 37.8164 25.2228Z" fill="black"/>
<path d="M40.0474 35.2181C41.0232 34.9874 41.6273 34.0094 41.3966 33.0336C41.1659 32.0578 40.1879 31.4537 39.2121 31.6844C38.2363 31.9151 37.6323 32.8931 37.863 33.8689C38.0936 34.8447 39.0716 35.4487 40.0474 35.2181Z" fill="black"/>
<path fill-rule="evenodd" clip-rule="evenodd" d="M39.6323 39.8997C38.631 39.8997 37.8164 40.7143 37.8164 41.7155C37.8164 42.7167 38.631 43.5314 39.6323 43.5314C40.6335 43.5314 41.4481 42.7167 41.4481 41.7155C41.4493 40.7143 40.6347 39.8997 39.6323 39.8997Z" fill="black"/>
<path fill-rule="evenodd" clip-rule="evenodd" d="M4.32617 16.6387V43.8851C4.32617 45.6534 5.76398 47.0899 7.53105 47.0899H34.3908C34.3067 46.8729 34.2603 46.6363 34.2603 46.3899V20.5497C34.2603 19.4753 35.1359 18.5997 36.2103 18.5997H41.8115V16.6387C41.8115 14.8704 40.3737 13.4338 38.6067 13.4338H28.2945V30.2619C28.2945 30.6058 28.0164 30.8863 27.6701 30.8863H18.4652C18.1201 30.8863 17.8408 30.607 17.8408 30.2619V13.4338H7.53105C5.76276 13.4338 4.32617 14.8716 4.32617 16.6387Z" fill="black"/>
<path fill-rule="evenodd" clip-rule="evenodd" d="M19.0898 13.4338H27.0459V29.6387H19.0898V13.4338Z" fill="black"/>
<path fill-rule="evenodd" clip-rule="evenodd" d="M42.4342 19.8484H36.211V19.8496C35.8244 19.8496 35.5098 20.1642 35.5098 20.5508V46.3899C35.5098 46.7569 35.7927 47.0594 36.1525 47.0886H36.2122C36.2305 47.0886 36.25 47.0899 36.2683 47.0911H56.3098C56.6964 47.0911 57.011 46.7764 57.011 46.3899V20.5496C57.011 20.163 56.6964 19.8484 56.3098 19.8484H42.4403H42.4378H42.4342ZM44.0098 23.352H55.3268C55.672 23.352 55.9512 23.6313 55.9512 23.9764C55.9512 24.3216 55.672 24.6008 55.3268 24.6008H44.0098C43.6646 24.6008 43.3854 24.3216 43.3854 23.9764C43.3854 23.6313 43.6659 23.352 44.0098 23.352ZM42.6976 25.224C42.6976 26.9142 41.3232 28.2886 39.6329 28.2886C37.9427 28.2886 36.5683 26.9142 36.5683 25.224C36.5683 23.5338 37.9427 22.1594 39.6329 22.1594C41.3232 22.1594 42.6976 23.5338 42.6976 25.224ZM44.0098 26.0655H55.3268C55.672 26.0655 55.9512 26.3447 55.9512 26.6899C55.9512 27.035 55.672 27.3142 55.3268 27.3142H44.0098C43.6646 27.3142 43.3854 27.035 43.3854 26.6899C43.3854 26.3447 43.6659 26.0655 44.0098 26.0655ZM44.0098 28.7764H55.3268C55.672 28.7764 55.9512 29.0557 55.9512 29.4008C55.9512 29.7459 55.672 30.0252 55.3268 30.0252H44.0098C43.6646 30.0252 43.3854 29.7459 43.3854 29.4008C43.3854 29.0557 43.6659 28.7764 44.0098 28.7764ZM44.0098 31.4899H55.3268C55.672 31.4899 55.9512 31.7691 55.9512 32.1142C55.9512 32.4594 55.672 32.7386 55.3268 32.7386H44.0098C43.6646 32.7386 43.3854 32.4594 43.3854 32.1142C43.3854 31.7691 43.6659 31.4899 44.0098 31.4899ZM44.0098 34.2008H55.3268C55.672 34.2008 55.9512 34.4801 55.9512 34.8252C55.9512 35.1703 55.672 35.4496 55.3268 35.4496H44.0098C43.6646 35.4496 43.3854 35.1703 43.3854 34.8252C43.3854 34.4813 43.6659 34.2008 44.0098 34.2008ZM44.0098 36.9142H55.3268C55.672 36.9142 55.9512 37.1935 55.9512 37.5386C55.9512 37.8838 55.672 38.163 55.3268 38.163H44.0098C43.6646 38.163 43.3854 37.8838 43.3854 37.5386C43.3854 37.1935 43.6659 36.9142 44.0098 36.9142ZM44.0098 39.6264H55.3268C55.672 39.6264 55.9512 39.9057 55.9512 40.2508C55.9512 40.596 55.672 40.8752 55.3268 40.8752H44.0098C43.6646 40.8752 43.3854 40.596 43.3854 40.2508C43.3854 39.9069 43.6659 39.6264 44.0098 39.6264ZM44.0098 42.3386H55.3268C55.672 42.3386 55.9512 42.6179 55.9512 42.963C55.9512 43.3081 55.672 43.5874 55.3268 43.5874H44.0098C43.6646 43.5874 43.3854 43.3081 43.3854 42.963C43.3854 42.6179 43.6659 42.3386 44.0098 42.3386ZM39.6329 38.652C41.3232 38.652 42.6976 40.0264 42.6976 41.7167C42.6976 43.4069 41.3232 44.7813 39.6329 44.7813C37.9427 44.7813 36.5683 43.4069 36.5683 41.7167C36.5683 40.0264 37.9427 38.652 39.6329 38.652ZM39.6329 30.4045C41.3232 30.4045 42.6976 31.7789 42.6976 33.4691C42.6976 35.1594 41.3232 36.5338 39.6329 36.5338C37.9427 36.5338 36.5683 35.1594 36.5683 33.4691C36.5683 31.7789 37.9427 30.4045 39.6329 30.4045Z" fill="black"/>
</svg>
