<svg width="61" height="61" viewBox="0 0 61 61" fill="none" xmlns="http://www.w3.org/2000/svg">
<path d="M49.3968 45.1729H47.5117H45.6266C42.789 45.1729 40.3447 46.7775 39.0742 49.1098C37.8037 46.7775 35.3595 45.1729 32.5218 45.1729H30.6367H28.7516C25.914 45.1729 23.4697 46.7775 22.1992 49.1098C20.9287 46.7775 18.4845 45.1729 15.6468 45.1729H13.7617H11.8766C7.7467 45.1729 4.38672 48.5328 4.38672 52.6628V54.5479C4.38672 55.5833 5.22626 56.4229 6.26172 56.4229H23.1367H38.1367H55.0117C56.0472 56.4229 56.8867 55.5833 56.8867 54.5479V52.6628C56.8867 48.5328 53.5267 45.1729 49.3968 45.1729Z" fill="black"/>
<path d="M19.3867 39.5479C19.3867 37.0826 17.7825 35.0058 15.571 34.2479C15.5909 34.1383 15.6367 34.0381 15.6367 33.9229V32.0479H28.7617V33.9229C28.7617 34.0382 28.8075 34.1383 28.8274 34.2479C26.616 35.0058 25.0117 37.0826 25.0117 39.5479C25.0117 42.6497 27.5349 45.1729 30.6367 45.1729C33.7385 45.1729 36.2617 42.6497 36.2617 39.5479C36.2617 37.0826 34.6575 35.0058 32.446 34.2479C32.4659 34.1383 32.5117 34.0381 32.5117 33.9229V32.0479H45.6367V33.9229C45.6367 34.0382 45.6825 34.1383 45.7024 34.2479C43.491 35.0058 41.8867 37.0826 41.8867 39.5479C41.8867 42.6497 44.4099 45.1729 47.5117 45.1729C50.6135 45.1729 53.1367 42.6497 53.1367 39.5479C53.1367 37.0826 51.5325 35.0058 49.321 34.2479C49.3409 34.1383 49.3867 34.0381 49.3867 33.9229V30.1729C49.3867 29.1374 48.5472 28.2979 47.5117 28.2979H32.5117V26.4238H38.1367C39.1722 26.4238 40.0117 25.5842 40.0117 24.5488V9.54877C40.0117 9.05164 39.814 8.57465 39.4624 8.22308L35.7124 4.47217C35.3608 4.12061 34.8839 3.92285 34.3867 3.92285H23.1367C22.1013 3.92285 21.2617 4.76239 21.2617 5.79785V24.5488C21.2617 25.5842 22.1013 26.4238 23.1367 26.4238H28.7617V28.2979H13.7617C12.7263 28.2979 11.8867 29.1374 11.8867 30.1729V33.9229C11.8867 34.0382 11.9325 34.1383 11.9524 34.2479C9.74095 35.0058 8.13672 37.0826 8.13672 39.5479C8.13672 42.6497 10.6599 45.1729 13.7617 45.1729C16.8635 45.1729 19.3867 42.6497 19.3867 39.5479ZM25.9492 9.54877H35.3242C35.8424 9.54877 36.2617 9.96808 36.2617 10.4863C36.2617 11.0045 35.8424 11.4238 35.3242 11.4238H25.9492C25.431 11.4238 25.0117 11.0045 25.0117 10.4863C25.0117 9.96808 25.431 9.54877 25.9492 9.54877ZM25.9492 13.2988H35.3242C35.8424 13.2988 36.2617 13.7181 36.2617 14.2363C36.2617 14.7545 35.8424 15.1738 35.3242 15.1738H25.9492C25.431 15.1738 25.0117 14.7545 25.0117 14.2363C25.0117 13.7181 25.431 13.2988 25.9492 13.2988ZM25.9492 17.0488H35.3242C35.8424 17.0488 36.2617 17.4681 36.2617 17.9863C36.2617 18.5045 35.8424 18.9238 35.3242 18.9238H25.9492C25.431 18.9238 25.0117 18.5045 25.0117 17.9863C25.0117 17.4681 25.431 17.0488 25.9492 17.0488ZM25.9492 22.6738C25.431 22.6738 25.0117 22.2545 25.0117 21.7363C25.0117 21.2181 25.431 20.7988 25.9492 20.7988H35.3242C35.8424 20.7988 36.2617 21.2181 36.2617 21.7363C36.2617 22.2545 35.8424 22.6738 35.3242 22.6738H25.9492Z" fill="black"/>
</svg>
