<svg width="61" height="61" viewBox="0 0 61 61" fill="none" xmlns="http://www.w3.org/2000/svg">
<path d="M10.0117 15.1729C12.4529 15.1729 14.5147 13.6007 15.2912 11.4229H21.2617V15.1729H25.0117V9.54785C25.0117 8.51147 24.1722 7.67285 23.1367 7.67285H15.2912C14.5147 5.49504 12.4529 3.92285 10.0117 3.92285C6.90991 3.92285 4.38672 6.44604 4.38672 9.54785C4.38672 12.6497 6.90991 15.1729 10.0117 15.1729Z" fill="black"/>
<path d="M51.2617 45.1729C48.8206 45.1729 46.7587 46.745 45.9822 48.9229H40.0117V45.1729H36.2617V50.7979C36.2617 51.8342 37.1013 52.6729 38.1367 52.6729H45.9823C46.7588 54.8507 48.8206 56.4229 51.2617 56.4229C54.3635 56.4229 56.8867 53.8997 56.8867 50.7979C56.8867 47.696 54.3635 45.1729 51.2617 45.1729Z" fill="black"/>
<path d="M40.0117 11.4229H45.9823C46.7588 13.6007 48.8206 15.1729 51.2617 15.1729C54.3635 15.1729 56.8867 12.6497 56.8867 9.54785C56.8867 6.44604 54.3635 3.92285 51.2617 3.92285C48.8206 3.92285 46.7587 5.49504 45.9822 7.67285H38.1367C37.1013 7.67285 36.2617 8.51147 36.2617 9.54785V15.1729H40.0117V11.4229Z" fill="black"/>
<path d="M21.2617 48.9229H15.2912C14.5147 46.745 12.4529 45.1729 10.0117 45.1729C6.90991 45.1729 4.38672 47.696 4.38672 50.7979C4.38672 53.8997 6.90991 56.4229 10.0117 56.4229C12.4529 56.4229 14.5147 54.8507 15.2912 52.6729H23.1367C24.1722 52.6729 25.0117 51.8342 25.0117 50.7979V45.1729H21.2617V48.9229Z" fill="black"/>
<path d="M43.7617 32.0479H17.5117C15.4407 32.0479 13.7617 33.7267 13.7617 35.7979V39.5479C13.7617 41.6189 15.4407 43.2979 17.5117 43.2979H43.7617C45.8328 43.2979 47.5117 41.6189 47.5117 39.5479V35.7979C47.5117 33.7267 45.8328 32.0479 43.7617 32.0479ZM27.8242 38.6104H18.4492C17.931 38.6104 17.5117 38.191 17.5117 37.6729C17.5117 37.1547 17.931 36.7354 18.4492 36.7354H27.8242C28.3424 36.7354 28.7617 37.1547 28.7617 37.6729C28.7617 38.191 28.3424 38.6104 27.8242 38.6104ZM36.2617 39.5479C35.2261 39.5479 34.3867 38.7084 34.3867 37.6729C34.3867 36.6373 35.2261 35.7979 36.2617 35.7979C37.2973 35.7979 38.1367 36.6373 38.1367 37.6729C38.1367 38.7084 37.2973 39.5479 36.2617 39.5479ZM41.8867 39.5479C40.8511 39.5479 40.0117 38.7084 40.0117 37.6729C40.0117 36.6373 40.8511 35.7979 41.8867 35.7979C42.9223 35.7979 43.7617 36.6373 43.7617 37.6729C43.7617 38.7084 42.9223 39.5479 41.8867 39.5479Z" fill="black"/>
<path d="M47.5117 20.7979C47.5117 18.7267 45.8328 17.0479 43.7617 17.0479H17.5117C15.4407 17.0479 13.7617 18.7267 13.7617 20.7979V24.5479C13.7617 26.6189 15.4407 28.2979 17.5117 28.2979H43.7617C45.8328 28.2979 47.5117 26.6189 47.5117 24.5479V20.7979ZM27.8242 23.6104H18.4492C17.931 23.6104 17.5117 23.191 17.5117 22.6729C17.5117 22.1547 17.931 21.7354 18.4492 21.7354H27.8242C28.3424 21.7354 28.7617 22.1547 28.7617 22.6729C28.7617 23.191 28.3424 23.6104 27.8242 23.6104ZM36.2617 24.5479C35.2261 24.5479 34.3867 23.7084 34.3867 22.6729C34.3867 21.6373 35.2261 20.7979 36.2617 20.7979C37.2973 20.7979 38.1367 21.6373 38.1367 22.6729C38.1367 23.7084 37.2973 24.5479 36.2617 24.5479ZM41.8867 24.5479C40.8511 24.5479 40.0117 23.7084 40.0117 22.6729C40.0117 21.6373 40.8511 20.7979 41.8867 20.7979C42.9223 20.7979 43.7617 21.6373 43.7617 22.6729C43.7617 23.7084 42.9223 24.5479 41.8867 24.5479Z" fill="black"/>
</svg>
