<svg width="61" height="61" viewBox="0 0 61 61" fill="none" xmlns="http://www.w3.org/2000/svg">
<g clip-path="url(#clip0_100_5885)">
<path fill-rule="evenodd" clip-rule="evenodd" d="M35.5693 5.19867C38.9328 5.85926 42.058 7.18313 44.8048 9.02707L49.7301 6.83965L53.9699 11.0794L51.7832 16.003C53.628 18.75 54.9515 21.8764 55.6122 25.2407L60.6367 27.1747V33.1709L55.6109 35.1055C54.9503 38.469 53.6264 41.5942 51.7825 44.3409L53.9698 49.2662L49.7301 53.5061L44.8064 51.3192C42.0595 53.164 38.9329 54.4874 35.5689 55.1482L33.6348 60.1729H27.6388L25.7042 55.147C22.3407 54.4864 19.2155 53.1626 16.4688 51.3186L11.5435 53.5061L7.30352 49.2662L9.49035 44.3426C7.64547 41.5956 6.32219 38.4689 5.66137 35.1049L0.636719 33.1709V27.1747L5.66219 25.2403C6.32277 21.8766 7.64641 18.7508 9.4907 16.0043L7.30352 11.0796L11.5434 6.83977L16.4684 9.02719C19.2153 7.18324 22.3405 5.85938 25.7041 5.19879L27.6387 0.172852H33.6347L35.5693 5.19867ZM21.3463 29.7852L22.418 29.0066V38.7362C22.418 40.1271 23.556 41.2651 24.9468 41.2651H28.1855V32.7817C28.1855 32.1274 28.7208 31.5921 29.3751 31.5921H31.8985C32.5527 31.5921 33.088 32.1274 33.088 32.7817V41.2651H36.3266C37.7175 41.2651 38.8555 40.1271 38.8555 38.7362V29.0066L39.9272 29.7852C40.7181 30.3584 41.8239 30.1818 42.3971 29.3909C42.9701 28.6 42.7936 27.4942 42.0027 26.921L31.7052 19.4394C31.101 18.9812 30.2451 18.9491 29.5991 19.4171L19.2711 26.921C18.4802 27.4941 18.3037 28.5998 18.8767 29.3909C19.4496 30.1818 20.5554 30.3584 21.3463 29.7852ZM30.6367 12.7923C21.0377 12.7923 13.2562 20.5739 13.2562 30.1729C13.2562 39.7718 21.0378 47.5533 30.6367 47.5533C40.2357 47.5533 48.0171 39.7718 48.0171 30.1729C48.0173 20.5739 40.2357 12.7923 30.6367 12.7923Z" fill="black"/>
</g>
<defs>
<clipPath id="clip0_100_5885">
<rect width="60" height="60" fill="white" transform="translate(0.636719 0.172852)"/>
</clipPath>
</defs>
</svg>
