<svg width="61" height="61" viewBox="0 0 61 61" fill="none" xmlns="http://www.w3.org/2000/svg">
<path d="M26.0915 18.0822L24.1824 15.5367C24.2733 15.264 24.2733 15.0822 24.3643 14.9003L27.0915 13.5367C27.4552 13.3549 27.637 12.9913 27.5461 12.5367L27.0915 9.80943C27.0006 9.4458 26.7279 9.08216 26.3643 9.08216L23.2733 8.62761C23.1824 8.4458 23.0006 8.17307 22.8188 7.99125L23.7279 5.17307C23.8188 4.80943 23.7279 4.35489 23.3643 4.17307L21.0915 2.53671C20.7279 2.26398 20.3643 2.35489 20.0006 2.53671L17.637 4.35489C17.2733 4.26398 17.0006 4.17307 16.637 4.08216L15.3643 1.62761C15.1824 1.26398 14.8188 1.08216 14.3643 1.17307L11.637 1.62761C11.2733 1.71852 10.9097 1.99125 10.9097 2.4458L10.5461 5.17307C10.1824 5.35489 9.8188 5.53671 9.54607 5.80943L7.09153 4.99125C6.72789 4.80943 6.27334 4.99125 6.09153 5.26398L4.45516 7.53671C4.27334 7.90034 4.27334 8.26398 4.45516 8.62761L6.09153 10.8094C6.00062 11.1731 5.90971 11.6276 5.8188 12.0822L3.54607 13.264C3.18244 13.4458 3.00062 13.8094 3.09153 14.264L3.54607 16.9913C3.63698 17.3549 3.90971 17.7185 4.27334 17.7185L7.00062 18.0822C7.18244 18.4458 7.45516 18.7185 7.63698 19.0822L6.8188 21.6276C6.72789 21.9913 6.8188 22.4458 7.18244 22.6276L9.45516 24.264C9.8188 24.5367 10.1824 24.5367 10.5461 24.264L12.9097 22.4458C13.1824 22.5367 13.5461 22.5367 13.8188 22.6276L15.0915 25.1731C15.2733 25.5367 15.637 25.7185 16.0915 25.6276L18.8188 25.1731C19.1824 25.0822 19.5461 24.8094 19.5461 24.3549L20.0006 21.264C20.1824 21.1731 20.4552 20.9913 20.637 20.8094L23.4552 21.7185C23.8188 21.8094 24.2733 21.7185 24.4552 21.3549L26.0915 19.0822C26.2733 18.8094 26.2733 18.3549 26.0915 18.0822ZM18.4552 13.264C18.4552 14.8094 17.2733 16.264 15.7279 16.5367C13.9097 16.8094 12.1824 15.6276 11.9097 13.8094C11.7279 12.9003 12.0006 12.0822 12.4552 11.3549C13.0915 10.4458 14.0915 9.99125 15.1824 9.99125C16.7279 9.99125 18.1824 11.0822 18.4552 12.8094V13.264Z" fill="black"/>
<path d="M50.4552 21.355L50.0006 18.6277C49.9097 18.2641 49.637 17.9004 49.2733 17.9004L46.1824 17.4459C46.0915 17.1732 45.9097 16.9913 45.7279 16.8095L46.637 13.9913C46.7279 13.6277 46.637 13.1732 46.2733 12.9913L44.0006 11.355C43.637 11.0822 43.2733 11.0822 42.9097 11.355L40.5461 13.1732C40.2733 13.0822 39.9097 12.9913 39.5461 12.9913L38.2733 10.5368C38.0915 10.1732 37.7279 9.99134 37.2733 10.0822L34.5461 10.5368C34.1824 10.6277 33.8188 10.9004 33.8188 11.355L33.4552 14.0822C33.0915 14.2641 32.7279 14.4459 32.4552 14.7186L30.0915 13.8095C29.7279 13.7186 29.2733 13.8095 29.0915 14.1732L27.4552 16.4459C27.1824 16.8095 27.1824 17.1732 27.4552 17.5368L29.0915 19.7186C29.0006 20.1732 28.9097 20.5368 28.8188 20.9913L26.5461 22.1732C26.1824 22.355 26.0006 22.7186 26.0915 23.1732L26.5461 25.9004C26.637 26.2641 26.9097 26.6277 27.3643 26.6277L30.0915 26.9913C30.2733 27.355 30.5461 27.6277 30.7279 27.9913L29.9097 30.5368C29.8188 30.9004 29.9097 31.355 30.2733 31.5368L32.5461 33.1732C32.9097 33.4459 33.2733 33.4459 33.637 33.1732L36.0006 31.355C36.2733 31.4459 36.637 31.4459 36.9097 31.5368L38.1824 34.0822C38.3643 34.4459 38.8188 34.6277 39.1824 34.5368L41.9097 34.0822C42.2733 33.9913 42.637 33.7186 42.637 33.355L43.0915 30.2641C43.2733 30.0822 43.5461 29.9913 43.7279 29.8095L46.5461 30.7186C46.9097 30.8095 47.3643 30.7186 47.5461 30.355L49.1824 28.0823C49.4552 27.7186 49.4552 27.355 49.1824 26.9913L47.2733 24.4459C47.3643 24.2641 47.3643 23.9913 47.4552 23.8095L50.1824 22.4459C50.3643 22.1732 50.5461 21.8095 50.4552 21.355ZM38.7279 25.4459C36.9097 25.7186 35.1824 24.5368 34.9097 22.7186C34.5461 20.7186 36.0915 18.8095 38.1824 18.8095C39.8188 18.8095 41.1824 19.9913 41.4552 21.6277C41.7279 23.4459 40.4552 25.1732 38.7279 25.4459Z" fill="black"/>
<path d="M59.5467 35.1733C59.5467 37.8096 57.3649 39.9914 54.7285 39.9914C53.9103 39.9914 53.1831 39.8096 52.4558 39.446L43.274 49.3551C43.8194 50.1733 44.0922 51.0823 44.0922 52.0823C44.0922 54.7187 41.9103 56.9005 39.274 56.9005C36.6376 56.9005 34.4558 54.7187 34.4558 52.0823C34.4558 51.5369 34.5467 50.9914 34.7285 50.446L22.7285 42.2642C21.8194 43.6278 20.3649 44.5369 18.6376 44.5369C17.4558 44.5369 16.3649 44.0823 15.5467 43.3551L9.27397 50.446C10.5467 51.3551 11.3649 52.7187 11.3649 54.3551C11.3649 56.9914 9.18306 59.1733 6.5467 59.1733C3.91033 59.1733 1.72852 56.9914 1.72852 54.3551C1.72852 51.7187 3.91033 49.5369 6.5467 49.5369C6.91033 49.5369 7.27397 49.5369 7.63761 49.6278L14.4558 41.9005C14.0922 41.1733 13.8194 40.446 13.8194 39.6278C13.8194 36.9914 16.0012 34.8096 18.6376 34.8096C21.274 34.8096 23.4558 36.9914 23.4558 39.6278C23.4558 39.9005 23.4558 40.1733 23.3649 40.446L35.6376 48.8096C36.5467 47.8096 37.8194 47.1733 39.274 47.1733C40.274 47.1733 41.1831 47.446 42.0012 47.9914L51.0922 38.2642C50.3649 37.446 49.9103 36.3551 49.9103 35.0823C49.9103 32.446 52.0922 30.2642 54.7285 30.2642C57.3649 30.3551 59.5467 32.5369 59.5467 35.1733Z" fill="black"/>
</svg>
