<svg width="61" height="61" viewBox="0 0 61 61" fill="none" xmlns="http://www.w3.org/2000/svg">
<g clip-path="url(#clip0_100_5787)">
<path d="M49.7985 20.3586L57.6547 17.1045C56.4411 14.6108 54.8916 12.3099 53.0663 10.2593L47.0566 16.269C48.1181 17.5183 49.0407 18.8892 49.7985 20.3586Z" fill="black"/>
<path d="M9.16671 31.9585H0.664062C1.54433 47.1169 13.7198 59.2924 28.8783 60.1727V51.67C18.3996 50.819 10.0178 42.4371 9.16671 31.9585Z" fill="black"/>
<path d="M32.3965 51.67V60.1726C39.3529 59.7687 45.6805 56.986 50.5774 52.6274L44.5678 46.6177C41.2285 49.4553 37.0166 51.2946 32.3965 51.67Z" fill="black"/>
<path d="M30.6375 8.65626C35.945 8.65626 40.8093 10.5866 44.5681 13.7807L50.5778 7.77095C45.2709 3.04753 38.2842 0.172852 30.6375 0.172852C14.6716 0.172852 1.57811 12.6992 0.664062 28.4399H9.16683C10.0649 17.3808 19.3511 8.65626 30.6375 8.65626Z" fill="black"/>
<path d="M52.1088 28.4401H60.6116C60.4481 25.624 59.8947 22.9111 59.0047 20.354L51.1484 23.6082C51.6453 25.151 51.973 26.7688 52.1088 28.4401Z" fill="black"/>
<path d="M47.0566 44.1296L53.0663 50.1394C57.4248 45.2425 60.2074 38.9149 60.6115 31.9585H52.1087C51.7336 36.5786 49.8941 40.7904 47.0566 44.1296Z" fill="black"/>
<path d="M48.6618 30.1991C48.6618 20.2605 40.5761 12.1748 30.6375 12.1748C20.6988 12.1748 12.6133 20.2605 12.6133 30.1991C12.6133 40.1378 20.699 48.2234 30.6376 48.2234C40.5762 48.2234 48.6618 40.1378 48.6618 30.1991ZM24.4835 39.872H20.9647V36.3533H24.4835V39.872ZM24.4835 31.9585H20.9647V28.4398H24.4835V31.9585ZM24.4835 24.045H20.9647V20.5263H24.4835V24.045ZM40.5293 39.872H28.6591V36.3533H40.5293V39.872ZM40.5293 31.9585H28.6591V28.4398H40.5293V31.9585ZM40.5293 24.045H28.6591V20.5263H40.5293V24.045Z" fill="black"/>
</g>
<defs>
<clipPath id="clip0_100_5787">
<rect width="60" height="60" fill="white" transform="translate(0.636719 0.172852)"/>
</clipPath>
</defs>
</svg>
