<svg width="61" height="61" viewBox="0 0 61 61" fill="none" xmlns="http://www.w3.org/2000/svg">
<g clip-path="url(#clip0_254_7303)">
<path d="M10.6367 17.0479C10.6367 10.5004 15.9642 5.17285 22.5117 5.17285H45.3442C44.5217 2.29535 41.8992 0.172852 38.7617 0.172852H10.0117C6.21922 0.172852 3.13672 3.25535 3.13672 7.04785V45.7979C3.13672 49.5904 6.21922 52.6729 10.0117 52.6729H10.6367V17.0479Z" fill="black"/>
<path d="M51.2617 10.1729H22.5117C18.7192 10.1729 15.6367 13.2554 15.6367 17.0479V53.2979C15.6367 57.0904 18.7192 60.1729 22.5117 60.1729H51.2617C55.0542 60.1729 58.1367 57.0904 58.1367 53.2979V17.0479C58.1367 13.2554 55.0542 10.1729 51.2617 10.1729ZM46.2617 52.6729H27.5117C26.4767 52.6729 25.6367 51.8329 25.6367 50.7979C25.6367 49.7629 26.4767 48.9229 27.5117 48.9229H46.2617C47.2967 48.9229 48.1367 49.7629 48.1367 50.7979C48.1367 51.8329 47.2967 52.6729 46.2617 52.6729ZM46.2617 42.6729H27.5117C26.4767 42.6729 25.6367 41.8329 25.6367 40.7979C25.6367 39.7629 26.4767 38.9229 27.5117 38.9229H46.2617C47.2967 38.9229 48.1367 39.7629 48.1367 40.7979C48.1367 41.8329 47.2967 42.6729 46.2617 42.6729ZM46.2617 33.9229H27.5117C26.4767 33.9229 25.6367 33.0829 25.6367 32.0479C25.6367 31.0129 26.4767 30.1729 27.5117 30.1729H46.2617C47.2967 30.1729 48.1367 31.0129 48.1367 32.0479C48.1367 33.0829 47.2967 33.9229 46.2617 33.9229ZM46.2617 23.9229H27.5117C26.4767 23.9229 25.6367 23.0829 25.6367 22.0479C25.6367 21.0129 26.4767 20.1729 27.5117 20.1729H46.2617C47.2967 20.1729 48.1367 21.0129 48.1367 22.0479C48.1367 23.0829 47.2967 23.9229 46.2617 23.9229Z" fill="black"/>
</g>
<defs>
<clipPath id="clip0_254_7303">
<rect width="60" height="60" fill="white" transform="translate(0.636719 0.172852)"/>
</clipPath>
</defs>
</svg>
