<svg width="61" height="61" viewBox="0 0 61 61" fill="none" xmlns="http://www.w3.org/2000/svg">
<path fill-rule="evenodd" clip-rule="evenodd" d="M53.1367 19.5479C55.5517 19.5479 57.5117 17.5929 57.5117 15.1729V7.67285C57.5117 5.25285 55.5517 3.29785 53.1367 3.29785H45.6367C43.2217 3.29785 41.2617 5.25285 41.2617 7.67285V15.1729C41.2617 17.5929 43.2217 19.5479 45.6367 19.5479H53.1367Z" fill="black"/>
<path fill-rule="evenodd" clip-rule="evenodd" d="M53.1367 38.2979C55.5517 38.2979 57.5117 36.3429 57.5117 33.9229V26.4229C57.5117 24.0029 55.5517 22.0479 53.1367 22.0479H45.6367C43.2217 22.0479 41.2617 24.0029 41.2617 26.4229V33.9229C41.2617 36.3429 43.2217 38.2979 45.6367 38.2979H53.1367Z" fill="black"/>
<path fill-rule="evenodd" clip-rule="evenodd" d="M53.1367 57.0479C55.5517 57.0479 57.5117 55.0929 57.5117 52.6729V45.1729C57.5117 42.7529 55.5517 40.7979 53.1367 40.7979H45.6367C43.2217 40.7979 41.2617 42.7529 41.2617 45.1729V52.6729C41.2617 55.0929 43.2217 57.0479 45.6367 57.0479H53.1367Z" fill="black"/>
<path fill-rule="evenodd" clip-rule="evenodd" d="M30.0117 32.0479H43.1367C44.1717 32.0479 45.0117 31.2079 45.0117 30.1729C45.0117 29.1379 44.1717 28.2979 43.1367 28.2979H30.0117C28.9767 28.2979 28.1367 29.1379 28.1367 30.1729C28.1367 31.2079 28.9767 32.0479 30.0117 32.0479Z" fill="black"/>
<path fill-rule="evenodd" clip-rule="evenodd" d="M38.7617 48.2979V14.5479H43.1367C44.1717 14.5479 45.0117 13.7079 45.0117 12.6729C45.0117 11.6379 44.1717 10.7979 43.1367 10.7979H38.1367C36.4117 10.7979 35.0117 12.1979 35.0117 13.9229V48.9229C35.0117 50.6479 36.4117 52.0479 38.1367 52.0479H43.1367C44.1717 52.0479 45.0117 51.2079 45.0117 50.1729C45.0117 49.1379 44.1717 48.2979 43.1367 48.2979H38.7617Z" fill="black"/>
<path fill-rule="evenodd" clip-rule="evenodd" d="M31.8867 40.6729V20.2679C31.8867 19.2804 31.4717 18.3404 30.7417 17.6779C29.1292 16.2129 24.3192 11.8379 22.7992 10.4579C22.1567 9.87285 21.3167 9.54785 20.4467 9.54785C18.5242 9.54785 12.6342 9.54785 8.88672 9.54785C7.52672 9.54785 6.22422 10.0879 5.26172 11.0479C4.30172 12.0104 3.76172 13.3129 3.76172 14.6729V40.6729C3.76172 42.0329 4.30172 43.3354 5.26172 44.2979C6.22422 45.2579 7.52672 45.7979 8.88672 45.7979H26.7617C28.1217 45.7979 29.4242 45.2579 30.3867 44.2979C31.3467 43.3354 31.8867 42.0329 31.8867 40.6729ZM18.7642 13.3029C19.0992 13.3429 19.4142 13.4854 19.6667 13.7154C21.1867 15.0954 25.9967 19.4679 27.6067 20.9329C27.9242 21.2204 28.1117 21.6179 28.1367 22.0429H19.5767C19.3617 22.0429 19.1542 21.9579 19.0017 21.8054C18.8492 21.6529 18.7642 21.4454 18.7642 21.2304V13.3029Z" fill="black"/>
</svg>
