<svg width="61" height="61" viewBox="0 0 61 61" fill="none" xmlns="http://www.w3.org/2000/svg">
<path d="M55.3468 53.6329L39.1768 37.4629C40.0868 34.0729 39.1368 30.5029 36.6368 28.0129C34.1768 25.5629 30.6968 24.5929 27.3168 25.4329C26.9668 25.5129 26.6968 25.7829 26.5968 26.1329C26.4968 26.4829 26.5968 26.8529 26.8468 27.1029L31.6968 31.9629L30.8268 36.0929L26.6868 36.9729L21.8368 32.1229C21.5868 31.8629 21.2168 31.7629 20.8668 31.8629C20.5168 31.9529 20.2468 32.2329 20.1668 32.5829C19.3168 35.9629 20.2768 39.4529 22.7368 41.9129C25.2368 44.4129 28.8168 45.3629 32.1968 44.4529L42.7868 55.0429C42.9768 55.2329 43.2268 55.3329 43.4968 55.3329H54.6368C55.0468 55.3329 55.4068 55.0929 55.5668 54.7229C55.7168 54.3429 55.6368 53.9029 55.3468 53.6329Z" fill="black"/>
<path d="M6.71672 7.63281C6.16672 7.63281 5.71672 8.08281 5.71672 8.63281L5.63672 21.3328C5.63672 21.8828 6.08672 22.3328 6.63672 22.3428L13.5367 22.3828C13.5267 22.2228 13.4867 22.0728 13.4967 21.9128L13.5767 8.14281C13.5767 7.98281 13.6067 7.83281 13.6267 7.67281L6.72672 7.63281H6.71672Z" fill="black"/>
<path d="M22.0261 25.1227C23.5861 25.1227 24.8761 23.9627 25.1261 22.4727L35.9561 22.5027C36.1661 24.0327 37.4661 25.2227 39.0561 25.2327L42.4361 25.2527H42.4562C44.1861 25.2527 45.5962 23.8527 45.6062 22.1127L45.6861 8.34268C45.6961 6.60268 44.2961 5.18268 42.5561 5.17268L39.1761 5.15268C38.3262 5.14268 37.5361 5.47268 36.9361 6.06268C36.4561 6.54268 36.1561 7.14268 36.0561 7.80268L25.2261 7.76268C25.0161 6.23268 23.7161 5.05268 22.1261 5.04268L18.7461 5.02268C17.8761 5.01268 17.1161 5.34268 16.5161 5.93268C15.9161 6.52268 15.5861 7.31268 15.5761 8.15268L15.4961 21.9227C15.4861 23.6627 16.8861 25.0927 18.6261 25.1027L22.0061 25.1227H22.0261Z" fill="black"/>
<path d="M54.5466 7.92281L47.6466 7.88281C47.6566 8.04281 47.6866 8.19281 47.6866 8.34281L47.6066 22.1128C47.6066 22.2728 47.5666 22.4228 47.5566 22.5828L54.4666 22.6228C55.0166 22.6228 55.4666 22.1828 55.4666 21.6328L55.5466 8.93281C55.5466 8.66281 55.4366 8.41281 55.2566 8.22281C55.0666 8.03281 54.8166 7.92281 54.5466 7.92281Z" fill="black"/>
<path d="M11.4976 32.6129H11.5176C12.4176 32.6129 13.2276 32.2529 13.8176 31.6629C14.4076 31.0729 14.7776 30.2729 14.7776 29.3729C14.7876 27.9329 12.9476 25.0229 12.3876 24.1629C12.1976 23.8829 11.8876 23.7129 11.5576 23.7129H11.5476C11.2176 23.7129 10.9076 23.8729 10.7176 24.1529C10.1476 25.0029 8.26763 27.8929 8.26763 29.3329C8.25763 31.1329 9.70763 32.6029 11.4976 32.6129Z" fill="black"/>
</svg>
