<svg width="61" height="61" viewBox="0 0 61 61" fill="none" xmlns="http://www.w3.org/2000/svg">
<path d="M39.5165 8.81299H33.7565C33.9965 9.53299 34.1165 10.133 34.1165 10.973V13.013V13.373H37.7165V53.333H7.95648V13.373H11.5565C11.5565 13.253 11.5565 13.133 11.5565 13.013V10.973C11.5565 10.253 11.6765 9.53299 11.9165 8.81299H6.15648C4.59648 8.81299 3.39648 10.013 3.39648 11.573V55.133C3.39648 56.693 4.59648 57.893 6.15648 57.893H39.5165C41.0765 57.893 42.2765 56.693 42.2765 55.133V11.573C42.2765 10.013 40.9565 8.81299 39.5165 8.81299Z" fill="black"/>
<path d="M15.3968 14.4529H30.2768C31.1168 14.4529 31.7168 13.7329 31.7168 13.0129V10.9729C31.7168 8.93291 30.0368 7.13291 27.8768 7.13291H26.7968V6.89291C26.7968 4.49291 24.8768 2.45291 22.4768 2.57291C21.3968 2.57291 20.4368 3.05291 19.8368 3.77291C19.1168 4.49291 18.6368 5.57291 18.6368 6.65291V7.13291H17.5568C15.5168 7.13291 13.7168 8.81291 13.7168 10.9729V13.0129C13.9568 13.7329 14.5568 14.4529 15.3968 14.4529Z" fill="black"/>
<path d="M12.5156 20.4531H17.9156V25.8531H12.5156V20.4531Z" fill="black"/>
<path d="M33.1561 19.9731H23.1961C22.4761 19.9731 21.9961 20.4531 21.9961 21.1731C21.9961 21.8931 22.4761 22.3731 23.1961 22.3731H33.1561C33.8761 22.3731 34.3561 21.8931 34.3561 21.1731C34.3561 20.4531 33.8761 19.9731 33.1561 19.9731Z" fill="black"/>
<path d="M33.1561 24.6528H23.1961C22.4761 24.6528 21.9961 25.1328 21.9961 25.8528C21.9961 26.5728 22.4761 27.0528 23.1961 27.0528H33.1561C33.8761 27.0528 34.3561 26.5728 34.3561 25.8528C34.3561 25.1328 33.8761 24.6528 33.1561 24.6528Z" fill="black"/>
<path d="M12.5156 31.853H17.9156V37.253H12.5156V31.853Z" fill="black"/>
<path d="M33.1561 31.373H23.1961C22.4761 31.373 21.9961 31.853 21.9961 32.573C21.9961 33.293 22.4761 33.773 23.1961 33.773H33.1561C33.8761 33.773 34.3561 33.293 34.3561 32.573C34.3561 31.853 33.8761 31.373 33.1561 31.373Z" fill="black"/>
<path d="M33.1561 35.9331H23.1961C22.4761 35.9331 21.9961 36.4131 21.9961 37.1331C21.9961 37.8531 22.4761 38.3331 23.1961 38.3331H33.1561C33.8761 38.3331 34.3561 37.8531 34.3561 37.1331C34.3561 36.4131 33.8761 35.9331 33.1561 35.9331Z" fill="black"/>
<path d="M12.5156 43.2529H17.9156V48.6529H12.5156V43.2529Z" fill="black"/>
<path d="M33.1561 42.7729H23.1961C22.4761 42.7729 21.9961 43.2529 21.9961 43.9729C21.9961 44.6929 22.4761 45.1729 23.1961 45.1729H33.1561C33.8761 45.1729 34.3561 44.6929 34.3561 43.9729C34.3561 43.2529 33.8761 42.7729 33.1561 42.7729Z" fill="black"/>
<path d="M33.1561 47.333H23.1961C22.4761 47.333 21.9961 47.813 21.9961 48.533C21.9961 49.253 22.4761 49.733 23.1961 49.733H33.1561C33.8761 49.733 34.3561 49.253 34.3561 48.533C34.3561 47.813 33.8761 47.333 33.1561 47.333Z" fill="black"/>
<path d="M56.9155 37.1328H48.2755C47.7955 37.1328 47.4355 37.4928 47.4355 37.9728V52.4928C47.4355 55.3728 49.7155 57.6528 52.5955 57.6528C55.4755 57.6528 57.7555 55.3728 57.7555 52.4928V38.0928C57.8755 37.6128 57.3955 37.1328 56.9155 37.1328Z" fill="black"/>
<path d="M50.076 34.7331H55.116V13.9731L57.276 11.0931L55.116 3.41309H50.076L47.916 11.0931L50.076 13.9731V34.7331Z" fill="black"/>
</svg>
