<svg width="55" height="55" viewBox="0 0 55 55" fill="none" xmlns="http://www.w3.org/2000/svg">
<path fill-rule="evenodd" clip-rule="evenodd" d="M54.5117 4.67285C54.5117 3.51285 54.0517 2.40035 53.2292 1.58035C52.4092 0.757852 51.2967 0.297852 50.1367 0.297852C41.6017 0.297852 13.6717 0.297852 5.13672 0.297852C3.97672 0.297852 2.86422 0.757852 2.04422 1.58035C1.22172 2.40035 0.761719 3.51285 0.761719 4.67285V12.1729C0.761719 13.3329 1.22172 14.4454 2.04422 15.2654C2.86422 16.0879 3.97672 16.5479 5.13672 16.5479H50.1367C51.2967 16.5479 52.4092 16.0879 53.2292 15.2654C54.0517 14.4454 54.5117 13.3329 54.5117 12.1729V4.67285ZM11.3867 5.92285C12.7667 5.92285 13.8867 7.04285 13.8867 8.42285C13.8867 9.80285 12.7667 10.9229 11.3867 10.9229C10.0067 10.9229 8.88672 9.80285 8.88672 8.42285C8.88672 7.04285 10.0067 5.92285 11.3867 5.92285ZM20.1367 5.92285C21.5167 5.92285 22.6367 7.04285 22.6367 8.42285C22.6367 9.80285 21.5167 10.9229 20.1367 10.9229C18.7567 10.9229 17.6367 9.80285 17.6367 8.42285C17.6367 7.04285 18.7567 5.92285 20.1367 5.92285ZM46.3867 6.54785H38.8867C37.8517 6.54785 37.0117 7.38785 37.0117 8.42285C37.0117 9.45785 37.8517 10.2979 38.8867 10.2979H46.3867C47.4217 10.2979 48.2617 9.45785 48.2617 8.42285C48.2617 7.38785 47.4217 6.54785 46.3867 6.54785Z" fill="black"/>
<path fill-rule="evenodd" clip-rule="evenodd" d="M54.5117 23.4229C54.5117 22.2629 54.0517 21.1504 53.2292 20.3304C52.4092 19.5079 51.2967 19.0479 50.1367 19.0479C41.6017 19.0479 13.6717 19.0479 5.13672 19.0479C3.97672 19.0479 2.86422 19.5079 2.04422 20.3304C1.22172 21.1504 0.761719 22.2629 0.761719 23.4229V30.9229C0.761719 32.0829 1.22172 33.1954 2.04422 34.0154C2.86422 34.8379 3.97672 35.2979 5.13672 35.2979H50.1367C51.2967 35.2979 52.4092 34.8379 53.2292 34.0154C54.0517 33.1954 54.5117 32.0829 54.5117 30.9229V23.4229ZM11.3867 24.6729C12.7667 24.6729 13.8867 25.7929 13.8867 27.1729C13.8867 28.5529 12.7667 29.6729 11.3867 29.6729C10.0067 29.6729 8.88672 28.5529 8.88672 27.1729C8.88672 25.7929 10.0067 24.6729 11.3867 24.6729ZM20.1367 24.6729C21.5167 24.6729 22.6367 25.7929 22.6367 27.1729C22.6367 28.5529 21.5167 29.6729 20.1367 29.6729C18.7567 29.6729 17.6367 28.5529 17.6367 27.1729C17.6367 25.7929 18.7567 24.6729 20.1367 24.6729ZM46.3867 25.2979H38.8867C37.8517 25.2979 37.0117 26.1379 37.0117 27.1729C37.0117 28.2079 37.8517 29.0479 38.8867 29.0479H46.3867C47.4217 29.0479 48.2617 28.2079 48.2617 27.1729C48.2617 26.1379 47.4217 25.2979 46.3867 25.2979Z" fill="black"/>
<path fill-rule="evenodd" clip-rule="evenodd" d="M54.5117 42.1729C54.5117 41.0129 54.0517 39.9004 53.2292 39.0804C52.4092 38.2579 51.2967 37.7979 50.1367 37.7979C41.6017 37.7979 13.6717 37.7979 5.13672 37.7979C3.97672 37.7979 2.86422 38.2579 2.04422 39.0804C1.22172 39.9004 0.761719 41.0129 0.761719 42.1729V49.6729C0.761719 50.8329 1.22172 51.9454 2.04422 52.7654C2.86422 53.5879 3.97672 54.0479 5.13672 54.0479H50.1367C51.2967 54.0479 52.4092 53.5879 53.2292 52.7654C54.0517 51.9454 54.5117 50.8329 54.5117 49.6729V42.1729ZM11.3867 43.4229C12.7667 43.4229 13.8867 44.5429 13.8867 45.9229C13.8867 47.3029 12.7667 48.4229 11.3867 48.4229C10.0067 48.4229 8.88672 47.3029 8.88672 45.9229C8.88672 44.5429 10.0067 43.4229 11.3867 43.4229ZM20.1367 43.4229C21.5167 43.4229 22.6367 44.5429 22.6367 45.9229C22.6367 47.3029 21.5167 48.4229 20.1367 48.4229C18.7567 48.4229 17.6367 47.3029 17.6367 45.9229C17.6367 44.5429 18.7567 43.4229 20.1367 43.4229ZM46.3867 44.0479H38.8867C37.8517 44.0479 37.0117 44.8879 37.0117 45.9229C37.0117 46.9579 37.8517 47.7979 38.8867 47.7979H46.3867C47.4217 47.7979 48.2617 46.9579 48.2617 45.9229C48.2617 44.8879 47.4217 44.0479 46.3867 44.0479Z" fill="black"/>
</svg>
