<svg width="61" height="61" viewBox="0 0 61 61" fill="none" xmlns="http://www.w3.org/2000/svg">
<path d="M19.3867 43.2979H56.8867V32.0479H19.3867V43.2979ZM49.3867 36.7354C49.3867 36.2172 49.806 35.7979 50.3242 35.7979C50.8424 35.7979 51.2617 36.2172 51.2617 36.7354V38.6104C51.2617 39.1285 50.8424 39.5479 50.3242 39.5479C49.806 39.5479 49.3867 39.1285 49.3867 38.6104V36.7354ZM45.6367 36.7354C45.6367 36.2172 46.056 35.7979 46.5742 35.7979C47.0924 35.7979 47.5117 36.2172 47.5117 36.7354V38.6104C47.5117 39.1285 47.0924 39.5479 46.5742 39.5479C46.056 39.5479 45.6367 39.1285 45.6367 38.6104V36.7354ZM41.8867 36.7354C41.8867 36.2172 42.306 35.7979 42.8242 35.7979C43.3424 35.7979 43.7617 36.2172 43.7617 36.7354V38.6104C43.7617 39.1285 43.3424 39.5479 42.8242 39.5479C42.306 39.5479 41.8867 39.1285 41.8867 38.6104V36.7354ZM38.1367 36.7354C38.1367 36.2172 38.556 35.7979 39.0742 35.7979C39.5924 35.7979 40.0117 36.2172 40.0117 36.7354V38.6104C40.0117 39.1285 39.5924 39.5479 39.0742 39.5479C38.556 39.5479 38.1367 39.1285 38.1367 38.6104V36.7354Z" fill="black"/>
<path d="M51.2617 18.9229H25.0117C21.9099 18.9229 19.3867 21.446 19.3867 24.5479V30.1729H56.8867V24.5479C56.8867 21.446 54.3635 18.9229 51.2617 18.9229ZM40.0117 25.4854C40.0117 26.0035 39.5924 26.4229 39.0742 26.4229C38.556 26.4229 38.1367 26.0035 38.1367 25.4854V23.6104C38.1367 23.0922 38.556 22.6729 39.0742 22.6729C39.5924 22.6729 40.0117 23.0922 40.0117 23.6104V25.4854ZM43.7617 25.4854C43.7617 26.0035 43.3424 26.4229 42.8242 26.4229C42.306 26.4229 41.8867 26.0035 41.8867 25.4854V23.6104C41.8867 23.0922 42.306 22.6729 42.8242 22.6729C43.3424 22.6729 43.7617 23.0922 43.7617 23.6104V25.4854ZM47.5117 25.4854C47.5117 26.0035 47.0924 26.4229 46.5742 26.4229C46.056 26.4229 45.6367 26.0035 45.6367 25.4854V23.6104C45.6367 23.0922 46.056 22.6729 46.5742 22.6729C47.0924 22.6729 47.5117 23.0922 47.5117 23.6104V25.4854ZM51.2617 25.4854C51.2617 26.0035 50.8424 26.4229 50.3242 26.4229C49.806 26.4229 49.3867 26.0035 49.3867 25.4854V23.6104C49.3867 23.0922 49.806 22.6729 50.3242 22.6729C50.8424 22.6729 51.2617 23.0922 51.2617 23.6104V25.4854Z" fill="black"/>
<path d="M19.3867 50.7979C19.3867 53.8997 21.9099 56.4229 25.0117 56.4229H51.2617C54.3635 56.4229 56.8867 53.8997 56.8867 50.7979V45.1729H19.3867V50.7979ZM49.3867 49.8604C49.3867 49.3422 49.806 48.9229 50.3242 48.9229C50.8424 48.9229 51.2617 49.3422 51.2617 49.8604V51.7354C51.2617 52.2535 50.8424 52.6729 50.3242 52.6729C49.806 52.6729 49.3867 52.2535 49.3867 51.7354V49.8604ZM45.6367 49.8604C45.6367 49.3422 46.056 48.9229 46.5742 48.9229C47.0924 48.9229 47.5117 49.3422 47.5117 49.8604V51.7354C47.5117 52.2535 47.0924 52.6729 46.5742 52.6729C46.056 52.6729 45.6367 52.2535 45.6367 51.7354V49.8604ZM41.8867 49.8604C41.8867 49.3422 42.306 48.9229 42.8242 48.9229C43.3424 48.9229 43.7617 49.3422 43.7617 49.8604V51.7354C43.7617 52.2535 43.3424 52.6729 42.8242 52.6729C42.306 52.6729 41.8867 52.2535 41.8867 51.7354V49.8604ZM38.1367 49.8604C38.1367 49.3422 38.556 48.9229 39.0742 48.9229C39.5924 48.9229 40.0117 49.3422 40.0117 49.8604V51.7354C40.0117 52.2535 39.5924 52.6729 39.0742 52.6729C38.556 52.6729 38.1367 52.2535 38.1367 51.7354V49.8604Z" fill="black"/>
<path d="M25.0117 15.1729C27.1082 15.1729 29.0238 15.8851 30.5852 17.0479H40.4675L42.2474 15.2672C42.9799 14.5347 42.9799 13.3482 42.2474 12.6158L36.9438 7.31213C36.2114 6.57971 35.0248 6.57971 34.2924 7.31213L32.2737 9.32996C31.7408 9.07635 31.1952 8.85022 30.6367 8.65247V5.79785C30.6367 4.76239 29.7972 3.92285 28.7617 3.92285H21.2617C20.2263 3.92285 19.3867 4.76239 19.3867 5.79785V8.65247C18.8282 8.85022 18.2826 9.07635 17.7498 9.32996L15.731 7.31213C14.9986 6.57971 13.8121 6.57971 13.0797 7.31213L7.776 12.6158C7.04358 13.3482 7.04358 14.5347 7.776 15.2672L9.79382 17.2859C9.54022 17.8187 9.31409 18.3644 9.11633 18.9229H6.26172C5.22626 18.9229 4.38672 19.7624 4.38672 20.7979V28.2979C4.38672 29.3333 5.22626 30.1729 6.26172 30.1729H9.11633C9.31409 30.7313 9.54022 31.277 9.79382 31.8098L7.776 33.8286C7.04358 34.561 7.04358 35.7475 7.776 36.4799L13.0797 41.7836C13.8121 42.516 14.9986 42.516 15.731 41.7836L17.5117 40.0037V32.0479V30.1729V30.1214C16.349 28.5599 15.6367 26.6443 15.6367 24.5479C15.6367 19.3702 19.8341 15.1729 25.0117 15.1729Z" fill="black"/>
</svg>
