<svg width="61" height="61" viewBox="0 0 61 61" fill="none" xmlns="http://www.w3.org/2000/svg">
<path fill-rule="evenodd" clip-rule="evenodd" d="M19.6204 3.17285H54.8944C55.3718 3.17285 55.8296 3.36249 56.1672 3.70006C56.5048 4.03762 56.6944 4.49546 56.6944 4.97285V30.8449C56.6944 31.3222 56.5048 31.7801 56.1672 32.1176C55.8296 32.4552 55.3718 32.6449 54.8944 32.6449H34.6744C34.5034 32.6431 34.3352 32.6015 34.1832 32.5233C34.0311 32.445 33.8995 32.3324 33.7987 32.1943C33.6978 32.0562 33.6307 31.8964 33.6025 31.7278C33.5743 31.5591 33.586 31.3862 33.6364 31.2229C34.0804 29.8249 34.4644 28.4209 34.9144 27.0229C34.9144 26.9569 34.9744 26.8969 35.1004 26.8309C36.0563 26.5963 36.9052 26.0466 37.5105 25.2705C38.1157 24.4944 38.4419 23.537 38.4364 22.5529C38.4144 21.3835 37.9344 20.2696 37.0996 19.4505C36.2648 18.6314 35.1419 18.1726 33.9724 18.1729H25.0444C24.8679 18.1723 24.6941 18.1288 24.5382 18.046C24.3823 17.9632 24.249 17.8436 24.1497 17.6976C24.0504 17.5517 23.9882 17.3837 23.9685 17.2083C23.9487 17.0328 23.972 16.8552 24.0364 16.6909C24.4266 15.7391 24.5963 14.7114 24.5328 13.6847C24.4693 12.658 24.1742 11.659 23.6697 10.7626C23.1652 9.86619 22.4644 9.09558 21.6197 8.50853C20.7751 7.92148 19.8085 7.53322 18.7924 7.37285C18.534 7.35467 18.292 7.23942 18.1151 7.05022C17.9381 6.86103 17.8393 6.6119 17.8384 6.35285V4.97285C17.8384 4.49546 18.0281 4.03762 18.3656 3.70006C18.7032 3.36249 19.161 3.17285 19.6384 3.17285H19.6204ZM5.01642 31.8649H31.0384C31.2675 31.86 31.4893 31.7833 31.6724 31.6455C31.8554 31.5076 31.9905 31.3157 32.0584 31.0969L32.3764 29.9509C32.4232 29.79 32.4325 29.6206 32.4038 29.4557C32.375 29.2907 32.3088 29.1345 32.2104 28.999C32.112 28.8635 31.9838 28.7523 31.8358 28.6739C31.6878 28.5956 31.5238 28.5521 31.3564 28.5469H4.69842C4.53103 28.5521 4.36704 28.5956 4.21903 28.6739C4.07101 28.7523 3.94288 28.8635 3.84445 28.999C3.74601 29.1345 3.67987 29.2907 3.65109 29.4557C3.62232 29.6206 3.63167 29.79 3.67842 29.9509L3.99642 31.0969C4.06516 31.3152 4.20043 31.5066 4.38332 31.6444C4.5662 31.7821 4.78756 31.8592 5.01642 31.8649ZM48.5164 37.4089C47.5956 37.4089 46.6954 37.6819 45.9297 38.1935C45.164 38.7051 44.5672 39.4323 44.2148 40.2831C43.8624 41.1339 43.7702 42.07 43.9499 42.9732C44.1295 43.8764 44.573 44.706 45.2241 45.3571C45.8753 46.0083 46.7049 46.4517 47.6081 46.6314C48.5113 46.811 49.4474 46.7188 50.2982 46.3664C51.149 46.014 51.8761 45.4173 52.3877 44.6516C52.8993 43.8859 53.1724 42.9857 53.1724 42.0649C53.174 41.453 53.0547 40.8468 52.8212 40.2812C52.5878 39.7156 52.2449 39.2017 51.8122 38.769C51.3796 38.3364 50.8657 37.9935 50.3001 37.76C49.7345 37.5266 49.1283 37.4073 48.5164 37.4089ZM57.6364 54.5569V56.0869C57.6288 56.3725 57.512 56.6443 57.3099 56.8464C57.1079 57.0484 56.8361 57.1653 56.5504 57.1729H40.4764C40.1984 57.1604 39.9363 57.0399 39.7458 56.8371C39.5553 56.6343 39.4515 56.3651 39.4564 56.0869V54.5569C39.4363 53.1792 39.8479 51.8298 40.6333 50.6979C41.4188 49.5659 42.5389 48.7081 43.8364 48.2449C44.09 48.1737 44.3608 48.1972 44.5984 48.3109C45.7863 49.0147 47.1417 49.3861 48.5224 49.3861C49.9032 49.3861 51.2585 49.0147 52.4464 48.3109C52.553 48.2532 52.6701 48.2176 52.7907 48.2062C52.9113 48.1949 53.033 48.208 53.1484 48.2449C54.4597 48.7001 55.5966 49.5525 56.4009 50.6838C57.2053 51.815 57.6371 53.1688 57.6364 54.5569ZM28.1704 37.4089C27.5453 37.3864 26.9221 37.4901 26.338 37.7139C25.7539 37.9376 25.2208 38.2767 24.7706 38.711C24.3205 39.1453 23.9624 39.6658 23.7179 40.2415C23.4733 40.8173 23.3473 41.4364 23.3473 42.0619C23.3473 42.6874 23.4733 43.3064 23.7179 43.8822C23.9624 44.4579 24.3205 44.9784 24.7706 45.4127C25.2208 45.847 25.7539 46.1861 26.338 46.4098C26.9221 46.6336 27.5453 46.7373 28.1704 46.7149C28.7955 46.7373 29.4187 46.6336 30.0029 46.4098C30.587 46.1861 31.12 45.847 31.5702 45.4127C32.0204 44.9784 32.3784 44.4579 32.623 43.8822C32.8675 43.3064 32.9935 42.6874 32.9935 42.0619C32.9935 41.4364 32.8675 40.8173 32.623 40.2415C32.3784 39.6658 32.0204 39.1453 31.5702 38.711C31.12 38.2767 30.587 37.9376 30.0029 37.7139C29.4187 37.4901 28.7955 37.3864 28.1704 37.4089ZM37.2364 54.5569V56.0869C37.238 56.2304 37.2109 56.3729 37.1565 56.5058C37.1021 56.6386 37.0216 56.7593 36.9198 56.8605C36.818 56.9618 36.6969 57.0416 36.5638 57.0952C36.4306 57.1489 36.288 57.1753 36.1444 57.1729H20.1304C19.9879 57.1737 19.8466 57.1461 19.7148 57.0917C19.583 57.0373 19.4633 56.9573 19.3628 56.8562C19.2623 56.7551 19.1829 56.635 19.1293 56.5029C19.0756 56.3709 19.0488 56.2294 19.0504 56.0869V54.5569C19.0471 53.1715 19.4751 51.8195 20.275 50.6884C21.075 49.5573 22.2071 48.7033 23.5144 48.2449C23.7483 48.1764 23.9994 48.2 24.2164 48.3109C25.4032 49.0148 26.7576 49.3862 28.1374 49.3862C29.5173 49.3862 30.8716 49.0148 32.0584 48.3109C32.2982 48.1973 32.5708 48.1739 32.8264 48.2449C34.1212 48.7161 35.2392 49.5749 36.0284 50.7043C36.8175 51.8338 37.2393 53.179 37.2364 54.5569ZM17.7724 9.41885C16.5376 9.41885 15.3533 9.90939 14.4801 10.7826C13.607 11.6557 13.1164 12.84 13.1164 14.0749C13.1164 15.3097 13.607 16.494 14.4801 17.3671C15.3533 18.2403 16.5376 18.7309 17.7724 18.7309C19.0073 18.7309 20.1915 18.2403 21.0647 17.3671C21.9379 16.494 22.4284 15.3097 22.4284 14.0749C22.4284 12.84 21.9379 11.6557 21.0647 10.7826C20.1915 9.90939 19.0073 9.41885 17.7724 9.41885ZM10.6924 47.3569H20.3224C20.7724 47.3569 21.2824 46.9069 21.7264 46.7149C21.9762 46.5764 22.1627 46.3466 22.2466 46.0736C22.3305 45.8006 22.3053 45.5057 22.1764 45.2509C21.6176 44.215 21.3378 43.0517 21.3644 41.875C21.3911 40.6984 21.7233 39.5489 22.3285 38.5395C22.9337 37.53 23.791 36.6954 24.8163 36.1174C25.8415 35.5394 26.9995 35.238 28.1764 35.2429C28.5604 35.2429 28.6864 35.0509 28.7764 34.6429C28.7954 34.4909 28.7814 34.3367 28.7355 34.1906C28.6897 34.0445 28.6129 33.91 28.5105 33.7962C28.408 33.6824 28.2823 33.5919 28.1419 33.531C28.0014 33.47 27.8495 33.44 27.6964 33.4429H9.16242C9.00912 33.4401 8.857 33.4702 8.71629 33.5311C8.57559 33.592 8.44955 33.6823 8.34667 33.796C8.24379 33.9097 8.16644 34.0441 8.11982 34.1902C8.07321 34.3362 8.05841 34.4906 8.07642 34.6429L9.67242 46.3729C9.69187 46.6313 9.80733 46.8732 9.99609 47.0508C10.1848 47.2285 10.4332 47.3291 10.6924 47.3329V47.3569ZM22.1764 20.2609H33.9724C36.9724 20.2609 36.9724 24.8509 33.9724 24.8509H26.1724C25.7137 24.8651 25.2686 25.0106 24.89 25.2701C24.5114 25.5295 24.2152 25.8921 24.0364 26.3149C23.9541 26.5141 23.8115 26.6826 23.6286 26.7967C23.4456 26.9108 23.2316 26.9647 23.0164 26.9509H9.73842C9.57466 26.9537 9.41253 26.918 9.26512 26.8466C9.11771 26.7753 8.98916 26.6702 8.88986 26.5399C8.79057 26.4097 8.72331 26.2579 8.69353 26.0969C8.66375 25.9358 8.67227 25.77 8.71842 25.6129C9.48042 22.9369 10.3744 21.3409 13.1164 20.3209C13.2293 20.2707 13.3531 20.2505 13.4761 20.262C13.599 20.2736 13.7169 20.3166 13.8184 20.3869C15.0111 21.0768 16.3646 21.4401 17.7424 21.4401C19.1203 21.4401 20.4738 21.0768 21.6664 20.3869C21.8163 20.2862 21.9969 20.2416 22.1764 20.2609ZM34.4824 14.0089C34.2628 14.0089 34.0522 13.9216 33.8969 13.7663C33.7417 13.6111 33.6544 13.4005 33.6544 13.1809C33.6544 12.9613 33.7417 12.7506 33.8969 12.5954C34.0522 12.4401 34.2628 12.3529 34.4824 12.3529H50.7484C50.968 12.3529 51.1786 12.4401 51.3339 12.5954C51.4892 12.7506 51.5764 12.9613 51.5764 13.1809C51.5764 13.4005 51.4892 13.6111 51.3339 13.7663C51.1786 13.9216 50.968 14.0089 50.7484 14.0089H34.4824ZM41.4364 18.1729C41.2168 18.1729 41.0062 18.0856 40.8509 17.9303C40.6957 17.7751 40.6084 17.5645 40.6084 17.3449C40.6084 17.1253 40.6957 16.9146 40.8509 16.7594C41.0062 16.6041 41.2168 16.5169 41.4364 16.5169H50.7484C50.968 16.5169 51.1786 16.6041 51.3339 16.7594C51.4892 16.9146 51.5764 17.1253 51.5764 17.3449C51.5764 17.5645 51.4892 17.7751 51.3339 17.9303C51.1786 18.0856 50.968 18.1729 50.7484 18.1729H41.4364ZM28.9324 9.86885C28.7242 9.85114 28.5302 9.75593 28.3889 9.60204C28.2475 9.44815 28.1691 9.24681 28.1691 9.03785C28.1691 8.8289 28.2475 8.62755 28.3889 8.47367C28.5302 8.31978 28.7242 8.22456 28.9324 8.20685H50.7484C50.9566 8.22456 51.1506 8.31978 51.292 8.47367C51.4333 8.62755 51.5117 8.8289 51.5117 9.03785C51.5117 9.24681 51.4333 9.44815 51.292 9.60204C51.1506 9.75593 50.9566 9.85114 50.7484 9.86885H28.9324Z" fill="black"/>
</svg>
