<svg width="61" height="61" viewBox="0 0 61 61" fill="none" xmlns="http://www.w3.org/2000/svg">
<g clip-path="url(#clip0_100_5878)">
<path d="M60.6367 32.5786V27.7672C60.6367 26.8031 59.8552 26.0216 58.8911 26.0216H54.4762C53.8538 22.4367 52.44 19.1201 50.4217 16.2586L53.551 13.1293C54.2327 12.4477 54.2327 11.3423 53.551 10.6607L50.1488 7.25859C49.4671 6.57691 48.3619 6.57691 47.6801 7.25859L44.5509 10.3879C41.6894 8.36941 38.3727 6.9559 34.7879 6.3334V1.91848C34.788 0.954375 34.0064 0.172852 33.0423 0.172852H28.231C27.2669 0.172852 26.4854 0.954375 26.4854 1.91848V6.3334C22.9005 6.9559 19.5838 8.36953 16.7223 10.3879L13.5931 7.25859C12.9114 6.57691 11.8062 6.57691 11.1244 7.25859L7.72246 10.6607C7.04078 11.3423 7.04078 12.4475 7.72246 13.1293L10.8517 16.2586C8.8334 19.1201 7.41965 22.4367 6.79727 26.0216H2.38234C1.41824 26.0216 0.636719 26.8031 0.636719 27.7671V32.5785C0.636719 33.5426 1.41824 34.3241 2.38234 34.3241H6.79727C7.41965 37.909 8.8334 41.2256 10.8517 44.0871L7.72246 47.2164C7.04078 47.898 7.04078 49.0034 7.72246 49.685L11.1245 53.0871C11.8062 53.7688 12.9115 53.7688 13.5932 53.0871L16.7225 49.9579C19.5839 51.9763 22.9006 53.3899 26.4855 54.0124V58.4273C26.4855 59.3914 27.267 60.173 28.2311 60.173H33.0425C34.0066 60.173 34.7881 59.3914 34.7881 58.4273V54.0124C38.373 53.3899 41.6896 51.9763 44.5511 49.9579L47.6804 53.0871C48.362 53.7688 49.4673 53.7688 50.149 53.0871L53.5511 49.685C54.2328 49.0034 54.2328 47.898 53.5511 47.2164L50.4218 44.0871C52.4402 41.2256 53.8538 37.909 54.4763 34.3241H58.8912C59.8552 34.3241 60.6367 33.5426 60.6367 32.5786ZM31.017 47.0843C21.3895 47.2966 13.5129 39.4201 13.7253 29.7926C13.924 20.7843 21.2481 13.4602 30.2564 13.2614C39.884 13.0491 47.7605 20.9255 47.5482 30.5531C47.3494 39.5614 40.0253 46.8855 31.017 47.0843Z" fill="black"/>
<path d="M35.8039 21.5436V19.8213C35.8039 18.9998 34.9151 18.4861 34.2033 18.896L32.1684 20.0679C29.4608 21.6272 28.2257 24.9337 29.3664 27.8427C29.3982 27.924 29.4319 28.005 29.4673 28.0855C30.2368 29.8385 29.2672 31.9109 27.403 32.3466C27.3512 32.3586 27.2987 32.3695 27.2457 32.3791C25.5502 32.6859 23.9269 31.56 23.6201 29.8644C23.5219 29.3214 22.7701 29.2435 22.5679 29.7569C21.9188 31.4041 21.7643 33.2722 22.2578 35.1473C23.3691 39.3698 27.3919 42.0755 31.723 41.5222C36.6874 40.888 40.0477 36.2399 39.168 31.3775C38.9423 30.1298 38.4598 28.9938 37.7849 28.0132C36.4724 26.1064 35.7472 23.8576 35.8039 21.5436Z" fill="black"/>
</g>
<defs>
<clipPath id="clip0_100_5878">
<rect width="60" height="60" fill="white" transform="translate(0.636719 0.172852)"/>
</clipPath>
</defs>
</svg>
