<svg width="61" height="61" viewBox="0 0 61 61" fill="none" xmlns="http://www.w3.org/2000/svg">
<g clip-path="url(#clip0_254_7297)">
<path d="M16.3867 13.2979V11.4229C16.3867 10.9256 16.5843 10.4487 16.9359 10.097C17.2875 9.7454 17.7644 9.54785 18.2617 9.54785C18.759 9.54785 19.2359 9.7454 19.5875 10.097C19.9392 10.4487 20.1367 10.9256 20.1367 11.4229V13.2979H25.7617C26.395 13.2921 27.026 13.3742 27.6367 13.5416V7.67285C27.6338 6.6792 27.2377 5.7271 26.5351 5.02448C25.8325 4.32186 24.8804 3.92582 23.8867 3.92285H12.6367C11.6431 3.92582 10.691 4.32186 9.98835 5.02448C9.28573 5.7271 8.88969 6.6792 8.88672 7.67285V13.5416C9.49746 13.3742 10.1285 13.2921 10.7617 13.2979H16.3867Z" fill="black"/>
<path d="M42.6367 3.92285C42.1394 3.92285 41.6625 4.1204 41.3109 4.47203C40.9593 4.82366 40.7617 5.30057 40.7617 5.79785V47.0479C40.7617 48.5397 40.1691 49.9704 39.1142 51.0253C38.0593 52.0802 36.6286 52.6729 35.1367 52.6729H22.0117C21.5144 52.6729 21.0375 52.4753 20.6859 52.1237C20.3343 51.772 20.1367 51.2951 20.1367 50.7979C21.1304 50.7949 22.0825 50.3988 22.7851 49.6962C23.4877 48.9936 23.8838 48.0415 23.8867 47.0479V43.2979H12.6367V47.0479C12.6397 48.0415 13.0357 48.9936 13.7383 49.6962C14.441 50.3988 15.3931 50.7949 16.3867 50.7979C16.3867 52.2897 16.9794 53.7204 18.0342 54.7753C19.0891 55.8302 20.5199 56.4229 22.0117 56.4229H35.1367C37.6222 56.4199 40.005 55.4312 41.7626 53.6737C43.5201 51.9162 44.5087 49.5333 44.5117 47.0479V5.79785C44.5117 5.30057 44.3142 4.82366 43.9625 4.47203C43.6109 4.1204 43.134 3.92285 42.6367 3.92285Z" fill="black"/>
<path d="M29.0618 29.7416C29.3616 29.0427 29.5147 28.2896 29.5118 27.5291V20.7979C29.5088 19.8042 29.1128 18.8521 28.4101 18.1495C27.7075 17.4469 26.7554 17.0508 25.7618 17.0479H20.1368V20.7979C20.1368 21.2951 19.9392 21.772 19.5876 22.1237C19.236 22.4753 18.759 22.6729 18.2618 22.6729C17.7645 22.6729 17.2876 22.4753 16.9359 22.1237C16.5843 21.772 16.3868 21.2951 16.3868 20.7979V17.0479H10.7618C9.76811 17.0508 8.81601 17.4469 8.11339 18.1495C7.41077 18.8521 7.01473 19.8042 7.01176 20.7979V27.5291C7.00879 28.2896 7.16195 29.0427 7.46176 29.7416L11.6618 39.5479H24.8618L29.0618 29.7416Z" fill="black"/>
</g>
<defs>
<clipPath id="clip0_254_7297">
<rect width="60" height="60" fill="white" transform="translate(0.636719 0.172852)"/>
</clipPath>
</defs>
</svg>
