<svg width="61" height="61" viewBox="0 0 61 61" fill="none" xmlns="http://www.w3.org/2000/svg">
<g clip-path="url(#clip0_254_7308)">
<path d="M52.7893 35.7448V24.6009C55.4934 23.8336 57.4806 21.3439 57.4806 18.3974C57.4806 14.8413 54.5875 11.9484 51.0315 11.9484C49.287 11.9484 47.7032 12.6458 46.541 13.775L36.8884 8.20219C37.0163 7.69629 37.0849 7.16707 37.0849 6.62203C37.0849 3.06598 34.1919 0.172852 30.6359 0.172852C27.0798 0.172852 24.1868 3.06598 24.1868 6.62191C24.1868 7.16695 24.2555 7.69617 24.3833 8.20207L14.7307 13.7749C13.5686 12.6457 11.9846 11.9483 10.2401 11.9483C6.68402 11.9483 3.79102 14.8413 3.79102 18.3973C3.79102 21.3439 5.77816 23.8335 8.48227 24.6008V35.7446C5.77816 36.512 3.79102 39.0016 3.79102 41.9482C3.79102 45.5043 6.68402 48.3971 10.2401 48.3971C11.9846 48.3971 13.5686 47.6998 14.7306 46.5705L24.3832 52.1434C24.2554 52.6493 24.1867 53.1785 24.1867 53.7236C24.1868 57.2798 27.0798 60.1729 30.6359 60.1729C34.1919 60.1729 37.0849 57.2797 37.0849 53.7238C37.0849 53.1787 37.0163 52.6495 36.8884 52.1436L46.541 46.5708C47.7032 47.7 49.287 48.3974 51.0315 48.3974C54.5876 48.3974 57.4806 45.5044 57.4806 41.9484C57.4806 39.0018 55.4934 36.5121 52.7893 35.7448ZM32.3937 47.5202V42.952C31.8158 43.0303 31.2289 43.071 30.6359 43.071C30.0428 43.071 29.4559 43.0303 28.878 42.952V47.5202C27.8364 47.8159 26.9014 48.3667 26.1452 49.1014L16.4926 43.5286C16.6205 43.0227 16.6891 42.4935 16.6891 41.9484C16.6891 41.4034 16.6205 40.8741 16.4926 40.3682L20.4472 38.085C19.7175 37.1493 19.1271 36.1264 18.6855 35.0427L14.7307 37.326C13.9745 36.5912 13.0397 36.0404 11.998 35.7448V24.6009C13.0397 24.3053 13.9746 23.7546 14.7307 23.0197L18.6855 25.303C19.1271 24.2191 19.7175 23.1964 20.4472 22.2607L16.4927 19.9775C16.6207 19.4716 16.6893 18.9424 16.6893 18.3973C16.6893 17.8522 16.6206 17.323 16.4927 16.8171L26.1454 11.2443C26.9016 11.979 27.8364 12.5298 28.8782 12.8255V17.3937C29.456 17.3154 30.0429 17.2747 30.636 17.2747C31.2291 17.2747 31.8159 17.3154 32.3938 17.3937V12.8255C33.4355 12.5298 34.3704 11.979 35.1266 11.2443L44.7792 16.8171C44.6514 17.323 44.5827 17.8522 44.5827 18.3973C44.5827 18.9423 44.6514 19.4716 44.7792 19.9775L40.8246 22.2607C41.5543 23.1964 42.1447 24.2193 42.5863 25.303L46.5411 23.0197C47.2972 23.7545 48.2321 24.3053 49.2738 24.6009V35.7448C48.2321 36.0404 47.2973 36.5911 46.5411 37.326L42.5863 35.0427C42.1447 36.1266 41.5543 37.1493 40.8246 38.085L44.7791 40.3682C44.6511 40.8741 44.5826 41.4033 44.5826 41.9484C44.5826 42.4935 44.6511 43.0227 44.7791 43.5286L35.1265 49.1014C34.3703 48.3666 33.4354 47.8158 32.3937 47.5202Z" fill="black"/>
<path d="M30.6364 39.5553C35.8182 39.5553 40.0189 35.3546 40.0189 30.1728C40.0189 24.991 35.8182 20.7903 30.6364 20.7903C25.4546 20.7903 21.2539 24.991 21.2539 30.1728C21.2539 35.3546 25.4546 39.5553 30.6364 39.5553Z" fill="black"/>
</g>
<defs>
<clipPath id="clip0_254_7308">
<rect width="60" height="60" fill="white" transform="translate(0.636719 0.172852)"/>
</clipPath>
</defs>
</svg>
