<svg width="61" height="61" viewBox="0 0 61 61" fill="none" xmlns="http://www.w3.org/2000/svg">
<g clip-path="url(#clip0_100_5845)">
<path d="M21.7229 41.1166V24.9771C19.7882 27.113 18.6074 29.9454 18.6074 33.0474C18.6074 36.1494 19.787 38.9819 21.7229 41.1166Z" fill="black"/>
<path d="M39.5527 24.9795V41.1141C41.4874 38.9794 42.667 36.1482 42.667 33.0474C42.667 29.9466 41.4874 27.1154 39.5527 24.9795Z" fill="black"/>
<path d="M56.6599 27.5997L52.7442 26.9495C52.177 24.8856 51.328 22.9266 50.207 21.098L52.5881 17.7691C53.109 17.042 53.026 16.0442 52.3941 15.4111L47.8467 10.8637C47.4721 10.4892 46.9708 10.3074 46.4731 10.3294C46.4756 10.3917 46.4756 10.4526 46.4756 10.5148C46.4756 13.5595 45.6083 16.5176 43.9688 19.0682C43.3052 20.1002 42.5294 21.0468 41.6585 21.8909C44.5396 24.738 46.3268 28.6878 46.3268 33.0474C46.3268 41.6984 39.2884 48.7368 30.6373 48.7368C21.9863 48.7368 14.9479 41.6984 14.9479 33.0474C14.9479 28.6865 16.7362 24.7367 19.6174 21.8909C18.7464 21.0468 17.9707 20.1015 17.307 19.0694C15.6664 16.5175 14.7991 13.5595 14.7991 10.5148C14.7991 10.4526 14.7991 10.3917 14.8016 10.3294C14.3039 10.3075 13.8025 10.4893 13.428 10.8637L8.88055 15.4111C8.24867 16.0442 8.1657 17.042 8.6866 17.7691L11.0677 21.098C9.94672 22.9265 9.0977 24.8855 8.53051 26.9495L4.6148 27.5997C3.73168 27.7461 3.08398 28.5097 3.08398 29.4051V35.836C3.08398 36.7301 3.73168 37.4937 4.6148 37.6414L8.3048 38.2537C8.81598 40.4628 9.64906 42.5658 10.7896 44.5309L8.68672 47.4707C8.16582 48.1989 8.24879 49.1968 8.88066 49.8298L13.4281 54.3761C14.0612 55.0092 15.059 55.0921 15.7861 54.5712L18.5966 52.561C20.6056 53.8052 22.7708 54.7201 25.0604 55.291L25.6167 58.643C25.763 59.5261 26.5266 60.1727 27.4221 60.1727H33.853C34.7483 60.1727 35.512 59.5261 35.6584 58.643L36.2146 55.291C38.5043 54.7201 40.6694 53.8052 42.6785 52.561L45.489 54.5712C46.216 55.0921 47.2139 55.0092 47.8469 54.3761L52.3944 49.8298C53.0263 49.1968 53.1092 48.1989 52.5883 47.4707L50.4854 44.5309C51.626 42.5658 52.4591 40.4628 52.9702 38.2537L56.6602 37.6414C57.5434 37.4938 58.1911 36.7301 58.1911 35.836V29.4051C58.1907 28.5097 57.543 27.7461 56.6599 27.5997Z" fill="black"/>
<path d="M37.5733 0.503073C36.3589 -0.339622 34.6977 0.527799 34.6978 2.00589L34.6986 8.15823L30.639 11.2078L26.5794 8.15823L26.5786 2.00635C26.5783 0.528385 24.9174 -0.338451 23.7031 0.50401C20.5345 2.70221 18.459 6.36585 18.459 10.515C18.459 14.133 20.0362 17.3826 22.5418 19.6125C23.3908 20.3688 24.3459 21.008 25.3828 21.5045V43.8674C25.3828 43.8674 27.5519 45.0774 30.6378 45.0774C33.7237 45.0774 35.8928 43.8674 35.8928 43.8674H35.894V21.5044C36.9309 21.0078 37.886 20.3687 38.735 19.6124C41.2393 17.3825 42.8165 14.1329 42.8165 10.5149C42.8165 6.3662 40.7415 2.70139 37.5733 0.503073Z" fill="black"/>
</g>
<defs>
<clipPath id="clip0_100_5845">
<rect width="60" height="60" fill="white" transform="translate(0.636719 0.172852)"/>
</clipPath>
</defs>
</svg>
