<svg width="61" height="61" viewBox="0 0 61 61" fill="none" xmlns="http://www.w3.org/2000/svg">
<path fill-rule="evenodd" clip-rule="evenodd" d="M29.5059 13.9185C28.7746 14.6457 27.5932 14.6457 26.8619 13.9185C26.1347 13.1872 26.1347 12.0058 26.8619 11.2745L31.9266 6.23169L28.2608 2.56957C27.9095 2.22018 27.4342 2.02402 26.9388 2.02393C26.4433 2.02402 25.968 2.22029 25.6168 2.56968C25.6168 2.56968 20.582 7.60541 18.2413 9.94518L22.0462 13.7538C22.7807 14.4864 22.7807 15.6762 22.0462 16.4088C21.3148 17.136 20.1335 17.136 19.4022 16.4088L16.0037 13.0104C14.464 15.9259 12.7591 20.6312 12.7591 20.6312C12.4972 21.3217 12.6649 22.1016 13.1876 22.6234L18.157 27.5929C18.678 28.1168 19.458 28.286 20.1492 28.025C20.1492 28.025 22.1621 27.2841 24.368 26.3441L20.7059 22.682C19.9689 21.9489 19.9689 20.7563 20.7059 20.0233C21.0541 19.673 21.5266 19.4743 22.0206 19.4703C22.5183 19.4714 22.9953 19.6703 23.3462 20.0233L27.9752 24.6485C28.1827 24.5358 28.381 24.4248 28.5648 24.3153C29.3571 23.8432 30.0976 23.2766 30.751 22.6234C33.0552 20.3203 38.2144 15.1637 38.2144 15.1637C38.9488 14.431 38.9488 13.2413 38.2144 12.5086L34.556 8.85753L29.5059 13.9185ZM49.3838 23.8576C48.6525 24.5847 47.4712 24.5847 46.7398 23.8576C46.0126 23.1262 46.0126 21.9449 46.7398 21.2135L51.8082 16.1707C50.589 14.9492 49.3693 13.7281 48.1497 12.5086C47.7978 12.1547 47.3194 11.9557 46.8204 11.9556C46.3226 11.9567 45.8457 12.1557 45.4947 12.5086L36.8777 21.1366L39.4449 23.6927C40.1794 24.4254 40.1794 25.6151 39.4449 26.3478C38.7135 27.0749 37.5322 27.0749 36.8008 26.3478L34.4278 23.9747C34.3438 24.1041 34.2654 24.2374 34.1861 24.3702C34.0169 24.6539 33.8243 24.9823 33.6258 25.3334L39.1812 30.8888C39.9181 31.6218 39.9181 32.8144 39.1812 33.5475C38.4498 34.2746 37.2685 34.2746 36.5372 33.5475L31.7618 28.7721C30.3359 31.4672 28.9932 34.1114 28.9932 34.1114C28.6262 34.8354 28.7666 35.7133 29.3411 36.2867L34.3106 41.2562C34.8842 41.8278 35.76 41.9666 36.4822 41.6004C36.4822 41.6004 43.352 38.1256 46.2271 36.4112C46.3571 36.3338 46.485 36.2511 46.6116 36.1695L41.7703 31.3172C41.0334 30.5842 41.0334 29.3916 41.7703 28.6585C42.1216 28.3091 42.5969 28.113 43.0923 28.1129C43.5878 28.113 44.0631 28.3091 44.4144 28.6585L49.4754 33.7196C52.487 30.7079 58.0887 25.1026 58.0887 25.1026C58.8158 24.3712 58.8158 23.19 58.0887 22.4586C56.8704 21.2401 55.6518 20.0205 54.4339 18.8001L49.3838 23.8576ZM9.20684 23.9491L3.19366 29.9623C2.84337 30.3106 2.64465 30.783 2.64068 31.277V41.2123C2.62809 42.8969 4.67069 43.7423 5.85235 42.5416L16.835 31.5699L9.20684 23.9491ZM25.3677 37.6124L7.96905 55.0001C6.7772 56.1731 7.60056 58.2014 9.27276 58.2118L19.0982 58.3216C19.6061 58.3292 20.0951 58.1289 20.4532 57.7687L32.9886 45.2333L25.3677 37.6124Z" fill="black"/>
</svg>
