<svg width="61" height="61" viewBox="0 0 61 61" fill="none" xmlns="http://www.w3.org/2000/svg">
<path d="M38.9961 12.5293L47.5111 16.7867L56.026 12.5293C55.966 12.49 55.9148 12.4403 55.8497 12.4077L48.3497 8.65771C47.8223 8.39404 47.1998 8.39404 46.6724 8.65771L39.1724 12.4077C39.1073 12.4403 39.0562 12.49 38.9961 12.5293Z" fill="black"/>
<path d="M38.1367 23.46C38.1367 24.1705 38.5377 24.8196 39.1731 25.1373L46.5742 29.085V18.4146L38.1367 14.1958V23.46Z" fill="black"/>
<path d="M48.4492 18.4146V29.085L55.8503 25.1373C56.4857 24.8196 56.8867 24.1705 56.8867 23.46V14.1958L48.4492 18.4146Z" fill="black"/>
<path d="M55.8497 36.7827L48.3497 33.0327C47.8223 32.769 47.1998 32.769 46.6724 33.0327L39.1724 36.7827C39.1073 36.8153 39.0562 36.865 38.9961 36.9043L47.5111 41.1617L56.026 36.9043C55.966 36.865 55.9148 36.8153 55.8497 36.7827Z" fill="black"/>
<path d="M38.1367 47.835C38.1367 48.5455 38.5377 49.1946 39.1731 49.5123L46.5742 53.46V42.7896L38.1367 38.5708V47.835Z" fill="black"/>
<path d="M48.4492 53.46L55.8503 49.5123C56.4857 49.1946 56.8867 48.5455 56.8867 47.835V38.5708L48.4492 42.7896V53.46Z" fill="black"/>
<path d="M36.2617 47.835V38.46C36.2617 37.0317 37.0546 35.7463 38.3326 35.1073L41.8867 33.3298V28.5906L38.3345 26.8145C37.0546 26.1736 36.2617 24.8882 36.2617 23.46V14.085C36.2617 12.6567 37.0546 11.3713 38.3326 10.7323L41.8867 8.9548V6.58496C41.8867 5.54858 41.0481 4.70996 40.0117 4.70996H6.26172C5.22534 4.70996 4.38672 5.54858 4.38672 6.58496V55.335C4.38672 56.3713 5.22534 57.21 6.26172 57.21H40.0117C41.0481 57.21 41.8867 56.3713 41.8867 55.335V52.9656L38.3345 51.1895C37.0546 50.5486 36.2617 49.2632 36.2617 47.835ZM15.3621 43.8103L11.6121 47.5603C11.429 47.7434 11.1891 47.835 10.9492 47.835C10.7094 47.835 10.4695 47.7434 10.2864 47.5603L8.41138 45.6853C8.04517 45.3191 8.04517 44.7258 8.41138 44.3596C8.77759 43.9934 9.37085 43.9934 9.73706 44.3596L10.9492 45.5718L14.0364 42.4846C14.4026 42.1184 14.9958 42.1184 15.3621 42.4846C15.7283 42.8508 15.7283 43.4441 15.3621 43.8103ZM15.3621 34.4353L11.6121 38.1853C11.429 38.3684 11.1891 38.46 10.9492 38.46C10.7094 38.46 10.4695 38.3684 10.2864 38.1853L8.41138 36.3103C8.04517 35.9441 8.04517 35.3508 8.41138 34.9846C8.77759 34.6184 9.37085 34.6184 9.73706 34.9846L10.9492 36.1968L14.0364 33.1096C14.4026 32.7434 14.9958 32.7434 15.3621 33.1096C15.7283 33.4758 15.7283 34.0691 15.3621 34.4353ZM15.3621 25.0603L11.6121 28.8103C11.429 28.9934 11.1891 29.085 10.9492 29.085C10.7094 29.085 10.4695 28.9934 10.2864 28.8103L8.41138 26.9353C8.04517 26.5691 8.04517 25.9758 8.41138 25.6096C8.77759 25.2434 9.37085 25.2434 9.73706 25.6096L10.9492 26.8218L14.0364 23.7346C14.4026 23.3684 14.9958 23.3684 15.3621 23.7346C15.7283 24.1008 15.7283 24.6941 15.3621 25.0603ZM15.3621 15.6853L11.6121 19.4353C11.429 19.6184 11.1891 19.71 10.9492 19.71C10.7094 19.71 10.4695 19.6184 10.2864 19.4353L8.41138 17.5603C8.04517 17.1941 8.04517 16.6008 8.41138 16.2346C8.77759 15.8684 9.37085 15.8684 9.73706 16.2346L10.9492 17.4468L14.0364 14.3596C14.4026 13.9934 14.9958 13.9934 15.3621 14.3596C15.7283 14.7258 15.7283 15.3191 15.3621 15.6853ZM33.4492 47.835H18.4492C17.931 47.835 17.5117 47.4156 17.5117 46.8975C17.5117 46.3793 17.931 45.96 18.4492 45.96H33.4492C33.9674 45.96 34.3867 46.3793 34.3867 46.8975C34.3867 47.4156 33.9674 47.835 33.4492 47.835ZM33.4492 38.46H18.4492C17.931 38.46 17.5117 38.0406 17.5117 37.5225C17.5117 37.0043 17.931 36.585 18.4492 36.585H33.4492C33.9674 36.585 34.3867 37.0043 34.3867 37.5225C34.3867 38.0406 33.9674 38.46 33.4492 38.46ZM33.4492 29.085H18.4492C17.931 29.085 17.5117 28.6656 17.5117 28.1475C17.5117 27.6293 17.931 27.21 18.4492 27.21H33.4492C33.9674 27.21 34.3867 27.6293 34.3867 28.1475C34.3867 28.6656 33.9674 29.085 33.4492 29.085ZM33.4492 19.71H18.4492C17.931 19.71 17.5117 19.2906 17.5117 18.7725C17.5117 18.2543 17.931 17.835 18.4492 17.835H33.4492C33.9674 17.835 34.3867 18.2543 34.3867 18.7725C34.3867 19.2906 33.9674 19.71 33.4492 19.71Z" fill="black"/>
</svg>
