<svg width="61" height="61" viewBox="0 0 61 61" fill="none" xmlns="http://www.w3.org/2000/svg">
<path fill-rule="evenodd" clip-rule="evenodd" d="M38.1418 28.1613V18.5258H41.9422L43.0927 21.5199C44.6856 21.8985 46.2048 22.5278 47.601 23.3882L50.5312 22.0853L53.9825 25.5366L52.6847 28.4669C53.545 29.8632 54.1743 31.3824 54.5529 32.9802L57.5421 34.1306V39.0127L54.5529 40.1631C54.1743 41.756 53.5401 43.2752 52.6847 44.6716L53.9825 47.6018L50.5312 51.0531L47.601 49.7552C46.2096 50.6156 44.6856 51.2449 43.0927 51.6234L41.9422 54.6126H38.1418V44.9819C38.5836 45.0526 39.0369 45.0895 39.4987 45.0895C44.2037 45.0895 48.0189 41.2743 48.0189 36.5692C48.0189 31.8642 44.2037 28.0539 39.4987 28.0539C39.0369 28.0539 38.5836 28.0906 38.1418 28.1613ZM36.2595 5.4031V55.3683C36.2595 57.1634 34.802 58.621 33.0068 58.621H6.98513C5.18983 58.621 3.73242 57.1634 3.73242 55.3683V5.4031C3.73242 3.60792 5.18983 2.15039 6.98513 2.15039H33.0068C34.802 2.15039 36.2595 3.60792 36.2595 5.4031ZM13.5569 12.7873H31.7791C32.2985 12.7873 32.7203 12.3656 32.7203 11.8462C32.7203 11.3267 32.2985 10.905 31.7791 10.905H13.5569C13.172 9.84757 12.1572 9.09145 10.9675 9.09145C9.44713 9.09145 8.21277 10.3258 8.21277 11.8462C8.21277 13.3665 9.44713 14.6009 10.9675 14.6009C12.1572 14.6009 13.172 13.8449 13.5569 12.7873ZM26.435 38.7143H8.21277C7.69325 38.7143 7.2716 39.136 7.2716 39.6554C7.2716 40.1749 7.69325 40.5966 8.21277 40.5966H26.435C26.8198 41.654 27.8345 42.4102 29.0244 42.4102C30.5448 42.4102 31.7791 41.1758 31.7791 39.6554C31.7791 38.1351 30.5448 36.9007 29.0244 36.9007C27.8345 36.9007 26.8198 37.6567 26.435 38.7143ZM13.5569 31.3269H31.7791C32.2985 31.3269 32.7203 30.9051 32.7203 30.3857C32.7203 29.8663 32.2985 29.4445 31.7791 29.4445H13.5569C13.172 28.387 12.1572 27.631 10.9675 27.631C9.44713 27.631 8.21277 28.8653 8.21277 30.3857C8.21277 31.906 9.44713 33.1404 10.9675 33.1404C12.1572 33.1404 13.172 32.3844 13.5569 31.3269ZM26.435 20.1747H8.21277C7.69325 20.1747 7.2716 20.5965 7.2716 21.1159C7.2716 21.6353 7.69325 22.0571 8.21277 22.0571H26.435C26.8198 23.1146 27.8345 23.8706 29.0244 23.8706C30.5448 23.8706 31.7791 22.6363 31.7791 21.1159C31.7791 19.5956 30.5448 18.3612 29.0244 18.3612C27.8345 18.3612 26.8198 19.1173 26.435 20.1747ZM13.5569 49.8664H31.7791C32.2985 49.8664 32.7203 49.4446 32.7203 48.9252C32.7203 48.4058 32.2985 47.984 31.7791 47.984H13.5569C13.172 46.9265 12.1572 46.1705 10.9675 46.1705C9.44713 46.1705 8.21277 47.4049 8.21277 48.9252C8.21277 50.4456 9.44713 51.6799 10.9675 51.6799C12.1572 51.6799 13.172 50.9238 13.5569 49.8664Z" fill="black"/>
</svg>
