<svg width="61" height="61" viewBox="0 0 61 61" fill="none" xmlns="http://www.w3.org/2000/svg">
<path d="M26.8867 32.0479V5.79785C26.8867 4.76239 26.0473 3.92285 25.0117 3.92285H6.26172C5.22626 3.92285 4.38672 4.76239 4.38672 5.79785V32.0479C4.38672 33.0833 5.22626 33.9229 6.26172 33.9229H25.0117C26.0473 33.9229 26.8867 33.0833 26.8867 32.0479ZM23.1367 11.4229C23.1367 12.4583 22.2973 13.2979 21.2617 13.2979H10.0117C8.97626 13.2979 8.13672 12.4583 8.13672 11.4229V9.54785C8.13672 8.51228 8.97626 7.67285 10.0117 7.67285H21.2617C22.2973 7.67285 23.1367 8.51228 23.1367 9.54785V11.4229Z" fill="black"/>
<path d="M25.0117 35.7979H19.3867V43.2979H56.8867V32.0479H28.7617C28.7617 34.1189 27.0829 35.7979 25.0117 35.7979ZM49.3867 36.7354C49.3867 36.2172 49.806 35.7979 50.3242 35.7979C50.8424 35.7979 51.2617 36.2172 51.2617 36.7354V38.6104C51.2617 39.1285 50.8424 39.5479 50.3242 39.5479C49.806 39.5479 49.3867 39.1285 49.3867 38.6104V36.7354ZM45.6367 36.7354C45.6367 36.2172 46.056 35.7979 46.5742 35.7979C47.0924 35.7979 47.5117 36.2172 47.5117 36.7354V38.6104C47.5117 39.1285 47.0924 39.5479 46.5742 39.5479C46.056 39.5479 45.6367 39.1285 45.6367 38.6104V36.7354ZM41.8867 36.7354C41.8867 36.2172 42.306 35.7979 42.8242 35.7979C43.3424 35.7979 43.7617 36.2172 43.7617 36.7354V38.6104C43.7617 39.1285 43.3424 39.5479 42.8242 39.5479C42.306 39.5479 41.8867 39.1285 41.8867 38.6104V36.7354ZM38.1367 36.7354C38.1367 36.2172 38.556 35.7979 39.0742 35.7979C39.5924 35.7979 40.0117 36.2172 40.0117 36.7354V38.6104C40.0117 39.1285 39.5924 39.5479 39.0742 39.5479C38.556 39.5479 38.1367 39.1285 38.1367 38.6104V36.7354Z" fill="black"/>
<path d="M28.7617 30.1729H56.8867V18.9229H28.7617V30.1729ZM49.3867 23.6104C49.3867 23.0922 49.806 22.6729 50.3242 22.6729C50.8424 22.6729 51.2617 23.0922 51.2617 23.6104V25.4854C51.2617 26.0035 50.8424 26.4229 50.3242 26.4229C49.806 26.4229 49.3867 26.0035 49.3867 25.4854V23.6104ZM45.6367 23.6104C45.6367 23.0922 46.056 22.6729 46.5742 22.6729C47.0924 22.6729 47.5117 23.0922 47.5117 23.6104V25.4854C47.5117 26.0035 47.0924 26.4229 46.5742 26.4229C46.056 26.4229 45.6367 26.0035 45.6367 25.4854V23.6104ZM41.8867 23.6104C41.8867 23.0922 42.306 22.6729 42.8242 22.6729C43.3424 22.6729 43.7617 23.0922 43.7617 23.6104V25.4854C43.7617 26.0035 43.3424 26.4229 42.8242 26.4229C42.306 26.4229 41.8867 26.0035 41.8867 25.4854V23.6104ZM38.1367 23.6104C38.1367 23.0922 38.556 22.6729 39.0742 22.6729C39.5924 22.6729 40.0117 23.0922 40.0117 23.6104V25.4854C40.0117 26.0035 39.5924 26.4229 39.0742 26.4229C38.556 26.4229 38.1367 26.0035 38.1367 25.4854V23.6104Z" fill="black"/>
<path d="M19.3867 50.7979C19.3867 53.8997 21.9099 56.4229 25.0117 56.4229H51.2617C54.3635 56.4229 56.8867 53.8997 56.8867 50.7979V45.1729H19.3867V50.7979ZM49.3867 49.8604C49.3867 49.3422 49.806 48.9229 50.3242 48.9229C50.8424 48.9229 51.2617 49.3422 51.2617 49.8604V51.7354C51.2617 52.2535 50.8424 52.6729 50.3242 52.6729C49.806 52.6729 49.3867 52.2535 49.3867 51.7354V49.8604ZM45.6367 49.8604C45.6367 49.3422 46.056 48.9229 46.5742 48.9229C47.0924 48.9229 47.5117 49.3422 47.5117 49.8604V51.7354C47.5117 52.2535 47.0924 52.6729 46.5742 52.6729C46.056 52.6729 45.6367 52.2535 45.6367 51.7354V49.8604ZM41.8867 49.8604C41.8867 49.3422 42.306 48.9229 42.8242 48.9229C43.3424 48.9229 43.7617 49.3422 43.7617 49.8604V51.7354C43.7617 52.2535 43.3424 52.6729 42.8242 52.6729C42.306 52.6729 41.8867 52.2535 41.8867 51.7354V49.8604ZM38.1367 49.8604C38.1367 49.3422 38.556 48.9229 39.0742 48.9229C39.5924 48.9229 40.0117 49.3422 40.0117 49.8604V51.7354C40.0117 52.2535 39.5924 52.6729 39.0742 52.6729C38.556 52.6729 38.1367 52.2535 38.1367 51.7354V49.8604Z" fill="black"/>
<path d="M51.2617 5.79785H28.7617V17.0479H56.8867V11.4229C56.8867 8.32104 54.3635 5.79785 51.2617 5.79785ZM40.0117 12.3604C40.0117 12.8785 39.5924 13.2979 39.0742 13.2979C38.556 13.2979 38.1367 12.8785 38.1367 12.3604V10.4854C38.1367 9.96716 38.556 9.54785 39.0742 9.54785C39.5924 9.54785 40.0117 9.96716 40.0117 10.4854V12.3604ZM43.7617 12.3604C43.7617 12.8785 43.3424 13.2979 42.8242 13.2979C42.306 13.2979 41.8867 12.8785 41.8867 12.3604V10.4854C41.8867 9.96716 42.306 9.54785 42.8242 9.54785C43.3424 9.54785 43.7617 9.96716 43.7617 10.4854V12.3604ZM47.5117 12.3604C47.5117 12.8785 47.0924 13.2979 46.5742 13.2979C46.056 13.2979 45.6367 12.8785 45.6367 12.3604V10.4854C45.6367 9.96716 46.056 9.54785 46.5742 9.54785C47.0924 9.54785 47.5117 9.96716 47.5117 10.4854V12.3604ZM51.2617 12.3604C51.2617 12.8785 50.8424 13.2979 50.3242 13.2979C49.806 13.2979 49.3867 12.8785 49.3867 12.3604V10.4854C49.3867 9.96716 49.806 9.54785 50.3242 9.54785C50.8424 9.54785 51.2617 9.96716 51.2617 10.4854V12.3604Z" fill="black"/>
</svg>
