<svg width="61" height="61" viewBox="0 0 61 61" fill="none" xmlns="http://www.w3.org/2000/svg">
<path fill-rule="evenodd" clip-rule="evenodd" d="M48.0613 10.2067C48.6561 10.3588 49.2175 10.5942 49.7325 10.8996L51.8243 9.38508L53.4981 11.0589L51.9836 13.1507C52.2889 13.6656 52.5243 14.227 52.6765 14.8218L55.2258 15.2298V17.5969L52.6766 18.0049C52.5245 18.5996 52.2891 19.1611 51.9836 19.676L53.4981 21.7678L51.8243 23.4416L49.7325 21.9271C49.2175 22.2325 48.6561 22.4678 48.0614 22.62L47.6534 25.1693H45.2862L44.8781 22.6201C44.2833 22.468 43.722 22.2326 43.2069 21.9271L41.1151 23.4416L39.4413 21.7678L40.9559 19.676C40.6505 19.1611 40.4152 18.5996 40.2631 18.0049L37.7136 17.5969V15.2298L40.2631 14.8216C40.4152 14.2269 40.6505 13.6656 40.9559 13.1505L39.4413 11.0588L41.1151 9.38496L43.2068 10.8994C43.7218 10.594 44.2832 10.3586 44.878 10.2064L45.2861 7.65727H47.6532L48.0613 10.2067ZM22.2777 6.57527H34.2783C34.796 6.57527 35.2158 6.99504 35.2158 7.51277C35.2158 8.03051 34.796 8.45027 34.2783 8.45027H22.2777C21.76 8.45027 21.3402 8.03051 21.3402 7.51277C21.3402 6.99504 21.7598 6.57527 22.2777 6.57527ZM40.9198 25.8982L36.9851 21.9635L38.6617 19.6478L35.8386 19.1959V13.6314L38.6617 13.1794L36.985 10.8636L40.9196 6.92895L43.2354 8.60555L43.5525 6.62414H40.1827C39.6649 6.62414 39.2452 6.20437 39.2452 5.68664V1.11035H16.5137V37.7189H44.7591V27.0446H43.6874L43.2355 24.2216L40.9198 25.8982ZM33.8999 21.3553C34.4176 21.3553 34.8374 21.7751 34.8374 22.2928C34.8374 22.8105 34.4176 23.2303 33.8999 23.2303H22.2777C21.76 23.2303 21.3402 22.8105 21.3402 22.2928C21.3402 21.7751 21.76 21.3553 22.2777 21.3553H33.8999ZM33.8999 16.4285C34.4176 16.4285 34.8374 16.8483 34.8374 17.366C34.8374 17.8837 34.4176 18.3035 33.8999 18.3035H22.2777C21.76 18.3035 21.3402 17.8837 21.3402 17.366C21.3402 16.8483 21.76 16.4285 22.2777 16.4285H33.8999ZM22.2777 11.502H34.2783C34.796 11.502 35.2158 11.9217 35.2158 12.4395C35.2158 12.9572 34.796 13.377 34.2783 13.377C30.7763 13.377 25.7797 13.377 22.2777 13.377C21.76 13.377 21.3402 12.9572 21.3402 12.4395C21.3402 11.9217 21.7598 11.502 22.2777 11.502ZM22.2777 26.2819H38.9951C39.5128 26.2819 39.9326 26.7016 39.9326 27.2194C39.9326 27.7371 39.5128 28.1569 38.9951 28.1569H22.2777C21.76 28.1569 21.3402 27.7371 21.3402 27.2194C21.3402 26.7016 21.7598 26.2819 22.2777 26.2819ZM21.3402 32.1461C21.3402 31.6283 21.76 31.2086 22.2777 31.2086H38.9951C39.5128 31.2086 39.9326 31.6283 39.9326 32.1461C39.9326 32.6638 39.5128 33.0836 38.9951 33.0836H22.2777C21.7598 33.0836 21.3402 32.6638 21.3402 32.1461ZM22.9083 54.0833H17.1536C15.3803 54.0833 13.9295 55.2424 13.9295 56.6593V59.2354H47.3434V56.6593C47.3434 55.2425 45.8926 54.0833 44.1193 54.0833H38.3646V48.0766H51.4453C53.5247 48.0766 55.226 46.3753 55.226 44.2959V22.6921L52.0645 25.8536V41.7081H9.20836V18.1918C9.20836 17.9034 9.44426 17.6675 9.73266 17.6675H14.6386V14.5061H9.82758C7.7482 14.5061 6.04688 16.2074 6.04688 18.2868V44.2959C6.04688 46.3753 7.7482 48.0766 9.82758 48.0766H22.9083V54.0833ZM41.1202 2.04785L43.8214 4.74914H41.1202V2.04785ZM46.4696 12.9159C44.538 12.9159 42.9721 14.4819 42.9721 16.4135C42.9721 18.3452 44.5379 19.9111 46.4696 19.9111C48.4012 19.9111 49.9672 18.3451 49.9672 16.4135C49.9672 14.4819 48.4012 12.9159 46.4696 12.9159Z" fill="black"/>
</svg>
