<svg width="61" height="61" viewBox="0 0 61 61" fill="none" xmlns="http://www.w3.org/2000/svg">
<path d="M17.1953 4.42285H5.94531C4.90985 4.42285 4.07031 5.26147 4.07031 6.29785V17.5479C4.07031 18.5842 4.90985 19.4229 5.94531 19.4229H17.1953C18.2308 19.4229 19.0703 18.5842 19.0703 17.5479V6.29785C19.0703 5.26147 18.2308 4.42285 17.1953 4.42285Z" fill="black"/>
<path d="M54.6953 4.42285H43.4453C42.4099 4.42285 41.5703 5.26147 41.5703 6.29785V17.5479C41.5703 18.5842 42.4099 19.4229 43.4453 19.4229H54.6953C55.7308 19.4229 56.5703 18.5842 56.5703 17.5479V6.29785C56.5703 5.26147 55.7308 4.42285 54.6953 4.42285Z" fill="black"/>
<path d="M35.9453 4.42285H24.6953C23.6599 4.42285 22.8203 5.26147 22.8203 6.29785V17.5479C22.8203 18.5842 23.6599 19.4229 24.6953 19.4229H35.9453C36.9808 19.4229 37.8203 18.5842 37.8203 17.5479V6.29785C37.8203 5.26147 36.9808 4.42285 35.9453 4.42285Z" fill="black"/>
<path d="M47.1953 21.2979V23.1729H32.1953V21.2979H28.4453V23.1729H13.4453V21.2979H9.69531V25.0479C9.69531 26.0842 10.5349 26.9229 11.5703 26.9229H28.4453V30.6729H32.1953V26.9229H49.0703C50.1058 26.9229 50.9453 26.0842 50.9453 25.0479V21.2979H47.1953Z" fill="black"/>
<path d="M43.4453 45.6729H17.1953C15.1243 45.6729 13.4453 47.3517 13.4453 49.4229V53.1729C13.4453 55.2439 15.1243 56.9229 17.1953 56.9229H43.4453C45.5163 56.9229 47.1953 55.2439 47.1953 53.1729V49.4229C47.1953 47.3517 45.5163 45.6729 43.4453 45.6729ZM27.5078 52.2354H18.1328C17.6146 52.2354 17.1953 51.816 17.1953 51.2979C17.1953 50.7797 17.6146 50.3604 18.1328 50.3604H27.5078C28.026 50.3604 28.4453 50.7797 28.4453 51.2979C28.4453 51.816 28.026 52.2354 27.5078 52.2354ZM35.9453 53.1729C34.9097 53.1729 34.0703 52.3334 34.0703 51.2979C34.0703 50.2623 34.9097 49.4229 35.9453 49.4229C36.9809 49.4229 37.8203 50.2623 37.8203 51.2979C37.8203 52.3334 36.9809 53.1729 35.9453 53.1729ZM41.5703 53.1729C40.5347 53.1729 39.6953 52.3334 39.6953 51.2979C39.6953 50.2623 40.5347 49.4229 41.5703 49.4229C42.6059 49.4229 43.4453 50.2623 43.4453 51.2979C43.4453 52.3334 42.6059 53.1729 41.5703 53.1729Z" fill="black"/>
<path d="M43.4453 32.5479H17.1953C15.1243 32.5479 13.4453 34.2267 13.4453 36.2979V40.0479C13.4453 42.1189 15.1243 43.7979 17.1953 43.7979H43.4453C45.5163 43.7979 47.1953 42.1189 47.1953 40.0479V36.2979C47.1953 34.2267 45.5163 32.5479 43.4453 32.5479ZM27.5078 39.1104H18.1328C17.6146 39.1104 17.1953 38.691 17.1953 38.1729C17.1953 37.6547 17.6146 37.2354 18.1328 37.2354H27.5078C28.026 37.2354 28.4453 37.6547 28.4453 38.1729C28.4453 38.691 28.026 39.1104 27.5078 39.1104ZM35.9453 40.0479C34.9097 40.0479 34.0703 39.2084 34.0703 38.1729C34.0703 37.1373 34.9097 36.2979 35.9453 36.2979C36.9809 36.2979 37.8203 37.1373 37.8203 38.1729C37.8203 39.2084 36.9809 40.0479 35.9453 40.0479ZM41.5703 40.0479C40.5347 40.0479 39.6953 39.2084 39.6953 38.1729C39.6953 37.1373 40.5347 36.2979 41.5703 36.2979C42.6059 36.2979 43.4453 37.1373 43.4453 38.1729C43.4453 39.2084 42.6059 40.0479 41.5703 40.0479Z" fill="black"/>
</svg>
