<svg width="67" height="61" viewBox="0 0 67 61" fill="none" xmlns="http://www.w3.org/2000/svg">
<g clip-path="url(#clip0_254_7305)">
<g clip-path="url(#clip1_254_7305)">
<path d="M34.6035 49.0939V42.7787C36.0215 42.8255 37.3773 42.9708 38.6359 43.2076C38.3699 44.0818 38.0617 44.888 37.709 45.6087C36.8453 47.3935 35.766 48.6427 34.6035 49.0939ZM39.6426 36.8103H34.6035V40.8427C36.1809 40.8931 37.6961 41.0619 39.1141 41.3349C39.407 39.9357 39.5898 38.4111 39.6426 36.8103ZM26.7508 43.6435C25.5918 43.9623 24.5418 44.3642 23.6383 44.8259C23.7977 45.0017 23.9641 45.1775 24.1328 45.3474C25.5051 46.7197 27.1727 47.7955 29.0359 48.4763C28.5941 47.8822 28.1887 47.2001 27.823 46.4501C27.4152 45.6064 27.0531 44.663 26.7508 43.6435ZM39.1141 30.3451C37.6961 30.6169 36.1809 30.7904 34.6035 30.8396V34.872H39.6426C39.5898 33.2724 39.407 31.7478 39.1141 30.3451ZM40.9949 41.7732C42.4328 42.1681 43.7289 42.6802 44.8352 43.2779C46.0844 41.4005 46.8742 39.1892 47.0441 36.8103H41.5797C41.5223 38.5599 41.3207 40.231 40.9949 41.7732ZM37.709 26.0701C36.8453 24.29 35.766 23.0408 34.6035 22.5849V28.9037C36.0215 28.8568 37.3773 28.708 38.6359 28.4748C38.3699 27.6017 38.0617 26.7943 37.709 26.0701ZM28.1594 41.3337C29.575 41.0619 31.0926 40.8919 32.6699 40.8416V36.8091H27.6309C27.6836 38.4111 27.8664 39.9357 28.1594 41.3337ZM39.4469 46.4501C39.0848 47.2013 38.6793 47.8822 38.2375 48.4763C40.0973 47.7955 41.7684 46.7185 43.1406 45.3474C43.3105 45.1775 43.4758 45.0017 43.6352 44.8259C42.7281 44.3642 41.6816 43.9623 40.5227 43.6435C40.2203 44.663 39.8582 45.6064 39.4469 46.4501ZM41.5797 34.8732H47.0441C46.8742 32.4919 46.0844 30.283 44.8352 28.4056C43.7289 29.0033 42.434 29.5119 40.9949 29.9103C41.3207 31.4513 41.5223 33.1224 41.5797 34.8732ZM40.5227 28.04C41.6816 27.7177 42.7281 27.3193 43.6352 26.8576C43.4758 26.6783 43.3094 26.506 43.1406 26.3361C41.7684 24.9603 40.0973 23.8845 38.2375 23.2072C38.6793 23.8013 39.0848 24.4798 39.4469 25.2333C39.8582 26.0771 40.2203 27.0205 40.5227 28.04ZM29.5645 45.6099C30.4281 47.3935 31.5039 48.6427 32.6699 49.0951V42.7798C31.2484 42.8267 29.8961 42.972 28.634 43.2087C28.9 44.0818 29.2117 44.888 29.5645 45.6099ZM3.63672 17.2271H63.6367V49.2732C63.6367 52.6552 60.8699 55.422 57.4844 55.422H9.78555C6.40469 55.422 3.63672 52.6552 3.63672 49.2732L3.63672 17.2271ZM18.2594 35.84C18.2594 40.088 19.9797 43.9318 22.7641 46.7162C25.5449 49.497 29.391 51.2173 33.6367 51.2173C37.8824 51.2173 41.725 49.497 44.5094 46.7162C47.2926 43.933 49.0141 40.0892 49.0141 35.84C49.0141 31.5943 47.2938 27.7517 44.5094 24.9673C41.7262 22.1841 37.8824 20.4626 33.6367 20.4626C29.391 20.4626 25.5449 22.183 22.7641 24.9673C19.9809 27.7517 18.2594 31.5943 18.2594 35.84ZM25.6938 36.8103H20.2293C20.3992 39.1892 21.1855 41.4005 22.4383 43.2779C23.541 42.6802 24.8395 42.1681 26.2785 41.7732C25.9527 40.231 25.7512 38.5599 25.6938 36.8103ZM27.6309 34.8732H32.6699V30.8408C31.0926 30.7904 29.5738 30.6181 28.1594 30.3462C27.8664 31.7478 27.6836 33.2724 27.6309 34.8732ZM63.6367 11.0724V15.2912H3.63672V11.0724C3.63672 7.69038 6.40352 4.92358 9.78555 4.92358H57.4844C60.8688 4.92358 63.6367 7.69038 63.6367 11.0724ZM14.5656 10.5908C14.5656 10.0564 14.1332 9.62397 13.5988 9.62397H12.8676C12.3332 9.62397 11.9008 10.0564 11.9008 10.5908C11.9008 11.1251 12.3332 11.5576 12.8676 11.5576H13.5988C14.1344 11.5576 14.5656 11.1251 14.5656 10.5908ZM19.5426 10.5908C19.5426 10.0564 19.1078 9.62397 18.5723 9.62397H17.841C17.3066 9.62397 16.8742 10.0564 16.8742 10.5908C16.8742 11.1251 17.3066 11.5576 17.841 11.5576H18.5723C19.1066 11.5576 19.5426 11.1251 19.5426 10.5908ZM55.3715 10.5908C55.3715 10.0564 54.9391 9.62397 54.4047 9.62397H22.7313C22.1992 9.62397 21.7645 10.0564 21.7645 10.5908C21.7645 11.1251 22.1992 11.5576 22.7313 11.5576H54.4047C54.9402 11.5576 55.3715 11.1251 55.3715 10.5908ZM32.6699 28.9037V22.5849C31.5039 23.0396 30.4281 24.2888 29.5645 26.0701C29.2129 26.7943 28.9 27.6017 28.634 28.4748C29.8961 28.708 31.2484 28.8568 32.6699 28.9037ZM26.2785 29.9103C24.8406 29.5119 23.541 29.0033 22.4383 28.4056C21.1855 30.283 20.3992 32.4919 20.2293 34.8732H25.6938C25.7512 33.1224 25.9527 31.4513 26.2785 29.9103ZM27.823 25.2333C28.1887 24.4798 28.5941 23.8013 29.0359 23.2072C27.1727 23.8845 25.5051 24.9615 24.1328 26.3361C23.9629 26.506 23.7977 26.6783 23.6383 26.8576C24.5418 27.3193 25.5918 27.7177 26.7508 28.04C27.0531 27.0205 27.4152 26.0771 27.823 25.2333Z" fill="black"/>
</g>
</g>
<defs>
<clipPath id="clip0_254_7305">
<rect width="66" height="60" fill="white" transform="translate(0.636719 0.172852)"/>
</clipPath>
<clipPath id="clip1_254_7305">
<rect width="60" height="60" fill="white" transform="translate(3.63672 0.172852)"/>
</clipPath>
</defs>
</svg>
