<svg width="12" height="15" viewBox="0 0 12 15" fill="none" xmlns="http://www.w3.org/2000/svg">
<path d="M2.62549 3.18829C2.55674 3.18829 2.50049 3.24453 2.50049 3.31328V4.06323C2.50049 4.13197 2.55674 4.18822 2.62549 4.18822H8.62549C8.69424 4.18822 8.75049 4.13197 8.75049 4.06323V3.31328C8.75049 3.24453 8.69424 3.18829 8.62549 3.18829H2.62549ZM5.50049 5.43813H2.62549C2.55674 5.43813 2.50049 5.49438 2.50049 5.56312V6.31307C2.50049 6.38182 2.55674 6.43806 2.62549 6.43806H5.50049C5.56924 6.43806 5.62549 6.38182 5.62549 6.31307V5.56312C5.62549 5.49438 5.56924 5.43813 5.50049 5.43813ZM4.75049 12.5939H1.25049V1.59465H10.0005V6.5943C10.0005 6.66305 10.0567 6.71929 10.1255 6.71929H11.0005C11.0692 6.71929 11.1255 6.66305 11.1255 6.5943V0.969692C11.1255 0.693149 10.9021 0.469727 10.6255 0.469727H0.625488C0.348926 0.469727 0.125488 0.693149 0.125488 0.969692V13.2188C0.125488 13.4954 0.348926 13.7188 0.625488 13.7188H4.75049C4.81924 13.7188 4.87549 13.6626 4.87549 13.5938V12.7189C4.87549 12.6501 4.81924 12.5939 4.75049 12.5939ZM11.6255 11.219H9.37549V10.6471C10.0989 10.4315 10.6255 9.76283 10.6255 8.96914C10.6255 8.00202 9.84268 7.21926 8.87549 7.21926C7.9083 7.21926 7.12549 8.00202 7.12549 8.96914C7.12549 9.76127 7.65205 10.4315 8.37549 10.6471V11.219H6.12549C5.98799 11.219 5.87549 11.3315 5.87549 11.469V13.8438C5.87549 13.9813 5.98799 14.0938 6.12549 14.0938H11.6255C11.763 14.0938 11.8755 13.9813 11.8755 13.8438V11.469C11.8755 11.3315 11.763 11.219 11.6255 11.219ZM8.09424 8.96914C8.09424 8.53792 8.44424 8.18794 8.87549 8.18794C9.30674 8.18794 9.65674 8.53792 9.65674 8.96914C9.65674 9.40036 9.30674 9.75033 8.87549 9.75033C8.44424 9.75033 8.09424 9.40036 8.09424 8.96914ZM10.9067 13.1251H6.84424V12.1877H10.9067V13.1251Z" fill="black" fill-opacity="0.85"/>
</svg>
