<svg width="12" height="15" viewBox="0 0 12 15" fill="none" xmlns="http://www.w3.org/2000/svg">
<path d="M10.9995 0.28418H0.999512C0.722949 0.28418 0.499512 0.507602 0.499512 0.784145V13.7832C0.499512 14.0598 0.722949 14.2832 0.999512 14.2832H10.9995C11.2761 14.2832 11.4995 14.0598 11.4995 13.7832V0.784145C11.4995 0.507602 11.2761 0.28418 10.9995 0.28418ZM10.3745 13.1583H1.62451V10.0179H3.1542C3.33545 10.5303 3.6542 10.9913 4.07764 11.3412C4.6167 11.7865 5.29951 12.0334 5.99951 12.0334C6.69951 12.0334 7.38233 11.7881 7.92139 11.3412C8.34483 10.9913 8.66358 10.5303 8.84482 10.0179H10.3745V9.03357H8.05576L7.97451 9.41948C7.78701 10.3538 6.95576 11.0334 5.99951 11.0334C5.04326 11.0334 4.21201 10.3538 4.02295 9.41948L3.9417 9.03357H1.62451V1.4091H10.3745V13.1583ZM2.99951 4.612H8.99951C9.06826 4.612 9.12451 4.55576 9.12451 4.48701V3.73707C9.12451 3.66832 9.06826 3.61207 8.99951 3.61207H2.99951C2.93076 3.61207 2.87451 3.66832 2.87451 3.73707V4.48701C2.87451 4.55576 2.93076 4.612 2.99951 4.612ZM2.99951 7.11183H8.99951C9.06826 7.11183 9.12451 7.05559 9.12451 6.98684V6.23689C9.12451 6.16815 9.06826 6.1119 8.99951 6.1119H2.99951C2.93076 6.1119 2.87451 6.16815 2.87451 6.23689V6.98684C2.87451 7.05559 2.93076 7.11183 2.99951 7.11183Z" fill="black" fill-opacity="0.85"/>
</svg>
