<svg width="12" height="15" viewBox="0 0 12 15" fill="none" xmlns="http://www.w3.org/2000/svg">
<path d="M6.0002 4.35266C7.12348 4.35266 8.0341 3.44211 8.0341 2.31891C8.0341 1.19571 7.12348 0.285156 6.0002 0.285156C4.87744 0.286436 3.96759 1.19623 3.96631 2.31891C3.96631 3.44211 4.87689 4.35266 6.0002 4.35266Z" fill="black"/>
<path d="M9.778 7.17149C9.77665 7.16904 9.77537 7.17014 9.77413 7.16765C9.67902 6.98154 9.56444 6.80601 9.43231 6.64404C8.84473 5.93627 7.86454 5.67194 6.93389 5.97087C6.3262 6.16249 5.67427 6.16249 5.06658 5.97087C4.13659 5.66862 3.15568 5.93333 2.56591 6.64545C2.56494 6.6467 2.56394 6.64743 2.5629 6.64864C2.43026 6.80248 2.31695 6.97199 2.22558 7.1534C2.22434 7.15589 2.22306 7.15655 2.22174 7.159C2.16781 7.25912 2.10166 7.38888 2.05322 8.53045H9.94638C9.89795 7.38885 9.83187 7.2715 9.778 7.17149Z" fill="black"/>
<path d="M10.9788 11.8781C11.1311 11.8908 11.2648 11.7776 11.2775 11.6253C11.2803 11.5916 11.277 11.5577 11.2675 11.5253C11.0212 10.6748 10.29 10.1482 9.35692 10.1396C8.50547 10.1396 7.81533 10.5715 7.51026 11.3325H4.39761C4.03089 10.7098 3.34394 10.2949 2.63613 10.2949C1.66051 10.2949 0.950174 10.8494 0.73571 11.7839C0.702048 11.9321 0.79487 12.0795 0.943047 12.1132C0.970551 12.1195 0.998817 12.1214 1.02691 12.1191L2.05443 12.0388C2.14611 12.2265 2.14621 12.446 2.05474 12.6338L1.02141 12.5477C0.86908 12.535 0.73533 12.6482 0.722633 12.8005C0.71983 12.8342 0.723221 12.8681 0.732631 12.9005C0.980238 13.755 1.71517 14.2843 2.65032 14.2843C3.50177 14.2843 4.19187 13.8232 4.49697 13.0967H7.59533C7.91016 13.6156 8.53636 14.1221 9.3308 14.122C9.33716 14.122 9.34367 14.1229 9.35 14.1228C10.3174 14.1228 11.0327 13.5725 11.2632 12.6501C11.3002 12.502 11.2101 12.3519 11.062 12.315C11.033 12.3077 11.0031 12.3052 10.9733 12.3076L9.94575 12.3875C9.85404 12.1997 9.85393 11.9801 9.94544 11.7921L10.9788 11.8781Z" fill="black"/>
</svg>
