<svg width="14" height="14" viewBox="0 0 14 14" fill="none" xmlns="http://www.w3.org/2000/svg">
<path d="M13.5625 6.19103V8.37838C13.5625 8.9816 13.072 9.47205 12.4688 9.47205H12.171C11.7527 11.9508 9.59637 13.8467 7 13.8467C6.75818 13.8467 6.5625 13.6511 6.5625 13.4093C6.5625 13.1675 6.75818 12.9718 7 12.9718C9.41223 12.9718 11.375 11.0092 11.375 8.59711V5.97229C11.375 3.56023 9.41223 1.5976 7 1.5976C4.58777 1.5976 2.625 3.56023 2.625 5.97229V9.03458C2.625 9.27638 2.42932 9.47205 2.1875 9.47205H1.53125C0.927979 9.47205 0.4375 8.9816 0.4375 8.37838V6.19103C0.4375 5.5878 0.927979 5.09735 1.53125 5.09735H1.82904C2.24731 2.61864 4.40363 0.722656 7 0.722656C9.59637 0.722656 11.7527 2.61864 12.171 5.09735H12.4688C13.072 5.09735 13.5625 5.5878 13.5625 6.19103ZM7 2.47253C5.07013 2.47253 3.5 4.04256 3.5 5.97229V8.15964C3.5 10.0894 5.07013 11.6594 7 11.6594C8.92987 11.6594 10.5 10.0894 10.5 8.15964V5.97229C10.5 4.04256 8.92987 2.47253 7 2.47253Z" fill="black"/>
</svg>
