<svg width="12" height="15" viewBox="0 0 12 15" fill="none" xmlns="http://www.w3.org/2000/svg">
<path d="M8.75049 4.15697V3.40702C8.75049 3.33828 8.69424 3.28203 8.62549 3.28203H2.62549C2.55674 3.28203 2.50049 3.33828 2.50049 3.40702V4.15697C2.50049 4.22572 2.55674 4.28196 2.62549 4.28196H8.62549C8.69424 4.28196 8.75049 4.22572 8.75049 4.15697ZM2.62549 5.53188C2.55674 5.53188 2.50049 5.58812 2.50049 5.65687V6.40682C2.50049 6.47556 2.55674 6.53181 2.62549 6.53181H5.50049C5.56924 6.53181 5.62549 6.47556 5.62549 6.40682V5.65687C5.62549 5.58812 5.56924 5.53188 5.50049 5.53188H2.62549ZM8.50049 7.34425C6.63643 7.34425 5.12549 8.85508 5.12549 10.719C5.12549 12.5829 6.63643 14.0938 8.50049 14.0938C10.3646 14.0938 11.8755 12.5829 11.8755 10.719C11.8755 8.85508 10.3646 7.34425 8.50049 7.34425ZM10.1802 12.3986C9.73174 12.847 9.13486 13.0939 8.50049 13.0939C7.86611 13.0939 7.26924 12.847 6.8208 12.3986C6.37236 11.9502 6.12549 11.3533 6.12549 10.719C6.12549 10.0847 6.37236 9.48785 6.8208 9.03944C7.26924 8.59104 7.86611 8.34418 8.50049 8.34418C9.13486 8.34418 9.73174 8.59104 10.1802 9.03944C10.6286 9.48785 10.8755 10.0847 10.8755 10.719C10.8755 11.3533 10.6286 11.9502 10.1802 12.3986ZM8.00049 11.9689C8.00049 12.1015 8.05317 12.2287 8.14694 12.3225C8.2407 12.4162 8.36788 12.4689 8.50049 12.4689C8.6331 12.4689 8.76027 12.4162 8.85404 12.3225C8.94781 12.2287 9.00049 12.1015 9.00049 11.9689C9.00049 11.8363 8.94781 11.7092 8.85404 11.6154C8.76027 11.5216 8.6331 11.469 8.50049 11.469C8.36788 11.469 8.2407 11.5216 8.14694 11.6154C8.05317 11.7092 8.00049 11.8363 8.00049 11.9689ZM8.18799 10.969H8.81299C8.88174 10.969 8.93799 10.9128 8.93799 10.844V9.09413C8.93799 9.02538 8.88174 8.96914 8.81299 8.96914H8.18799C8.11924 8.96914 8.06299 9.02538 8.06299 9.09413V10.844C8.06299 10.9128 8.11924 10.969 8.18799 10.969ZM4.87549 12.5939H1.25049V1.59465H10.0005V6.96928C10.0005 7.03802 10.0567 7.09427 10.1255 7.09427H11.0005C11.0692 7.09427 11.1255 7.03802 11.1255 6.96928V0.969692C11.1255 0.693149 10.9021 0.469727 10.6255 0.469727H0.625488C0.348926 0.469727 0.125488 0.693149 0.125488 0.969692V13.2188C0.125488 13.4954 0.348926 13.7188 0.625488 13.7188H4.87549C4.94424 13.7188 5.00049 13.6626 5.00049 13.5938V12.7189C5.00049 12.6501 4.94424 12.5939 4.87549 12.5939Z" fill="black" fill-opacity="0.85"/>
</svg>
