<svg width="12" height="15" viewBox="0 0 12 15" fill="none" xmlns="http://www.w3.org/2000/svg">
<path d="M8.75049 3.40605C8.75049 3.3373 8.69424 3.28105 8.62549 3.28105H2.62549C2.55674 3.28105 2.50049 3.3373 2.50049 3.40605V4.15599C2.50049 4.22474 2.55674 4.28099 2.62549 4.28099H8.62549C8.69424 4.28099 8.75049 4.22474 8.75049 4.15599V3.40605ZM8.62549 5.5309H2.62549C2.55674 5.5309 2.50049 5.58715 2.50049 5.65589V6.40584C2.50049 6.47458 2.55674 6.53083 2.62549 6.53083H8.62549C8.69424 6.53083 8.75049 6.47458 8.75049 6.40584V5.65589C8.75049 5.58715 8.69424 5.5309 8.62549 5.5309ZM5.50049 7.78074H2.62549C2.55674 7.78074 2.50049 7.83699 2.50049 7.90573V8.65568C2.50049 8.72443 2.55674 8.78067 2.62549 8.78067H5.50049C5.56924 8.78067 5.62549 8.72443 5.62549 8.65568V7.90573C5.62549 7.83699 5.56924 7.78074 5.50049 7.78074ZM4.75049 12.5929H1.25049V1.59367H10.0005V6.9683C10.0005 7.03704 10.0567 7.09329 10.1255 7.09329H11.0005C11.0692 7.09329 11.1255 7.03704 11.1255 6.9683V0.968715C11.1255 0.692172 10.9021 0.46875 10.6255 0.46875H0.625488C0.348926 0.46875 0.125488 0.692172 0.125488 0.968715V13.2179C0.125488 13.4944 0.348926 13.7178 0.625488 13.7178H4.75049C4.81924 13.7178 4.87549 13.6616 4.87549 13.5928V12.7179C4.87549 12.6492 4.81924 12.5929 4.75049 12.5929ZM10.3255 11.4305C10.7786 11.0196 11.063 10.4259 11.063 9.76498C11.063 8.52288 10.0552 7.51514 8.81299 7.51514C7.5708 7.51514 6.56299 8.52288 6.56299 9.76498C6.56299 10.4259 6.84736 11.0196 7.30049 11.4305C6.40986 11.9383 5.79736 12.8788 5.75049 13.9631C5.74736 14.0334 5.80518 14.0928 5.87549 14.0928H6.62705C6.69268 14.0928 6.74736 14.0412 6.75205 13.9741C6.81299 12.8929 7.71455 12.0304 8.81299 12.0304C9.91143 12.0304 10.813 12.8929 10.8739 13.9741C10.8771 14.0397 10.9317 14.0928 10.9989 14.0928H11.7505C11.8224 14.0928 11.8786 14.0334 11.8755 13.9631C11.8302 12.8773 11.2161 11.9383 10.3255 11.4305ZM8.81299 8.51507C9.50361 8.51507 10.063 9.0744 10.063 9.76498C10.063 10.4556 9.50361 11.0149 8.81299 11.0149C8.12236 11.0149 7.56299 10.4556 7.56299 9.76498C7.56299 9.0744 8.12236 8.51507 8.81299 8.51507Z" fill="black" fill-opacity="0.85"/>
</svg>
