<svg width="12" height="15" viewBox="0 0 12 15" fill="none" xmlns="http://www.w3.org/2000/svg">
<path d="M11.3531 3.58994L7.99063 0.227441C7.89688 0.133691 7.77031 0.0805664 7.6375 0.0805664H1C0.723438 0.0805664 0.5 0.304004 0.5 0.580566V13.5806C0.5 13.8571 0.723438 14.0806 1 14.0806H11C11.2766 14.0806 11.5 13.8571 11.5 13.5806V3.94463C11.5 3.81182 11.4469 3.68369 11.3531 3.58994ZM10.3469 4.17432H7.40625V1.23369L10.3469 4.17432ZM10.375 12.9556H1.625V1.20557H6.34375V4.58057C6.34375 4.75461 6.41289 4.92153 6.53596 5.04461C6.65903 5.16768 6.82595 5.23682 7 5.23682H10.375V12.9556ZM6.5 6.45557C6.5 6.38682 6.44375 6.33057 6.375 6.33057H5.625C5.55625 6.33057 5.5 6.38682 5.5 6.45557V8.14307H3.8125C3.74375 8.14307 3.6875 8.19932 3.6875 8.26807V9.01807C3.6875 9.08682 3.74375 9.14307 3.8125 9.14307H5.5V10.8306C5.5 10.8993 5.55625 10.9556 5.625 10.9556H6.375C6.44375 10.9556 6.5 10.8993 6.5 10.8306V9.14307H8.1875C8.25625 9.14307 8.3125 9.08682 8.3125 9.01807V8.26807C8.3125 8.19932 8.25625 8.14307 8.1875 8.14307H6.5V6.45557Z" fill="white"/>
</svg>
