<svg width="16" height="16" viewBox="0 0 16 16" fill="none" xmlns="http://www.w3.org/2000/svg">
<path d="M3.85742 12.3683H5.28599C5.36457 12.3683 5.42885 12.304 5.42885 12.2254V3.9397C5.42885 3.86113 5.36457 3.79684 5.28599 3.79684H3.85742C3.77885 3.79684 3.71457 3.86113 3.71457 3.9397V12.2254C3.71457 12.304 3.77885 12.3683 3.85742 12.3683ZM7.28599 7.36827H8.71457C8.79314 7.36827 8.85742 7.30398 8.85742 7.22541V3.9397C8.85742 3.86113 8.79314 3.79684 8.71457 3.79684H7.28599C7.20742 3.79684 7.14314 3.86113 7.14314 3.9397V7.22541C7.14314 7.30398 7.20742 7.36827 7.28599 7.36827ZM10.7146 8.65398H12.1431C12.2217 8.65398 12.286 8.5897 12.286 8.51113V3.9397C12.286 3.86113 12.2217 3.79684 12.1431 3.79684H10.7146C10.636 3.79684 10.5717 3.86113 10.5717 3.9397V8.51113C10.5717 8.5897 10.636 8.65398 10.7146 8.65398ZM14.5717 0.939697H1.42885C1.11278 0.939697 0.857422 1.19505 0.857422 1.51113V14.654C0.857422 14.9701 1.11278 15.2254 1.42885 15.2254H14.5717C14.8878 15.2254 15.1431 14.9701 15.1431 14.654V1.51113C15.1431 1.19505 14.8878 0.939697 14.5717 0.939697ZM13.8574 13.9397H2.14314V2.22541H13.8574V13.9397Z" fill="black" fill-opacity="0.85"/>
</svg>
