<svg width="12" height="15" viewBox="0 0 12 15" fill="none" xmlns="http://www.w3.org/2000/svg">
<path d="M8.75049 4.15599V3.40605C8.75049 3.3373 8.69424 3.28105 8.62549 3.28105H2.62549C2.55674 3.28105 2.50049 3.3373 2.50049 3.40605V4.15599C2.50049 4.22474 2.55674 4.28099 2.62549 4.28099H8.62549C8.69424 4.28099 8.75049 4.22474 8.75049 4.15599ZM2.62549 5.5309C2.55674 5.5309 2.50049 5.58715 2.50049 5.65589V6.40584C2.50049 6.47458 2.55674 6.53083 2.62549 6.53083H5.50049C5.56924 6.53083 5.62549 6.47458 5.62549 6.40584V5.65589C5.62549 5.58715 5.56924 5.5309 5.50049 5.5309H2.62549ZM8.50049 7.34327C6.63643 7.34327 5.12549 8.85411 5.12549 10.718C5.12549 12.582 6.63643 14.0928 8.50049 14.0928C10.3646 14.0928 11.8755 12.582 11.8755 10.718C11.8755 8.85411 10.3646 7.34327 8.50049 7.34327ZM10.1802 12.3976C9.73174 12.846 9.13486 13.0929 8.50049 13.0929C7.86611 13.0929 7.26924 12.846 6.8208 12.3976C6.37236 11.9492 6.12549 11.3524 6.12549 10.718C6.12549 10.0837 6.37236 9.48687 6.8208 9.03847C7.26924 8.59006 7.86611 8.3432 8.50049 8.3432C9.13486 8.3432 9.73174 8.59006 10.1802 9.03847C10.6286 9.48687 10.8755 10.0837 10.8755 10.718C10.8755 11.3524 10.6286 11.9492 10.1802 12.3976ZM9.89111 9.53062H9.19893C9.1583 9.53062 9.1208 9.54937 9.09736 9.58218L8.10518 10.954L7.74424 10.4556C7.73268 10.4395 7.71742 10.4264 7.69974 10.4174C7.68207 10.4084 7.6625 10.4038 7.64268 10.404H6.95361C6.85205 10.404 6.79268 10.5196 6.85205 10.6024L8.00518 12.1976C8.05518 12.2664 8.15674 12.2664 8.20674 12.1976L9.99111 9.72905C10.0521 9.64624 9.99268 9.53062 9.89111 9.53062ZM4.87549 12.5929H1.25049V1.59367H10.0005V6.9683C10.0005 7.03704 10.0567 7.09329 10.1255 7.09329H11.0005C11.0692 7.09329 11.1255 7.03704 11.1255 6.9683V0.968715C11.1255 0.692172 10.9021 0.46875 10.6255 0.46875H0.625488C0.348926 0.46875 0.125488 0.692172 0.125488 0.968715V13.2179C0.125488 13.4944 0.348926 13.7178 0.625488 13.7178H4.87549C4.94424 13.7178 5.00049 13.6616 5.00049 13.5928V12.7179C5.00049 12.6492 4.94424 12.5929 4.87549 12.5929Z" fill="black" fill-opacity="0.85"/>
</svg>
