<svg width="16" height="14" viewBox="0 0 16 14" fill="none" xmlns="http://www.w3.org/2000/svg">
<path d="M15.4286 0.791504H0.571429C0.255357 0.791504 0 1.04686 0 1.36293V12.7915C0 13.1076 0.255357 13.3629 0.571429 13.3629H15.4286C15.7446 13.3629 16 13.1076 16 12.7915V1.36293C16 1.04686 15.7446 0.791504 15.4286 0.791504ZM14.7143 4.50579H10.9286V2.07722H14.7143V4.50579ZM14.7143 8.50579H10.9286V5.64865H14.7143V8.50579ZM6.21429 5.64865H9.78572V8.50579H6.21429V5.64865ZM9.78572 4.50579H6.21429V2.07722H9.78572V4.50579ZM1.28571 5.64865H5.07143V8.50579H1.28571V5.64865ZM1.28571 2.07722H5.07143V4.50579H1.28571V2.07722ZM1.28571 9.64865H5.07143V12.0772H1.28571V9.64865ZM6.21429 9.64865H9.78572V12.0772H6.21429V9.64865ZM14.7143 12.0772H10.9286V9.64865H14.7143V12.0772Z" fill="black" fill-opacity="0.85"/>
</svg>
