<svg width="12" height="12" viewBox="0 0 12 12" fill="none" xmlns="http://www.w3.org/2000/svg">
<path d="M11.875 8.90861H11.0313V6.72126H6.53125V5.28386H10.25C10.3875 5.28386 10.5 5.17137 10.5 5.03388V0.909162C10.5 0.771672 10.3875 0.65918 10.25 0.65918H1.75C1.6125 0.65918 1.5 0.771672 1.5 0.909162V5.03388C1.5 5.17137 1.6125 5.28386 1.75 5.28386H5.46875V6.72126H0.96875V8.90861H0.125C0.05625 8.90861 0 8.96485 0 9.0336V11.7834C0 11.8522 0.05625 11.9084 0.125 11.9084H2.875C2.94375 11.9084 3 11.8522 3 11.7834V9.0336C3 8.96485 2.94375 8.90861 2.875 8.90861H2.03125V7.78369H5.46875V8.90861H4.625C4.55625 8.90861 4.5 8.96485 4.5 9.0336V11.7834C4.5 11.8522 4.55625 11.9084 4.625 11.9084H7.375C7.44375 11.9084 7.5 11.8522 7.5 11.7834V9.0336C7.5 8.96485 7.44375 8.90861 7.375 8.90861H6.53125V7.78369H9.96875V8.90861H9.125C9.05625 8.90861 9 8.96485 9 9.0336V11.7834C9 11.8522 9.05625 11.9084 9.125 11.9084H11.875C11.9438 11.9084 12 11.8522 12 11.7834V9.0336C12 8.96485 11.9438 8.90861 11.875 8.90861ZM2 10.8663C2 10.8897 1.98125 10.9085 1.95781 10.9085H1.04063C1.01719 10.9085 0.998438 10.8897 0.998438 10.8663V9.94916C0.998438 9.92572 1.01719 9.90698 1.04063 9.90698H1.95781C1.98125 9.90698 2 9.92572 2 9.94916V10.8663ZM6.5 10.8663C6.5 10.8897 6.48125 10.9085 6.45781 10.9085H5.54063C5.51719 10.9085 5.49844 10.8897 5.49844 10.8663V9.94916C5.49844 9.92572 5.51719 9.90698 5.54063 9.90698H6.45781C6.48125 9.90698 6.5 9.92572 6.5 9.94916V10.8663ZM2.5 4.28393V1.65911H9.5V4.28393H2.5ZM11 10.8663C11 10.8897 10.9813 10.9085 10.9578 10.9085H10.0406C10.0172 10.9085 9.99844 10.8897 9.99844 10.8663V9.94916C9.99844 9.92572 10.0172 9.90698 10.0406 9.90698H10.9578C10.9813 9.90698 11 9.92572 11 9.94916V10.8663ZM3.625 2.97152C3.625 3.13727 3.69085 3.29623 3.80806 3.41343C3.92527 3.53063 4.08424 3.59648 4.25 3.59648C4.41576 3.59648 4.57473 3.53063 4.69194 3.41343C4.80915 3.29623 4.875 3.13727 4.875 2.97152C4.875 2.80577 4.80915 2.64681 4.69194 2.52961C4.57473 2.41241 4.41576 2.34656 4.25 2.34656C4.08424 2.34656 3.92527 2.41241 3.80806 2.52961C3.69085 2.64681 3.625 2.80577 3.625 2.97152Z" fill="black" fill-opacity="0.85"/>
</svg>
