<svg width="14" height="13" viewBox="0 0 14 13" fill="none" xmlns="http://www.w3.org/2000/svg">
<path d="M9.5625 7.11377C8.76875 7.11377 8.125 7.75747 8.125 8.55117C8.125 9.34486 8.76875 9.98857 9.5625 9.98857C10.3563 9.98857 11 9.34486 11 8.55117C11 7.75747 10.3563 7.11377 9.5625 7.11377ZM9.5625 9.08238C9.26875 9.08238 9.03125 8.8449 9.03125 8.55117C9.03125 8.25744 9.26875 8.01996 9.5625 8.01996C9.85625 8.01996 10.0938 8.25744 10.0938 8.55117C10.0938 8.8449 9.85625 9.08238 9.5625 9.08238ZM12.75 0.911072H9.4375C9.4375 0.428293 9.04531 0.0361328 8.5625 0.0361328H7.3125C6.82969 0.0361328 6.4375 0.428293 6.4375 0.911072H3.125C2.84844 0.911072 2.625 1.13449 2.625 1.41104V4.53582H1.25C0.973438 4.53582 0.75 4.75924 0.75 5.03579V12.0353C0.75 12.3118 0.973438 12.5353 1.25 12.5353H6.5C6.77656 12.5353 7 12.3118 7 12.0353V11.7853H12.75C13.0266 11.7853 13.25 11.5619 13.25 11.2854V1.41104C13.25 1.13449 13.0266 0.911072 12.75 0.911072ZM6.3125 1.911H7.4375V1.03606H8.4375V1.911H9.5625V2.66095H6.3125V1.911ZM6 11.5353H1.75V7.91059H6V11.5353ZM6 6.91066H1.75V5.53575H6V6.91066ZM12.125 10.6604H7V5.03579C7 4.75924 6.77656 4.53582 6.5 4.53582H3.75V2.03599H5.3125V3.66088H10.5625V2.03599H12.125V10.6604ZM10 4.66081V6.16071C10 6.22945 10.0563 6.2857 10.125 6.2857H10.875C10.9438 6.2857 11 6.22945 11 6.16071V4.66081C11 4.59207 10.9438 4.53582 10.875 4.53582H10.125C10.0563 4.53582 10 4.59207 10 4.66081ZM8.25 6.2857H9C9.06875 6.2857 9.125 6.22945 9.125 6.16071V5.28577C9.125 5.21702 9.06875 5.16078 9 5.16078H8.25C8.18125 5.16078 8.125 5.21702 8.125 5.28577V6.16071C8.125 6.22945 8.18125 6.2857 8.25 6.2857Z" fill="black" fill-opacity="0.85"/>
</svg>
