<svg width="14" height="14" viewBox="0 0 14 14" fill="none" xmlns="http://www.w3.org/2000/svg">
<path d="M11.8125 5.89502H11.1875C11.1188 5.89502 11.0625 5.95127 11.0625 6.02002V6.64502C11.0625 6.71377 11.1188 6.77002 11.1875 6.77002H11.8125C11.8813 6.77002 11.9375 6.71377 11.9375 6.64502V6.02002C11.9375 5.95127 11.8813 5.89502 11.8125 5.89502ZM12.3125 4.27002H10.4375V0.95752C10.4375 0.88877 10.3813 0.83252 10.3125 0.83252H3.6875C3.61875 0.83252 3.5625 0.88877 3.5625 0.95752V4.27002H1.6875C0.996875 4.27002 0.4375 4.8294 0.4375 5.52002V10.645C0.4375 10.9216 0.660938 11.145 0.9375 11.145H3.5625V13.2075C3.5625 13.2763 3.61875 13.3325 3.6875 13.3325H10.3125C10.3813 13.3325 10.4375 13.2763 10.4375 13.2075V11.145H13.0625C13.3391 11.145 13.5625 10.9216 13.5625 10.645V5.52002C13.5625 4.8294 13.0031 4.27002 12.3125 4.27002ZM4.625 1.89502H9.375V4.27002H4.625V1.89502ZM9.375 12.27H4.625V7.95752H9.375V12.27ZM12.5 10.0825H10.4375V6.89502H3.5625V10.0825H1.5V5.52002C1.5 5.41689 1.58438 5.33252 1.6875 5.33252H12.3125C12.4156 5.33252 12.5 5.41689 12.5 5.52002V10.0825Z" fill="black" fill-opacity="0.85"/>
</svg>
