<svg width="12" height="15" viewBox="0 0 12 15" fill="none" xmlns="http://www.w3.org/2000/svg">
<path d="M4.99735 8.48389L4.88329 7.97612C4.88016 7.96049 4.87391 7.94643 4.8661 7.93393C4.85706 7.92019 4.84537 7.90838 4.83171 7.89919C4.81806 7.89001 4.80272 7.88363 4.78658 7.88043C4.77044 7.87723 4.75382 7.87728 4.7377 7.88056C4.72158 7.88384 4.70627 7.8903 4.69266 7.89956L4.3286 8.14329V5.70596C4.3286 5.63722 4.27235 5.58097 4.2036 5.58097H2.93797C2.86922 5.58097 2.81297 5.63722 2.81297 5.70596V6.26842C2.81297 6.33717 2.86922 6.39341 2.93797 6.39341H3.5161V9.39946C3.51602 9.42254 3.52234 9.44519 3.53435 9.4649C3.54636 9.48461 3.5636 9.50061 3.58415 9.51113C3.6047 9.52165 3.62776 9.52627 3.65077 9.52448C3.67379 9.52269 3.69586 9.51457 3.71454 9.50101L4.94891 8.61357C4.98954 8.58389 5.00829 8.53389 4.99735 8.48389ZM4.11141 5.09975L4.11454 5.10288C4.16454 5.14975 4.24423 5.14662 4.2911 5.09507L4.66766 4.68572C4.68958 4.66157 4.70133 4.62989 4.70046 4.59728C4.69958 4.56468 4.68615 4.53367 4.66297 4.51073L3.82391 3.69672C3.80034 3.67403 3.76881 3.66148 3.73609 3.66177C3.70337 3.66207 3.67207 3.67518 3.64891 3.69829L3.26297 4.0842C3.21454 4.13263 3.21454 4.21231 3.26454 4.26075L4.11141 5.09975Z" fill="black" fill-opacity="0.85"/>
<path d="M11.5453 1.93581L6.23594 0.12656C6.17188 0.104687 6.08594 0.09375 6 0.09375C5.91406 0.09375 5.82813 0.104687 5.76406 0.12656L0.454688 1.93581C0.325 1.97956 0.21875 2.12955 0.21875 2.26704V9.80401C0.21875 9.9415 0.307813 10.1227 0.415625 10.2087L5.80156 14.4053C5.85625 14.4474 5.92656 14.4693 5.99844 14.4693C6.07031 14.4693 6.14219 14.4474 6.19531 14.4053L11.5813 10.2087C11.6891 10.1243 11.7781 9.94307 11.7781 9.80401V2.26704C11.7813 2.12955 11.675 1.98112 11.5453 1.93581ZM10.6563 9.50403L6 13.1319L1.34375 9.50403V2.82325L6 1.23586L10.6563 2.82325V9.50403Z" fill="black" fill-opacity="0.85"/>
<path d="M5.06238 3.92351V4.48597C5.06238 4.55471 5.11863 4.61096 5.18738 4.61096H6.87488V8.89191H6.28113V5.61089C6.28113 5.54215 6.22488 5.4859 6.15613 5.4859H5.60926C5.54051 5.4859 5.48426 5.54215 5.48426 5.61089V8.89191H4.99988C4.93113 8.89191 4.87488 8.94816 4.87488 9.01691V9.59499C4.87488 9.66374 4.93113 9.71998 4.99988 9.71998H8.81238C8.88113 9.71998 8.93738 9.66374 8.93738 9.59499V9.01691C8.93738 8.94816 8.88113 8.89191 8.81238 8.89191H7.68738V6.9858H8.59363C8.66238 6.9858 8.71863 6.92955 8.71863 6.8608V6.31397C8.71863 6.24522 8.66238 6.18898 8.59363 6.18898H7.68738V4.61096H8.67176C8.74051 4.61096 8.79676 4.55471 8.79676 4.48597V3.92351C8.79676 3.85476 8.74051 3.79852 8.67176 3.79852H5.18738C5.11863 3.79852 5.06238 3.85476 5.06238 3.92351Z" fill="black" fill-opacity="0.85"/>
</svg>
