<svg width="14" height="13" viewBox="0 0 14 13" fill="none" xmlns="http://www.w3.org/2000/svg">
<path d="M3.9375 0.160156H1.3125C1.07089 0.160156 0.875 0.355821 0.875 0.597626V3.22244C0.875 3.46425 1.07089 3.65991 1.3125 3.65991H3.9375C4.17911 3.65991 4.375 3.46425 4.375 3.22244V0.597626C4.375 0.355821 4.17911 0.160156 3.9375 0.160156Z" fill="black"/>
<path d="M12.6875 0.160156H10.0625C9.82089 0.160156 9.625 0.355821 9.625 0.597626V3.22244C9.625 3.46425 9.82089 3.65991 10.0625 3.65991H12.6875C12.9291 3.65991 13.125 3.46425 13.125 3.22244V0.597626C13.125 0.355821 12.9291 0.160156 12.6875 0.160156Z" fill="black"/>
<path d="M8.3125 0.160156H5.6875C5.44589 0.160156 5.25 0.355821 5.25 0.597626V3.22244C5.25 3.46425 5.44589 3.65991 5.6875 3.65991H8.3125C8.55411 3.65991 8.75 3.46425 8.75 3.22244V0.597626C8.75 0.355821 8.55411 0.160156 8.3125 0.160156Z" fill="black"/>
<path d="M10.9375 4.09766V4.53513H7.4375V4.09766H6.5625V4.53513H3.0625V4.09766H2.1875V4.9726C2.1875 5.2144 2.38339 5.41007 2.625 5.41007H6.5625V6.285H7.4375V5.41007H11.375C11.6166 5.41007 11.8125 5.2144 11.8125 4.9726V4.09766H10.9375Z" fill="black"/>
<path d="M10.0625 9.78418H3.9375C3.45426 9.78418 3.0625 10.1759 3.0625 10.6591V11.5341C3.0625 12.0173 3.45426 12.409 3.9375 12.409H10.0625C10.5457 12.409 10.9375 12.0173 10.9375 11.5341V10.6591C10.9375 10.1759 10.5457 9.78418 10.0625 9.78418ZM6.34375 11.3153H4.15625C4.03534 11.3153 3.9375 11.2175 3.9375 11.0966C3.9375 10.9757 4.03534 10.8779 4.15625 10.8779H6.34375C6.46466 10.8779 6.5625 10.9757 6.5625 11.0966C6.5625 11.2175 6.46466 11.3153 6.34375 11.3153ZM8.3125 11.5341C8.07087 11.5341 7.875 11.3382 7.875 11.0966C7.875 10.855 8.07087 10.6591 8.3125 10.6591C8.55413 10.6591 8.75 10.855 8.75 11.0966C8.75 11.3382 8.55413 11.5341 8.3125 11.5341ZM9.625 11.5341C9.38337 11.5341 9.1875 11.3382 9.1875 11.0966C9.1875 10.855 9.38337 10.6591 9.625 10.6591C9.86663 10.6591 10.0625 10.855 10.0625 11.0966C10.0625 11.3382 9.86663 11.5341 9.625 11.5341Z" fill="black"/>
<path d="M10.0625 6.72266H3.9375C3.45426 6.72266 3.0625 7.11436 3.0625 7.5976V8.47253C3.0625 8.95574 3.45426 9.34747 3.9375 9.34747H10.0625C10.5457 9.34747 10.9375 8.95574 10.9375 8.47253V7.5976C10.9375 7.11436 10.5457 6.72266 10.0625 6.72266ZM6.34375 8.2538H4.15625C4.03534 8.2538 3.9375 8.15597 3.9375 8.03507C3.9375 7.91416 4.03534 7.81633 4.15625 7.81633H6.34375C6.46466 7.81633 6.5625 7.91416 6.5625 8.03507C6.5625 8.15597 6.46466 8.2538 6.34375 8.2538ZM8.3125 8.47253C8.07087 8.47253 7.875 8.27668 7.875 8.03507C7.875 7.79345 8.07087 7.5976 8.3125 7.5976C8.55413 7.5976 8.75 7.79345 8.75 8.03507C8.75 8.27668 8.55413 8.47253 8.3125 8.47253ZM9.625 8.47253C9.38337 8.47253 9.1875 8.27668 9.1875 8.03507C9.1875 7.79345 9.38337 7.5976 9.625 7.5976C9.86663 7.5976 10.0625 7.79345 10.0625 8.03507C10.0625 8.27668 9.86663 8.47253 9.625 8.47253Z" fill="black"/>
</svg>
