<svg width="14" height="14" viewBox="0 0 14 14" fill="none" xmlns="http://www.w3.org/2000/svg">
<path d="M12.5417 5.53451H12.25V5.24286C12.25 4.43908 11.5955 3.78463 10.7917 3.78463H9.33333V2.03475H11.0833C11.4053 2.03475 11.6667 1.77343 11.6667 1.45146C11.6667 1.12948 11.4053 0.868164 11.0833 0.868164H6.41667C6.09467 0.868164 5.83333 1.12948 5.83333 1.45146C5.83333 1.77343 6.09467 2.03475 6.41667 2.03475H8.16667V3.78463H6.67158C6.15067 3.78463 5.66067 4.01445 5.32758 4.41458L4.39367 5.53451H4.375C3.57117 5.53451 2.91667 6.18896 2.91667 6.99274V7.86768H1.16667V6.1178C1.16667 5.79582 0.905333 5.53451 0.583333 5.53451C0.261333 5.53451 0 5.79582 0 6.1178V10.7841C0 11.1061 0.261333 11.3674 0.583333 11.3674C0.905333 11.3674 1.16667 11.1061 1.16667 10.7841V9.03426H2.91667V10.3006C2.91667 10.7678 3.09867 11.2076 3.42942 11.5383L4.49575 12.6046C4.82592 12.9353 5.26575 13.1173 5.73358 13.1173H10.7917C11.4963 13.1173 12.0849 12.6157 12.2208 11.9507H12.5417C13.3455 11.9507 14 11.2963 14 10.4925V6.99274C14 6.18896 13.3455 5.53451 12.5417 5.53451Z" fill="black"/>
</svg>
