<svg width="12" height="13" viewBox="0 0 12 13" fill="none" xmlns="http://www.w3.org/2000/svg">
<path d="M11.4136 10.2138C11.1189 9.51563 10.6911 8.8815 10.1542 8.34669C9.61898 7.81034 8.98491 7.3827 8.28705 7.08741C8.2808 7.08428 8.27455 7.08272 8.2683 7.07959C9.24174 6.37652 9.87455 5.23128 9.87455 3.93919C9.87455 1.79871 8.14018 0.0644531 5.99955 0.0644531C3.85893 0.0644531 2.12455 1.79871 2.12455 3.93919C2.12455 5.23128 2.75736 6.37652 3.7308 7.08116C3.72455 7.08428 3.7183 7.08584 3.71205 7.08897C3.01205 7.38426 2.38393 7.80767 1.84486 8.34826C1.30847 8.88348 0.880808 9.5175 0.585488 10.2153C0.295367 10.8985 0.138898 11.6309 0.124551 12.373C0.124134 12.3897 0.127059 12.4062 0.133154 12.4218C0.139249 12.4373 0.14839 12.4514 0.160039 12.4634C0.171688 12.4753 0.185609 12.4848 0.200982 12.4913C0.216355 12.4978 0.232869 12.5011 0.249551 12.5011H1.18705C1.2558 12.5011 1.31049 12.4464 1.31205 12.3792C1.3433 11.1731 1.82768 10.0435 2.68393 9.18726C3.56986 8.30138 4.74643 7.81392 5.99955 7.81392C7.25268 7.81392 8.42924 8.30138 9.31518 9.18726C10.1714 10.0435 10.6558 11.1731 10.6871 12.3792C10.6886 12.448 10.7433 12.5011 10.8121 12.5011H11.7496C11.7662 12.5011 11.7827 12.4978 11.7981 12.4913C11.8135 12.4848 11.8274 12.4753 11.8391 12.4634C11.8507 12.4514 11.8599 12.4373 11.8659 12.4218C11.872 12.4062 11.875 12.3897 11.8746 12.373C11.8589 11.6262 11.7042 10.8996 11.4136 10.2138ZM5.99955 6.6265C5.28236 6.6265 4.60736 6.34683 4.09955 5.83905C3.59174 5.33128 3.31205 4.65632 3.31205 3.93919C3.31205 3.22205 3.59174 2.54709 4.09955 2.03932C4.60736 1.53154 5.28236 1.25187 5.99955 1.25187C6.71674 1.25187 7.39174 1.53154 7.89955 2.03932C8.40736 2.54709 8.68705 3.22205 8.68705 3.93919C8.68705 4.65632 8.40736 5.33128 7.89955 5.83905C7.39174 6.34683 6.71674 6.6265 5.99955 6.6265Z" fill="black" fill-opacity="0.85"/>
</svg>
