<svg width="12" height="15" viewBox="0 0 12 15" fill="none" xmlns="http://www.w3.org/2000/svg">
<path d="M11.3526 3.79585L7.99014 0.432021C7.89639 0.338278 7.76826 0.285156 7.63545 0.285156H0.999512C0.722949 0.285156 0.499512 0.508578 0.499512 0.785122V13.7842C0.499512 14.0608 0.722949 14.2842 0.999512 14.2842H10.9995C11.2761 14.2842 11.4995 14.0608 11.4995 13.7842V4.14895C11.4995 4.01615 11.4464 3.88959 11.3526 3.79585ZM10.3464 4.37862H7.40576V1.4382L10.3464 4.37862ZM10.3745 13.1593H1.62451V1.41008H6.34326V4.78484C6.34326 4.95888 6.4124 5.12579 6.53547 5.24885C6.65854 5.37191 6.82546 5.44105 6.99951 5.44105H10.3745V13.1593ZM4.28076 7.86276C4.28076 7.94712 4.34951 8.01118 4.43389 8.01118H4.94014C5.02451 8.01118 5.09326 7.94556 5.09326 7.86432C5.09326 7.42372 5.49639 7.05812 5.99951 7.05812C6.50264 7.05812 6.90576 7.42372 6.90576 7.86276C6.90576 8.25804 6.57764 8.60021 6.13545 8.65801C5.83389 8.70176 5.59639 8.97518 5.59326 9.28453V9.7845C5.59326 9.87043 5.66357 9.94074 5.74951 9.94074H6.24951C6.33545 9.94074 6.40576 9.87043 6.40576 9.7845V9.59389C6.40576 9.50014 6.46826 9.41421 6.55733 9.38609C7.2542 9.1611 7.7292 8.5424 7.71826 7.84088C7.70576 6.97375 6.94951 6.26599 6.02295 6.25349C5.06357 6.24256 4.28076 6.96594 4.28076 7.86276ZM5.49951 10.9094C5.49951 11.042 5.55219 11.1692 5.64596 11.2629C5.73973 11.3567 5.8669 11.4094 5.99951 11.4094C6.13212 11.4094 6.2593 11.3567 6.35307 11.2629C6.44683 11.1692 6.49951 11.042 6.49951 10.9094C6.49951 10.7768 6.44683 10.6497 6.35307 10.5559C6.2593 10.4621 6.13212 10.4095 5.99951 10.4095C5.8669 10.4095 5.73973 10.4621 5.64596 10.5559C5.55219 10.6497 5.49951 10.7768 5.49951 10.9094Z" fill="black" fill-opacity="0.85"/>
</svg>
