<svg width="14" height="15" viewBox="0 0 14 15" fill="none" xmlns="http://www.w3.org/2000/svg">
<path d="M12.4136 11.2138C12.1189 10.5156 11.6911 9.8815 11.1542 9.34669C10.619 8.81034 9.98491 8.3827 9.28705 8.08741C9.2808 8.08428 9.27455 8.08272 9.2683 8.07959C10.2417 7.37652 10.8746 6.23128 10.8746 4.93919C10.8746 2.79871 9.14018 1.06445 6.99955 1.06445C4.85893 1.06445 3.12455 2.79871 3.12455 4.93919C3.12455 6.23128 3.75736 7.37652 4.7308 8.08116C4.72455 8.08428 4.7183 8.08584 4.71205 8.08897C4.01205 8.38426 3.38393 8.80767 2.84486 9.34826C2.30847 9.88348 1.88081 10.5175 1.58549 11.2153C1.29537 11.8985 1.1389 12.6309 1.12455 13.373C1.12413 13.3897 1.12706 13.4062 1.13315 13.4218C1.13925 13.4373 1.14839 13.4514 1.16004 13.4634C1.17169 13.4753 1.18561 13.4848 1.20098 13.4913C1.21636 13.4978 1.23287 13.5011 1.24955 13.5011H2.18705C2.2558 13.5011 2.31049 13.4464 2.31205 13.3792C2.3433 12.1731 2.82768 11.0435 3.68393 10.1873C4.56986 9.30138 5.74643 8.81392 6.99955 8.81392C8.25268 8.81392 9.42924 9.30138 10.3152 10.1873C11.1714 11.0435 11.6558 12.1731 11.6871 13.3792C11.6886 13.448 11.7433 13.5011 11.8121 13.5011H12.7496C12.7662 13.5011 12.7827 13.4978 12.7981 13.4913C12.8135 13.4848 12.8274 13.4753 12.8391 13.4634C12.8507 13.4514 12.8599 13.4373 12.8659 13.4218C12.872 13.4062 12.875 13.3897 12.8746 13.373C12.8589 12.6262 12.7042 11.8996 12.4136 11.2138ZM6.99955 7.6265C6.28236 7.6265 5.60736 7.34683 5.09955 6.83905C4.59174 6.33128 4.31205 5.65632 4.31205 4.93919C4.31205 4.22205 4.59174 3.54709 5.09955 3.03932C5.60736 2.53154 6.28236 2.25187 6.99955 2.25187C7.71674 2.25187 8.39174 2.53154 8.89955 3.03932C9.40736 3.54709 9.68705 4.22205 9.68705 4.93919C9.68705 5.65632 9.40736 6.33128 8.89955 6.83905C8.39174 7.34683 7.71674 7.6265 6.99955 7.6265Z" fill="black" fill-opacity="0.85"/>
</svg>
