<svg width="12" height="15" viewBox="0 0 12 15" fill="none" xmlns="http://www.w3.org/2000/svg">
<path d="M11.3526 3.79429L7.99014 0.432021C7.89639 0.338278 7.76982 0.285156 7.63701 0.285156H0.999512C0.722949 0.285156 0.499512 0.508578 0.499512 0.785122V13.7842C0.499512 14.0608 0.722949 14.2842 0.999512 14.2842H10.9995C11.2761 14.2842 11.4995 14.0608 11.4995 13.7842V4.14895C11.4995 4.01615 11.4464 3.88803 11.3526 3.79429ZM10.3464 4.37862H7.40576V1.4382L10.3464 4.37862ZM10.3745 13.1593H1.62451V1.41008H6.34326V4.78484C6.34326 4.95888 6.4124 5.12579 6.53547 5.24885C6.65854 5.37191 6.82546 5.44105 6.99951 5.44105H10.3745V13.1593ZM5.87451 8.94081H2.99951C2.93076 8.94081 2.87451 8.99705 2.87451 9.0658V9.81575C2.87451 9.88449 2.93076 9.94074 2.99951 9.94074H5.87451C5.94326 9.94074 5.99951 9.88449 5.99951 9.81575V9.0658C5.99951 8.99705 5.94326 8.94081 5.87451 8.94081ZM2.87451 6.94094V7.69089C2.87451 7.75964 2.93076 7.81588 2.99951 7.81588H8.99951C9.06826 7.81588 9.12451 7.75964 9.12451 7.69089V6.94094C9.12451 6.8722 9.06826 6.81595 8.99951 6.81595H2.99951C2.93076 6.81595 2.87451 6.8722 2.87451 6.94094Z" fill="black" fill-opacity="0.85"/>
</svg>
