<svg width="14" height="13" viewBox="0 0 14 13" fill="none" xmlns="http://www.w3.org/2000/svg">
<path d="M13.7651 4.72321H9.7651C9.69635 4.72321 9.6401 4.77945 9.6401 4.8482V5.59815C9.6401 5.66689 9.69635 5.72314 9.7651 5.72314H13.7651C13.8339 5.72314 13.8901 5.66689 13.8901 5.59815V4.8482C13.8901 4.77945 13.8339 4.72321 13.7651 4.72321ZM11.6714 6.84806H9.7651C9.69635 6.84806 9.6401 6.9043 9.6401 6.97305V7.723C9.6401 7.79174 9.69635 7.84799 9.7651 7.84799H11.6714C11.7401 7.84799 11.7964 7.79174 11.7964 7.723V6.97305C11.7964 6.9043 11.7401 6.84806 11.6714 6.84806ZM6.45729 3.32487H5.78073C5.68385 3.32487 5.60573 3.40299 5.60573 3.49985V7.37458C5.60573 7.43083 5.63229 7.48239 5.6776 7.5152L8.00417 9.21196C8.08229 9.2682 8.19167 9.25258 8.24792 9.17446L8.64948 8.62606V8.6245C8.70573 8.54638 8.68854 8.43701 8.61042 8.38076L6.63073 6.94961V3.49985C6.63229 3.40299 6.5526 3.32487 6.45729 3.32487Z" fill="black" fill-opacity="0.85"/>
<path d="M11.575 8.81121H10.6719C10.5844 8.81121 10.5016 8.85651 10.4547 8.93151C10.256 9.24651 10.0228 9.53839 9.75939 9.80176C9.30593 10.2567 8.76835 10.6191 8.17657 10.8689C7.56251 11.1282 6.91095 11.2595 6.23907 11.2595C5.56564 11.2595 4.91407 11.1282 4.30157 10.8689C3.70939 10.6189 3.17657 10.2595 2.71876 9.80176C2.26095 9.34398 1.90157 8.81121 1.65157 8.21906C1.3922 7.6066 1.26095 6.95508 1.26095 6.28169C1.26095 5.6083 1.3922 4.95835 1.65157 4.34433C1.90157 3.75218 2.26095 3.21941 2.71876 2.76163C3.17657 2.30385 3.70939 1.94449 4.30157 1.69451C4.91407 1.43515 5.5672 1.30391 6.23907 1.30391C6.91251 1.30391 7.56407 1.43515 8.17657 1.69451C8.76876 1.94449 9.30157 2.30385 9.75939 2.76163C10.0228 3.02499 10.256 3.31688 10.4547 3.63188C10.5016 3.70687 10.5844 3.75218 10.6719 3.75218H11.575C11.6828 3.75218 11.7516 3.63969 11.7031 3.54438C10.6844 1.51796 8.61876 0.200865 6.31251 0.174305C2.93595 0.13212 0.131261 2.89599 0.125011 6.2692C0.118761 9.64865 2.85782 12.3906 6.23751 12.3906C8.57345 12.3906 10.6734 11.0689 11.7031 9.019C11.7141 8.99714 11.7193 8.97283 11.7183 8.94839C11.7172 8.92395 11.7099 8.90019 11.6971 8.87936C11.6842 8.85854 11.6663 8.84134 11.6449 8.82941C11.6235 8.81748 11.5995 8.81122 11.575 8.81121Z" fill="black" fill-opacity="0.85"/>
</svg>
