<svg width="14" height="15" viewBox="0 0 14 15" fill="none" xmlns="http://www.w3.org/2000/svg">
<path d="M7 0.28418C3.13437 0.28418 0 3.41834 0 7.28369C0 11.1491 3.13437 14.2832 7 14.2832C10.8656 14.2832 14 11.1491 14 7.28369C14 3.41834 10.8656 0.28418 7 0.28418ZM7 13.0958C3.79063 13.0958 1.1875 10.4928 1.1875 7.28369C1.1875 4.07454 3.79063 1.4716 7 1.4716C10.2094 1.4716 12.8125 4.07454 12.8125 7.28369C12.8125 10.4928 10.2094 13.0958 7 13.0958Z" fill="black" fill-opacity="0.85"/>
<path d="M9.72981 9.26022L7.50168 7.64939V3.78247C7.50168 3.71373 7.44543 3.65748 7.37668 3.65748H6.62512C6.55637 3.65748 6.50012 3.71373 6.50012 3.78247V8.0853C6.50012 8.12592 6.51887 8.16342 6.55168 8.18685L9.13606 10.0711C9.19231 10.1117 9.27043 10.0992 9.31106 10.0445L9.75793 9.43521C9.79856 9.3774 9.78606 9.29928 9.72981 9.26022Z" fill="black" fill-opacity="0.85"/>
</svg>
