<svg width="60" height="61" viewBox="0 0 60 61" fill="none" xmlns="http://www.w3.org/2000/svg">
<path d="M47.7227 36.5869C47.1954 36.3232 46.5728 36.3232 46.0455 36.5869C46.0455 36.5869 38.4292 40.4192 38.3691 40.4585L46.8841 44.7159L55.3991 40.4585C55.339 40.4192 47.7227 36.5869 47.7227 36.5869Z" fill="black"/>
<path d="M37.5098 51.3892C37.5098 52.0997 37.9108 52.7488 38.5461 53.0665L45.9473 57.0142V46.3438L37.5098 42.125V51.3892Z" fill="black"/>
<path d="M47.8223 46.3438V57.0142L55.2234 53.0665C55.8588 52.7488 56.2598 52.0997 56.2598 51.3892V42.125L47.8223 46.3438Z" fill="black"/>
<path d="M25.2227 36.5869C24.6954 36.3232 24.0728 36.3232 23.5455 36.5869C23.5455 36.5869 15.9292 40.4192 15.8691 40.4585L24.3841 44.7159L32.8991 40.4585C32.839 40.4192 25.2227 36.5869 25.2227 36.5869Z" fill="black"/>
<path d="M15.0098 51.3892C15.0098 52.0997 15.4108 52.7488 16.0461 53.0665L23.4473 57.0142V46.3438L15.0098 42.125V51.3892Z" fill="black"/>
<path d="M25.3223 57.0142L32.7234 53.0665C33.3588 52.7488 33.7598 52.0997 33.7598 51.3892V42.125L25.3223 46.3438V57.0142Z" fill="black"/>
<path d="M36.4727 17.8369C35.9454 17.5732 35.3228 17.5732 34.7955 17.8369C34.7955 17.8369 27.1792 21.6692 27.1191 21.7085L35.6341 25.9659L44.1491 21.7085C44.089 21.6692 36.4727 17.8369 36.4727 17.8369Z" fill="black"/>
<path d="M26.2598 32.6392C26.2598 33.3497 26.6608 33.9988 27.2961 34.3165L34.6973 38.2642V27.5938L26.2598 23.375V32.6392Z" fill="black"/>
<path d="M13.1348 51.3892V40.0031C13.1348 40.0031 14.9933 38.7915 22.7029 34.9124C23.2257 34.6506 23.7402 34.5142 24.3848 34.5142V21.2531C24.3848 21.2531 26.2433 20.0415 33.9539 16.1624C34.4757 15.9006 35.0562 15.7642 35.6348 15.7642C36.2134 15.7642 36.7938 15.9006 37.312 16.1597C38.0837 16.5479 38.759 16.8876 39.3848 17.2026V6.38916C39.3848 5.3537 38.5452 4.51416 37.5098 4.51416H30.7917L29.0439 11.5033C28.9395 11.9208 28.5651 12.2137 28.1348 12.2137H15.0098C14.5795 12.2137 14.205 11.9208 14.1006 11.5033L12.3528 4.51416H5.63477C4.5993 4.51416 3.75977 5.3537 3.75977 6.38916V55.1392C3.75977 56.1746 4.5993 57.0142 5.63477 57.0142H19.4629L15.1636 54.7208C13.9294 54.1037 13.1348 52.8192 13.1348 51.3892ZM11.2598 17.6392C13.3279 17.6392 15.0098 19.321 15.0098 21.3892C15.0098 23.4573 13.3279 25.1392 11.2598 25.1392C9.19159 25.1392 7.50977 23.4573 7.50977 21.3892C7.50977 19.321 9.19159 17.6392 11.2598 17.6392ZM7.50977 32.6392C7.50977 30.571 9.19159 28.8892 11.2598 28.8892C13.3279 28.8892 15.0098 30.571 15.0098 32.6392C15.0098 34.7073 13.3279 36.3892 11.2598 36.3892C9.19159 36.3892 7.50977 34.7073 7.50977 32.6392Z" fill="black"/>
<path d="M45.0098 32.6392V23.375L36.5723 27.5938V38.2642L43.9734 34.3165C44.6088 33.9988 45.0098 33.3497 45.0098 32.6392Z" fill="black"/>
<path d="M27.4018 10.3387L28.8583 4.51416H14.2852L15.7416 10.3387H27.4018Z" fill="black"/>
</svg>
