<svg width="60" height="61" viewBox="0 0 60 61" fill="none" xmlns="http://www.w3.org/2000/svg">
<g clip-path="url(#clip0_100_5777)">
<path d="M30.0098 13.6548C33.5694 13.6548 36.4551 10.7691 36.4551 7.20947C36.4551 3.64982 33.5694 0.76416 30.0098 0.76416C26.4501 0.76416 23.5645 3.64982 23.5645 7.20947C23.5645 10.7691 26.4501 13.6548 30.0098 13.6548Z" fill="black"/>
<path d="M18.4191 49.3926C16.5998 51.3402 14.0118 52.5612 11.1426 52.5612C8.27336 52.5612 5.68539 51.3402 3.86605 49.3926C1.54035 50.9754 0.00976562 53.6436 0.00976562 56.6628V59.0065C0.00976562 59.9773 0.796797 60.7643 1.76758 60.7643H20.5176C21.4884 60.7643 22.2754 59.9773 22.2754 59.0065V56.6628C22.2754 53.6436 20.7448 50.9754 18.4191 49.3926Z" fill="black"/>
<path d="M56.1535 49.3926C54.3341 51.3402 51.7462 52.5612 48.877 52.5612C46.0077 52.5612 43.4198 51.3402 41.6004 49.3926C39.2747 50.9754 37.7441 53.6436 37.7441 56.6628V59.0065C37.7441 59.9773 38.5312 60.7643 39.502 60.7643H58.252C59.2227 60.7643 60.0098 59.9773 60.0098 59.0065V56.6628C60.0098 53.6436 58.4792 50.9754 56.1535 49.3926Z" fill="black"/>
<path d="M42.5162 43.6374C43.0138 46.6998 45.6761 49.0456 48.877 49.0456C52.4309 49.0456 55.3223 46.1542 55.3223 42.6003C55.3223 39.0463 52.4309 36.155 48.877 36.155C46.2137 36.155 43.9226 37.7787 42.9415 40.0882L35.278 37.7083C35.1936 35.5056 33.7523 33.6456 31.7676 32.9417V25.3737H39.3848C40.3555 25.3737 41.1426 24.5867 41.1426 23.6159V21.2721C41.1426 18.2529 39.612 15.5848 37.2863 14.002C35.467 15.9496 32.879 17.1706 30.0098 17.1706C27.1405 17.1706 24.5526 15.9496 22.7332 14.002C20.4075 15.5848 18.877 18.2529 18.877 21.2721V23.6159C18.877 24.5867 19.664 25.3737 20.6348 25.3737H28.252V32.9417C26.2673 33.6456 24.8261 35.5055 24.7415 37.7083L17.078 40.0882C16.0969 37.7787 13.8058 36.155 11.1426 36.155C7.58863 36.155 4.69727 39.0463 4.69727 42.6003C4.69727 46.1542 7.58863 49.0456 11.1426 49.0456C14.3434 49.0456 17.0057 46.6998 17.5033 43.6374L25.7849 41.0655C26.7474 42.352 28.283 43.1862 30.0098 43.1862C31.7365 43.1862 33.2721 42.352 34.2346 41.0654L42.5162 43.6374Z" fill="black"/>
</g>
<defs>
<clipPath id="clip0_100_5777">
<rect width="60" height="60" fill="white" transform="translate(0.00976562 0.76416)"/>
</clipPath>
</defs>
</svg>
