<svg width="60" height="61" viewBox="0 0 60 61" fill="none" xmlns="http://www.w3.org/2000/svg">
<g clip-path="url(#clip0_100_5787)">
<path d="M49.1716 20.737L57.0277 17.4829C55.8141 14.9892 54.2646 12.6883 52.4393 10.6377L46.4297 16.6474C47.4912 17.8967 48.4138 19.2676 49.1716 20.737Z" fill="black"/>
<path d="M8.53976 32.3369H0.0371094C0.917377 47.4953 13.0929 59.6708 28.2513 60.5511V52.0485C17.7727 51.1974 9.39082 42.8156 8.53976 32.3369Z" fill="black"/>
<path d="M31.7695 52.0484V60.551C38.7259 60.1471 45.0535 57.3644 49.9504 53.0058L43.9408 46.9961C40.6015 49.8337 36.3896 51.6731 31.7695 52.0484Z" fill="black"/>
<path d="M30.0105 9.03468C35.3181 9.03468 40.1824 10.9651 43.9412 14.1591L49.9508 8.14937C44.644 3.42595 37.6572 0.55127 30.0105 0.55127C14.0447 0.55127 0.951157 13.0776 0.0371094 28.8184H8.53987C9.43797 17.7592 18.7241 9.03468 30.0105 9.03468Z" fill="black"/>
<path d="M51.4819 28.8186H59.9846C59.8211 26.0024 59.2677 23.2895 58.3777 20.7324L50.5215 23.9867C51.0183 25.5294 51.346 27.1472 51.4819 28.8186Z" fill="black"/>
<path d="M46.4297 44.5081L52.4393 50.5178C56.7978 45.6209 59.5805 39.2933 59.9845 32.3369H51.4818C51.1067 36.957 49.2672 41.1688 46.4297 44.5081Z" fill="black"/>
<path d="M48.0348 30.5775C48.0348 20.6389 39.9492 12.5532 30.0105 12.5532C20.0719 12.5532 11.9863 20.6389 11.9863 30.5775C11.9863 40.5162 20.072 48.6019 30.0106 48.6019C39.9493 48.6019 48.0348 40.5162 48.0348 30.5775ZM23.8565 40.2504H20.3378V36.7317H23.8565V40.2504ZM23.8565 32.3369H20.3378V28.8182H23.8565V32.3369ZM23.8565 24.4234H20.3378V20.9047H23.8565V24.4234ZM39.9024 40.2504H28.0322V36.7317H39.9024V40.2504ZM39.9024 32.3369H28.0322V28.8182H39.9024V32.3369ZM39.9024 24.4234H28.0322V20.9047H39.9024V24.4234Z" fill="black"/>
</g>
<defs>
<clipPath id="clip0_100_5787">
<rect width="60" height="60" fill="white" transform="translate(0.00976562 0.55127)"/>
</clipPath>
</defs>
</svg>
