<svg width="60" height="61" viewBox="0 0 60 61" fill="none" xmlns="http://www.w3.org/2000/svg">
<path d="M38.3691 11.9077L46.8841 16.1651L55.3991 11.9077C55.339 11.8684 55.2879 11.8187 55.2227 11.7861L47.7227 8.03613C47.1954 7.77246 46.5728 7.77246 46.0455 8.03613L38.5455 11.7861C38.4804 11.8187 38.4292 11.8684 38.3691 11.9077Z" fill="black"/>
<path d="M37.5098 22.8384C37.5098 23.5489 37.9108 24.198 38.5461 24.5157L45.9473 28.4634V17.793L37.5098 13.5742V22.8384Z" fill="black"/>
<path d="M47.8223 17.793V28.4634L55.2234 24.5157C55.8588 24.198 56.2598 23.5489 56.2598 22.8384V13.5742L47.8223 17.793Z" fill="black"/>
<path d="M55.2227 36.1611L47.7227 32.4111C47.1954 32.1475 46.5728 32.1475 46.0455 32.4111L38.5455 36.1611C38.4804 36.1937 38.4292 36.2434 38.3691 36.2827L46.8841 40.5401L55.3991 36.2827C55.339 36.2434 55.2879 36.1937 55.2227 36.1611Z" fill="black"/>
<path d="M37.5098 47.2134C37.5098 47.9239 37.9108 48.573 38.5461 48.8907L45.9473 52.8384V42.168L37.5098 37.9492V47.2134Z" fill="black"/>
<path d="M47.8223 52.8384L55.2234 48.8907C55.8588 48.573 56.2598 47.9239 56.2598 47.2134V37.9492L47.8223 42.168V52.8384Z" fill="black"/>
<path d="M35.6348 47.2134V37.8384C35.6348 36.4102 36.4276 35.1248 37.7057 34.4857L41.2598 32.7082V27.969L37.7075 26.1929C36.4276 25.552 35.6348 24.2666 35.6348 22.8384V13.4634C35.6348 12.0352 36.4276 10.7498 37.7057 10.1107L41.2598 8.33322V5.96338C41.2598 4.927 40.4211 4.08838 39.3848 4.08838H5.63477C4.59839 4.08838 3.75977 4.927 3.75977 5.96338V54.7134C3.75977 55.7498 4.59839 56.5884 5.63477 56.5884H39.3848C40.4211 56.5884 41.2598 55.7498 41.2598 54.7134V52.344L37.7075 50.5679C36.4276 49.927 35.6348 48.6416 35.6348 47.2134ZM14.7351 43.1887L10.9851 46.9387C10.802 47.1218 10.5621 47.2134 10.3223 47.2134C10.0824 47.2134 9.84253 47.1218 9.65942 46.9387L7.78442 45.0637C7.41821 44.6975 7.41821 44.1042 7.78442 43.738C8.15063 43.3718 8.7439 43.3718 9.11011 43.738L10.3223 44.9502L13.4094 41.863C13.7756 41.4968 14.3689 41.4968 14.7351 41.863C15.1013 42.2292 15.1013 42.8225 14.7351 43.1887ZM14.7351 33.8137L10.9851 37.5637C10.802 37.7468 10.5621 37.8384 10.3223 37.8384C10.0824 37.8384 9.84253 37.7468 9.65942 37.5637L7.78442 35.6887C7.41821 35.3225 7.41821 34.7292 7.78442 34.363C8.15063 33.9968 8.7439 33.9968 9.11011 34.363L10.3223 35.5752L13.4094 32.488C13.7756 32.1218 14.3689 32.1218 14.7351 32.488C15.1013 32.8542 15.1013 33.4475 14.7351 33.8137ZM14.7351 24.4387L10.9851 28.1887C10.802 28.3718 10.5621 28.4634 10.3223 28.4634C10.0824 28.4634 9.84253 28.3718 9.65942 28.1887L7.78442 26.3137C7.41821 25.9475 7.41821 25.3542 7.78442 24.988C8.15063 24.6218 8.7439 24.6218 9.11011 24.988L10.3223 26.2002L13.4094 23.113C13.7756 22.7468 14.3689 22.7468 14.7351 23.113C15.1013 23.4792 15.1013 24.0725 14.7351 24.4387ZM14.7351 15.0637L10.9851 18.8137C10.802 18.9968 10.5621 19.0884 10.3223 19.0884C10.0824 19.0884 9.84253 18.9968 9.65942 18.8137L7.78442 16.9387C7.41821 16.5725 7.41821 15.9792 7.78442 15.613C8.15063 15.2468 8.7439 15.2468 9.11011 15.613L10.3223 16.8252L13.4094 13.738C13.7756 13.3718 14.3689 13.3718 14.7351 13.738C15.1013 14.1042 15.1013 14.6975 14.7351 15.0637ZM32.8223 47.2134H17.8223C17.3041 47.2134 16.8848 46.7941 16.8848 46.2759C16.8848 45.7577 17.3041 45.3384 17.8223 45.3384H32.8223C33.3405 45.3384 33.7598 45.7577 33.7598 46.2759C33.7598 46.7941 33.3405 47.2134 32.8223 47.2134ZM32.8223 37.8384H17.8223C17.3041 37.8384 16.8848 37.4191 16.8848 36.9009C16.8848 36.3827 17.3041 35.9634 17.8223 35.9634H32.8223C33.3405 35.9634 33.7598 36.3827 33.7598 36.9009C33.7598 37.4191 33.3405 37.8384 32.8223 37.8384ZM32.8223 28.4634H17.8223C17.3041 28.4634 16.8848 28.0441 16.8848 27.5259C16.8848 27.0077 17.3041 26.5884 17.8223 26.5884H32.8223C33.3405 26.5884 33.7598 27.0077 33.7598 27.5259C33.7598 28.0441 33.3405 28.4634 32.8223 28.4634ZM32.8223 19.0884H17.8223C17.3041 19.0884 16.8848 18.6691 16.8848 18.1509C16.8848 17.6327 17.3041 17.2134 17.8223 17.2134H32.8223C33.3405 17.2134 33.7598 17.6327 33.7598 18.1509C33.7598 18.6691 33.3405 19.0884 32.8223 19.0884Z" fill="black"/>
</svg>
